<?xml version="1.0" encoding="utf-8"?>
<!-- Generator: Adobe Illustrator 15.0.0, SVG Export Plug-In  -->
<!DOCTYPE svg PUBLIC "-//W3C//DTD SVG 1.1//EN" "http://www.w3.org/Graphics/SVG/1.1/DTD/svg11.dtd" [
	<!ENTITY ns_flows "http://ns.adobe.com/Flows/1.0/">
]>
<svg version="1.1"
	 xmlns="http://www.w3.org/2000/svg" xmlns:xlink="http://www.w3.org/1999/xlink" xmlns:a="http://ns.adobe.com/AdobeSVGViewerExtensions/3.0/"
	 x="0px" y="0px" width="300px" height="200px" viewBox="-1.5 -68.49 300 200"
	 overflow="visible" enable-background="new -1.5 -68.49 300 200" xml:space="preserve">
<defs>
</defs>
<path id="campagnolo_1_" fill="#BEBDBD" d="M295.023,23.478c-7.739,5.605-15.92,5.888-15.908,5.843
	c3.135-11.92-4.4-9.575-8.024-8.597c-8.785,2.375-13.582,12.916-15.48,14.863c-3.258,3.337-4.184,1.05-3.181-1.233
	c2.705-6.173,7.872-15.183,8.784-15.243c2.137-0.144,15.058-3.729,20.561-12.869c2.802-4.654-1.565-6.791-5.793-5.129
	c-11.979,4.712-20.086,16.525-20.134,16.525c-5.937-0.096-12.726-1.662-12.726-8.832c0-8.501,17.475-8.073,17.475-8.073
	c-0.047,0-19.438-2.644-20.418,8.785c-0.571,6.648,7.34,10.257,13.769,10.257c0,0-2.373,3.276-4.082,5.557
	c-0.511,0.678-0.618,0.901-1.283,1.661c-0.029,0.036-2.853,0.492-2.849,0.476c1.901-9.878-6.488-8.066-10.494-5.698
	c-4.178,2.468-7.218,4.226-13.391,13.865c-1.263,1.969-6.584,3.556-4.748-0.048c2.611-5.129,11.254-13.534,6.647-15.432
	c-2.335-0.963-7.074,1.044-9.688,1.661c0,0,0.666-1.71,0.666-1.756c0,0-7.003-0.088-7.028-0.048
	c-2.23,3.419-3.562,5.602-7.218,10.398c-3.057,4.008-5.815,6.378-10.351,7.74c-0.949,0.286,11.967-18.139,12.013-18.188h-6.696
	c-0.047,0-1.28,1.377-1.28,1.377c-2.044-1.471-5.211-1.865-7.361-1.14c-8.595,2.897-11.776,10.731-18.233,16.241
	c-1.431,1.22-5.6,2.266-3.229-1.663c1.805-2.992,3.323-3.798,10.066-14.815h-6.173c-0.047,0-1.387,1.312-1.426,1.283
	c-4.652-3.609-9.512-0.653-13.104,2.041c-5.508,4.131-6.363,7.741-12.441,13.488c-1.394,1.315-6.501,2.531-1.14-4.894
	c1.235-1.71,8.073-9.734,4.986-11.492c-2.715-1.545-8.879,0.856-10.209,1.426c-0.18,0.076,0.427-1.236,0.665-1.853
	c0.017-0.044-6.837-0.046-6.933,0.143c-0.021,0.043-6.528,9.551-11.586,15.48c-1.377,1.615-3.04,2.231-4.131,1.994
	c-2.092-0.455-0.522-2.232,2.611-7.265c1.073-1.722,4.559-6.031,4.701-8.216c0.122-1.848-1.651-2.258-4.701-2.137
	c-2.374,0.097-5.65,1.331-7.787,2.708c-0.734,0.472,0-1.331-0.618-2.044c-0.55-0.634-1.621-0.832-2.279-0.854
	c-2.802-0.094-4.559,0.611-6.506,1.521c-1.033,0.482-2.305,1.281-2.089,0.806c0.238-0.522,0.333-1.473,0.618-2.137
	c0,0-6.904-0.085-6.933-0.046c-1.946,2.469-6.695,11.301-12.726,15.859c-2.438,1.842-6.886,3.323-3.324-1.662
	c4.755-6.657,5.555-7.408,9.829-14.151l-6.927,0.096c-0.225,0.257-1.292,1.466-1.335,1.425c-1.045-0.997-2.279-2.422-5.889-1.662
	c-7.681,1.617-13.761,10.34-15.67,12.631c-0.475,0.569-6.876,5.922-11.016,3.989c-5.781-2.7,4.084-15.744,4.369-15.766
	c6.885-0.521,10.48-1.632,16.62-4.368c7.455-3.325,18.258-10.814,15.005-14.53c-2.66-3.041-11.396-1.996-18.52,1.708
	c-1.083,0.564-2.087,1.085-3.229,1.805C50.474,10.105,42.73,19.28,41.879,19.537c-4.084,1.235-28.258,0.553-34.475-1.52
	c-0.285-0.095-4.338,2.023-7.218,3.039c-3.229,1.141,36.528,1.432,39.983,0.856c0.569-0.096-5.651,5.982-6.743,14.341
	c-0.617,4.723,1.99,6.775,5.508,6.551c5.982-0.378,13.106-5.46,13.913-6.124c0.295-0.243-0.2,5.954,3.609,6.22
	c4.084,0.285,8.972-3.608,8.975-3.561c0.19,3.846,3.847,5.365,11.35,0.285c0.055-0.039-1.567,3.086-1.52,3.086
	c2.668,0,6.847,0.104,6.885,0.049c2.611-3.802,9.675-13.386,12.251-16.858c2.185-2.944,6.553-2.706,3.894,1.709
	c-1.652,2.742-8.643,12.062-10.305,15.101l7.123,0.049c2.992-3.99,7.456-11.777,11.35-16.099c3.957-4.392,6.885-1.758,4.748,1.138
	c-2.661,3.609-6.078,8.265-7.598,11.159c-2.576,4.914,4.29,3.824,6.173,3.231c1.805-0.57,2.754-0.951,4.036-1.475
	c0.413-0.165,1.424-0.614,1.472-0.662c0.001-0.003-0.006,0.01-0.019,0.03c-0.005,0.007-0.013,0.022-0.021,0.032
	c-0.01,0.016-0.021,0.033-0.035,0.056c-0.013,0.019-0.029,0.043-0.045,0.066c-0.014,0.025-0.031,0.05-0.05,0.079
	c-0.435,0.674-1.667,2.569-3.09,4.793h0.001c0,0,0,0.002-0.001,0.002c-0.018,0.029-0.036,0.057-0.054,0.086
	c-0.313,0.489-0.634,0.994-0.96,1.502c-1.33,2.09-3.228,4.986-3.893,6.08c-0.025,0.04,6.796,0.117,6.837,0.095
	c0.046-0.029,0.104-0.079,0.169-0.139c0.019-0.018,0.041-0.041,0.061-0.059c0.052-0.052,0.107-0.113,0.168-0.181
	c0.023-0.027,0.046-0.051,0.071-0.079c0.086-0.101,0.177-0.209,0.279-0.338c0.009-0.012,0.021-0.025,0.03-0.039
	c0.093-0.12,0.195-0.251,0.302-0.394c0.035-0.045,0.07-0.093,0.105-0.141c0.093-0.122,0.188-0.256,0.289-0.395
	c0.035-0.047,0.068-0.093,0.102-0.143c0.135-0.185,0.276-0.384,0.423-0.595c0.017-0.023,0.035-0.05,0.052-0.073
	c0.136-0.194,0.277-0.397,0.422-0.607c0.039-0.057,0.079-0.114,0.117-0.171c0.142-0.206,0.287-0.419,0.437-0.639
	c0.024-0.037,0.049-0.07,0.073-0.108c0.37-0.545,0.761-1.127,1.171-1.741c0.019-0.028,0.036-0.056,0.055-0.083
	c0.393-0.59,0.801-1.204,1.223-1.842c0.95-1.437,1.962-2.973,2.998-4.534c5.413-8.169,10.066-14.199,11.11-15.339
	c2.312-2.521,6.149-2.118,4.702,0.901c-1.092,2.28-9.165,12.44-8.643,14.577c1.355,5.545,12.917-1.661,14.389-2.8
	c0.026-0.021-0.618,4.607,3.228,4.845c5.499,0.338,9.117-3.372,9.117-3.372s-0.617,8.973,14.056-1.711
	c-0.141,8.072,9.164,4.133,9.164,4.133c-0.044,0.123-0.104,0.245-0.168,0.36c-0.019,0.033-0.037,0.067-0.058,0.098
	c-0.058,0.096-0.12,0.188-0.189,0.278c-0.015,0.022-0.029,0.045-0.048,0.067c-0.085,0.106-0.179,0.211-0.279,0.313
	c-0.026,0.026-0.054,0.052-0.081,0.079c-0.083,0.079-0.169,0.156-0.258,0.232c-0.03,0.026-0.062,0.053-0.092,0.078
	c-0.117,0.093-0.236,0.184-0.361,0.272c-0.021,0.016-0.044,0.029-0.066,0.045c-0.109,0.075-0.222,0.148-0.337,0.22
	c-0.037,0.024-0.074,0.047-0.11,0.07c-0.131,0.077-0.265,0.156-0.4,0.229c-0.004,0.003-0.009,0.008-0.015,0.011
	c-0.146,0.079-0.296,0.157-0.447,0.232c-0.027,0.015-0.056,0.027-0.082,0.04c-0.144,0.071-0.287,0.14-0.428,0.205
	c-0.005,0.003-0.009,0.005-0.013,0.008c-0.428,0.195-0.842,0.368-1.232,0.528c-0.137,0.056-0.271,0.11-0.398,0.162
	c-0.096,0.039-0.187,0.076-0.275,0.112c-0.068,0.029-0.137,0.057-0.201,0.084c-0.084,0.035-0.161,0.067-0.236,0.102
	c-0.047,0.02-0.097,0.043-0.141,0.061c-0.112,0.051-0.216,0.101-0.303,0.147c-7.978,4.274-11.606,6.691-14.91,12.396
	c-2.904,5.011,3.353,5.103,4.653,4.557c0.535-0.225,1.061-0.467,1.581-0.719c0.101-0.048,0.199-0.095,0.299-0.144
	c0.497-0.246,0.988-0.502,1.471-0.769c0.093-0.053,0.187-0.105,0.28-0.158c0.472-0.267,0.939-0.541,1.398-0.826
	c0.029-0.016,0.058-0.034,0.087-0.053c0.476-0.297,0.943-0.605,1.403-0.92c0.097-0.063,0.19-0.129,0.286-0.194
	c0.445-0.309,0.885-0.624,1.315-0.946c0.081-0.06,0.158-0.12,0.238-0.182c0.409-0.309,0.813-0.623,1.209-0.941
	c0.045-0.038,0.09-0.073,0.135-0.109c0.42-0.339,0.83-0.687,1.234-1.035c0.088-0.077,0.176-0.151,0.263-0.226
	c0.395-0.348,0.783-0.695,1.163-1.045c0.064-0.059,0.129-0.119,0.189-0.178c0.359-0.331,0.71-0.664,1.054-1
	c0.05-0.047,0.101-0.096,0.15-0.144c0.364-0.359,0.722-0.718,1.073-1.078c0.076-0.075,0.151-0.153,0.228-0.229
	c0.346-0.356,0.686-0.713,1.016-1.064c0.046-0.051,0.09-0.098,0.136-0.146c0.314-0.338,0.622-0.675,0.925-1.01
	c0.043-0.049,0.088-0.097,0.131-0.143c0.32-0.358,0.63-0.708,0.935-1.055c0.055-0.062,0.106-0.126,0.161-0.188
	c0.308-0.352,0.609-0.701,0.899-1.042c0.001-0.001,0.002-0.001,0.003-0.003c0.319-0.374,0.627-0.739,0.926-1.095
	c0.001-0.004,0.003-0.005,0.006-0.007c0.298-0.356,0.586-0.704,0.865-1.041c0.033-0.039,0.062-0.073,0.095-0.113
	c0.211-0.255,0.415-0.504,0.615-0.743c0.197-0.237,0.388-0.465,0.572-0.689c0.045-0.055,0.089-0.106,0.135-0.159
	c0.144-0.171,0.282-0.335,0.418-0.496c0.052-0.062,0.105-0.126,0.156-0.186c0.174-0.203,0.342-0.398,0.502-0.582
	c0.03-0.035,7.028-2.707,7.028-2.707c-0.522,1.377-1.282,2.28-1.71,3.326c-0.02,0.043,7.175,0.004,7.219-0.049
	c1.375-1.614,10.495-15.102,12.772-17.333c2.327-2.278,5.725-1.812,3.609,1.898c-2.519,4.419-9.166,11.113-8.119,13.962
	c0.95,2.598,6.409,1.426,7.596,0.951c3.574-1.43,6.36-3.704,6.364-3.658c0.521,7.455,9.593,2.945,10.162,2.659
	c5.557-2.776,9.829-7.739,12.535-10.636c0,0,3.069-0.82,3.041-0.761c-0.81,1.663-2.933,5.163-3.657,7.124
	c-0.476,1.282-1.048,2.723-0.286,4.368c2.139,4.605,12.002-2.61,12.014-2.564c1.663,6.649,8.531,3.293,9.449,2.851
	c6.08-2.945,10.166-7.695,12.822-10.02c0.381-0.333,0.76,0.568,8.784-1.521c0,0-3.781,4.651-6.077,8.026
	c-0.173,0.252-0.35,0.517-0.527,0.787c-0.052,0.078-0.104,0.159-0.157,0.238c-0.133,0.204-0.266,0.409-0.401,0.617
	c-0.053,0.082-0.103,0.16-0.154,0.24c-0.164,0.256-0.329,0.516-0.492,0.774c-0.016,0.024-0.03,0.047-0.045,0.071
	c-0.195,0.311-0.388,0.619-0.58,0.928c-0.003,0.003-0.006,0.007-0.008,0.012c-0.192,0.31-0.38,0.616-0.565,0.915
	c-0.001,0.005-0.004,0.007-0.006,0.011c-0.854,1.39-1.592,2.636-2.037,3.391c-0.028,0.048-0.052,0.091-0.078,0.134
	c-0.028,0.05-0.057,0.1-0.084,0.144c-0.054,0.09-0.1,0.169-0.138,0.236c-0.007,0.01-0.009,0.015-0.016,0.023
	c-0.079,0.136-0.124,0.216-0.124,0.216c-19.043,0.095-58.407-0.95-80.821,8.357c0,0,6.509,2.773,6.554,2.754
	c17.665-7.882,44.922-10.304,75.406-9.735c0,0,0.011-0.018,0.016-0.024c0.007-0.012,0.018-0.03,0.029-0.049
	c0.174-0.297,0.881-1.502,1.77-2.988c0.345-0.578,0.718-1.198,1.095-1.822c0.012-0.017,0.021-0.035,0.031-0.052
	c0.074-0.123,0.15-0.247,0.226-0.37c0.024-0.043,0.051-0.084,0.077-0.126c0.066-0.109,0.132-0.217,0.196-0.328
	c0.04-0.062,0.077-0.123,0.117-0.188c0.074-0.119,0.147-0.241,0.22-0.359c0.076-0.124,0.151-0.248,0.226-0.366
	c0.034-0.056,0.067-0.109,0.101-0.164c0.064-0.102,0.127-0.203,0.189-0.305c0.035-0.056,0.069-0.111,0.104-0.167
	c0.061-0.101,0.123-0.197,0.184-0.295c0.033-0.051,0.065-0.105,0.099-0.157c0.062-0.099,0.123-0.193,0.184-0.288
	c0.025-0.044,0.054-0.089,0.081-0.132c0.082-0.127,0.164-0.254,0.241-0.376c0.004-0.005,0.009-0.012,0.012-0.016
	c0.081-0.129,0.16-0.25,0.238-0.366c0.02-0.03,0.035-0.058,0.057-0.085c0.056-0.086,0.107-0.167,0.16-0.243
	c0.022-0.035,0.045-0.067,0.066-0.1c0.044-0.067,0.089-0.131,0.131-0.192c0.023-0.029,0.044-0.062,0.065-0.091
	c0.04-0.058,0.079-0.111,0.116-0.161c0.016-0.024,0.035-0.051,0.052-0.072c0.049-0.068,0.097-0.131,0.138-0.184
	c1.867-3.021,3.668-4.926,6.602-8.214c1.567-1.758,4.854-3.106,7.171-4.702C298.11,23.717,296.472,22.429,295.023,23.478
	 M264.443,13.98c0.924-1.122,1.536-1.734,2.611-2.751c0.991-0.942,1.591-1.431,2.658-2.28c1.204-0.958,1.9-1.479,3.183-2.328
	c1.137-0.752,1.853-1.187,2.99-1.805c0.336-0.183,0.526-0.317,0.905-0.381c0.457-0.076,0.82-0.147,1.186,0.143
	c0.317,0.255,0.387,0.547,0.428,0.951c0.047,0.474,0,0.901-0.286,1.377c-0.427,0.713-0.826,1.08-1.424,1.708
	c-0.624,0.657-1.026,0.973-1.708,1.567c-0.797,0.692-1.251,1.076-2.091,1.709c-0.97,0.729-1.526,1.13-2.564,1.757
	c-1.127,0.683-1.771,1.075-2.991,1.566c-0.637,0.257-1.003,0.382-1.663,0.571c-0.439,0.126-0.692,0.186-1.14,0.286
	c-0.698,0.155-1.753,0.333-1.805,0.333C262.732,16.404,263.779,14.788,264.443,13.98 M69.991,4.059
	c2.78,0.023,2.869,1.331,1.946,3.322C70.75,9.944,58.498,18.54,49.666,18.587C53.227,12.462,64.577,4.01,69.991,4.059
	 M62.203,36.157c-1.842-0.472-1.545-1.394-1.456-2.528c0.285-3.61,6.79-12.109,11.492-11.776c1.819,0.129,1.424,2.222,1.424,2.562
	C73.663,29.583,64.434,36.727,62.203,36.157 M153.802,36.157c-1.841-0.472-1.941-1.239-1.853-2.375
	c0.285-3.609,6.79-12.108,11.492-11.777c1.819,0.13,1.426,2.224,1.426,2.565C164.867,29.737,156.034,36.727,153.802,36.157
	 M163.679,56.956c0.38-0.665,0.445-1.137,0.902-1.758c1.187-1.614,1.64-1.927,2.85-2.991c1.304-1.147,2.136-1.69,3.608-2.61
	c0.886-0.556,1.392-0.866,2.325-1.332c1.237-0.612,3.385-1.54,3.277-1.328c0.099-0.04-0.635,1.395-1.139,2.232
	c-0.653,1.079-1.114,1.634-1.921,2.606c-1.05,1.268-1.718,1.923-2.924,3.044c-1.214,1.127-1.889,1.798-3.275,2.706
	c-0.716,0.468-1.027,0.703-1.9,1.093c-0.426,0.189-0.803,0.213-1.234,0c-0.27-0.135-0.426-0.259-0.569-0.522
	C163.468,57.705,163.457,57.342,163.679,56.956 M180.125,36.051c-1.841-0.471-1.941-1.239-1.851-2.374
	c0.285-3.609,6.789-12.109,11.49-11.777c1.817,0.129,1.425,2.223,1.425,2.563C191.189,29.632,182.358,36.62,180.125,36.051
	 M242.456,22.86c-2.041,1.614-3.226,2.028-3.752,5.699c-0.188,1.33,0.523,1.709,0.999,2.089c0,0-5.345,6.551-8.642,5.509
	c-0.904-0.286-1.404-0.828-1.33-1.852c0.236-3.277,2.396-6.609,4.892-8.832c1.988-1.773,4.286-2.751,5.318-3.087l1.139-0.097
	l0.665,0.049l0.417,0.27l-0.227-0.222l0.616,0.474l-0.39-0.252L242.456,22.86z M272.779,28.361
	c-0.198,1.327,0.523,1.709,0.999,2.088c0,0-5.346,6.549-8.645,5.509c-0.901-0.285-1.402-0.828-1.329-1.853
	c0.428-5.889,7.429-11.387,10.211-11.918l1.018-0.135l0.787,0.088l0.189,0.047l0.143,0.096l-0.082-0.036l0.462,0.416
	C274.489,24.277,273.229,25.377,272.779,28.361"/>
</svg>
