<?xml version="1.0" encoding="utf-8"?>
<!-- Generator: Adobe Illustrator 15.0.0, SVG Export Plug-In  -->
<!DOCTYPE svg PUBLIC "-//W3C//DTD SVG 1.1//EN" "http://www.w3.org/Graphics/SVG/1.1/DTD/svg11.dtd" [
	<!ENTITY ns_flows "http://ns.adobe.com/Flows/1.0/">
]>
<svg version="1.1"
	 xmlns="http://www.w3.org/2000/svg" xmlns:xlink="http://www.w3.org/1999/xlink" xmlns:a="http://ns.adobe.com/AdobeSVGViewerExtensions/3.0/"
	 x="0px" y="0px" width="300px" height="200px" viewBox="-28 -67.42 300 200"
	 overflow="visible" enable-background="new -28 -67.42 300 200" xml:space="preserve">
<defs>
</defs>
<path fill-rule="evenodd" clip-rule="evenodd" fill="#E6E6E6" d="M49.312,0.178c-1.023,3.908-2.32,7.541-3.544,11.248
	c-0.565,0-1.13,0-1.695,0c1.134-3.848,2.432-7.533,3.699-11.248C48.285,0.178,48.799,0.178,49.312,0.178z"/>
<path fill-rule="evenodd" clip-rule="evenodd" fill="#E6E6E6" d="M53.011,0.178c-1.127,3.855-2.444,7.521-3.698,11.248
	c-0.565,0-1.13,0-1.695,0c1.247-3.734,2.446-7.518,3.699-11.248C51.881,0.178,52.446,0.178,53.011,0.178z"/>
<path fill-rule="evenodd" clip-rule="evenodd" fill="#E6E6E6" d="M31.437,4.184c-3.404,0.604-9.452-1.438-10.479,1.541
	c2.47,1.023,7.614-0.629,9.4,1.078c0.759,1.545-0.846,4.18-3.082,4.623c-1.379,0.275-3.667,0-5.394,0
	c-1.759,0-3.817,0.123-3.853-1.541c3.562-0.648,10.037,1.613,10.787-1.848c-2.418-0.869-6.813,0.238-9.246-0.617
	c-1.05-2.232,0.371-4.344,2.774-4.777c1.402-0.252,3.667,0,5.394,0C29.624,2.643,31.551,2.667,31.437,4.184z"/>
<path fill-rule="evenodd" clip-rule="evenodd" fill="#E6E6E6" d="M32.978,7.883c-1.36,3.779,7.403,1.277,10.017,2.002
	c0.272,0.498-1.295,1.4-2.003,1.541c-1.241,0.248-3.176,0-4.777,0c-2.179,0-4.846,0.332-5.24-1.541
	c-0.542-2.578,1.942-6.814,4.315-7.242c1.548-0.279,3.74,0,5.702,0c2.297,0,3.92,0.049,4.161,1.541
	C45.962,9.2,36.981,7.286,32.978,7.883z M39.604,4.184c-3.063,0-5.981-0.434-6.01,2.004c3.114-0.586,8.755,1.357,9.708-1.387
	C42.863,3.922,41.083,4.184,39.604,4.184z"/>
<path fill-rule="evenodd" clip-rule="evenodd" fill="#E6E6E6" d="M53.627,7.883c-1.367,3.781,7.408,1.275,10.017,2.002
	c0.364,0.48-1.287,1.385-2.158,1.541c-1.717,0.311-8.253,0.416-9.246-0.461c-1.469-1.299,0.239-5.924,1.387-7.09
	c0.458-0.465,1.854-1.15,2.312-1.232c2.537-0.457,8.825-0.346,9.554,0.771c1.183,1.811-1.117,4.01-2.774,4.314
	C59.831,8.258,56.561,7.204,53.627,7.883z M60.254,4.184c-3.027,0-5.978-0.455-6.01,2.004c1.509,0,3.648,0,5.548,0
	c1.816,0,4.238,0.51,4.161-1.541C63.314,3.956,61.742,4.184,60.254,4.184z"/>
<path fill-rule="evenodd" clip-rule="evenodd" fill="#BEBDBD" d="M111.57,5.879c-10.379,0.422-19.967-0.568-30.512,0
	c-2.781,0.15-6.43,1.715-5.24,4.623c0.773,1.891,9.869,1.078,12.637,1.078c7.151,0,17.443-1.416,19.571,3.545
	c1.22,2.846,0.109,6.396-1.233,8.629c-1.864,3.104-6.07,6.744-12.174,7.244c-3.841,0.312-8.342,0-12.636,0
	c-8.081,0-16.053,1.289-16.951-5.703c7.782,0,16.697,0,24.964,0c2.741,0,5.711,0.363,7.859-0.307c2-0.625,4.717-2.928,4.007-5.857
	c-0.765-3.148-11.536-1.848-14.948-1.848c-5.04,0-12.954,1.016-15.718-0.926c-4.591-3.223-0.516-10.637,2.158-12.791
	c4.857-3.912,11.946-3.389,21.266-3.389C102.53,0.178,110.711-0.927,111.57,5.879z"/>
<path fill-rule="evenodd" clip-rule="evenodd" fill="#BEBDBD" d="M150.712,11.581c2.006-5.084-2.482-5.701-7.396-5.701
	c-9.2,0-19.969,0-28.355,0c-0.245-0.664,0.936-1.562,1.695-2.158c2.305-1.809,5.862-3.279,9.708-3.543c4.834-0.334,9.507,0,14.022,0
	c4.047,0,10.414-0.494,13.1,0.77c2.557,1.203,4.447,4.008,4.006,8.477c-0.193,1.955-1.139,4.328-1.849,6.471
	c-2.95,8.916-6.572,15.258-18.8,15.258c-4.238,0-8.817,0-12.945,0c-3.982,0-8.883,0.52-11.711-1.08
	c-3.135-1.773-4.143-6.596-2.312-10.479c2.106-4.465,7.65-7.57,13.408-8.014C131.758,10.928,141.615,12.067,150.712,11.581z
	 M134.993,17.129c-4.675,0-9.648-0.49-14.023,0c-2.887,0.322-6.6,2.881-5.394,6.318c1.107,3.154,10.294,2.002,15.103,2.002
	c3.871,0,8.068,0.346,11.402,0c4.818-0.498,5.367-4.465,6.781-8.32C144.418,17.129,139.771,17.129,134.993,17.129z"/>
<path fill-rule="evenodd" clip-rule="evenodd" fill="#BEBDBD" d="M162.577,0.178c8.099,0.418,17.851-0.561,25.118,0
	c4.953,0.381,8.129,4.146,7.243,9.707c-0.526,3.307-2.199,7.104-3.39,10.787c-1.222,3.779-2.549,7.453-3.545,10.48
	c-2.055,0-4.109,0-6.164,0c1.499-5.17,3.529-11.092,5.394-16.645c0.681-2.025,1.675-4.49,1.233-6.164
	c-0.818-3.094-5.735-2.465-9.555-2.465c-4.229,0-8.031,0-11.866,0c-3.018,8.232-5.543,16.955-8.476,25.273c-2.054,0-4.108,0-6.164,0
	C155.673,20.704,159.051,10.366,162.577,0.178z"/>
<path fill-rule="evenodd" clip-rule="evenodd" fill="#BEBDBD" d="M10.325,33.926c9.729,1.006,24.446-2.975,27.738,4.469
	c4.209-4.697,15.506-5.193,24.194-4.469c4.901,0.408,8.152,4.055,7.089,10.016c-0.566,3.172-2.193,6.914-3.39,10.48
	c-1.286,3.83-2.436,7.531-3.39,10.479c-2.106,0-4.212,0-6.318,0c1.209-3.898,2.455-7.545,3.698-11.25
	c1.231-3.666,2.8-7.273,3.082-11.711c-1.476-3.115-10.982-2.719-15.873-2.312c-7.857,0.654-8.675,8.043-10.941,14.795
	c-1.234,3.676-2.526,7.281-3.39,10.479c-2.106,0-4.212,0-6.318,0c1.522-4.889,3.195-10.238,4.931-15.41
	c0.612-1.824,1.512-3.746,1.387-5.395c-0.501-6.615-11.026-3.9-18.03-4.469c-3.13,8.119-5.665,16.834-8.476,25.273
	c-2.106,0-4.212,0-6.318,0C3.434,54.567,6.588,43.956,10.325,33.926z"/>
<path fill-rule="evenodd" clip-rule="evenodd" fill="#BEBDBD" d="M108.796,45.329c2.177-5.096-2.437-5.701-7.089-5.701
	c-9.398,0-20.118,0-28.663,0c-0.124-0.594,0.931-1.369,1.695-2.004c2.297-1.904,5.85-3.432,9.708-3.697
	c4.014-0.277,8.148,0,12.174,0c9.555,0,19.629-1.693,19.109,8.629c-0.166,3.293-1.818,6.555-2.928,9.709
	c-2.392,6.797-6.146,11.996-14.948,12.637c-3.714,0.27-7.927,0-12.02,0c-7.97,0-17.591,1.279-18.646-5.703
	c-0.518-3.42,0.993-6.588,2.62-8.475c2.3-2.67,6.771-4.986,11.403-5.395C89.94,44.561,99.92,45.905,108.796,45.329z M79.208,50.877
	c-2.926,0.318-6.655,2.787-5.394,6.318c1.05,2.938,9.651,2.002,13.715,2.002c4.816,0,12.185,0.887,15.256-0.615
	c2.556-1.252,3.16-4.83,4.161-7.705C98.122,51.606,88.083,49.915,79.208,50.877z"/>
<path fill-rule="evenodd" clip-rule="evenodd" fill="#BEBDBD" d="M120.816,33.926c6.695,0.404,16.233-0.535,22.653,0
	c5.614,0.467,9.167,4.814,8.476,11.402c-2.106,0-4.213,0-6.318,0c0.059-8.738-12.562-4.799-20.342-5.701
	c-3.107,8.141-5.6,16.898-8.475,25.273c-2.106,0-4.212,0-6.318,0C113.972,54.616,117.125,44.002,120.816,33.926z"/>
<path fill-rule="evenodd" clip-rule="evenodd" fill="#BEBDBD" d="M201.41,33.926c-1.158,3.875-2.404,7.664-3.697,11.402
	c-2.004,0-4.007,0-6.011,0c-0.203-0.607,0.349-2.27,0-3.389c-0.911-2.926-6.626-2.312-11.558-2.312c-5.371,0-9.713-0.359-13.715,0
	c-5.12,0.461-6.048,4.307-7.551,8.783c-0.69,2.059-2.933,6.613-1.694,8.939c1.305,2.453,8.254,1.848,12.944,1.848
	c9.344,0,17.159,1.467,18.646-5.701c2.055,0,4.11,0,6.164,0c-1.159,3.875-2.404,7.664-3.698,11.404c-5.375,0-11.248,0-17.105,0
	c-5.905,0-11.769,0.582-16.95,0c-4.295-0.482-7.341-3.943-6.781-9.4c0.294-2.873,1.873-6.182,2.928-9.246
	c2.333-6.781,6.754-11.752,15.103-12.328C179.424,33.168,190.149,34.495,201.41,33.926z"/>
<path fill-rule="evenodd" clip-rule="evenodd" fill="#BEBDBD" d="M214.047,34.081c4.287-0.336,9.205-0.154,14.178-0.154
	c9.027,0,16.506-0.676,15.719,9.092c-0.168,2.072-1.057,4.229-2.004,7.088c-2.529,7.645-5.982,13.998-15.719,14.795
	c-4.869,0.396-9.562,0-13.869,0c-6.213,0-12.879,0.662-15.256-3.545c-2.021-3.578-0.496-7.939,0.771-11.711
	c0.883-2.631,1.566-5.324,2.619-7.244C203.043,37.741,207.432,34.598,214.047,34.081z M204.801,47.95
	c-0.955,2.846-3.059,6.574-2.156,9.092c1.072,2.996,8.848,2.156,13.406,2.156c5.203,0,11.783,0.85,14.947-0.77
	c3.355-1.719,4.391-8.061,5.701-12.02c0.389-1.17,1.332-3.15,0.617-4.777c-1.143-2.604-6.924-2.004-11.557-2.004
	c-5.223,0-10.352-0.24-13.869,0.154C206.982,40.333,206.303,43.475,204.801,47.95z"/>
</svg>
