<?xml version="1.0" encoding="utf-8"?>
<!-- Generator: Adobe Illustrator 15.0.0, SVG Export Plug-In  -->
<!DOCTYPE svg PUBLIC "-//W3C//DTD SVG 1.1//EN" "http://www.w3.org/Graphics/SVG/1.1/DTD/svg11.dtd" [
	<!ENTITY ns_flows "http://ns.adobe.com/Flows/1.0/">
]>
<svg version="1.1"
	 xmlns="http://www.w3.org/2000/svg" xmlns:xlink="http://www.w3.org/1999/xlink" xmlns:a="http://ns.adobe.com/AdobeSVGViewerExtensions/3.0/"
	 x="0px" y="0px" width="300px" height="200px" viewBox="-27.993 -66.844 300 200"
	 overflow="visible" enable-background="new -27.993 -66.844 300 200" xml:space="preserve">
<defs>
</defs>
<path fill="#BEBDBD" d="M55.897,29.885c3.478-0.23,6.607,1.51,8.695,4.408l0.35,0.115c5.219-2.898,10.554-5.566,15.772-8.698
	c0.114-0.231,0-0.578-0.115-0.812C75.147,16.317,65.522,11.1,55.085,11.562c-6.609,0.117-12.177,3.016-17.626,6.264l-17.514,9.74
	C13.683,30.93,7.653,34.293,1.39,37.657C0.929,38.003,0.116,38.121,0,38.816c3.131,5.335,8.698,8.351,14.497,8.93l0.463,0.348
	c1.972,2.783,4.985,4.872,8.002,6.145c3.13,1.279,6.841,1.51,10.32,1.047c1.044,0.347,1.738,1.623,2.552,2.434
	c4.289,4.176,9.278,6.842,14.842,7.887c10.903,2.087,21.108-1.623,28.067-9.974c0.695-0.929,1.623-1.854,1.739-3.016
	c-2.899-1.854-5.914-3.362-8.813-5.103c-2.32-1.275-4.64-2.78-7.076-3.826c-1.506,1.855-3.478,3.479-5.797,4.059
	c-3.942,0.929-7.77-0.579-10.089-3.712c-1.856-2.434-2.088-6.377-0.695-9.046C49.634,31.973,52.532,30.002,55.897,29.885"/>
<path fill="#BEBDBD" d="M101.82,17.768v46.779h14.147V36.033c-0.115-2.785,1.855-4.988,3.827-6.379
	c1.276-0.695,3.017-0.695,4.407-0.231c2.434,0.927,3.941,3.479,4.174,5.914l-0.059,29.207h14.208V35.337
	c0.117-3.247,0.231-6.958-1.276-9.858c-2.436-4.87-7.421-7.77-12.755-8.117c-0.232-0.115-0.351,0.232-0.465,0
	c-3.13-0.231-6.031,0.697-8.698,1.972l-0.231,0.348c-0.928,0.117-1.623,0.928-2.552,1.507h-0.608v-3.42H101.82"/>
<path fill="#BEBDBD" d="M174.417,34.848l0.465-0.205c0-0.814-0.465-1.625-0.811-2.438c-1.395-2.782-4.178-5.219-7.539-4.639
	c-3.365,0.465-5.567,3.711-6.379,6.609c-0.117,0.349,0.115,0.672,0.347,0.672H174.417L174.417,34.848z M160.965,44.789
	c-0.347,0-0.579,0.057-0.696,0.29c0.928,3.479,3.016,7.19,6.726,8.232c3.364,1.163,6.727-0.231,9.046-2.667
	c0.696-0.926,1.623-1.855,2.204-2.782c0.464-0.464,0.926,0,1.39,0.231c3.48,2.086,6.961,3.828,10.438,5.916
	c0.232,0.347,0.117,0.693,0,0.926c-2.666,3.944-6.611,7.307-10.783,8.93c-7.424,3.827-18.207,3.247-24.472-2.318
	c-5.216-3.943-7.886-9.625-9.159-15.541c-1.045-7.885,0.695-15.771,5.332-21.803c5.105-5.217,11.945-7.654,19.486-6.957
	c7.42,0.812,14.379,5.914,17.395,12.871c2.086,4.525,2.783,9.279,2.783,14.496l-0.35,0.176H160.965"/>
<polygon fill="#BEBDBD" points="193.319,2.402 193.319,64.447 207.354,64.447 207.354,2.402 193.319,2.402 "/>
<polygon fill="#BEBDBD" points="210.948,2.402 210.948,64.447 224.98,64.447 224.98,2.402 210.948,2.402 "/>
<polygon fill="#BEBDBD" points="229.287,17.987 229.287,64.447 243.318,64.447 243.318,17.987 229.287,17.987 "/>
<polygon fill="#BEBDBD" points="84.541,17.987 84.541,64.447 98.573,64.447 98.573,17.987 84.541,17.987 "/>
<path fill="#BEBDBD" d="M90.531,16.4c4.53,0,8.202-3.67,8.202-8.199S95.062,0,90.531,0c-4.527,0-8.199,3.672-8.199,8.201
	S86.004,16.4,90.531,16.4"/>
<path fill="#BEBDBD" d="M235.811,16.4c4.529,0,8.203-3.67,8.203-8.199S240.34,0,235.811,0s-8.199,3.672-8.199,8.201
	S231.281,16.4,235.811,16.4"/>
<path fill="#666666" d="M33.4,50.877c-4.64,1.045-9.396,0-12.758-3.131c-0.117-0.348,0.115-0.465,0.347-0.465
	c1.74-0.578,3.364-1.275,4.986-2.318c5.452-3.016,10.785-6.146,16.354-8.814h0.115c-0.232,2.785-0.115,5.452,0.927,7.886
	c0.118,0.579,0.698,1.045,0.349,1.624C40.356,47.398,37.111,49.719,33.4,50.877"/>
<path fill="#666666" d="M48.938,50.529c3.829,2.319,9.51,2.782,13.567,0.695l3.133-1.738l0.466,0.232
	c2.549,1.391,5.1,2.666,7.42,4.291c-0.694,1.275-2.088,2.087-3.014,3.016c-6.843,5.102-17.049,5.913-24.7,2.201
	c-2.438-1.391-4.873-3.13-6.96-5.334c0-0.232,0-0.463,0.231-0.581c2.552-1.39,4.988-2.899,7.538-4.058
	C47.548,49.37,48.128,50.297,48.938,50.529"/>
<path fill="#666666" d="M22.149,42.062c-4.523,2.203-10.785,1.509-14.612-1.506c-0.116-0.232-0.347-0.35-0.231-0.582
	c10.091-5.682,20.18-11.364,30.386-16.932c3.709-1.738,7.073-4.175,11.016-5.449c8.813-3.016,18.903-0.58,25.163,6.378v0.349
	c-2.55,1.623-5.218,2.898-7.767,4.29c-0.93-0.231-1.625-1.044-2.553-1.507c-3.944-2.436-9.974-2.553-14.032-0.233
	C40.356,32.09,31.312,37.076,22.149,42.062"/>
</svg>
