<?xml version="1.0" encoding="utf-8"?>
<!-- Generator: Adobe Illustrator 15.0.0, SVG Export Plug-In  -->
<!DOCTYPE svg PUBLIC "-//W3C//DTD SVG 1.1//EN" "http://www.w3.org/Graphics/SVG/1.1/DTD/svg11.dtd" [
	<!ENTITY ns_flows "http://ns.adobe.com/Flows/1.0/">
]>
<svg version="1.1"
	 xmlns="http://www.w3.org/2000/svg" xmlns:xlink="http://www.w3.org/1999/xlink" xmlns:a="http://ns.adobe.com/AdobeSVGViewerExtensions/3.0/"
	 x="0px" y="0px" width="300px" height="200px" viewBox="-66.092 -44.379 300 200"
	 overflow="visible" enable-background="new -66.092 -44.379 300 200" xml:space="preserve">
<defs>
</defs>
<path fill="#BEBDBD" d="M1.719,4.034c-1.812,2.437-1.712,5.5-1.712,5.5s-0.232,3.227,2.001,6.09c2.625,3.37,6.288,3.359,6.288,3.359
	h8.021V14.43H8.569c0,0-4.085-0.385-4.052-5.028c0.028-3.92,4.217-5.054,4.217-5.054h7.692V0.119H8.173
	C8.173,0.119,4.328,0.522,1.719,4.034L1.719,4.034z"/>
<path fill="#BEBDBD" d="M74.792,9.961c0,0-0.781,4.084-5.424,4.051c-3.92-0.026-5.056-4.215-5.056-4.215V0.154h-4.229v10.202
	c0,0,0.406,3.844,3.917,6.455c2.437,1.811,5.499,1.71,5.499,1.71s3.228,0.232,6.089-1.999c3.37-2.627,3.76-6.288,3.76-6.288V0.332
	h-4.556V9.961L74.792,9.961z"/>
<path fill="#BEBDBD" d="M145.555,9.961c0,0-0.468,4.084-5.111,4.051c-3.917-0.026-5.053-4.215-5.053-4.215V0.154h-4.229v10.202
	c0,0,0.403,3.844,3.916,6.455c2.438,1.811,5.498,1.71,5.498,1.71s3.229,0.232,6.091-1.999c3.371-2.627,3.441-6.288,3.441-6.288
	V0.332h-4.554V9.961L145.555,9.961z"/>
<polygon fill="#BEBDBD" points="48.954,0.156 44.399,0.156 44.399,18.659 57.845,18.659 57.845,14.239 48.954,14.239 48.954,0.156 
	"/>
<polygon fill="#BEBDBD" points="94.554,8.981 88.271,0.16 83.622,0.16 83.622,18.678 88.271,18.678 88.271,8.604 94.554,15.328 
	100.902,8.547 100.933,18.678 105.552,18.678 105.554,0.119 100.933,0.16 94.554,8.981 "/>
<path fill="#BEBDBD" d="M167.206,10.969c-0.734-1.098-2.256-2.019-2.256-2.019l-4.295-2.332c0,0-0.846-0.459-0.883-1.32
	c-0.036-0.919,0.968-1.059,0.968-1.059l5.97-0.007V0.16h-7.942c0,0-2.358,0.228-3.527,1.852c-0.882,1.23-0.846,2.606-0.846,2.606
	s-0.168,1.694,0.793,3.027c0.742,1.036,1.743,1.523,1.743,1.523l4.894,2.658c0,0,1.324,0.645,1.234,1.545
	c-0.094,0.931-1.21,0.863-1.21,0.863h-8.02l-0.037,4.442l10.021-0.002c0,0,1.861-0.211,2.899-1.376
	c0.956-1.074,1.079-3.083,1.079-3.083S167.997,12.144,167.206,10.969L167.206,10.969z"/>
<path fill-rule="evenodd" clip-rule="evenodd" fill="#BEBDBD" d="M29.764,14.321c-2.695,0-4.879-2.184-4.879-4.879
	s2.184-4.879,4.879-4.879c2.695,0,4.879,2.184,4.879,4.879S32.459,14.321,29.764,14.321L29.764,14.321z M29.811,0
	c-5.293,0-9.584,4.245-9.584,9.483s4.291,9.485,9.584,9.485s9.586-4.247,9.586-9.485S35.104,0,29.811,0L29.811,0z"/>
<path fill="#BEBDBD" d="M120.501,7.226h-4.722v-3.7h4.444c0,0,1.668,0.408,1.61,1.928C121.781,6.889,120.501,7.226,120.501,7.226
	L120.501,7.226z M120.501,14.658h-4.722v-3.7h4.444c0,0,1.668,0.408,1.61,1.928C121.781,14.321,120.501,14.658,120.501,14.658
	L120.501,14.658z M124.737,8.868c0,0,2.009-1.038,2.009-4.268c0-3.877-3.917-4.401-3.917-4.401L111.445,0.16v18.518h11.771
	c0,0,3.207-1.118,3.41-4.75c0.127-2.301-1.274-3.82-1.899-4.522C124.453,9.098,124.737,8.868,124.737,8.868L124.737,8.868z"/>
<path fill="#666666" d="M150.703,70.283c0,22.621-30.115,40.959-67.264,40.959c-42.918,0-66.323-18.633-66.323-41.256
	c0-22.62,29.174-40.819,66.323-40.427C128.001,30.027,150.703,47.662,150.703,70.283L150.703,70.283z"/>
<path fill-rule="evenodd" clip-rule="evenodd" fill="#4D4D4D" d="M41.771,73.71c-3.053-3.869-9.594-9.096-12.188-9.721
	c-0.929-0.225-0.538-0.717-0.538-0.717s0.563-0.5,1.783-1.029c1.341-0.58,2.316-1.766,2.316-1.766s2.894-5.355,7.04-6.71
	c5.189-1.695,9.451,0.346,9.451,0.346s3.588,1.392,6.655,3.263c3.085,1.881,6.119,4.314,6.119,4.314s0.649,0.207,1.03,0.018
	c0.378-0.189,0.486-0.777,0.486-0.777s2.065-7.877,7.436-11.733c7.084-5.089,16.826-3.731,16.826-3.731s10.769,1.235,21.99,3.189
	c6.894,1.2,13.644,0.146,13.644,0.146s-1.354,1.632-3.87,3.26c-2.636,1.705-6.44,3.411-6.44,3.411s-0.24,0.199-0.203,0.347
	c0.039,0.156,0.353,0.261,0.353,0.261l3.034,0.149c0,0,0.338,0.084,0.297,0.238c-0.034,0.147-0.449,0.369-0.449,0.369l-6.216,3.486
	c0,0-0.541,0.279-0.702,0.641c-0.142,0.32,0.095,0.727,0.095,0.727l1.215,0.605c0,0,0.192,0.248,0.151,0.451
	c-0.035,0.17-0.304,0.309-0.304,0.309l-18.804,5.762c0,0-0.89,0.162-0.89,0.627c0,0.562,0.587,0.586,0.587,0.586
	s7.856,1.34,17.667-0.771c10.271-2.207,22.515-7.873,22.515-7.873s0.655-0.336,0.993-0.166c0.255,0.127,0.221,0.773,0.221,0.773
	l-1.82,4.549c0,0-0.32,0.525-0.242,0.877c0.072,0.328,0.545,0.488,0.545,0.488l2.73-0.607c0,0,0.518-0.232,0.687-0.105
	c0.129,0.098-0.082,0.561-0.082,0.561l-1.665,3.943c0,0-0.24,0.496-0.205,0.912c0.041,0.488,0.355,0.906,0.355,0.906l4.396,3.488
	c0,0,0.418,0.471,0.272,0.799c-0.155,0.355-0.877,0.566-0.877,0.566s-5.579-0.797-11.855,2.562
	c-6.28,3.363-17.959,10.176-17.959,10.176s-5.963,6.445-26.279,6.324c-13.312-0.078-22.579-6.906-22.579-6.906
	S52.54,87.349,41.771,73.71L41.771,73.71z"/>
<path fill-rule="evenodd" clip-rule="evenodd" fill="#BEBDBD" d="M111.805,52.299c-5.847,5.111-26.365,0.806-28.858,4.007
	c1.121,0.342,16.281-0.308,23.479,1.715c0.276,0.092,0.478,0.826-0.377,1.016c-5.495,0.867-18.965,0.393-21.187,3.904
	c0.467,0.066,0.521,0.398,1.155,0.361c3.967-0.221,8.895-2.676,16.568-0.984c0.153,0.268-0.02,0.457-0.585,0.623
	c-6.942,1.447-14.502,3.193-18.253,7.793c4.586,5.73,31.847,2.113,42.485-3.205c1.439,1.082-1.085,1.557-0.803,2.807
	c0.741,0.594,1.904,0.768,3.206,0.801c0.216,1.951-1.598,1.875-2.003,3.207c0.131,1.471,2.85,0.355,2.805,2.004
	c-16.545,4.48-23.896,17.906-44.087,18.436c-29.913,0.785-35.057-20.779-50.902-31.26c3.595-9.084,11.362-9.478,20.04-3.609
	c2.94,1.99,7.054,4.453,8.46,6.354c2.352,3.172,2.692,8.467,6.368,9.68c-0.053-0.502,0.502-0.277,0.067-1.072
	c-1.384-2.543-2.891-5.859-2.674-9.838c0.319-5.861,3.228-10.551,6.797-13.306C82.817,44.551,99.573,51.182,111.805,52.299
	L111.805,52.299z"/>
<path fill-rule="evenodd" clip-rule="evenodd" fill="#4D4D4D" d="M43.451,60.123c0,0.896-0.726,1.623-1.622,1.623
	c-0.892,0-1.619-0.727-1.619-1.623c0-0.893,0.727-1.619,1.619-1.619C42.726,58.503,43.451,59.23,43.451,60.123L43.451,60.123z"/>
</svg>
