<?xml version="1.0" encoding="utf-8"?>
<!-- Generator: Adobe Illustrator 15.0.0, SVG Export Plug-In  -->
<!DOCTYPE svg PUBLIC "-//W3C//DTD SVG 1.1//EN" "http://www.w3.org/Graphics/SVG/1.1/DTD/svg11.dtd" [
	<!ENTITY ns_flows "http://ns.adobe.com/Flows/1.0/">
]>
<svg version="1.1"
	 xmlns="http://www.w3.org/2000/svg" xmlns:xlink="http://www.w3.org/1999/xlink" xmlns:a="http://ns.adobe.com/AdobeSVGViewerExtensions/3.0/"
	 x="0px" y="0px" width="300px" height="200px" viewBox="-28 -74.892 300 200"
	 overflow="visible" enable-background="new -28 -74.892 300 200" xml:space="preserve">
<defs>
</defs>
<polygon fill="#666666" points="244,50.217 0,50.217 0,0 244,0 244,50.217 "/>
<path id="DT_SWISS_2_" fill="#BEBDBD" d="M225.621,10.232l-1.26,4.014c0,0-1.799-0.867-2.799-1.12c0,0-2.963-0.728-5.441-0.05
	c-2.623,0.657-3.354,2.484-3.537,3.148c-0.184,0.665-0.531,2.338,0.816,3.961s4.014,2.876,4.984,3.564
	c0.971,0.688,3.223,2.324,3.842,3.848c0.557,0.976,1.324,2.879,0.572,6.314c-0.855,3.168-2.611,4.627-3.426,5.346
	c-0.596,0.411-2.859,1.902-5.395,2.095s-5.078,0.081-7.225-0.575c-2.148-0.656-3.408-1.107-3.408-1.107l1.416-4.172
	c0,0,2.113,1.186,4.041,1.613c2.275,0.512,3.455,0.532,5.377-0.047c1.461-0.508,2.408-1.089,3.24-2.33
	c0.834-1.242,1.016-2.844,0.848-3.61c-0.168-0.768-0.668-1.901-2.037-3.226c-1.432-1.252-3.158-2.162-3.543-2.393
	c-0.385-0.231-2.77-1.591-3.758-2.992c-0.986-1.401-1.18-2.457-1.318-3.522c-0.141-1.066-0.037-2.624,0.225-3.536
	c0.312-0.912,0.598-1.754,1.309-2.684s1.65-1.902,3.699-2.899c1.781-0.812,2.914-0.917,3.646-1.019
	c1.004-0.117,2.076-0.147,3.355-0.014c0,0,1.502,0.143,2.303,0.332C223.301,9.434,224.627,9.839,225.621,10.232L225.621,10.232z
	 M203.07,10.232l-1.26,4.014c0,0-1.799-0.867-2.799-1.12c0,0-2.963-0.728-5.441-0.05c-2.623,0.657-3.354,2.484-3.537,3.148
	c-0.184,0.665-0.531,2.338,0.816,3.961s4.014,2.876,4.984,3.564c0.971,0.688,3.223,2.324,3.842,3.848
	c0.557,0.976,1.326,2.879,0.572,6.314c-0.855,3.168-2.611,4.627-3.426,5.346c-0.596,0.411-2.859,1.902-5.395,2.095
	s-5.078,0.081-7.225-0.575s-3.408-1.107-3.408-1.107l1.418-4.172c0,0,2.111,1.186,4.039,1.613c2.277,0.512,3.455,0.532,5.377-0.047
	c1.461-0.508,2.408-1.089,3.24-2.33c0.834-1.242,1.016-2.844,0.848-3.61c-0.168-0.768-0.668-1.901-2.037-3.226
	c-1.432-1.252-3.158-2.162-3.543-2.393c-0.385-0.231-2.77-1.591-3.756-2.992c-0.988-1.401-1.182-2.457-1.32-3.522
	c-0.139-1.066-0.037-2.624,0.223-3.536c0.314-0.912,0.6-1.754,1.311-2.684s1.652-1.902,3.699-2.899
	c1.781-0.812,2.914-0.917,3.646-1.019c1.004-0.117,2.076-0.147,3.357-0.014c0,0,1.5,0.143,2.301,0.332
	C200.75,9.434,202.078,9.839,203.07,10.232L203.07,10.232z M123.18,10.232l-1.259,4.014c0,0-1.8-0.867-2.799-1.12
	c0,0-2.962-0.728-5.442-0.05c-2.623,0.657-3.353,2.484-3.537,3.148c-0.183,0.665-0.53,2.338,0.817,3.961s4.013,2.876,4.984,3.564
	c0.972,0.688,3.222,2.324,3.841,3.848c0.557,0.976,1.326,2.879,0.572,6.314c-0.855,3.168-2.611,4.627-3.425,5.346
	c-0.597,0.411-2.858,1.902-5.396,2.095c-2.535,0.192-5.077,0.081-7.225-0.575c-2.146-0.656-3.407-1.107-3.407-1.107l1.417-4.172
	c0,0,2.112,1.186,4.039,1.613c2.277,0.512,3.455,0.532,5.377-0.047c1.461-0.508,2.408-1.089,3.242-2.33
	c0.832-1.242,1.015-2.844,0.847-3.61c-0.169-0.768-0.667-1.901-2.038-3.226c-1.43-1.252-3.156-2.162-3.541-2.393
	c-0.385-0.231-2.77-1.591-3.758-2.992s-1.18-2.457-1.32-3.522c-0.139-1.066-0.037-2.624,0.225-3.536
	c0.312-0.912,0.6-1.754,1.31-2.684s1.651-1.902,3.699-2.899c1.781-0.812,2.915-0.917,3.647-1.019
	c1.004-0.117,2.074-0.147,3.355-0.014c0,0,1.502,0.143,2.301,0.332C120.859,9.434,122.188,9.839,123.18,10.232L123.18,10.232z
	 M175.977,9.367h4.645l-6.76,31.502h-4.57L175.977,9.367L175.977,9.367z M127.438,9.367h4.568l1.721,26.918L146.32,9.367h5.91
	l1.017,26.996l13.616-26.996h4.881L155.28,40.869h-5.888l-0.868-27.095l-12.445,27.095h-6.046L127.438,9.367L127.438,9.367z
	 M42.841,22.13c-0.077,0.671-0.132,1.324-0.403,2.768c-0.215,1.237-0.877,3.952-2.154,5.749c-1.008,1.404-2.436,2.19-3.76,2.249
	c-0.377,0.03-4.135,0.03-4.135,0.03l3.478-16.318h2.87c0.053-0.002,1.287,0,2.303,0.385c0.696,0.271,1.27,0.82,1.568,1.561
	C43.001,19.406,42.949,21.246,42.841,22.13L42.841,22.13z M56.289,9.367l-1.271,5.666c-0.465-1.009-0.93-2.488-3.503-4.09
	C48.459,9.166,45.1,9.367,45.1,9.367H25.17l-6.693,31.502h16.912c7.139,0.207,11.52-2.736,11.52-2.736
	c9.121-5.446,8.818-19.479,8.818-19.479l9.287-0.092l-4.738,22.307H72.41l4.725-22.215l10.705-0.078l1.986-9.209H56.289
	L56.289,9.367z"/>
</svg>
