<?xml version="1.0" encoding="utf-8"?>
<!-- Generator: Adobe Illustrator 15.0.0, SVG Export Plug-In  -->
<!DOCTYPE svg PUBLIC "-//W3C//DTD SVG 1.1//EN" "http://www.w3.org/Graphics/SVG/1.1/DTD/svg11.dtd" [
	<!ENTITY ns_flows "http://ns.adobe.com/Flows/1.0/">
]>
<svg version="1.1"
	 xmlns="http://www.w3.org/2000/svg" xmlns:xlink="http://www.w3.org/1999/xlink" xmlns:a="http://ns.adobe.com/AdobeSVGViewerExtensions/3.0/"
	 x="0px" y="0px" width="300px" height="200px" viewBox="-28 -66.735 300 200"
	 overflow="visible" enable-background="new -28 -66.735 300 200" xml:space="preserve">
<defs>
</defs>
<circle fill-rule="evenodd" clip-rule="evenodd" fill="#BEBDBD" cx="179.682" cy="59.649" r="6.693"/>
<circle fill-rule="evenodd" clip-rule="evenodd" fill="#BEBDBD" cx="179.769" cy="32.768" r="6.693"/>
<circle fill-rule="evenodd" clip-rule="evenodd" fill="#BEBDBD" cx="148.146" cy="7.48" r="6.693"/>
<path fill="#BEBDBD" d="M151.737,26.27c0.044,2.107,0,31.906,0,31.906c2.624,0,7.774,0,7.774,0c0,2.959-0.004,8.346-0.004,8.346
	s-14.207,0-23.427,0c0,0,0.02-5.232,0.02-8.346c2.71,0,4.704,0,7.031,0c0.022-7.992,0.021-20.055,0.021-23.869
	c-2.165,0-7.61,0-7.61,0c0-2.117,0.005-5.429,0.005-8.042C135.548,26.265,146.6,26.27,151.737,26.27z"/>
<path fill="#BEBDBD" d="M14.1,5.579c2.372-1.538,5.182-2.197,7.971-2.328c1.603-0.088,3.184-0.044,4.787-0.066
	c0,2.789,0,5.578,0,8.366c-1.019,0.011-5.369-0.241-6.96,1.021c-2.471,1.812-2.657,4.955-2.657,5.853
	c0,2.661-0.066,5.185-0.066,7.842c2.635,0,5.27,0,7.905,0c0,2.613,0.001,5.779,0.001,8.042c-2.949,0-7.932,0-7.932,0
	c0,5.627,0.004,15.876,0.004,23.869c2.635,0,4.921,0,7.908,0c0,3.158,0.02,8.336,0.02,8.336c-5.098,0-16.595,0.004-24.874,0.004
	c0-2.788-0.005-5.551,0.016-8.34c2.723,0,5.424,0,8.125,0c0.022-7.993,0.02-19.537,0.02-23.869H0c0,0,0.003-5.723,0.003-8.042
	c0,0,5.723,0,8.358,0c0-3.345,0.029-5.636,0.029-8.644C8.391,14.053,9.599,8.723,14.1,5.579L14.1,5.579z"/>
<path fill="#BEBDBD" d="M75.89,4.313c1.361-3.029,4.918-4.698,8.146-4.237c1.45,0.22,2.942,1.12,3.338,2.613
	c0.132,0.79,0.179,1.511-0.493,3.625c-0.07,0.218-0.154,0.438-0.22,0.659c-0.856,2.063-6.204,14.951-6.335,15.324
	c-0.747,1.646-1.626,3.754-2.745,4.721c-0.919,0.795-2.459,0.9-3.315-0.044c-0.834-0.987-0.725-2.394-0.659-3.601
	c0.285-1.889,1.12-11.133,1.361-13.855C75.209,7.761,75.121,5.938,75.89,4.313L75.89,4.313z"/>
<polygon fill="#BEBDBD" points="215.037,3.401 215.037,44.549 229.486,27.225 239.256,27.227 239.256,34.889 233.131,34.866 
	224.392,45.977 235.832,58.163 244,58.163 243.979,66.507 232.011,66.507 215.037,48.854 214.994,66.507 200.031,66.507 
	200.031,58.163 206.43,58.163 206.428,11.766 199.836,11.764 199.836,3.422 "/>
<path fill="#BEBDBD" d="M87.857,26.272c6.175,0,37.548,0,37.548,0l-0.044,8.035l-23.609,23.869c4.738,0,15.366,0,15.366,0v-6.768
	c2.782,0,8.265,0.005,8.265,0.005l0.022,15.106c-7.111,0-37.521,0.002-37.521,0.002c0-3.315-0.027-5.557-0.005-8.346
	c5.248-5.336,10.606-10.605,15.832-15.985c2.657-2.657,4.839-4.817,7.949-7.884c0,0-11.312,0-15.499,0
	c0,2.129-0.026,6.742-0.026,6.742h-8.256C87.879,38.03,87.879,31.211,87.857,26.272L87.857,26.272z"/>
<circle fill-rule="evenodd" clip-rule="evenodd" fill="#BEBDBD" cx="47.264" cy="7.48" r="6.693"/>
<path fill="#BEBDBD" d="M50.855,26.27c0.044,2.107,0,31.906,0,31.906c2.624,0,7.774,0,7.774,0c0,2.959,0.001,5.731,0.001,8.344
	c-7.817,0.022-14.212,0.002-23.431,0.002c0,0,0.02-5.232,0.02-8.346c2.71,0,4.704,0,7.031,0c0.022-7.992,0.021-20.055,0.021-23.869
	c-2.165,0-7.61,0-7.61,0c0-2.117,0.004-5.429,0.004-8.042C34.666,26.265,45.717,26.27,50.855,26.27z"/>
</svg>
