<?xml version="1.0" encoding="utf-8"?>
<!-- Generator: Adobe Illustrator 15.0.0, SVG Export Plug-In  -->
<!DOCTYPE svg PUBLIC "-//W3C//DTD SVG 1.1//EN" "http://www.w3.org/Graphics/SVG/1.1/DTD/svg11.dtd" [
	<!ENTITY ns_flows "http://ns.adobe.com/Flows/1.0/">
]>
<svg version="1.1"
	 xmlns="http://www.w3.org/2000/svg" xmlns:xlink="http://www.w3.org/1999/xlink" xmlns:a="http://ns.adobe.com/AdobeSVGViewerExtensions/3.0/"
	 x="0px" y="0px" width="300px" height="200px" viewBox="-14.5 -70.1 300 200"
	 overflow="visible" enable-background="new -14.5 -70.1 300 200" xml:space="preserve">
<defs>
</defs>
<path fill="#BEBDBD" d="M117.443,31.483c3.022,0,6.773-2.447,8.388-5.471l2.918-5.494h-7.718l-2.967,5.563
	c-0.846,1.592-2.823,2.883-4.417,2.883h-4.604c-1.595,0-2.2-1.291-1.354-2.883l2.96-5.563h-7.727l-2.917,5.494
	c-1.605,3.024-0.455,5.471,2.565,5.471H117.443"/>
<path fill="#BEBDBD" d="M226.582,31.483c3.023,0,6.773-2.447,8.379-5.471l2.919-5.494h-7.716l-2.958,5.563
	c-0.846,1.592-2.822,2.883-4.415,2.883h-4.607c-1.595,0-2.189-1.291-1.346-2.883l2.96-5.563h-7.737l-2.916,5.494
	c-1.604,3.024-0.453,5.471,2.566,5.471H226.582"/>
<path fill="#BEBDBD" d="M187.469,31.471h-7.754l2.912-5.475c1.605-3.022,4.757-5.479,10.122-5.479l16.684,0.001l-1.352,2.544
	l-11.04,0.014c-3.902,0-6.057,1.783-7.19,3.917L187.469,31.471"/>
<path fill="#BEBDBD" d="M138.989,20.518h-7.724l-2.92,5.495c-1.604,3.023-0.456,5.47,2.566,5.47l18.319,0.006l1.366-2.581
	l-11.631,0.004c-2.888,0-3.519-1.734-2.376-3.87L138.989,20.518"/>
<path fill="#BEBDBD" d="M178.438,28.913l-1.36,2.558l-21.383-0.004c-3.021,0-4.171-2.447-2.565-5.471
	c1.602-3.024,5-5.482,10.605-5.482l19.166-0.004l-1.363,2.568l-14.438-0.01c-4.389,0-5.613,1.292-6.459,2.886
	c-0.848,1.593-0.27,2.935,1.306,2.97L178.438,28.913"/>
<path fill="#BEBDBD" d="M250.863,29.506c1.658-0.025,3.829-1.004,6.022-2.078c1.285-0.629,2.404-1.046,3.441-1.338l-2.87,5.392
	h7.718L271,20.518h-3.859c0,0-3.221-0.184-7.635,1.975c-2.19,1.073-4.54,2.389-6.196,2.411c-1.633-0.022-2.432-1.338-3.483-2.411
	c-2.117-2.159-5.533-1.975-5.533-1.975h-3.875l-5.82,10.964h7.732l2.858-5.392c0.726,0.292,1.399,0.709,2.019,1.338
	C248.259,28.502,249.229,29.481,250.863,29.506"/>
<path fill="#BEBDBD" d="M74.709,31.483h-7.73l2.919-5.492c1.529-3.023,5.253-5.473,9.642-5.473h20.83l-1.35,2.543l-16.323-0.004
	c-2.973,0-4.246,1.353-4.768,2.335l16.032-0.005l-1.381,2.604H76.556L74.709,31.483"/>
<path fill="#666666" d="M5.218,58.875c-1.058-0.682-1.982-1.504-2.747-2.487c-7.159-9.138,1.764-28.08,19.932-42.309
	C40.568-0.147,61.091-4.28,68.25,4.857c1.577,2.02,2.374,4.508,2.464,7.33c0,0-11.376-9.034-32.403,4.939c0,0-12.128,9.19,0.15,9.19
	l27.485,0.001l-32.51,6.002c0,0-8.371,1.809-15.208,10.878L5.218,58.875"/>
<path fill="#666666" d="M10.606,59.283l0.491-1.267h0.493v1.783h-0.325v-1.398h-0.008l-0.535,1.398h-0.245l-0.526-1.398H9.94v1.398
	H9.614v-1.783h0.5L10.606,59.283L10.606,59.283z M9.249,58.297H8.705v1.502H8.36v-1.502H7.813v-0.281h1.436V58.297"/>
</svg>
