<?xml version="1.0" encoding="utf-8"?>
<!-- Generator: Adobe Illustrator 15.0.0, SVG Export Plug-In  -->
<!DOCTYPE svg PUBLIC "-//W3C//DTD SVG 1.1//EN" "http://www.w3.org/Graphics/SVG/1.1/DTD/svg11.dtd" [
	<!ENTITY ns_flows "http://ns.adobe.com/Flows/1.0/">
]>
<svg version="1.1"
	 xmlns="http://www.w3.org/2000/svg" xmlns:xlink="http://www.w3.org/1999/xlink" xmlns:a="http://ns.adobe.com/AdobeSVGViewerExtensions/3.0/"
	 x="0px" y="0px" width="300px" height="200px" viewBox="-28 -83.744 300 200"
	 overflow="visible" enable-background="new -28 -83.744 300 200" xml:space="preserve">
<defs>
</defs>
<path fill="#BEBDBD" d="M225.471,5.701c-2.152,0-3.609,1.888-3.609,3.513c0,1.657,0,12.894,0,13.988
	c0,2.385,1.986,3.646,3.579,3.646c1.193,0,4.174,0,5.998,0c1.692,0,3.578-1.492,3.578-3.547c0-2.088,0-12.297,0-14.055
	c0-1.755-1.624-3.545-3.547-3.545C229.516,5.701,226.367,5.701,225.471,5.701L225.471,5.701z M236.41,0.033
	c2.852,0,7.591,2.089,7.591,9.511c0,3.283,0,9.083,0,13.658c0,8.02-5.897,9.311-7.657,9.311c-1.625,0-13.093,0-15.811,0
	c-2.751,0-7.618-1.951-7.618-9.412c0-1.723,0-12.03,0-13.954c0-4.738,2.713-9.078,7.722-9.113
	C221.925,0.033,234.718,0.033,236.41,0.033"/>
<path fill="#BEBDBD" d="M147.682,18.909h14.214c0,0,0-7.934,0-9.454c0.032-1.687-1.257-3.802-3.406-3.802c-2.182,0-5.553,0-7.236,0
	c-1.756,0-3.571,1.618-3.571,3.569C147.682,11.207,147.682,18.909,147.682,18.909L147.682,18.909z M138.756,9.42
	C138.721,3.9,141.764,0,146.493,0c2.213,0,14.742,0,16.893,0c4.525,0,7.468,3.969,7.468,9.223c0,3.24,0,23.176,0,23.176h-8.925
	v-7.176h-14.246v7.176h-8.926C138.756,32.399,138.756,13.059,138.756,9.42"/>
<path fill="#BEBDBD" d="M176.799,32.459h8.964V5.695c0,0,7.05,0,8.84,0c2.034,0,3.589,1.674,3.706,3.585c0,1.791,0,23.179,0,23.179
	h8.841c0,0,0-19.118,0-22.942c0-4.42-2.03-9.559-7.765-9.438c-2.39,0-22.586,0-22.586,0V32.459L176.799,32.459z"/>
<path fill="#BEBDBD" d="M90.885,0.08v32.379h8.845V5.695h7.769v26.764h8.961V5.695c0,0,2.628,0,4.061,0
	c1.912,0,3.585,1.791,3.585,3.585c0,1.911,0,23.179,0,23.179h8.962c0,0,0-20.073,0-23.179c0-4.66-2.508-9.2-7.646-9.2
	C123.987,0.08,90.885,0.08,90.885,0.08L90.885,0.08z"/>
<polygon fill="#BEBDBD" points="74.487,0.012 83.949,0.012 83.949,32.42 74.487,32.42 74.487,0.012 "/>
<polygon fill="#BEBDBD" points="36.522,0.08 36.522,32.459 45.482,32.459 45.482,25.293 58.627,25.293 58.627,32.459 67.586,32.459 
	67.586,0.08 58.627,0.08 58.627,18.958 45.482,18.958 45.482,0.08 36.522,0.08 "/>
<path fill="#BEBDBD" d="M30.667,0.08c0,0-20.498,0-22.169,0c-5.496,0-7.681,4.307-7.944,5.373c-0.742,3.008-0.773,7.027,0.119,9.323
	c0.529,1.353,2.735,4.773,7.779,4.779c1.552,0.002,10.025,0,11.58,0c1.671,0,2.747,1.195,2.864,3.467
	c0.121,2.15-0.714,3.822-2.864,3.822c-2.031,0-18.998,0-18.998,0v5.615c0,0,19.833,0,22.224,0c5.376-0.119,6.758-3.393,7.409-4.898
	c1.363-3.156,1.193-7.646,0-10.756c-0.361-1.074-2.391-4.537-7.649-4.537c-1.554,0-9.915,0-11.708,0c-1.675,0-2.63-1.196-2.63-3.348
	c0-2.152,0.955-3.345,2.63-3.345c1.673,0,19.357,0,19.357,0V0.08L30.667,0.08z"/>
</svg>
