<?xml version="1.0" encoding="utf-8"?>
<!-- Generator: Adobe Illustrator 15.0.0, SVG Export Plug-In . SVG Version: 6.00 Build 0)  -->
<!DOCTYPE svg PUBLIC "-//W3C//DTD SVG 1.1//EN" "http://www.w3.org/Graphics/SVG/1.1/DTD/svg11.dtd">
<svg version="1.1" id="Livello_1" xmlns="http://www.w3.org/2000/svg" xmlns:xlink="http://www.w3.org/1999/xlink" x="0px" y="0px"
	 width="886px" height="213px" viewBox="0 0 886 213" enable-background="new 0 0 886 213" xml:space="preserve">
<g>
	<path fill="#FFFFFF" d="M62.479,68.838h27.981c3.9,0,7.588,0.355,11.064,1.064c3.475,0.71,6.506,1.932,9.097,3.67
		c2.588,1.74,4.644,4.081,6.17,7.021c1.524,2.944,2.287,6.65,2.287,11.119c0,4.399-0.709,8.086-2.127,11.065
		c-1.419,2.978-3.369,5.354-5.852,7.127c-2.484,1.775-5.426,3.034-8.831,3.777c-3.405,0.745-7.093,1.117-11.065,1.117H79.076v29.364
		H62.479V68.838z M79.076,100.755h11.065c1.49,0,2.926-0.142,4.309-0.425c1.383-0.283,2.623-0.762,3.724-1.437
		c1.099-0.674,1.985-1.596,2.661-2.766c0.673-1.171,1.01-2.643,1.01-4.416c0-1.915-0.444-3.458-1.33-4.628
		c-0.888-1.17-2.021-2.075-3.405-2.713c-1.383-0.638-2.925-1.044-4.628-1.224c-1.702-0.176-3.334-0.266-4.895-0.266h-8.511V100.755z
		"/>
	<path fill="#FFFFFF" d="M146.423,68.838h13.724l32.769,75.325h-18.725l-6.488-15.958h-29.259l-6.277,15.958h-18.299L146.423,68.838
		z M152.808,90.755l-9.15,23.406h18.406L152.808,90.755z"/>
	<path fill="#FFFFFF" d="M201.109,68.838h16.596v60.005h30.749v15.32h-47.345V68.838z"/>
	<path fill="#FFFFFF" d="M253.56,106.501c0-6.028,1.01-11.492,3.032-16.385c2.021-4.893,4.841-9.06,8.458-12.501
		c3.617-3.44,7.907-6.081,12.873-7.925c4.964-1.844,10.39-2.768,16.279-2.768c5.886,0,11.312,0.923,16.278,2.768
		c4.963,1.844,9.257,4.485,12.873,7.925c3.618,3.441,6.438,7.608,8.459,12.501c2.022,4.893,3.032,10.357,3.032,16.385
		c0,6.029-1.01,11.49-3.032,16.385c-2.021,4.894-4.841,9.061-8.459,12.5c-3.616,3.441-7.91,6.084-12.873,7.927
		c-4.966,1.842-10.392,2.766-16.278,2.766c-5.889,0-11.314-0.924-16.279-2.766c-4.966-1.843-9.256-4.485-12.873-7.927
		c-3.617-3.439-6.437-7.606-8.458-12.5C254.569,117.991,253.56,112.53,253.56,106.501z M270.795,106.501
		c0,3.548,0.549,6.792,1.648,9.735c1.1,2.944,2.677,5.496,4.734,7.66c2.057,2.164,4.522,3.847,7.394,5.053
		c2.874,1.206,6.081,1.81,9.63,1.81c3.546,0,6.756-0.604,9.628-1.81c2.873-1.206,5.336-2.889,7.394-5.053
		c2.056-2.164,3.635-4.716,4.735-7.66c1.1-2.943,1.649-6.188,1.649-9.735c0-3.474-0.55-6.703-1.649-9.682
		c-1.1-2.979-2.679-5.551-4.735-7.714c-2.058-2.163-4.521-3.847-7.394-5.055c-2.872-1.204-6.082-1.807-9.628-1.807
		c-3.549,0-6.756,0.603-9.63,1.807c-2.872,1.208-5.337,2.892-7.394,5.055c-2.058,2.163-3.635,4.735-4.734,7.714
		C271.344,99.798,270.795,103.027,270.795,106.501z"/>
	<path fill="#FFFFFF" d="M370.908,68.838h13.726l32.768,75.325h-18.725l-6.489-15.958h-29.259l-6.277,15.958h-18.299L370.908,68.838
		z M377.292,90.755l-9.15,23.406h18.405L377.292,90.755z"/>
	<path fill="#FFFFFF" d="M425.594,68.838h16.596v60.005h30.748v15.32h-47.344V68.838z"/>
	<path fill="#FFFFFF" d="M486.874,83.52h-21.491V68.838h59.58V83.52h-21.491v60.643h-16.598V83.52z"/>
	<path fill="#FFFFFF" d="M529.324,106.501c0-6.028,1.01-11.492,3.032-16.385c2.021-4.893,4.841-9.06,8.458-12.501
		c3.617-3.44,7.907-6.081,12.872-7.925c4.964-1.844,10.39-2.768,16.279-2.768c5.886,0,11.312,0.923,16.277,2.768
		c4.964,1.844,9.257,4.485,12.874,7.925c3.617,3.441,6.437,7.608,8.459,12.501c2.021,4.893,3.031,10.357,3.031,16.385
		c0,6.029-1.011,11.49-3.031,16.385c-2.022,4.894-4.842,9.061-8.459,12.5c-3.617,3.441-7.91,6.084-12.874,7.927
		c-4.966,1.842-10.392,2.766-16.277,2.766c-5.89,0-11.315-0.924-16.279-2.766c-4.965-1.843-9.255-4.485-12.872-7.927
		c-3.617-3.439-6.438-7.606-8.458-12.5C530.334,117.991,529.324,112.53,529.324,106.501z M546.56,106.501
		c0,3.548,0.548,6.792,1.648,9.735c1.1,2.944,2.676,5.496,4.733,7.66c2.057,2.164,4.522,3.847,7.396,5.053s6.081,1.81,9.629,1.81
		c3.546,0,6.757-0.604,9.628-1.81c2.873-1.206,5.337-2.889,7.395-5.053c2.057-2.164,3.634-4.716,4.734-7.66
		c1.1-2.943,1.648-6.188,1.648-9.735c0-3.474-0.549-6.703-1.648-9.682c-1.101-2.979-2.678-5.551-4.734-7.714
		c-2.058-2.163-4.521-3.847-7.395-5.055c-2.871-1.204-6.082-1.807-9.628-1.807c-3.548,0-6.756,0.603-9.629,1.807
		c-2.873,1.208-5.339,2.892-7.396,5.055c-2.058,2.163-3.634,4.735-4.733,7.714C547.107,99.798,546.56,103.027,546.56,106.501z"/>
	<path fill="#FFFFFF" d="M683.084,126.848c0,5.402-1.299,9.76-3.896,13.072c-2.598,3.314-6.17,4.971-10.719,4.971
		c-2.447,0-4.572-0.468-6.372-1.402c-1.801-0.935-3.302-2.314-4.503-4.139l-0.622,4.813h-5.888V95.504l-5.646-0.97v-4.398h12.468
		v20.987c1.178-1.661,2.638-2.932,4.381-3.81c1.743-0.877,3.78-1.315,6.112-1.315c4.618,0,8.22,1.847,10.807,5.542
		c2.585,3.693,3.878,8.554,3.878,14.58V126.848z M676.227,126.12c0-4.318-0.784-7.828-2.354-10.528
		c-1.57-2.702-3.972-4.052-7.204-4.052c-2.101,0-3.873,0.507-5.316,1.522c-1.442,1.017-2.592,2.378-3.445,4.087v16.555
		c0.854,1.731,2.014,3.105,3.479,4.121c1.468,1.016,3.25,1.524,5.352,1.524c3.21,0,5.593-1.144,7.151-3.429
		c1.559-2.286,2.338-5.311,2.338-9.073V126.12z"/>
	<path fill="#FFFFFF" d="M689.872,139.799l5.646-0.969V112.06l-5.646-0.971v-4.397h12.468v32.139l5.645,0.969v4.364h-18.112V139.799
		z M702.34,97.098h-6.822v-6.962h6.822V97.098z"/>
	<path fill="#FFFFFF" d="M712.245,94.534v-4.398h12.468v31.309h4.363l8.001-9.904l-3.43-0.451v-4.397h15.689v4.397l-4.572,0.9
		l-9.87,11.775l12.019,15.203l4.259,0.831v4.364h-15.55v-4.364l3.498-0.449l-9.94-12.468h-4.467v11.948l5.645,0.969v4.364h-18.112
		v-4.364l5.645-0.969V95.504L712.245,94.534z"/>
	<path fill="#FFFFFF" d="M772.714,144.891c-5.218,0-9.368-1.737-12.45-5.212c-3.083-3.476-4.624-7.982-4.624-13.524v-1.523
		c0-5.334,1.587-9.772,4.763-13.316c3.174-3.544,6.933-5.316,11.272-5.316c5.033,0,8.849,1.523,11.446,4.571
		c2.598,3.047,3.896,7.112,3.896,12.19v4.261h-24.312l-0.104,0.173c0.068,3.602,0.98,6.562,2.736,8.883
		c1.754,2.321,4.213,3.481,7.376,3.481c2.31,0,4.335-0.33,6.078-0.987c1.744-0.658,3.25-1.564,4.52-2.72l2.667,4.434
		c-1.339,1.293-3.111,2.384-5.315,3.272C778.458,144.446,775.809,144.891,772.714,144.891z M771.675,111.365
		c-2.286,0-4.236,0.965-5.853,2.893s-2.609,4.347-2.979,7.256l0.07,0.173h17.281v-0.9c0-2.678-0.715-4.918-2.146-6.719
		S774.491,111.365,771.675,111.365z"/>
	<path fill="#FFFFFF" d="M822.413,118.466h-5.127l-1.107-4.503c-0.831-0.784-1.876-1.414-3.135-1.887
		c-1.259-0.474-2.685-0.711-4.277-0.711c-2.424,0-4.225,0.531-5.402,1.594s-1.767,2.343-1.767,3.845c0,1.478,0.52,2.644,1.559,3.498
		c1.039,0.854,3.151,1.616,6.338,2.285c4.733,1.017,8.254,2.396,10.563,4.14c2.309,1.742,3.463,4.08,3.463,7.012
		c0,3.326-1.345,6.015-4.035,8.07c-2.688,2.055-6.204,3.082-10.545,3.082c-2.84,0-5.392-0.329-7.654-0.987
		c-2.263-0.657-4.283-1.609-6.061-2.857l-0.034-8.554h5.125l1.281,5.021c0.785,0.716,1.854,1.235,3.204,1.559
		c1.35,0.323,2.73,0.485,4.139,0.485c2.424,0,4.323-0.491,5.696-1.473c1.375-0.98,2.062-2.269,2.062-3.861
		c0-1.501-0.572-2.736-1.715-3.705c-1.143-0.971-3.307-1.812-6.494-2.529c-4.548-0.992-7.977-2.344-10.285-4.052
		c-2.309-1.709-3.464-4.017-3.464-6.927c0-3.048,1.299-5.646,3.896-7.792c2.598-2.147,5.975-3.221,10.13-3.221
		c2.84,0,5.391,0.369,7.654,1.108c2.263,0.738,4.144,1.766,5.646,3.082L822.413,118.466z"/>
</g>
</svg>
