<svg xmlns="http://www.w3.org/2000/svg" xmlns:xlink="http://www.w3.org/1999/xlink" viewBox="0 0 1104.6 510.43"><defs><style>.cls-1,.cls-66{fill:#d1d9ff;}.cls-2{fill:#475180;}.cls-3{fill:#8da1ff;}.cls-4{fill:#59a68c;}.cls-5,.cls-56{fill:#d9ec89;}.cls-10,.cls-11,.cls-12,.cls-13,.cls-14,.cls-15,.cls-16,.cls-17,.cls-18,.cls-19,.cls-20,.cls-21,.cls-22,.cls-23,.cls-24,.cls-25,.cls-26,.cls-27,.cls-28,.cls-29,.cls-30,.cls-31,.cls-32,.cls-33,.cls-34,.cls-35,.cls-36,.cls-37,.cls-38,.cls-39,.cls-40,.cls-41,.cls-42,.cls-43,.cls-44,.cls-45,.cls-46,.cls-47,.cls-48,.cls-52,.cls-55,.cls-6,.cls-65,.cls-66,.cls-7,.cls-8,.cls-9{stroke-miterlimit:10;}.cls-10,.cls-11,.cls-12,.cls-13,.cls-14,.cls-15,.cls-16,.cls-17,.cls-18,.cls-19,.cls-20,.cls-21,.cls-22,.cls-23,.cls-24,.cls-25,.cls-26,.cls-27,.cls-28,.cls-29,.cls-30,.cls-31,.cls-32,.cls-33,.cls-34,.cls-35,.cls-36,.cls-37,.cls-38,.cls-39,.cls-40,.cls-41,.cls-42,.cls-43,.cls-44,.cls-45,.cls-46,.cls-47,.cls-48,.cls-6,.cls-7,.cls-8,.cls-9{stroke-width:0.28px;}.cls-6{fill:url(#G2);stroke:url(#G1);}.cls-7{fill:url(#G2-2);stroke:url(#G1-2);}.cls-8{fill:url(#G2-3);stroke:url(#G1-3);}.cls-9{fill:url(#G2-4);stroke:url(#G1-4);}.cls-10{fill:url(#G2-5);stroke:url(#G1-5);}.cls-11{fill:url(#G2-6);stroke:url(#G1-6);}.cls-12{fill:url(#G2-7);stroke:url(#G1-7);}.cls-13{fill:url(#G2-8);stroke:url(#G1-8);}.cls-14{fill:url(#G2-9);stroke:url(#G1-9);}.cls-15{fill:url(#G2-10);stroke:url(#G1-10);}.cls-16{fill:url(#G2-11);stroke:url(#G1-11);}.cls-17{fill:url(#G2-12);stroke:url(#G1-12);}.cls-18{fill:url(#G2-13);stroke:url(#G1-13);}.cls-19{fill:url(#G2-14);stroke:url(#G1-14);}.cls-20{fill:url(#G2-15);stroke:url(#G1-15);}.cls-21{fill:url(#G2-16);stroke:url(#G1-16);}.cls-22{fill:url(#G2-17);stroke:url(#G1-17);}.cls-23{fill:url(#G2-18);stroke:url(#G1-18);}.cls-24{fill:url(#G2-19);stroke:url(#G1-19);}.cls-25{fill:url(#G2-20);stroke:url(#G1-20);}.cls-26{fill:url(#G2-21);stroke:url(#G1-21);}.cls-27{fill:url(#G2-22);stroke:url(#G1-22);}.cls-28{fill:url(#G2-23);stroke:url(#G1-23);}.cls-29{fill:url(#G2-24);stroke:url(#G1-24);}.cls-30{fill:url(#G2-25);stroke:url(#G1-25);}.cls-31{fill:url(#G2-26);stroke:url(#G1-26);}.cls-32{fill:url(#G2-27);stroke:url(#G1-27);}.cls-33{fill:url(#G2-28);stroke:url(#G1-28);}.cls-34{fill:url(#G2-29);stroke:url(#G1-29);}.cls-35{fill:url(#G2-30);stroke:url(#G1-30);}.cls-36{fill:url(#G2-31);stroke:url(#G1-31);}.cls-37{fill:url(#G2-32);stroke:url(#G1-32);}.cls-38{fill:url(#G2-33);stroke:url(#G1-33);}.cls-39{fill:url(#G2-34);stroke:url(#G1-34);}.cls-40{fill:url(#G2-35);stroke:url(#G1-35);}.cls-41{fill:url(#G2-36);stroke:url(#G1-36);}.cls-42{fill:url(#G2-37);stroke:url(#G1-37);}.cls-43{fill:url(#G2-38);stroke:url(#G1-38);}.cls-44{fill:url(#G2-39);stroke:url(#G1-39);}.cls-45{fill:url(#G2-40);stroke:url(#G1-40);}.cls-46{fill:url(#G2-41);stroke:url(#G1-41);}.cls-47{fill:url(#G2-42);stroke:url(#G1-42);}.cls-48{fill:url(#G2-43);stroke:url(#G1-43);}.cls-49{fill:#7db;}.cls-50{fill:#f0fcf7;}.cls-51,.cls-56{font-size:22.68px;}.cls-51{fill:#1d4198;font-family:OpenSans-Light, Open Sans;}.cls-52,.cls-53,.cls-65{fill:none;}.cls-52,.cls-55,.cls-66{stroke:#2656ca;}.cls-52,.cls-55{stroke-width:8.5px;}.cls-54{font-size:34.02px;}.cls-54,.cls-57{fill:#2656ca;font-family:Voltaire, Voltaire;}.cls-55{fill:#fff;}.cls-56{font-family:OpenSans, Open Sans;}.cls-57{font-size:45.35px;}.cls-58{fill:url(#linear-gradient);}.cls-59{fill:url(#linear-gradient-2);}.cls-60{fill:url(#linear-gradient-3);}.cls-61{fill:#e9fef6;}.cls-62{fill:url(#linear-gradient-4);}.cls-63{fill:url(#linear-gradient-5);}.cls-64{fill:url(#linear-gradient-6);}.cls-65{stroke:#d9ec89;stroke-width:0.99px;}.cls-66{stroke-width:5.67px;}</style><linearGradient id="G2" x1="269.21" y1="300.93" x2="316.37" y2="300.93" gradientUnits="userSpaceOnUse"><stop offset="0" stop-color="#7db"/><stop offset="1" stop-color="#d9eddf"/></linearGradient><linearGradient id="G1" x1="269.07" y1="300.93" x2="316.51" y2="300.93" gradientUnits="userSpaceOnUse"><stop offset="0" stop-color="#7db"/><stop offset="1" stop-color="#d9ec89"/></linearGradient><linearGradient id="G2-2" x1="317.05" y1="307.39" x2="352.93" y2="307.39" xlink:href="#G2"/><linearGradient id="G1-2" x1="316.9" y1="307.39" x2="353.07" y2="307.39" xlink:href="#G1"/><linearGradient id="G2-3" x1="291.63" y1="275.8" x2="326.18" y2="275.8" xlink:href="#G2"/><linearGradient id="G1-3" x1="291.49" y1="275.8" x2="326.32" y2="275.8" xlink:href="#G1"/><linearGradient id="G2-4" x1="353.42" y1="290.52" x2="385.59" y2="290.52" xlink:href="#G2"/><linearGradient id="G1-4" x1="353.28" y1="290.52" x2="385.74" y2="290.52" xlink:href="#G1"/><linearGradient id="G2-5" x1="344.97" y1="256.59" x2="373.48" y2="256.59" xlink:href="#G2"/><linearGradient id="G1-5" x1="344.83" y1="256.59" x2="373.62" y2="256.59" xlink:href="#G1"/><linearGradient id="G2-6" x1="373.65" y1="264.01" x2="406.86" y2="264.01" xlink:href="#G2"/><linearGradient id="G1-6" x1="373.51" y1="264.01" x2="407" y2="264.01" xlink:href="#G1"/><linearGradient id="G2-7" x1="394.36" y1="277.52" x2="427.74" y2="277.52" xlink:href="#G2"/><linearGradient id="G1-7" x1="394.21" y1="277.52" x2="427.88" y2="277.52" xlink:href="#G1"/><linearGradient id="G2-8" x1="381.42" y1="311.45" x2="415.89" y2="311.45" xlink:href="#G2"/><linearGradient id="G1-8" x1="381.28" y1="311.45" x2="416.03" y2="311.45" xlink:href="#G1"/><linearGradient id="G2-9" x1="353.73" y1="319.45" x2="387.89" y2="319.45" xlink:href="#G2"/><linearGradient id="G1-9" x1="353.59" y1="319.45" x2="388.03" y2="319.45" xlink:href="#G1"/><linearGradient id="G2-10" x1="383" y1="343.22" x2="409.91" y2="343.22" xlink:href="#G2"/><linearGradient id="G1-10" x1="382.86" y1="343.22" x2="410.06" y2="343.22" xlink:href="#G1"/><linearGradient id="G2-11" x1="484" y1="378.22" x2="510.91" y2="378.22" xlink:href="#G2"/><linearGradient id="G1-11" x1="483.86" y1="378.22" x2="511.06" y2="378.22" xlink:href="#G1"/><linearGradient id="G2-12" x1="407.64" y1="339.16" x2="442.93" y2="339.16" xlink:href="#G2"/><linearGradient id="G1-12" x1="407.5" y1="339.16" x2="443.07" y2="339.16" xlink:href="#G1"/><linearGradient id="G2-13" x1="413.41" y1="298.24" x2="438.08" y2="298.24" xlink:href="#G2"/><linearGradient id="G1-13" x1="413.27" y1="298.24" x2="438.23" y2="298.24" xlink:href="#G1"/><linearGradient id="G2-14" x1="426.51" y1="276.93" x2="459.93" y2="276.93" xlink:href="#G2"/><linearGradient id="G1-14" x1="426.37" y1="276.93" x2="460.07" y2="276.93" xlink:href="#G1"/><linearGradient id="G2-15" x1="438.06" y1="309.77" x2="465.97" y2="309.77" xlink:href="#G2"/><linearGradient id="G1-15" x1="437.92" y1="309.77" x2="466.11" y2="309.77" xlink:href="#G1"/><linearGradient id="G2-16" x1="466.79" y1="302.57" x2="493.78" y2="302.57" xlink:href="#G2"/><linearGradient id="G1-16" x1="466.65" y1="302.57" x2="493.92" y2="302.57" xlink:href="#G1"/><linearGradient id="G2-17" x1="462.68" y1="330.3" x2="490.59" y2="330.3" xlink:href="#G2"/><linearGradient id="G1-17" x1="462.54" y1="330.3" x2="490.73" y2="330.3" xlink:href="#G1"/><linearGradient id="G2-18" x1="441.6" y1="348.25" x2="463.58" y2="348.25" xlink:href="#G2"/><linearGradient id="G1-18" x1="441.45" y1="348.25" x2="463.72" y2="348.25" xlink:href="#G1"/><linearGradient id="G2-19" x1="460.62" y1="360.36" x2="485.75" y2="360.36" xlink:href="#G2"/><linearGradient id="G1-19" x1="460.47" y1="360.36" x2="485.9" y2="360.36" xlink:href="#G1"/><linearGradient id="G2-20" x1="480.4" y1="354.78" x2="515.51" y2="354.78" xlink:href="#G2"/><linearGradient id="G1-20" x1="480.26" y1="354.78" x2="515.65" y2="354.78" xlink:href="#G1"/><linearGradient id="G2-21" x1="490.32" y1="326.25" x2="519.56" y2="326.25" xlink:href="#G2"/><linearGradient id="G1-21" x1="490.18" y1="326.25" x2="519.7" y2="326.25" xlink:href="#G1"/><linearGradient id="G2-22" x1="508.55" y1="384.81" x2="541.67" y2="384.81" xlink:href="#G2"/><linearGradient id="G1-22" x1="508.41" y1="384.81" x2="541.81" y2="384.81" xlink:href="#G1"/><linearGradient id="G2-23" x1="523.06" y1="329.2" x2="561.35" y2="329.2" xlink:href="#G2"/><linearGradient id="G1-23" x1="522.91" y1="329.2" x2="561.49" y2="329.2" xlink:href="#G1"/><linearGradient id="G2-24" x1="510.66" y1="351.99" x2="534.95" y2="351.99" xlink:href="#G2"/><linearGradient id="G1-24" x1="510.52" y1="351.99" x2="535.09" y2="351.99" xlink:href="#G1"/><linearGradient id="G2-25" x1="546.95" y1="347.91" x2="575.85" y2="347.91" xlink:href="#G2"/><linearGradient id="G1-25" x1="546.81" y1="347.91" x2="575.99" y2="347.91" xlink:href="#G1"/><linearGradient id="G2-26" x1="535.12" y1="388.15" x2="561.43" y2="388.15" xlink:href="#G2"/><linearGradient id="G1-26" x1="534.98" y1="388.15" x2="561.57" y2="388.15" xlink:href="#G1"/><linearGradient id="G2-27" x1="559.18" y1="372.73" x2="587.66" y2="372.73" xlink:href="#G2"/><linearGradient id="G1-27" x1="559.04" y1="372.73" x2="587.8" y2="372.73" xlink:href="#G1"/><linearGradient id="G2-28" x1="575.52" y1="345.07" x2="599.9" y2="345.07" xlink:href="#G2"/><linearGradient id="G1-28" x1="575.38" y1="345.07" x2="600.04" y2="345.07" xlink:href="#G1"/><linearGradient id="G2-29" x1="587.91" y1="363.82" x2="615.61" y2="363.82" xlink:href="#G2"/><linearGradient id="G1-29" x1="587.77" y1="363.82" x2="615.76" y2="363.82" xlink:href="#G1"/><linearGradient id="G2-30" x1="590.07" y1="388.74" x2="618.28" y2="388.74" xlink:href="#G2"/><linearGradient id="G1-30" x1="589.93" y1="388.74" x2="618.43" y2="388.74" xlink:href="#G1"/><linearGradient id="G2-31" x1="566.06" y1="403.52" x2="596.99" y2="403.52" xlink:href="#G2"/><linearGradient id="G1-31" x1="565.92" y1="403.52" x2="597.13" y2="403.52" xlink:href="#G1"/><linearGradient id="G2-32" x1="596.18" y1="412.98" x2="624.35" y2="412.98" xlink:href="#G2"/><linearGradient id="G1-32" x1="596.04" y1="412.98" x2="624.49" y2="412.98" xlink:href="#G1"/><linearGradient id="G2-33" x1="619.34" y1="392.87" x2="653.57" y2="392.87" xlink:href="#G2"/><linearGradient id="G1-33" x1="619.19" y1="392.87" x2="653.71" y2="392.87" xlink:href="#G1"/><linearGradient id="G2-34" x1="610.14" y1="359" x2="640.95" y2="359" xlink:href="#G2"/><linearGradient id="G1-34" x1="610" y1="359" x2="641.09" y2="359" xlink:href="#G1"/><linearGradient id="G2-35" x1="306.82" y1="250.31" x2="340.67" y2="250.31" xlink:href="#G2"/><linearGradient id="G1-35" x1="306.67" y1="250.31" x2="340.81" y2="250.31" xlink:href="#G1"/><linearGradient id="G2-36" x1="637.4" y1="368.25" x2="674.65" y2="368.25" xlink:href="#G2"/><linearGradient id="G1-36" x1="637.26" y1="368.25" x2="674.79" y2="368.25" xlink:href="#G1"/><linearGradient id="G2-37" x1="646.79" y1="400.26" x2="683.35" y2="400.26" xlink:href="#G2"/><linearGradient id="G1-37" x1="646.65" y1="400.26" x2="683.49" y2="400.26" xlink:href="#G1"/><linearGradient id="G2-38" x1="626.42" y1="418.41" x2="657" y2="418.41" xlink:href="#G2"/><linearGradient id="G1-38" x1="626.27" y1="418.41" x2="657.14" y2="418.41" xlink:href="#G1"/><linearGradient id="G2-39" x1="653.68" y1="434.8" x2="689.59" y2="434.8" xlink:href="#G2"/><linearGradient id="G1-39" x1="653.53" y1="434.8" x2="689.73" y2="434.8" xlink:href="#G1"/><linearGradient id="G2-40" x1="671.94" y1="384.76" x2="707.22" y2="384.76" xlink:href="#G2"/><linearGradient id="G1-40" x1="671.8" y1="384.76" x2="707.36" y2="384.76" xlink:href="#G1"/><linearGradient id="G2-41" x1="681.46" y1="417.89" x2="707.65" y2="417.89" xlink:href="#G2"/><linearGradient id="G1-41" x1="681.31" y1="417.89" x2="707.79" y2="417.89" xlink:href="#G1"/><linearGradient id="G2-42" x1="686.94" y1="446.51" x2="711.16" y2="446.51" xlink:href="#G2"/><linearGradient id="G1-42" x1="686.8" y1="446.51" x2="711.3" y2="446.51" xlink:href="#G1"/><linearGradient id="G2-43" x1="323.26" y1="277.45" x2="355.92" y2="277.45" xlink:href="#G2"/><linearGradient id="G1-43" x1="323.12" y1="277.45" x2="356.06" y2="277.45" xlink:href="#G1"/><linearGradient id="linear-gradient" x1="989.36" y1="277.36" x2="1063.6" y2="277.36" gradientUnits="userSpaceOnUse"><stop offset="0" stop-color="#83c5b2"/><stop offset="1" stop-color="#d9eddf"/></linearGradient><linearGradient id="linear-gradient-2" x1="1070.09" y1="249.49" x2="1038.72" y2="318.86" gradientUnits="userSpaceOnUse"><stop offset="0" stop-color="#92e4c9"/><stop offset="1" stop-color="#f0fcf7"/></linearGradient><linearGradient id="linear-gradient-3" x1="1084.19" y1="260.51" x2="1036.53" y2="314.17" gradientUnits="userSpaceOnUse"><stop offset="0" stop-color="#adebd6"/><stop offset="1" stop-color="#f0fcf7"/></linearGradient><linearGradient id="linear-gradient-4" x1="972.08" y1="286.92" x2="1029.61" y2="286.92" xlink:href="#linear-gradient-2"/><linearGradient id="linear-gradient-5" x1="1018.5" y1="302.17" x2="962.03" y2="270.45" xlink:href="#linear-gradient-3"/><linearGradient id="linear-gradient-6" x1="993.54" y1="302.46" x2="1067.78" y2="302.46" gradientUnits="userSpaceOnUse"><stop offset="0" stop-color="#f0fcf7"/><stop offset="1" stop-color="#c9fce8"/></linearGradient></defs><title>MorusAlba</title><g id="FULL"><g id="sfondoBigChiaro"><path class="cls-1" d="M698.5,225.47c-76,0-118.86-77-194.06-94.1-80.52-18.27-158.09,17.62-217.51,65C232.39,239.87,173.31,297,157.51,363.91c-17,72.09,30.2,128.12,110.6,131,89.55,3.17,165.09-57.22,254-60.37,85.8-3,168.46,41.66,254.53,26.69C973.91,426.87,884.24,225.47,698.5,225.47Z" transform="translate(-152.56 -43.07)"/><path class="cls-1" d="M698.5,224C636,223.58,593.91,170.44,542,143.8,478.35,111.09,402.9,125,342.24,157.71,311,174.57,282.94,196.53,256.4,220S204.59,269.4,185,299.2c-17.52,26.61-31.4,57.68-32.36,90-.74,25,7.18,49.63,23.72,68.53,42,48,114.28,43.56,169.89,27.52,34.09-9.83,66.71-24,100.52-34.69,35.56-11.24,71.39-16.85,108.7-13.53,76.33,6.8,150.29,39.81,227.78,24.48,40.87-8.09,87-27.86,101.78-70.37,12.1-34.88-2.56-72.21-25.32-99.14C829.3,256,784,234.54,738.11,227.13A252.57,252.57,0,0,0,698.5,224a1.5,1.5,0,0,0,0,3c49.42.13,99.74,14.7,138.19,46.56,28.06,23.25,51.64,57.89,49.53,95.79-2.31,41.46-36.88,68.36-73.42,81.13-31.92,11.16-65.78,14.18-99.34,11-38-3.55-75-13.62-112.36-20.78-35-6.71-70.59-10.59-106-5.06-34,5.31-66.41,17.59-98.61,29.41-59,21.64-129.68,45-189.52,13-22.53-12.08-40-32-47.34-56.72-8.46-28.61-2.6-59.06,9-85.92,13.74-31.8,35.53-59.61,59.49-84.35a558.63,558.63,0,0,1,79.83-68.51c58-40.66,132.12-67.91,202.95-48,56.33,15.87,93.83,65.86,148.22,85.39a118.56,118.56,0,0,0,39.4,7A1.5,1.5,0,0,0,698.5,224Z" transform="translate(-152.56 -43.07)"/></g><g id="sfondoBigScuro"><path class="cls-2" d="M818.67,386.91C805.36,489.27,658,524.82,474.26,466.69,200.25,380,180.72,300.6,206.7,218.49s160.91-37.66,347.4-1.18C749.18,255.47,829.06,307,818.67,386.91Z" transform="translate(-152.56 -43.07)"/><path class="cls-3" d="M819.09,387a109.26,109.26,0,0,1-5.65,23.16,101.21,101.21,0,0,1-10.81,21.26L801,433.86l-1.77,2.41c-1.15,1.63-2.47,3.13-3.7,4.7a113.31,113.31,0,0,1-8.19,8.72c-2.85,2.79-5.92,5.35-9,7.86s-6.37,4.82-9.73,7c-13.35,8.81-28.12,15.3-43.31,20.21A264.71,264.71,0,0,1,678.44,495a355.06,355.06,0,0,1-47.84,2.77c-8-.06-16-.38-24-.9s-15.94-1.18-23.86-2.17a565.21,565.21,0,0,1-93.61-19.59c-15.3-4.58-30.34-9.62-45.36-14.86s-29.92-10.75-44.71-16.58-29.47-11.94-44-18.47-28.78-13.55-42.84-21a466.1,466.1,0,0,1-40.94-24.51q-9.89-6.69-19.22-14.19a217.8,217.8,0,0,1-17.85-15.92c-11.22-11.33-21.2-24.16-28-38.77q-2.52-5.48-4.48-11.21a110.32,110.32,0,0,1-3.2-11.66,114.58,114.58,0,0,1-1.81-12c-.36-4-.5-8.05-.46-12.09a140.49,140.49,0,0,1,2.52-24,211,211,0,0,1,5.89-23.34,64.56,64.56,0,0,1,11.62-21.74,61.42,61.42,0,0,1,19.43-15.41A90.88,90.88,0,0,1,259,171.5a155.85,155.85,0,0,1,24.13-2.87,322.57,322.57,0,0,1,48,2c15.89,1.72,31.65,4.13,47.33,6.83s31.29,5.7,46.87,8.79,31.12,6.29,46.64,9.53l46.55,9.72L565.21,215c15.57,3.23,31.11,6.65,46.57,10.44,30.88,7.7,61.57,16.58,91.22,28.44a385.75,385.75,0,0,1,43.38,20.25c14,7.74,27.37,16.65,39.25,27.38,2.94,2.71,5.81,5.5,8.51,8.46s5.26,6,7.67,9.22a90.1,90.1,0,0,1,15.57,32.17,88,88,0,0,1,2.1,11.77A99,99,0,0,1,819.09,387Zm-.84-.11a98,98,0,0,0,.21-23.61,86.93,86.93,0,0,0-2.17-11.61,79.79,79.79,0,0,0-3.86-11.15,91.49,91.49,0,0,0-12.05-20.2A119.31,119.31,0,0,0,784,303.38c-12-10.22-25.54-18.43-39.57-25.53a380.72,380.72,0,0,0-43.54-18.33c-14.86-5.26-29.94-9.93-45.15-14.16s-30.51-8.14-45.92-11.66-30.85-6.91-46.36-10l-23.34-4.54c-7.79-1.51-15.57-3.12-23.34-4.72l-46.58-9.78c-15.51-3.32-31-6.69-46.5-9.92s-31-6.37-46.57-9.19-31.14-5.35-46.77-7.2-31.32-3.06-46.91-2.59a152.45,152.45,0,0,0-23.12,2.3,86.72,86.72,0,0,0-21.8,6.86,55.52,55.52,0,0,0-17.94,13.5,59.27,59.27,0,0,0-11.14,19.71c-5,14.82-8.63,30.25-9.18,45.85A100.46,100.46,0,0,0,209,309.51c6.47,14.26,16.06,27,27.12,38.18a236.75,236.75,0,0,0,36.68,29.78c6.56,4.4,13.27,8.58,20.08,12.58s13.81,7.7,20.83,11.34c14.07,7.23,28.47,13.79,43.06,19.92s29.34,11.85,44.21,17.25S430.88,449,445.92,454c7.52,2.46,15.07,4.82,22.62,7.19s15.09,4.67,22.68,6.83c15.19,4.25,30.46,8.22,45.89,11.41s30.94,6,46.56,8,31.31,3.46,47,3.9A362.32,362.32,0,0,0,677.87,490a259.13,259.13,0,0,0,46.36-8.49,169.45,169.45,0,0,0,43.22-18.64c3.36-2,6.59-4.31,9.75-6.65s6.17-4.9,9-7.6a111.88,111.88,0,0,0,8.24-8.47c1.25-1.52,2.57-3,3.74-4.58l1.79-2.35,1.69-2.42.85-1.21.79-1.25,1.57-2.51,1.46-2.57c.5-.85,1-1.72,1.4-2.6l1.34-2.64,1.22-2.69c.85-1.78,1.51-3.64,2.26-5.47A108.24,108.24,0,0,0,818.25,386.85Z" transform="translate(-152.56 -43.07)"/></g><g id="catkin"><g id="sfondo"><path class="cls-4" d="M703.5,441.5c46-104-132.07-90-188.5-120.5-74-40-180-86-217.83-50.56-42,39.29,10.44,36.78,53.83,49.56,47.65,14,95.56,28.87,139,53,45,25,88.28,31.3,134,44C660,427,690.9,470,703.5,441.5Z" transform="translate(-152.56 -43.07)"/></g><g id="gambo"><path class="cls-5" d="M262.19,196.35a158.05,158.05,0,0,1,4.24,16.48c1.17,5.47,2.37,10.83,4.44,15.55a41.14,41.14,0,0,0,8.38,12.41l1.31,1.34,1.44,1.25,1.43,1.25c.47.42,1,.78,1.53,1.17,1.06.76,2,1.54,3.14,2.29l3.37,2.26c18,12.07,38,20.88,58.43,28.78,5.12,2,10.27,3.85,15.47,5.64s10.4,3.62,15.65,5.33c10.5,3.41,21.06,6.77,31.72,10l32.09,9.74c10.73,3.34,21.49,6.73,32.28,10.4,2.69.93,5.38,1.89,8.07,2.86l3.77,1.34c1.24.42,2.48.84,3.75,1.25,5.06,1.65,10.35,3.14,15.64,4.67,10.6,3.09,21.44,6,32.24,9.07s21.67,6.25,32.45,9.75c5.4,1.74,10.8,3.49,16.17,5.37s10.72,3.84,16.06,5.87c21.28,8.2,42.33,17.87,61.56,31.11a144.43,144.43,0,0,1,13.7,11,87.29,87.29,0,0,1,11.91,13.1,60.52,60.52,0,0,1,8.39,15.63c.26.69.46,1.41.66,2.12s.41,1.42.58,2.13c.28,1.45.65,2.86.8,4.33a41.38,41.38,0,0,1,.34,8.66l-1.42.07a44.24,44.24,0,0,0-4-15.94,56.81,56.81,0,0,0-9.08-13.78c-7.32-8.34-16.37-15-25.88-20.79A236.08,236.08,0,0,0,633,383c-10.27-4.38-20.76-8.27-31.36-11.84-21.2-7.14-42.81-13.06-64.47-18.75-10.83-2.85-21.69-5.63-32.52-8.59-5.41-1.49-10.82-3-16.19-4.71-2.68-.83-5.37-1.76-8-2.7s-5.27-1.86-7.92-2.75c-42.33-14.48-85.79-26.23-127.11-44-10.31-4.47-20.46-9.33-30.32-14.74a223.92,223.92,0,0,1-28.3-18.39,75.32,75.32,0,0,1-12.43-11.59,44.58,44.58,0,0,1-8.19-15,87.49,87.49,0,0,1-3-16.67c-.62-5.57-1.2-11.12-2.32-16.58Z" transform="translate(-152.56 -43.07)"/></g><g id="flowersCatClosed"><path class="cls-6" d="M315.44,297.53c9.84,38-62.23,16.51-42.93-7.88,8.13-10.28,41-7.15,43,7.85Z" transform="translate(-152.56 -43.07)"/><path class="cls-7" d="M323.5,288.5c-17.22,19.35,3.25,52.3,23.68,36.34C365.6,310.44,334.92,275.67,323.5,288.5Z" transform="translate(-152.56 -43.07)"/><path class="cls-8" d="M297.5,265.5c-16.77,11.93,6.36,22.42,19.76,22.74C340.47,288.79,312.79,254.63,297.5,265.5Z" transform="translate(-152.56 -43.07)"/><path class="cls-9" d="M381.5,278.5c-12-4-41,6-21.53,18.76C391.38,317.85,387.46,280.49,381.5,278.5Z" transform="translate(-152.56 -43.07)"/><path class="cls-10" d="M350.5,241.5c-4.46,2.53-5.62,8.32-5.52,13.44.58,30.22,42.16,19,23.84-6.62C364.34,242.07,357.19,237.71,350.5,241.5Z" transform="translate(-152.56 -43.07)"/><path class="cls-11" d="M393.5,250.5c-23.27-.45-28.91,36.23-1.53,24.84C407.39,268.92,415.18,250.92,393.5,250.5Z" transform="translate(-152.56 -43.07)"/><path class="cls-12" d="M414.5,260.5c-14.3,2.46-34.56,40.11-4.86,33.65C424.23,291,439.35,256.23,414.5,260.5Z" transform="translate(-152.56 -43.07)"/><path class="cls-13" d="M394.5,294.5c-32.09,9.2,3.48,44.78,15.48,32.1S415.34,288.52,394.5,294.5Z" transform="translate(-152.56 -43.07)"/><path class="cls-14" d="M360.5,304.5c-26.24,21.82,32.7,46.71,27,22.16C385.68,318.85,372.68,294.38,360.5,304.5Z" transform="translate(-152.56 -43.07)"/><path class="cls-15" d="M396.27,329.22c-20,4.79-16.44,29.41,4.15,28.19,13.06-.78,13.67-32.18-4.58-28" transform="translate(-152.56 -43.07)"/><path class="cls-16" d="M497.27,364.22c-20,4.79-16.44,29.41,4.15,28.19,13.06-.78,13.67-32.18-4.58-28" transform="translate(-152.56 -43.07)"/><path class="cls-17" d="M420.5,319.5c-28.12,16.52-4.67,59.17,18.43,35.65C448.76,345.14,439.66,304.62,420.5,319.5Z" transform="translate(-152.56 -43.07)"/><path class="cls-18" d="M420.5,284.5c-20.58,12.31,9.7,42.28,14.84,26.59C437.5,304.5,444.88,269.92,420.5,284.5Z" transform="translate(-152.56 -43.07)"/><path class="cls-19" d="M433.5,263.5C414,267,440.21,293.81,452.05,290,476.23,282.27,437.42,262.79,433.5,263.5Z" transform="translate(-152.56 -43.07)"/><path class="cls-20" d="M458.5,292.5c-24.76-2.14-29,40.45-1.73,33.94,11.09-2.65,12.73-33.94,1.73-33.94" transform="translate(-152.56 -43.07)"/><path class="cls-21" d="M477.5,289.5c-19.07,2.88-10.65,29.5,9.34,25.87C502.61,312.5,488,287.91,477.5,289.5Z" transform="translate(-152.56 -43.07)"/><path class="cls-22" d="M474,315.45c-18.38-3-12.86,26.76,5.46,29.83,15.3,2.57,16.28-27.76-6.51-30.11" transform="translate(-152.56 -43.07)"/><path class="cls-23" d="M449.5,329.5c-13.53,3.49-8.34,41,5.39,37.61C468.35,363.77,465.88,325.28,449.5,329.5Z" transform="translate(-152.56 -43.07)"/><path class="cls-24" d="M473.5,343.5c-25-4.07-7.18,35,0,34C480.07,376.61,497.44,347.39,473.5,343.5Z" transform="translate(-152.56 -43.07)"/><path class="cls-25" d="M485.5,342.5c-17.16,10.43,13.79,28.71,22.18,26.76C528.12,364.48,504.15,331.16,485.5,342.5Z" transform="translate(-152.56 -43.07)"/><path class="cls-26" d="M496.5,315.5c-22.28,14.85,22.8,39.8,23.05,9.66C519.7,308.27,499.5,313.5,496.5,315.5Z" transform="translate(-152.56 -43.07)"/><path class="cls-27" d="M518.5,368.5c-18.58,13.14-8.74,44.24,9.94,29C562,370.13,521.44,366.42,518.5,368.5Z" transform="translate(-152.56 -43.07)"/><path class="cls-28" d="M531.5,315.5c-17,.25-6.5,28.5,15,27.38C570,341.66,566,315,531.5,315.5Z" transform="translate(-152.56 -43.07)"/><path class="cls-29" d="M517.5,340.5c-18.13,14.89,4.65,31.69,12.56,23.64C541.82,352.19,530.28,330,517.5,340.5Z" transform="translate(-152.56 -43.07)"/><path class="cls-30" d="M552.5,338.5c-15.61,15.67,5.27,36.82,19.13,16.36C584.15,336.38,566.14,324.81,552.5,338.5Z" transform="translate(-152.56 -43.07)"/><path class="cls-31" d="M547.5,365.5c-18.49,4.67-16.4,57.75,7.1,43C565.47,401.68,563.57,361.44,547.5,365.5Z" transform="translate(-152.56 -43.07)"/><path class="cls-32" d="M559.5,364.5c-1.58,8.9,2.22,29.75,22.49,23.68C601.66,382.29,564.18,338.17,559.5,364.5Z" transform="translate(-152.56 -43.07)"/><path class="cls-33" d="M581.5,327.5c-14,9.74-1.08,48.76,15,33C605.66,351.62,594.73,318.31,581.5,327.5Z" transform="translate(-152.56 -43.07)"/><path class="cls-34" d="M602.5,349.5c-13.72,4.27-20,18.82-8.87,26.55C615,390.9,625.85,342.23,602.5,349.5Z" transform="translate(-152.56 -43.07)"/><path class="cls-35" d="M594.5,381.5c-15,10.6,12.28,16.83,18.2,16.83C627.78,398.34,609.11,371.15,594.5,381.5Z" transform="translate(-152.56 -43.07)"/><path class="cls-36" d="M585.5,389.5c-26.31-5.77-23.51,17.67-5.9,27.41C595.41,425.65,606.36,394.07,585.5,389.5Z" transform="translate(-152.56 -43.07)"/><path class="cls-37" d="M605.5,400.5c-11.18,5.2-15.37,29.79,5.12,26.27C633.46,422.84,625,391.4,605.5,400.5Z" transform="translate(-152.56 -43.07)"/><path class="cls-38" d="M619.5,398.5c-3.06-17.87,37.74-31.94,33.8-7.82C650.62,407.12,622.44,415.67,619.5,398.5Z" transform="translate(-152.56 -43.07)"/><path class="cls-39" d="M624.5,346.5c-34.93,22.29,4,33,10.65,27.24C640,369.54,649.31,330.67,624.5,346.5Z" transform="translate(-152.56 -43.07)"/><path class="cls-40" d="M312.5,242.5c-20.72,15,21.64,24.79,25,21C345.28,254.71,339.37,223.07,312.5,242.5Z" transform="translate(-152.56 -43.07)"/><path class="cls-41" d="M647.5,352.5c-26.25-5,5.21,41.09,20.56,30.22C688.18,368.49,656.63,354.25,647.5,352.5Z" transform="translate(-152.56 -43.07)"/><path class="cls-42" d="M656.42,384.45c-30.08,6.73,19.3,51.82,26.49,22.55,3.45-14.05-14.12-26.48-26.41-22.5C656.48,384.51,656.44,384.44,656.42,384.45Z" transform="translate(-152.56 -43.07)"/><path class="cls-43" d="M647.5,403.5c-24.68-2.87-28.42,30.6-7.35,30C661.52,432.85,660.94,405.06,647.5,403.5Z" transform="translate(-152.56 -43.07)"/><path class="cls-44" d="M660.5,419.5c-18.5-.06,4.9,36.62,19.5,29.75C707.87,436.16,666.72,419.52,660.5,419.5Z" transform="translate(-152.56 -43.07)"/><path class="cls-45" d="M701.5,375.5c-17.66-14.72-45.73,10-17.66,21.9C696.32,402.68,717.44,388.78,701.5,375.5Z" transform="translate(-152.56 -43.07)"/><path class="cls-46" d="M687.5,402.5c-14.67,11.5.12,44.16,15.12,26.84C718,411.62,693.94,397.46,687.5,402.5Z" transform="translate(-152.56 -43.07)"/><path class="cls-47" d="M692.5,436.5c-16.27,10.35,7.72,32.43,14.19,20.72,2-3.65,4-7.46,4.4-11.61a16.17,16.17,0,0,0-2-9.49,8.27,8.27,0,0,0-3-3.23C699.56,431.73,698.16,432.9,692.5,436.5Z" transform="translate(-152.56 -43.07)"/><path class="cls-48" d="M324.5,267.5c-7.68,10.24,22.49,32.55,30,16C363.41,263.87,327.5,263.5,324.5,267.5Z" transform="translate(-152.56 -43.07)"/></g></g><g id="gambi"><path class="cls-49" d="M331.65,254.69a111.3,111.3,0,0,1,12.59-21c1.17-1.54-1.44-3-2.59-1.51a111.3,111.3,0,0,0-12.59,21c-.8,1.74,1.78,3.27,2.59,1.51Z" transform="translate(-152.56 -43.07)"/><path class="cls-49" d="M325.51,247.91a63.08,63.08,0,0,0,.19-24.26c-.35-1.9-3.24-1.09-2.89.8a59,59,0,0,1-.19,22.67c-.38,1.88,2.51,2.69,2.89.8Z" transform="translate(-152.56 -43.07)"/><path class="cls-49" d="M320.83,248.15A75.62,75.62,0,0,1,316,228c-.19-1.9-3.19-1.92-3,0a78.43,78.43,0,0,0,5,20.94c.69,1.78,3.6,1,2.89-.8Z" transform="translate(-152.56 -43.07)"/><path class="cls-49" d="M323.34,256.29a67.85,67.85,0,0,0,11-18.93c.69-1.8-2.21-2.59-2.89-.8a63.28,63.28,0,0,1-10.23,17.61c-1.22,1.48.89,3.62,2.12,2.12Z" transform="translate(-152.56 -43.07)"/><path class="cls-49" d="M301.91,276.58a78.28,78.28,0,0,1-.37-19.61c.2-1.92-2.8-1.9-3,0a81.27,81.27,0,0,0,.48,20.41c.28,1.9,3.17,1.09,2.89-.8Z" transform="translate(-152.56 -43.07)"/><path class="cls-49" d="M307.51,275.29a64.6,64.6,0,0,0,3.8-16.28c.2-1.92-2.8-1.9-3,0a61.63,61.63,0,0,1-3.69,15.48c-.68,1.81,2.22,2.59,2.89.8Z" transform="translate(-152.56 -43.07)"/><path class="cls-49" d="M312.4,277.84a59.72,59.72,0,0,0,10-19.79,1.5,1.5,0,0,0-2.89-.8,57.52,57.52,0,0,1-9.68,19.07c-1.17,1.53,1.43,3,2.59,1.51Z" transform="translate(-152.56 -43.07)"/><path class="cls-49" d="M315.65,282.28a16.55,16.55,0,0,0,13.26-8.55c.93-1.69-1.66-3.21-2.59-1.51a13.47,13.47,0,0,1-10.67,7.06c-1.91.17-1.93,3.17,0,3Z" transform="translate(-152.56 -43.07)"/><path class="cls-49" d="M290,300a153.39,153.39,0,0,0-17.11,20.15c-1.12,1.58,1.48,3.08,2.59,1.51a148.91,148.91,0,0,1,16.64-19.54A1.5,1.5,0,0,0,290,300Z" transform="translate(-152.56 -43.07)"/><path class="cls-49" d="M296.95,305.07c.3,2.37.37,4.82.79,7.17a38.47,38.47,0,0,0,2.31,6.65c.68,1.78,3.59,1,2.89-.8a39.42,39.42,0,0,1-2.26-6.39c-.42-2.17-.46-4.45-.74-6.64-.24-1.89-3.24-1.91-3,0Z" transform="translate(-152.56 -43.07)"/><path class="cls-49" d="M299.51,293a38.73,38.73,0,0,1-3.8-20.65c.16-1.92-2.84-1.91-3,0a41.71,41.71,0,0,0,4.21,22.16c.85,1.73,3.44.22,2.59-1.51Z" transform="translate(-152.56 -43.07)"/><path class="cls-49" d="M327.39,306.35a75.65,75.65,0,0,1-4.09,32.41c-.65,1.82,2.25,2.61,2.89.8a77.6,77.6,0,0,0,4.19-33.21c-.17-1.91-3.17-1.93-3,0Z" transform="translate(-152.56 -43.07)"/><path class="cls-49" d="M329.44,299.4a22.13,22.13,0,0,1-12-9c-1.06-1.6-3.66-.1-2.59,1.51a25.4,25.4,0,0,0,13.84,10.39c1.85.57,2.64-2.32.8-2.89Z" transform="translate(-152.56 -43.07)"/><path class="cls-49" d="M334.45,304.78l6-6a1.5,1.5,0,0,0-2.12-2.12l-6,6a1.5,1.5,0,0,0,2.12,2.12Z" transform="translate(-152.56 -43.07)"/><path class="cls-49" d="M336.92,278.15a70.36,70.36,0,0,0-8,14.48c-.73,1.79,2.17,2.56,2.89.8a67.17,67.17,0,0,1,7.66-13.76c1.13-1.57-1.47-3.07-2.59-1.51Z" transform="translate(-152.56 -43.07)"/><path class="cls-49" d="M344.75,281.22a73.9,73.9,0,0,0,9.37,15.23c1.2,1.51,3.31-.62,2.12-2.12a70.91,70.91,0,0,1-8.9-14.63c-.8-1.75-3.39-.23-2.59,1.51Z" transform="translate(-152.56 -43.07)"/><path class="cls-49" d="M343.27,274.63a63.41,63.41,0,0,0,10.65-7.39c1.47-1.26-.66-3.37-2.12-2.12a59.62,59.62,0,0,1-10,6.92c-1.69.93-.18,3.52,1.51,2.59Z" transform="translate(-152.56 -43.07)"/><path class="cls-49" d="M337.77,271a21.05,21.05,0,0,1,4.92-12.3c1.23-1.47-.88-3.6-2.12-2.12a24.5,24.5,0,0,0-5.8,14.43c-.13,1.93,2.88,1.92,3,0Z" transform="translate(-152.56 -43.07)"/><path class="cls-49" d="M355.6,256.39a169.54,169.54,0,0,1-13-14.32c-1.22-1.5-3.33.63-2.12,2.12a169.54,169.54,0,0,0,13,14.32c1.38,1.35,3.5-.77,2.12-2.12Z" transform="translate(-152.56 -43.07)"/><path class="cls-49" d="M359.54,252.38a75.81,75.81,0,0,1,13.93-20.91c1.32-1.41-.8-3.53-2.12-2.12a78.21,78.21,0,0,0-14.4,21.52c-.79,1.75,1.8,3.27,2.59,1.51Z" transform="translate(-152.56 -43.07)"/><path class="cls-49" d="M362,260.38A33.21,33.21,0,0,0,380.2,247c1.09-1.6-1.51-3.1-2.59-1.51a29.94,29.94,0,0,1-16.36,12c-1.84.55-1.06,3.45.8,2.89Z" transform="translate(-152.56 -43.07)"/><path class="cls-49" d="M360.68,266.66a86.22,86.22,0,0,0,10.44,9.59c1.51,1.17,3.64-.94,2.12-2.12a86.22,86.22,0,0,1-10.44-9.59c-1.31-1.42-3.43.7-2.12,2.12Z" transform="translate(-152.56 -43.07)"/><path class="cls-49" d="M344.18,311.83a32.19,32.19,0,0,1-7.48-6.55c-1.24-1.48-3.36.65-2.12,2.12a34.78,34.78,0,0,0,8.09,7c1.64,1,3.14-1.56,1.51-2.59Z" transform="translate(-152.56 -43.07)"/><path class="cls-49" d="M383.65,263.61c-2.59-.69-2.44-4-2.39-6.11,0-1.93-3-1.93-3,0-.09,3.59.52,7.92,4.59,9a1.5,1.5,0,0,0,.8-2.89Z" transform="translate(-152.56 -43.07)"/><path class="cls-49" d="M389.71,263.45a21.6,21.6,0,0,0,1.89-17.81c-.6-1.83-3.5-1-2.89.8a18.59,18.59,0,0,1-1.59,15.5,1.5,1.5,0,0,0,2.59,1.51Z" transform="translate(-152.56 -43.07)"/><path class="cls-49" d="M392.5,268a1.5,1.5,0,0,0,0-3,1.5,1.5,0,0,0,0,3Z" transform="translate(-152.56 -43.07)"/><path class="cls-49" d="M393.28,268.08a12.25,12.25,0,0,0,5.65-7.19c.55-1.85-2.34-2.65-2.89-.8a9.15,9.15,0,0,1-4.27,5.39,1.5,1.5,0,0,0,1.51,2.59Z" transform="translate(-152.56 -43.07)"/><path class="cls-49" d="M384,270.75a11.69,11.69,0,0,0,5.62,9.94c1.65,1,3.16-1.58,1.51-2.59a8.59,8.59,0,0,1-4.13-7.35,1.5,1.5,0,0,0-3,0Z" transform="translate(-152.56 -43.07)"/><path class="cls-49" d="M369.27,288.26a17.84,17.84,0,0,1-3.18-8c-.24-1.89-3.24-1.91-3,0a21,21,0,0,0,3.59,9.54c1.1,1.57,3.7.07,2.59-1.51Z" transform="translate(-152.56 -43.07)"/><path class="cls-49" d="M368.44,295.73c-1.46,2-6,.65-6.69,3.47a1.55,1.55,0,0,0,.69,1.69,1.52,1.52,0,0,0,1.34.17,1.54,1.54,0,0,0,1.1-1.45v-.07c-.07-1.92-3.07-1.93-3,0v.07l1.1-1.45-.1,0,1.16.15-.08-.05.69,1.69c-.16.65-.22.42.38.21.33-.11.67-.2,1-.29.62-.16,1.24-.28,1.85-.48a6,6,0,0,0,3.14-2.19c1.15-1.56-1.46-3.05-2.59-1.51Z" transform="translate(-152.56 -43.07)"/><path class="cls-49" d="M374.67,295.28c.95,1.62,2,3.19,3.05,4.72.69,1,1.68,3,3,3.21a1.55,1.55,0,0,0,1.69-.69,1.71,1.71,0,0,0,0-1.71,1.53,1.53,0,0,0-1.69-.69h-.08c-1.9.31-1.09,3.2.8,2.89h.08l-1.69-.69,0,.1v-1.51l0,.09,1.69-.69q.76.56-.08-.32l-.64-.86q-.63-.86-1.24-1.75c-.8-1.18-1.56-2.39-2.28-3.62a1.5,1.5,0,0,0-2.59,1.51Z" transform="translate(-152.56 -43.07)"/><path class="cls-49" d="M376.69,289.15q3.09-2.4,6.31-4.62c1.58-1.09.08-3.69-1.51-2.59q-3.53,2.45-6.92,5.09c-1.52,1.18.61,3.29,2.12,2.12Z" transform="translate(-152.56 -43.07)"/><path class="cls-49" d="M396,306a9.72,9.72,0,0,1-2.41-7.27c.13-1.93-2.87-1.92-3,0a12.75,12.75,0,0,0,3.28,9.39c1.28,1.45,3.4-.68,2.12-2.12Z" transform="translate(-152.56 -43.07)"/><path class="cls-49" d="M401.35,305.54q4.54-6.9,8.63-14.07a1.5,1.5,0,0,0-2.59-1.51q-4.09,7.17-8.63,14.07c-1.06,1.62,1.53,3.12,2.59,1.51Z" transform="translate(-152.56 -43.07)"/><path class="cls-49" d="M401.72,314.72a21.1,21.1,0,0,0,12.48-2.29c1.72-.89.2-3.48-1.51-2.59a18.36,18.36,0,0,1-11,1.88c-1.91-.24-1.89,2.76,0,3Z" transform="translate(-152.56 -43.07)"/><path class="cls-49" d="M393.71,313.75l-3.35,7H393l-.41-.77c-.9-1.71-3.49-.19-2.59,1.51l.41.77a1.51,1.51,0,0,0,2.59,0l3.35-7c.83-1.73-1.76-3.26-2.59-1.51Z" transform="translate(-152.56 -43.07)"/><path class="cls-49" d="M367.56,312.94a8.67,8.67,0,0,1-3.25-5.69c-.22-1.89-3.22-1.92-3,0a11.64,11.64,0,0,0,4.13,7.81c1.48,1.22,3.62-.9,2.12-2.12Z" transform="translate(-152.56 -43.07)"/><path class="cls-49" d="M364.93,320.36a29.21,29.21,0,0,1-8.07,3.24c-1.88.45-1.08,3.34.8,2.89a32,32,0,0,0,8.79-3.55,1.5,1.5,0,0,0-1.51-2.59Z" transform="translate(-152.56 -43.07)"/><path class="cls-49" d="M371.44,326.51a17.25,17.25,0,0,1-2.11,10.56c-.95,1.69,1.64,3.2,2.59,1.51a20,20,0,0,0,2.52-12.07c-.21-1.9-3.21-1.92-3,0Z" transform="translate(-152.56 -43.07)"/><path class="cls-49" d="M374.12,320.14c1.78.45,8.25,2.51,8.11-1.14-.08-1.92-3.08-1.93-3,0,0-1.11,1.23-.79,0-.93-.5-.06-1-.13-1.5-.22-.95-.16-1.88-.37-2.81-.61-1.87-.47-2.67,2.42-.8,2.89Z" transform="translate(-152.56 -43.07)"/><path class="cls-49" d="M397.74,340.34a7.55,7.55,0,0,1,1-6.38c1.06-1.62-1.54-3.13-2.59-1.51a10.52,10.52,0,0,0-1.29,8.69,1.5,1.5,0,0,0,2.89-.8Z" transform="translate(-152.56 -43.07)"/><path class="cls-49" d="M400.42,346.63a32.88,32.88,0,0,0,10.23-9.31c1.13-1.57-1.47-3.07-2.59-1.51A29.35,29.35,0,0,1,398.9,344a1.5,1.5,0,0,0,1.51,2.59Z" transform="translate(-152.56 -43.07)"/><path class="cls-49" d="M392.65,348.49a24.27,24.27,0,0,0,1.52,9.71c.67,1.79,3.57,1,2.89-.8a22.09,22.09,0,0,1-1.41-8.91c.09-1.93-2.91-1.93-3,0Z" transform="translate(-152.56 -43.07)"/><path class="cls-49" d="M387.62,341.9l-5.46-1.4c-1.87-.48-2.67,2.41-.8,2.89l5.46,1.4c1.87.48,2.67-2.41.8-2.89Z" transform="translate(-152.56 -43.07)"/><path class="cls-49" d="M404.24,278.92c-.61,0-7.41.39-7.41.33a1.5,1.5,0,0,0-3,0,3,3,0,0,0,3.13,3,59.92,59.92,0,0,0,7.28-.35c1.92-.1,1.93-3.11,0-3Z" transform="translate(-152.56 -43.07)"/><path class="cls-49" d="M410,274.75a33.74,33.74,0,0,1,1.2-8.35,1.5,1.5,0,0,0-2.89-.8,37.12,37.12,0,0,0-1.3,9.15c0,1.93,3,1.93,3,0Z" transform="translate(-152.56 -43.07)"/><path class="cls-49" d="M417,275.28a17.26,17.26,0,0,0,4.45-9.13c.29-1.89-2.6-2.7-2.89-.8a14.53,14.53,0,0,1-3.68,7.8c-1.31,1.42.81,3.55,2.12,2.12Z" transform="translate(-152.56 -43.07)"/><path class="cls-49" d="M409.54,284.48a13.57,13.57,0,0,0,11.14,2.07c1.88-.45,1.08-3.35-.8-2.89a10.61,10.61,0,0,1-8.83-1.77c-1.58-1.12-3.08,1.48-1.51,2.59Z" transform="translate(-152.56 -43.07)"/><path class="cls-49" d="M438.5,276.18a10.51,10.51,0,0,1,1.59-10.39c1.17-1.53-1.43-3-2.59-1.51a13.27,13.27,0,0,0-1.89,12.7c.67,1.79,3.57,1,2.89-.8Z" transform="translate(-152.56 -43.07)"/><path class="cls-49" d="M445,277.27a26.41,26.41,0,0,0,4.89-9.88c.47-1.87-2.42-2.67-2.89-.8a22.85,22.85,0,0,1-4.12,8.56c-1.17,1.5.93,3.64,2.12,2.12Z" transform="translate(-152.56 -43.07)"/><path class="cls-49" d="M449.52,282.07a34.26,34.26,0,0,0,9-8.55c1.14-1.56-1.46-3.06-2.59-1.51a30.26,30.26,0,0,1-8,7.47c-1.61,1-.11,3.64,1.51,2.59Z" transform="translate(-152.56 -43.07)"/><path class="cls-49" d="M441,282.33a42.5,42.5,0,0,0-.42,9.66c.14,1.91,3.14,1.93,3,0a39.11,39.11,0,0,1,.31-8.86c.29-1.89-2.6-2.7-2.89-.8Z" transform="translate(-152.56 -43.07)"/><path class="cls-49" d="M426.69,303.56l5.12,4.14c1.12.91,2.77,2,4,.6s-.85-3.58-2.12-2.12q1.36,0,.44-.44l-.82-.66-1.43-1.16-3.07-2.48c-1.49-1.2-3.62.91-2.12,2.12Z" transform="translate(-152.56 -43.07)"/><path class="cls-49" d="M429.83,295a7.08,7.08,0,0,0,5.43-.21,1.51,1.51,0,0,0,.54-2.05,1.54,1.54,0,0,0-2.05-.54,4.12,4.12,0,0,1-3.12-.09,1.51,1.51,0,0,0-1.85,1,1.53,1.53,0,0,0,1,1.85Z" transform="translate(-152.56 -43.07)"/><path class="cls-49" d="M425.19,294.5a26.53,26.53,0,0,1,2.25-9.79c.78-1.75-1.81-3.28-2.59-1.51a30.51,30.51,0,0,0-2.66,11.3c-.08,1.93,2.92,1.93,3,0Z" transform="translate(-152.56 -43.07)"/><path class="cls-49" d="M421.8,306.4a30.89,30.89,0,0,1-1.22-5.66c-.22-1.9-3.22-1.92-3,0a35.06,35.06,0,0,0,1.32,6.45c.57,1.84,3.47,1.05,2.89-.8Z" transform="translate(-152.56 -43.07)"/><path class="cls-49" d="M418.7,333.54a18.23,18.23,0,0,1-1.44-9.31c.19-1.92-2.82-1.91-3,0a21.21,21.21,0,0,0,1.85,10.83c.79,1.76,3.37.24,2.59-1.51Z" transform="translate(-152.56 -43.07)"/><path class="cls-49" d="M427.95,330.15a36.16,36.16,0,0,0,2.06-6.68,17.59,17.59,0,0,0,.27-2,5.88,5.88,0,0,0,0-.79c-.06-.82.35-.77-.3-.21l-2.36-.3.06.13c.81,1.75,3.4.23,2.59-1.51l-.06-.13a1.52,1.52,0,0,0-2.36-.3c-.87.76-.52,2.43-.62,3.44a28.69,28.69,0,0,1-2.21,7.61c-.71,1.8,2.19,2.58,2.89.8Z" transform="translate(-152.56 -43.07)"/><path class="cls-49" d="M430.4,341a16.81,16.81,0,0,0,7.7-4.61c1.33-1.4-.79-3.52-2.12-2.12a13.79,13.79,0,0,1-6.37,3.84,1.5,1.5,0,0,0,.8,2.89Z" transform="translate(-152.56 -43.07)"/><path class="cls-49" d="M418.66,346.25c.11,2.47,1.71,9,5.35,7.31,1.75-.8.23-3.39-1.51-2.59l-.27.12,1.16-.15c-.52-.11-1.09-1.72-1.23-2.12a8.58,8.58,0,0,1-.5-2.57c-.09-1.92-3.09-1.93-3,0Z" transform="translate(-152.56 -43.07)"/><path class="cls-49" d="M449.68,342.79q-1.27-1.57-2.4-3.25-.46-.69-.9-1.4l-.57-.95q-.15-.58-.24.08c1.42-1.31-.7-3.43-2.12-2.12s-.61,2.94.2,4.27a50.81,50.81,0,0,0,3.91,5.49c1.21,1.5,3.32-.63,2.12-2.12Z" transform="translate(-152.56 -43.07)"/><path class="cls-49" d="M455.55,341.26a37.24,37.24,0,0,0,2.9-8.11c.43-1.88-2.46-2.68-2.89-.8a33.83,33.83,0,0,1-2.59,7.39c-.85,1.73,1.74,3.25,2.59,1.51Z" transform="translate(-152.56 -43.07)"/><path class="cls-49" d="M453.35,356.49a23.89,23.89,0,0,0,8.91-7.75c1.11-1.58-1.49-3.08-2.59-1.51a20.82,20.82,0,0,1-7.84,6.67c-1.73.86-.21,3.45,1.51,2.59Z" transform="translate(-152.56 -43.07)"/><path class="cls-49" d="M450.39,359.91a22.77,22.77,0,0,1-8.23-8.48c-.95-1.68-3.54-.17-2.59,1.51a25.84,25.84,0,0,0,9.3,9.56,1.5,1.5,0,0,0,1.51-2.59Z" transform="translate(-152.56 -43.07)"/><path class="cls-49" d="M447.26,314a7.86,7.86,0,0,1-4-6.45c-.09-1.92-3.09-1.93-3,0a11,11,0,0,0,5.46,9,1.5,1.5,0,0,0,1.51-2.59Z" transform="translate(-152.56 -43.07)"/><path class="cls-49" d="M454.2,305.6a13.34,13.34,0,0,1,.51-9.13c.76-1.75-1.82-3.28-2.59-1.51a16.61,16.61,0,0,0-.81,11.44,1.5,1.5,0,0,0,2.89-.8Z" transform="translate(-152.56 -43.07)"/><path class="cls-49" d="M462.78,302a25.38,25.38,0,0,0,5.89-7.2c.93-1.69-1.66-3.21-2.59-1.51a23.08,23.08,0,0,1-5.42,6.59c-1.48,1.25.65,3.36,2.12,2.12Z" transform="translate(-152.56 -43.07)"/><path class="cls-49" d="M450.88,319.2a10.87,10.87,0,0,0,10.24,1.17c1.77-.71,1-3.61-.8-2.89a8.1,8.1,0,0,1-7.93-.87c-1.59-1.1-3.09,1.5-1.51,2.59Z" transform="translate(-152.56 -43.07)"/><path class="cls-49" d="M472.48,330c-1.05-.74-2.07-1.53-3-2.37-.66-.57-2-1.41-2-2.38a1.5,1.5,0,0,0-3,0,5.43,5.43,0,0,0,2.22,3.94,45.21,45.21,0,0,0,4.29,3.4c1.58,1.11,3.08-1.49,1.51-2.59Z" transform="translate(-152.56 -43.07)"/><path class="cls-49" d="M479.55,327a59.58,59.58,0,0,0,2.84-7.63c.55-1.86-2.35-2.65-2.89-.8a53.93,53.93,0,0,1-2.54,6.91c-.79,1.75,1.8,3.27,2.59,1.51Z" transform="translate(-152.56 -43.07)"/><path class="cls-49" d="M479.15,338.72a10.32,10.32,0,0,0,7.41-5.45c.88-1.71-1.71-3.23-2.59-1.51a7.53,7.53,0,0,1-5.62,4.07c-1.9.32-1.09,3.21.8,2.89Z" transform="translate(-152.56 -43.07)"/><path class="cls-49" d="M472,337.92a8.41,8.41,0,0,1-.09,4.7c-.56,1.85,2.34,2.64,2.89.8a11.45,11.45,0,0,0,.09-6.3,1.5,1.5,0,0,0-2.89.8Z" transform="translate(-152.56 -43.07)"/><path class="cls-49" d="M473.52,355.48a13.68,13.68,0,0,1-4.23-6.59,1.5,1.5,0,0,0-2.89.8,16.53,16.53,0,0,0,5,7.91c1.45,1.27,3.58-.85,2.12-2.12Z" transform="translate(-152.56 -43.07)"/><path class="cls-49" d="M476.46,360.86c3,.12,4.94-2.31,7.69-3,1.87-.46,1.08-3.35-.8-2.89-2.38.58-4.41,3-6.9,2.88-1.93-.07-1.93,2.93,0,3Z" transform="translate(-152.56 -43.07)"/><path class="cls-49" d="M472.81,368.56a9.75,9.75,0,0,0,7.67-.55c1.73-.86.21-3.45-1.51-2.59a6.72,6.72,0,0,1-5.36.25c-1.82-.64-2.61,2.25-.8,2.89Z" transform="translate(-152.56 -43.07)"/><path class="cls-49" d="M468.16,364.71a9.42,9.42,0,0,1-3.28.71c-.46,0-2.62,0-2.76-.58-.4-1.89-3.3-1.09-2.89.8.82,3.8,7.17,3,9.73,2,1.78-.69,1-3.6-.8-2.89Z" transform="translate(-152.56 -43.07)"/><path class="cls-49" d="M481.71,296.6a16.32,16.32,0,0,1,1.05-9.35c.75-1.76-1.83-3.29-2.59-1.51a20,20,0,0,0-1.35,11.67c.34,1.9,3.23,1.09,2.89-.8Z" transform="translate(-152.56 -43.07)"/><path class="cls-49" d="M486.07,304.9a25.07,25.07,0,0,0,7.68-7.77c1-1.64-1.56-3.15-2.59-1.51a21.6,21.6,0,0,1-6.6,6.69c-1.62,1-.11,3.64,1.51,2.59Z" transform="translate(-152.56 -43.07)"/><path class="cls-49" d="M475.34,306a3,3,0,0,1-3-1.64,1.55,1.55,0,0,0-1.85-1,1.51,1.51,0,0,0-1,1.85,6,6,0,0,0,6.66,3.74,1.51,1.51,0,0,0,1-1.85,1.54,1.54,0,0,0-1.85-1Z" transform="translate(-152.56 -43.07)"/><path class="cls-49" d="M483.18,307.05c-.8,5,5,8.61,9.33,9.06,1.92.2,1.91-2.8,0-3a8,8,0,0,1-3.93-1.53c-1-.73-2.73-2.37-2.51-3.73.3-1.89-2.59-2.7-2.89-.8Z" transform="translate(-152.56 -43.07)"/><path class="cls-49" d="M508,322.35a17.31,17.31,0,0,1,.93-11c.74-1.78-2.16-2.56-2.89-.8a20,20,0,0,0-.93,12.58c.45,1.88,3.35,1.08,2.89-.8Z" transform="translate(-152.56 -43.07)"/><path class="cls-49" d="M512.79,327.35l5.47-3.54c1.62-1,.11-3.64-1.51-2.59l-5.47,3.54c-1.62,1-.11,3.64,1.51,2.59Z" transform="translate(-152.56 -43.07)"/><path class="cls-49" d="M503.1,334.31a12.15,12.15,0,0,0,4.73,4.79c2,1.07,4.67.55,4.83-2.09.12-1.93-2.88-1.92-3,0,0-.52-1.74-1.44-2.19-1.88a10.11,10.11,0,0,1-1.77-2.33,1.5,1.5,0,0,0-2.59,1.51Z" transform="translate(-152.56 -43.07)"/><path class="cls-49" d="M501.81,325a13,13,0,0,1-2.15-6.48c-.1-1.92-3.1-1.93-3,0a16.05,16.05,0,0,0,2.56,8c1,1.61,3.65.11,2.59-1.51Z" transform="translate(-152.56 -43.07)"/><path class="cls-49" d="M493.58,348.42a7.67,7.67,0,0,1-2.51-7.55c.43-1.88-2.47-2.68-2.89-.8a10.71,10.71,0,0,0,3.28,10.47c1.44,1.28,3.57-.84,2.12-2.12Z" transform="translate(-152.56 -43.07)"/><path class="cls-49" d="M499.56,353.06l5.75-7c1.22-1.48-.89-3.61-2.12-2.12l-5.75,7c-1.22,1.48.89,3.61,2.12,2.12Z" transform="translate(-152.56 -43.07)"/><path class="cls-49" d="M499.17,360.55a15.12,15.12,0,0,0,9.6-6.56c1.07-1.61-1.53-3.12-2.59-1.51a12.11,12.11,0,0,1-7.81,5.18c-1.89.39-1.09,3.28.8,2.89Z" transform="translate(-152.56 -43.07)"/><path class="cls-49" d="M491.52,359q.31-.51-.33-.54l-.32-.18a5.57,5.57,0,0,1-1-.75,7.07,7.07,0,0,1-1.42-1.87c-.92-1.7-3.52-.18-2.59,1.51a9.35,9.35,0,0,0,4.21,4.06c2,.9,4.31.14,4.47-2.24.12-1.93-2.88-1.92-3,0Z" transform="translate(-152.56 -43.07)"/><path class="cls-49" d="M496.15,376.89a11.06,11.06,0,0,1-3.05-2.26,9.77,9.77,0,0,1-1.12-1.44q-.24-.37-.45-.76-.11-.19-.2-.39-.16-.56-.54.25c1.76-.78.24-3.37-1.51-2.59-2.21,1-.66,3.86.23,5.2a13.68,13.68,0,0,0,5.13,4.59c1.71.89,3.23-1.7,1.51-2.59Z" transform="translate(-152.56 -43.07)"/><path class="cls-49" d="M503.89,373.88a71.93,71.93,0,0,1,2.89-7.13c.82-1.74-1.77-3.26-2.59-1.51a79.28,79.28,0,0,0-3.19,7.85c-.63,1.83,2.27,2.61,2.89.8Z" transform="translate(-152.56 -43.07)"/><path class="cls-49" d="M499,385.87a12,12,0,0,0,10.58.23c1.76-.78.24-3.37-1.51-2.59a8.78,8.78,0,0,1-7.55-.23c-1.72-.87-3.24,1.72-1.51,2.59Z" transform="translate(-152.56 -43.07)"/><path class="cls-49" d="M491.31,383.84a15.87,15.87,0,0,1-3.66,1.42c-.57.14-3,.71-3.2.41-1.18-1.52-3.29.61-2.12,2.12,1,1.33,3.16.88,4.6.66a18.51,18.51,0,0,0,5.9-2c1.71-.91.19-3.5-1.51-2.59Z" transform="translate(-152.56 -43.07)"/><path class="cls-49" d="M520.14,395.34a12.89,12.89,0,0,1-2.56-10.66c.38-1.89-2.51-2.69-2.89-.8A16.16,16.16,0,0,0,518,397.46c1.21,1.51,3.32-.63,2.12-2.12Z" transform="translate(-152.56 -43.07)"/><path class="cls-49" d="M525.18,379.75a23.08,23.08,0,0,0-2.47-10.46c-.86-1.73-3.45-.21-2.59,1.51a19.68,19.68,0,0,1,2.06,8.95,1.5,1.5,0,0,0,3,0Z" transform="translate(-152.56 -43.07)"/><path class="cls-49" d="M527.8,387.62a28,28,0,0,0,9.27-9.35c1-1.65-1.59-3.16-2.59-1.51a24.74,24.74,0,0,1-8.19,8.27c-1.64,1-.13,3.61,1.51,2.59Z" transform="translate(-152.56 -43.07)"/><path class="cls-49" d="M524.7,392.8a19.84,19.84,0,0,0,13,5.72c1.93.1,1.92-2.9,0-3a16.61,16.61,0,0,1-10.93-4.84c-1.38-1.35-3.5.77-2.12,2.12Z" transform="translate(-152.56 -43.07)"/><path class="cls-49" d="M522.74,358.24a7.91,7.91,0,0,1-3.55-6.74,1.5,1.5,0,0,0-3,0,11,11,0,0,0,5,9.33c1.61,1.07,3.12-1.53,1.51-2.59Z" transform="translate(-152.56 -43.07)"/><path class="cls-49" d="M528.31,348.25q0-6.52.51-13c.16-1.92-2.84-1.91-3,0q-.56,6.5-.51,13a1.5,1.5,0,0,0,3,0Z" transform="translate(-152.56 -43.07)"/><path class="cls-49" d="M527.25,357.25a11.72,11.72,0,0,0,9.55-4.19c1.23-1.47-.89-3.61-2.12-2.12a8.89,8.89,0,0,1-7.43,3.32c-1.93-.09-1.93,2.91,0,3Z" transform="translate(-152.56 -43.07)"/><path class="cls-49" d="M520.65,346.09a9.76,9.76,0,0,1-1.28-7.2c.4-1.88-2.5-2.69-2.89-.8a12.92,12.92,0,0,0,1.58,9.52c1,1.65,3.6.14,2.59-1.51Z" transform="translate(-152.56 -43.07)"/><path class="cls-49" d="M535.52,323.51a15.77,15.77,0,0,1-1.66-8.27c.12-1.93-2.88-1.92-3,0a18.81,18.81,0,0,0,2.07,9.78c.87,1.72,3.46.21,2.59-1.51Z" transform="translate(-152.56 -43.07)"/><path class="cls-49" d="M535.06,335.18a23.83,23.83,0,0,0,8.48-6.13c1.28-1.44-.84-3.57-2.12-2.12a21.86,21.86,0,0,1-7.88,5.66c-1.77.76-.24,3.34,1.51,2.59Z" transform="translate(-152.56 -43.07)"/><path class="cls-49" d="M549.48,332.92a11.08,11.08,0,0,0,7.24-2.74c2-1.58,4.12-3.29,3.71-6.08-.27-1.9-3.16-1.09-2.89.8.16,1.15-2.63,2.94-3.41,3.48a7.51,7.51,0,0,1-4.65,1.54c-1.93-.07-1.93,2.93,0,3Z" transform="translate(-152.56 -43.07)"/><path class="cls-49" d="M548.78,322.75A26.76,26.76,0,0,0,553,312.65c.36-1.89-2.53-2.69-2.89-.8a24.58,24.58,0,0,1-3.89,9.38c-1.09,1.6,1.51,3.1,2.59,1.51Z" transform="translate(-152.56 -43.07)"/><path class="cls-49" d="M553.95,352.42c-.92-1.39-2.22-2.39-3.26-3.68a9.15,9.15,0,0,1-2-5.24c-.12-1.92-3.12-1.93-3,0a12.6,12.6,0,0,0,1.63,5.66c1.07,1.84,2.85,3,4,4.77s3.66.1,2.59-1.51Z" transform="translate(-152.56 -43.07)"/><path class="cls-49" d="M562.35,344.78a33.44,33.44,0,0,0,3.23-14,1.5,1.5,0,0,0-3,0,29.82,29.82,0,0,1-2.82,12.52c-.82,1.74,1.77,3.26,2.59,1.51Z" transform="translate(-152.56 -43.07)"/><path class="cls-49" d="M564.71,351.91a19.62,19.62,0,0,0,8.84-5.36c1.33-1.4-.79-3.52-2.12-2.12a16.57,16.57,0,0,1-7.51,4.59,1.5,1.5,0,0,0,.8,2.89Z" transform="translate(-152.56 -43.07)"/><path class="cls-49" d="M558,357.23a23.25,23.25,0,0,0,6.92,3.63c1.73.56,4.44,1.58,5.85-.06,1.25-1.46-.86-3.59-2.12-2.12-.41.47-4.36-1.22-4.89-1.46a22.25,22.25,0,0,1-4.24-2.58c-1.54-1.17-3,1.44-1.51,2.59Z" transform="translate(-152.56 -43.07)"/><path class="cls-49" d="M549.09,381a14.77,14.77,0,0,1-2.09-9.75c.23-1.91-2.77-1.9-3,0a17.42,17.42,0,0,0,2.5,11.26c1,1.64,3.6.14,2.59-1.51Z" transform="translate(-152.56 -43.07)"/><path class="cls-49" d="M552.53,390.58a23,23,0,0,0,7.05-6.8c1.08-1.61-1.52-3.11-2.59-1.51a19.46,19.46,0,0,1-6,5.72c-1.64,1-.14,3.61,1.51,2.59Z" transform="translate(-152.56 -43.07)"/><path class="cls-49" d="M549.3,400.19a12.94,12.94,0,0,0,14.25-1.64c1.49-1.23-.64-3.34-2.12-2.12a9.79,9.79,0,0,1-10.62,1.18c-1.72-.86-3.24,1.73-1.51,2.59Z" transform="translate(-152.56 -43.07)"/><path class="cls-49" d="M544.25,389.8a5.74,5.74,0,0,1-4.8-5c-.16-1.91-3.17-1.93-3,0a8.82,8.82,0,0,0,7.8,8c1.91.24,1.89-2.76,0-3Z" transform="translate(-152.56 -43.07)"/><path class="cls-49" d="M570.54,379.89a8.51,8.51,0,0,1-4.57-5.55,1.5,1.5,0,0,0-2.89.8,11.43,11.43,0,0,0,5.95,7.34c1.72.85,3.25-1.73,1.51-2.59Z" transform="translate(-152.56 -43.07)"/><path class="cls-49" d="M575.65,372.88A45,45,0,0,0,578,361.25c.14-1.93-2.86-1.92-3,0a41.91,41.91,0,0,1-2.28,10.83c-.64,1.83,2.26,2.61,2.89.8Z" transform="translate(-152.56 -43.07)"/><path class="cls-49" d="M581.06,380.19a15.09,15.09,0,0,0,7.7-7.44c.82-1.74-1.77-3.26-2.59-1.51a12.63,12.63,0,0,1-6.62,6.37c-1.77.76-.24,3.34,1.51,2.59Z" transform="translate(-152.56 -43.07)"/><path class="cls-49" d="M580,409.66c-1.86,1.28-3.29-1.4-3.94-2.76-.83-1.74-3.41-.22-2.59,1.51a8.18,8.18,0,0,0,3.27,4,4.61,4.61,0,0,0,4.77-.12c1.58-1.09.08-3.69-1.51-2.59Z" transform="translate(-152.56 -43.07)"/><path class="cls-49" d="M582.83,399a28.61,28.61,0,0,1-4.13-9.37c-.45-1.88-3.35-1.08-2.89.8a31.07,31.07,0,0,0,4.43,10.09c1.07,1.59,3.67.09,2.59-1.51Z" transform="translate(-152.56 -43.07)"/><path class="cls-49" d="M589.13,399.38a45.7,45.7,0,0,1,4.08-9.92c.94-1.69-1.65-3.2-2.59-1.51a49.18,49.18,0,0,0-4.39,10.64,1.5,1.5,0,0,0,2.89.8Z" transform="translate(-152.56 -43.07)"/><path class="cls-49" d="M587.18,410.53a65,65,0,0,0,6.81-3.25c1.88-1,3.74-2,4.5-4.11.65-1.82-2.24-2.6-2.89-.8-.49,1.37-3.16,2.36-4.38,3q-2.37,1.24-4.84,2.26c-1.76.73-1,3.63.8,2.89Z" transform="translate(-152.56 -43.07)"/><path class="cls-49" d="M567.56,368.48l-4-6.47c-1-1.63-3.62-.13-2.59,1.51l4,6.47c1,1.63,3.62.13,2.59-1.51Z" transform="translate(-152.56 -43.07)"/><path class="cls-49" d="M582.6,345.51c-2.48.34-3.4-3.21-3.82-4.95s-3.35-1.08-2.89.8c.92,3.74,3.06,7.65,7.51,7a1.51,1.51,0,0,0,1-1.85,1.54,1.54,0,0,0-1.85-1Z" transform="translate(-152.56 -43.07)"/><path class="cls-49" d="M585.85,335.89a26.14,26.14,0,0,1-2.06-11.64c.1-1.93-2.9-1.92-3,0A28.09,28.09,0,0,0,583,336.69c.74,1.75,3.64,1,2.89-.8Z" transform="translate(-152.56 -43.07)"/><path class="cls-49" d="M592.85,346.1a46.35,46.35,0,0,0,7.55-10.54c.89-1.71-1.7-3.23-2.59-1.51a43.5,43.5,0,0,1-7.08,9.93c-1.33,1.4.79,3.52,2.12,2.12Z" transform="translate(-152.56 -43.07)"/><path class="cls-49" d="M588.18,358.07a22.74,22.74,0,0,0,9.81-5.34c1.43-1.31-.7-3.43-2.12-2.12a19.54,19.54,0,0,1-8.48,4.57c-1.87.48-1.08,3.37.8,2.89Z" transform="translate(-152.56 -43.07)"/><path class="cls-49" d="M603.31,360.25a43.51,43.51,0,0,1,2.25-10.9c.62-1.83-2.27-2.62-2.89-.8a46.64,46.64,0,0,0-2.36,11.7c-.14,1.93,2.86,1.92,3,0Z" transform="translate(-152.56 -43.07)"/><path class="cls-49" d="M597,367.79q-1.12-1.07-2.21-2.17c-.36-.37-.73-.73-1.08-1.11a2.36,2.36,0,0,1-.37-.42q-.21-.51-.22.48c1.45-1.28-.67-3.39-2.12-2.12-1.22,1.07-.69,2.73.23,3.8,1.12,1.3,2.42,2.47,3.65,3.66,1.4,1.33,3.52-.78,2.12-2.12Z" transform="translate(-152.56 -43.07)"/><path class="cls-49" d="M602.74,372.66a15,15,0,0,0,4.54,8.58c1.4,1.33,3.53-.79,2.12-2.12a12.36,12.36,0,0,1-3.77-7.25c-.3-1.9-3.19-1.09-2.89.8Z" transform="translate(-152.56 -43.07)"/><path class="cls-49" d="M609.41,367a27.67,27.67,0,0,0,8.09-3.7c1.59-1.07.09-3.67-1.51-2.59a25,25,0,0,1-7.37,3.4,1.5,1.5,0,0,0,.8,2.89Z" transform="translate(-152.56 -43.07)"/><path class="cls-49" d="M628,352l-.43.1,1.16.15c-1.14-.53-1.48-3.1-1.71-4.21a19.41,19.41,0,0,1-.35-4.57c.05-1.93-2.95-1.93-3,0-.08,2.86.45,12.55,5.14,11.42,1.88-.45,1.08-3.34-.8-2.89Z" transform="translate(-152.56 -43.07)"/><path class="cls-49" d="M631.67,364.37a14.12,14.12,0,0,0,8.18-4.27c1.33-1.4-.79-3.52-2.12-2.12a11.53,11.53,0,0,1-6.85,3.5c-1.9.28-1.09,3.17.8,2.89Z" transform="translate(-152.56 -43.07)"/><path class="cls-49" d="M622.82,368.45a12.55,12.55,0,0,0,2.42,4.9c1,1.21,2.48,2.95,4.18,2.61a1.52,1.52,0,0,0,1.1-1.45,1.67,1.67,0,0,0-.84-1.49,1.52,1.52,0,0,0-1.82.23l-.07.06c-1.45,1.28.68,3.4,2.12,2.12l.07-.06-1.82.23.11.08-.74-1.3v.12l1.1-1.45-.21,0,1.16.15c-2-1-3.34-3.52-3.86-5.6-.46-1.87-3.36-1.08-2.89.8Z" transform="translate(-152.56 -43.07)"/><path class="cls-49" d="M624,356.76a27,27,0,0,1-3.06-7.41c-.47-1.87-3.36-1.08-2.89.8a29.83,29.83,0,0,0,3.36,8.13,1.5,1.5,0,0,0,2.59-1.51Z" transform="translate(-152.56 -43.07)"/><path class="cls-49" d="M604,388.34a42.34,42.34,0,0,1-1.71-7c-.3-1.9-3.19-1.09-2.89.8a42.34,42.34,0,0,0,1.71,7c.61,1.82,3.51,1,2.89-.8Z" transform="translate(-152.56 -43.07)"/><path class="cls-49" d="M611.57,390.66a22.58,22.58,0,0,0,7.29-6.86c1.09-1.6-1.51-3.1-2.59-1.51a19.17,19.17,0,0,1-6.21,5.79,1.5,1.5,0,0,0,1.51,2.59Z" transform="translate(-152.56 -43.07)"/><path class="cls-49" d="M612.34,395.76a17.73,17.73,0,0,0,11.32-1.88c1.7-.91.19-3.5-1.51-2.59a14.32,14.32,0,0,1-9,1.58c-1.89-.29-2.7,2.6-.8,2.89Z" transform="translate(-152.56 -43.07)"/><path class="cls-49" d="M605.18,396a32.29,32.29,0,0,0,5.69,8.36c1.32,1.41,3.44-.71,2.12-2.12a29.76,29.76,0,0,1-5.22-7.75c-.82-1.75-3.41-.23-2.59,1.51Z" transform="translate(-152.56 -43.07)"/><path class="cls-49" d="M606.2,417.61a15.79,15.79,0,0,1-4.28.79c-.85,0-3.42.23-4-.63-1.06-1.61-3.66-.1-2.59,1.51,2.21,3.35,8.47,2.23,11.65,1.22,1.83-.58,1.05-3.48-.8-2.89Z" transform="translate(-152.56 -43.07)"/><path class="cls-49" d="M614.77,417.85a20.06,20.06,0,0,0,5.24,6.31c1.17.92,4.83,3.51,5.38.5.35-1.89-2.54-2.7-2.89-.8l0,.21.69-.9c.63-.29-.82-1-1.17-1.26a17.06,17.06,0,0,1-1.86-1.69,17.49,17.49,0,0,1-2.77-3.89c-.91-1.7-3.5-.19-2.59,1.51Z" transform="translate(-152.56 -43.07)"/><path class="cls-49" d="M616.65,412.45a21.55,21.55,0,0,0,9.65-4.65c1.49-1.23-.64-3.34-2.12-2.12a18.45,18.45,0,0,1-8.32,3.88c-1.89.37-1.09,3.27.8,2.89Z" transform="translate(-152.56 -43.07)"/><path class="cls-49" d="M608.07,408.27A8.56,8.56,0,0,1,604,404.8c-1-1.64-3.61-.13-2.59,1.51a11.94,11.94,0,0,0,5.91,4.85,1.51,1.51,0,0,0,1.85-1,1.53,1.53,0,0,0-1-1.85Z" transform="translate(-152.56 -43.07)"/><path class="cls-49" d="M651.5,361.25a29.4,29.4,0,0,1,.55-10.64c.45-1.88-2.44-2.68-2.89-.8a31.68,31.68,0,0,0-.66,11.44c.24,1.89,3.24,1.91,3,0Z" transform="translate(-152.56 -43.07)"/><path class="cls-49" d="M659.87,366.62a40.59,40.59,0,0,0,6.31-8.67c.92-1.7-1.67-3.21-2.59-1.51a37.56,37.56,0,0,1-5.84,8.07c-1.33,1.4.79,3.52,2.12,2.12Z" transform="translate(-152.56 -43.07)"/><path class="cls-49" d="M664.25,374.44c3.48.43,7.18.08,8.69-3.56.74-1.78-2.16-2.56-2.89-.8-.87,2.1-4.07,1.57-5.8,1.36-1.91-.24-1.89,2.77,0,3Z" transform="translate(-152.56 -43.07)"/><path class="cls-49" d="M652.62,372.09a15.92,15.92,0,0,1-5.44,5.5c-1.65,1-.14,3.6,1.51,2.59a19.13,19.13,0,0,0,6.52-6.58,1.5,1.5,0,0,0-2.59-1.51Z" transform="translate(-152.56 -43.07)"/><path class="cls-49" d="M638.86,387.39a37.36,37.36,0,0,1-2.31-8.8c-.26-1.9-3.15-1.09-2.89.8a37.36,37.36,0,0,0,2.31,8.8c.71,1.77,3.61,1,2.89-.8Z" transform="translate(-152.56 -43.07)"/><path class="cls-49" d="M635.09,394.15a40.69,40.69,0,0,0-6.52-4.27l-1.16,2.74.93.32c1.83.64,2.61-2.26.8-2.89l-.93-.32c-1.6-.56-2.66,2-1.16,2.74a36.82,36.82,0,0,1,5.91,3.8c1.5,1.19,3.63-.92,2.12-2.12Z" transform="translate(-152.56 -43.07)"/><path class="cls-49" d="M634.81,402.35l-2,6.75c-.55,1.85,2.34,2.65,2.89.8l2-6.75c.55-1.85-2.34-2.65-2.89-.8Z" transform="translate(-152.56 -43.07)"/><path class="cls-49" d="M640.74,395.77a48.2,48.2,0,0,0,8.89,7c1.65,1,3.16-1.58,1.51-2.59a44.79,44.79,0,0,1-8.28-6.51,1.5,1.5,0,0,0-2.12,2.12Z" transform="translate(-152.56 -43.07)"/><path class="cls-49" d="M666,395.85a54.88,54.88,0,0,1-2-9.59c-.22-1.89-3.23-1.92-3,0a59.24,59.24,0,0,0,2.15,10.39c.56,1.84,3.46,1.06,2.89-.8Z" transform="translate(-152.56 -43.07)"/><path class="cls-49" d="M670.25,404.12c2.23,0,3.79-1.41,5.21-3,.79-.87,1.52-1.79,2.22-2.74q.56-.76,1.07-1.55c.1-.15,1-1.58.71-1.52l-1.69-.69.06.13v-1.51l-.1.14,2.05-.54-.09-.05a1.5,1.5,0,0,0-1.51,2.59l.09.05a1.54,1.54,0,0,0,2.05-.54l.1-.14a1.52,1.52,0,0,0,0-1.51l-.06-.13a1.51,1.51,0,0,0-1.69-.69c-1.66.42-2.46,2.91-3.39,4.2-1.06,1.46-3,4.48-5,4.49a1.5,1.5,0,0,0,0,3Z" transform="translate(-152.56 -43.07)"/><path class="cls-49" d="M674.63,408a9.18,9.18,0,0,0,10.44-1.42c1.43-1.3-.7-3.42-2.12-2.12a6.06,6.06,0,0,1-6.81,1c-1.72-.86-3.24,1.72-1.51,2.59Z" transform="translate(-152.56 -43.07)"/><path class="cls-49" d="M662.31,406.55a8,8,0,0,1-5.72,3.95c-1.9.34-1.09,3.23.8,2.89a10.9,10.9,0,0,0,7.52-5.32,1.5,1.5,0,0,0-2.59-1.51Z" transform="translate(-152.56 -43.07)"/><path class="cls-49" d="M636.22,427.67a24.26,24.26,0,0,0,4,8c1.24,1.61,3.13,4.16,5.27,2.38,1.48-1.24-.65-3.35-2.12-2.12l-.25.21,1.06-.44c-.22,0-1-1.12-1.21-1.36a19.75,19.75,0,0,1-1.72-2.46,21.46,21.46,0,0,1-2.16-5c-.54-1.85-3.44-1.06-2.89.8Z" transform="translate(-152.56 -43.07)"/><path class="cls-49" d="M646.28,421.91a12.74,12.74,0,0,0,4.7,3.7c1.41.64,3.72,1.68,4.94.19a1.59,1.59,0,0,0,.23-1.82l-.09-.19c-.82-1.75-3.4-.23-2.59,1.51l.09.19.23-1.82q.61-.22-.17-.26-.44-.12-.86-.28a10,10,0,0,1-1.67-.85,10.69,10.69,0,0,1-2.7-2.49c-1.2-1.51-3.31.62-2.12,2.12Z" transform="translate(-152.56 -43.07)"/><path class="cls-49" d="M644.77,413l2.47-5.76c.75-1.76-1.83-3.29-2.59-1.51l-2.47,5.76c-.75,1.76,1.83,3.29,2.59,1.51Z" transform="translate(-152.56 -43.07)"/><path class="cls-49" d="M637.86,418.62a14.53,14.53,0,0,1-6-.23c-1.87-.46-2.67,2.43-.8,2.89a18.27,18.27,0,0,0,7.58.23c1.9-.33,1.09-3.22-.8-2.89Z" transform="translate(-152.56 -43.07)"/><path class="cls-49" d="M685.66,383.11a23.35,23.35,0,0,1-.82-11c.31-1.89-2.58-2.7-2.89-.8a26.67,26.67,0,0,0,.82,12.58c.58,1.84,3.47,1.05,2.89-.8Z" transform="translate(-152.56 -43.07)"/><path class="cls-49" d="M694.88,380.55l4.38-8.31c.9-1.71-1.69-3.22-2.59-1.51L692.29,379c-.9,1.71,1.69,3.22,2.59,1.51Z" transform="translate(-152.56 -43.07)"/><path class="cls-49" d="M692.85,391a10.14,10.14,0,0,0,9.78-2.58c1.38-1.35-.74-3.47-2.12-2.12a7,7,0,0,1-6.86,1.81,1.5,1.5,0,0,0-.8,2.89Z" transform="translate(-152.56 -43.07)"/><path class="cls-49" d="M686.26,395.22a14.7,14.7,0,0,0,11.23,6.88c1.92.19,1.91-2.81,0-3a11.52,11.52,0,0,1-8.64-5.4c-1-1.63-3.62-.13-2.59,1.51Z" transform="translate(-152.56 -43.07)"/><path class="cls-49" d="M692,417.34a12.83,12.83,0,0,1-7.15-1.16l-.36,2.74.65-.24c1.79-.67,1-3.57-.8-2.89l-.65.24c-1.1.41-1.62,2.13-.36,2.74a15.68,15.68,0,0,0,8.66,1.57c1.9-.21,1.92-3.21,0-3Z" transform="translate(-152.56 -43.07)"/><path class="cls-49" d="M697.5,414.66a81.51,81.51,0,0,1,2.54-8.07c.67-1.81-2.22-2.59-2.89-.8a81.51,81.51,0,0,0-2.54,8.07c-.48,1.87,2.41,2.67,2.89.8Z" transform="translate(-152.56 -43.07)"/><path class="cls-49" d="M699.75,420.57a9.83,9.83,0,0,0,8-4.6c1-1.63-1.55-3.14-2.59-1.51a6.68,6.68,0,0,1-5.4,3.11c-1.92.08-1.93,3.08,0,3Z" transform="translate(-152.56 -43.07)"/><path class="cls-49" d="M694.49,428.81a14.41,14.41,0,0,0,10.18.93,1.5,1.5,0,0,0-.8-2.89,11.17,11.17,0,0,1-7.86-.63c-1.74-.82-3.26,1.77-1.51,2.59Z" transform="translate(-152.56 -43.07)"/><path class="cls-49" d="M702,444.82a50.29,50.29,0,0,0,9.42-7.13c1.39-1.34-.73-3.46-2.12-2.12a46.89,46.89,0,0,1-8.81,6.67,1.5,1.5,0,0,0,1.51,2.59Z" transform="translate(-152.56 -43.07)"/><path class="cls-49" d="M700.75,454.53a19.39,19.39,0,0,0,10,2.5c1.93,0,1.93-3,0-3a16.28,16.28,0,0,1-8.49-2.09c-1.69-.94-3.2,1.65-1.51,2.59Z" transform="translate(-152.56 -43.07)"/><path class="cls-49" d="M692.44,452.48a27.27,27.27,0,0,1-5.67,7.29c-1.43,1.31.7,3.42,2.12,2.12A29.76,29.76,0,0,0,695,454c.91-1.7-1.68-3.22-2.59-1.51Z" transform="translate(-152.56 -43.07)"/><path class="cls-49" d="M694.52,443.94a13.63,13.63,0,0,1-5.86-5.62c-.94-1.69-3.53-.18-2.59,1.51a16.42,16.42,0,0,0,6.94,6.7c1.72.87,3.24-1.72,1.51-2.59Z" transform="translate(-152.56 -43.07)"/><path class="cls-49" d="M662.78,437a13.09,13.09,0,0,1-2.71,1.26c-.22.07-2.67.69-2.5.19.62-1.83-2.28-2.62-2.89-.8a3.13,3.13,0,0,0,2.94,4c2.28.2,4.78-.94,6.68-2.07a1.5,1.5,0,0,0-1.51-2.59Z" transform="translate(-152.56 -43.07)"/><path class="cls-49" d="M668.5,427.46c-.83-.05-1.33-1.61-1.55-2.2a13.07,13.07,0,0,1-.76-3.4c-.17-1.91-3.17-1.93-3,0,.28,3.16,1.36,8.35,5.3,8.59,1.93.12,1.92-2.88,0-3Z" transform="translate(-152.56 -43.07)"/><path class="cls-49" d="M677.1,438.35a18.71,18.71,0,0,0,4.65-8.44c.46-1.87-2.43-2.67-2.89-.8a15.62,15.62,0,0,1-3.87,7.12c-1.33,1.4.79,3.53,2.12,2.12Z" transform="translate(-152.56 -43.07)"/><path class="cls-49" d="M671.49,445.25l-.25,8.25c-.06,1.93,2.94,1.93,3,0l.25-8.25c.06-1.93-2.94-1.93-3,0Z" transform="translate(-152.56 -43.07)"/><path class="cls-49" d="M289.1,296.11c-3.86-1.14-10.26-2.47-11.73-6.81-.62-1.82-3.51-1-2.89.8,1.91,5.65,8.71,7.4,13.83,8.91,1.86.55,2.65-2.35.8-2.89Z" transform="translate(-152.56 -43.07)"/></g><g id="fiori"><circle class="cls-50" cx="172.44" cy="293.93" r="7"/><circle class="cls-50" cx="141.94" cy="232.43" r="5.5"/><circle class="cls-50" cx="186.94" cy="235.43" r="5.5"/><circle class="cls-50" cx="246.94" cy="214.43" r="5.5"/><circle class="cls-50" cx="232.94" cy="226.43" r="5.5"/><circle class="cls-50" cx="257.94" cy="222.43" r="5.5"/><circle class="cls-50" cx="268.94" cy="241.43" r="5.5"/><circle class="cls-50" cx="255.94" cy="250.43" r="5.5"/><circle class="cls-50" cx="245.94" cy="289.43" r="5.5"/><circle class="cls-50" cx="209.94" cy="265.43" r="5.5"/><circle class="cls-50" cx="178.94" cy="260.43" r="5.5"/><circle class="cls-50" cx="231.94" cy="240.43" r="5.5"/><circle class="cls-50" cx="283.94" cy="250.43" r="5.5"/><circle class="cls-50" cx="239.94" cy="279.43" r="5.5"/><circle class="cls-50" cx="268.94" cy="221.43" r="5.5"/><circle class="cls-50" cx="328.94" cy="273.43" r="5.5"/><circle class="cls-50" cx="302.94" cy="251.43" r="5.5"/><circle class="cls-50" cx="287.94" cy="220.43" r="5.5"/><circle class="cls-50" cx="305.94" cy="230.43" r="5.5"/><circle class="cls-50" cx="340.94" cy="253.43" r="5.5"/><circle class="cls-50" cx="355.94" cy="266.43" r="5.5"/><circle class="cls-50" cx="360.94" cy="293.43" r="5.5"/><circle class="cls-50" cx="352.94" cy="300.43" r="5.5"/><circle class="cls-50" cx="344.94" cy="315.43" r="5.5"/><circle class="cls-50" cx="359.94" cy="340.43" r="5.5"/><circle class="cls-50" cx="337.94" cy="327.43" r="5.5"/><circle class="cls-50" cx="367.94" cy="327.43" r="5.5"/><circle class="cls-50" cx="385.94" cy="355.43" r="5.5"/><circle class="cls-50" cx="386.94" cy="340.43" r="5.5"/><circle class="cls-50" cx="389.94" cy="284.43" r="5.5"/><circle class="cls-50" cx="380.94" cy="270.43" r="5.5"/><circle class="cls-50" cx="420.94" cy="302.43" r="5.5"/><circle class="cls-50" cx="448.94" cy="290.43" r="5.5"/><circle class="cls-50" cx="464.94" cy="307.43" r="5.5"/><circle class="cls-50" cx="486.94" cy="316.43" r="5.5"/><circle class="cls-50" cx="478.94" cy="333.43" r="5.5"/><circle class="cls-50" cx="464.94" cy="340.43" r="5.5"/><circle class="cls-50" cx="453.94" cy="351.43" r="5.5"/><circle class="cls-50" cx="449.94" cy="337.43" r="5.5"/><circle class="cls-50" cx="437.94" cy="347.43" r="5.5"/><circle class="cls-50" cx="470.94" cy="381.43" r="5.5"/><circle class="cls-50" cx="497.94" cy="305.43" r="5.5"/><circle class="cls-50" cx="503.94" cy="328.43" r="5.5"/><circle class="cls-50" cx="510.94" cy="341.43" r="5.5"/><circle class="cls-50" cx="519.94" cy="327.43" r="5.5"/><circle class="cls-50" cx="545.94" cy="360.43" r="5.5"/><circle class="cls-50" cx="534.94" cy="395.43" r="5.5"/><circle class="cls-50" cx="519.94" cy="412.43" r="5.5"/><circle class="cls-50" cx="534.94" cy="418.43" r="5.5"/><circle class="cls-50" cx="514.94" cy="378.43" r="5.5"/><circle class="cls-50" cx="551.94" cy="344.43" r="5.5"/><circle class="cls-50" cx="528.94" cy="350.43" r="5.5"/><circle class="cls-50" cx="557.94" cy="393.43" r="5.5"/><circle class="cls-50" cx="528.94" cy="385.43" r="5.5"/><circle class="cls-50" cx="510.94" cy="363.43" r="5.5"/><circle class="cls-50" cx="482.94" cy="335.43" r="5.5"/><circle class="cls-50" cx="241.94" cy="238.43" r="5.5"/><circle class="cls-50" cx="161.94" cy="185.43" r="5.5"/><circle class="cls-50" cx="284.94" cy="292.43" r="5.5"/><circle class="cls-50" cx="220.94" cy="232.43" r="5.5"/><circle class="cls-50" cx="189.94" cy="252.43" r="5.5"/><circle class="cls-50" cx="192.44" cy="187.93" r="6.5"/><circle class="cls-50" cx="147.94" cy="211.43" r="6.5"/><circle class="cls-50" cx="159.94" cy="213.43" r="6.5"/><circle class="cls-50" cx="189.94" cy="211.43" r="6.5"/><circle class="cls-50" cx="167.94" cy="213.43" r="6.5"/><circle class="cls-50" cx="189.94" cy="199.43" r="6.5"/><circle class="cls-50" cx="266.94" cy="300.43" r="6.5"/><circle class="cls-50" cx="243.94" cy="317.43" r="6.5"/><circle class="cls-50" cx="214.94" cy="293.43" r="6.5"/><circle class="cls-50" cx="326" cy="219" r="6.5" transform="translate(-105.51 452.38) rotate(-78.63)"/><circle class="cls-50" cx="346.53" cy="312.56" r="6.5" transform="translate(-180.75 547.62) rotate(-78.63)"/><circle class="cls-50" cx="301.53" cy="319.56" r="6.5" transform="translate(-223.75 509.13) rotate(-78.63)"/><circle class="cls-50" cx="274.53" cy="318.54" r="6.5" transform="translate(-244.42 481.84) rotate(-78.63)"/><circle class="cls-50" cx="327.53" cy="272.54" r="6.5" transform="translate(-156.77 496.87) rotate(-78.63)"/><circle class="cls-50" cx="353.53" cy="266.54" r="6.5" transform="translate(-130.01 517.54) rotate(-78.63)"/><circle class="cls-50" cx="355.53" cy="295.55" r="6.5" transform="translate(-156.84 542.8) rotate(-78.63)"/><circle class="cls-50" cx="414.53" cy="323.56" r="6.5" transform="translate(-136.92 623.13) rotate(-78.63)"/><circle class="cls-50" cx="372.53" cy="229.54" r="6.5" transform="translate(-78.48 506.46) rotate(-78.63)"/><circle class="cls-50" cx="390.54" cy="245.54" r="6.5" transform="translate(-79.71 536.96) rotate(-78.63)"/><circle class="cls-50" cx="382.54" cy="303.55" r="6.5" transform="translate(-142.99 575.7) rotate(-78.63)"/><circle class="cls-50" cx="370.54" cy="296.56" r="6.5" transform="translate(-145.78 558.32) rotate(-78.63)"/><circle class="cls-50" cx="354.54" cy="327.56" r="6.5" transform="translate(-189.02 567.52) rotate(-78.63)"/><circle class="cls-50" cx="381.53" cy="317.56" r="6.5" transform="translate(-157.54 585.96) rotate(-78.63)"/><circle class="cls-50" cx="379.54" cy="342.56" r="6.5" transform="translate(-183.65 604.08) rotate(-78.63)"/><circle class="cls-50" cx="428.54" cy="319.56" r="6.5" transform="translate(-121.77 633.65) rotate(-78.63)"/><circle class="cls-50" cx="419.55" cy="300.56" r="6.5" transform="translate(-110.35 609.58) rotate(-78.63)"/><circle class="cls-50" cx="469.55" cy="292.56" r="6.5" transform="translate(-62.36 652.17) rotate(-78.63)"/><circle class="cls-50" cx="444.56" cy="280.55" r="6.5" transform="translate(-70.66 618.04) rotate(-78.63)"/><circle class="cls-50" cx="458.55" cy="332.55" r="6.5" transform="translate(-110.4 673.51) rotate(-78.63)"/><circle class="cls-50" cx="450.55" cy="364.56" r="6.5" transform="translate(-148.2 691.37) rotate(-78.63)"/><circle class="cls-50" cx="473.55" cy="369.57" r="6.5" transform="translate(-134.65 717.94) rotate(-78.63)"/><circle class="cls-50" cx="480.56" cy="387.57" r="6.5" transform="translate(-146.67 739.26) rotate(-78.63)"/><circle class="cls-50" cx="507.56" cy="365.57" r="6.5" transform="translate(-103.43 748.07) rotate(-78.63)"/><circle class="cls-50" cx="553.56" cy="309.56" r="6.5" transform="translate(-11.57 748.19) rotate(-78.63)"/><circle class="cls-50" cx="538.57" cy="352.56" r="6.5" transform="translate(-65.76 768.02) rotate(-78.63)"/><circle class="cls-50" cx="534.57" cy="374.57" r="6.5" transform="translate(-90.55 781.77) rotate(-78.63)"/><circle class="cls-50" cx="576.57" cy="358.57" r="6.5" transform="translate(-41.15 810.1) rotate(-78.63)"/><circle class="cls-50" cx="605.58" cy="367.57" r="6.5" transform="translate(-26.68 845.77) rotate(-78.63)"/><circle class="cls-50" cx="578.58" cy="389.57" r="6.5" transform="translate(-69.93 836.96) rotate(-78.63)"/><circle class="cls-50" cx="588.58" cy="372.57" r="6.5" transform="translate(-45.24 833.12) rotate(-78.63)"/><circle class="cls-50" cx="571.58" cy="407.57" r="6.5" transform="translate(-93.19 844.55) rotate(-78.63)"/><circle class="cls-50" cx="592.58" cy="419.58" r="6.5" transform="translate(-88.11 874.78) rotate(-78.63)"/><circle class="cls-50" cx="646.58" cy="440.58" r="6.5" transform="translate(-65.34 944.59) rotate(-78.63)"/><circle class="cls-50" cx="656.59" cy="437.58" r="6.5" transform="translate(-54.36 951.99) rotate(-78.63)"/><circle class="cls-50" cx="682.59" cy="371.58" r="6.5" transform="translate(31.22 924.49) rotate(-78.63)"/><circle class="cls-50" cx="666.6" cy="355.57" r="6.5" transform="translate(34.08 895.95) rotate(-78.63)"/><circle class="cls-50" cx="625.6" cy="341.57" r="6.5" transform="translate(14.88 844.51) rotate(-78.63)"/><circle class="cls-50" cx="623.59" cy="394.56" r="6.5" transform="translate(-38.69 885.1) rotate(-78.63)"/><circle class="cls-50" cx="628.59" cy="406.57" r="6.5" transform="translate(-46.45 899.64) rotate(-78.63)"/><circle class="cls-50" cx="596.59" cy="401.58" r="6.5" transform="translate(-67.24 864.26) rotate(-78.63)"/><circle class="cls-50" cx="564.58" cy="397.58" r="6.5" transform="translate(-89.02 829.67) rotate(-78.63)"/><circle class="cls-50" cx="559.58" cy="386.58" r="6.5" transform="translate(-82.25 815.93) rotate(-78.63)"/><circle class="cls-50" cx="658.57" cy="426.57" r="6.5" transform="translate(-41.97 945.1) rotate(-78.63)"/><circle class="cls-50" cx="648.59" cy="404.58" r="6.5" transform="translate(-28.43 917.66) rotate(-78.63)"/><circle class="cls-50" cx="636.59" cy="419.58" r="6.5" transform="translate(-52.77 917.93) rotate(-78.63)"/><circle class="cls-50" cx="698.59" cy="414.58" r="6.5" transform="translate(1.91 974.7) rotate(-78.63)"/><circle class="cls-50" cx="710.59" cy="412.56" r="6.5" transform="translate(13.52 984.84) rotate(-78.63)"/><circle class="cls-50" cx="712.6" cy="454.58" r="6.5" transform="translate(-26.05 1020.55) rotate(-78.63)"/><circle class="cls-50" cx="707.6" cy="428.59" r="6.5" transform="translate(-4.58 994.78) rotate(-78.63)"/><circle class="cls-50" cx="700.6" cy="369.58" r="6.5" transform="translate(47.65 940.54) rotate(-78.63)"/><circle class="cls-50" cx="181.94" cy="189.43" r="7"/><circle class="cls-50" cx="296.44" cy="222.93" r="7"/><circle class="cls-50" cx="310.44" cy="274.93" r="7"/><circle class="cls-50" cx="289.44" cy="262.93" r="7"/><circle class="cls-50" cx="311.44" cy="302.93" r="7"/><circle class="cls-50" cx="334.44" cy="290.93" r="7"/><circle class="cls-50" cx="332.44" cy="242.93" r="7"/><circle class="cls-50" cx="367.44" cy="278.93" r="7"/><circle class="cls-50" cx="344.44" cy="272.93" r="7"/><circle class="cls-50" cx="366.44" cy="306.93" r="7"/><circle class="cls-50" cx="262.44" cy="267.93" r="7"/><circle class="cls-50" cx="376.44" cy="292.93" r="7"/><circle class="cls-50" cx="410.44" cy="283.93" r="7"/><circle class="cls-50" cx="429.44" cy="280.93" r="7"/><circle class="cls-50" cx="411.44" cy="329.93" r="7"/><circle class="cls-50" cx="403.44" cy="310.93" r="7"/><circle class="cls-50" cx="445.44" cy="306.93" r="7"/><circle class="cls-50" cx="450.44" cy="304.93" r="7"/><circle class="cls-50" cx="548" cy="367" r="7" transform="translate(-21.38 835.05) rotate(-84.61)"/><circle class="cls-50" cx="396.44" cy="300.93" r="7"/><circle class="cls-50" cx="225.44" cy="205.93" r="7"/><circle class="cls-50" cx="127.44" cy="250.93" r="7"/><circle class="cls-50" cx="162.44" cy="245.93" r="7"/></g><g id="text01"><text class="cls-51" transform="translate(800.44 146.16)">Tiny mulberry blossoms grow <tspan x="0" y="25.51">in drooping cylindrical </tspan><tspan x="0" y="51.02">clusters called catkins. They </tspan><tspan x="0" y="76.54">contain many unisexual </tspan><tspan x="0" y="102.05">flowers, arranged closely </tspan><tspan x="0" y="127.56">along the central stem.</tspan></text><line class="cls-52" x1="783.94" y1="118.43" x2="783.94" y2="285.43"/></g><g id="link2zoom"><rect class="cls-53" x="779.44" y="344.93" width="277" height="111"/><text class="cls-54" transform="translate(930.75 396.39)">Zoom to <tspan x="6.88" y="39.68">flowers</tspan></text><g id="lente"><circle class="cls-55" cx="820.94" cy="393.43" r="36"/><line class="cls-52" x1="897.94" y1="451.43" x2="848.44" y2="416.93"/></g></g><g id="caption01"><text class="cls-56" transform="translate(341.78 213.83)">23.5 cm</text><path class="cls-5" d="M382.77,387.08a13.64,13.64,0,0,0,5.47.87,29.49,29.49,0,0,0,5.53-.67,43,43,0,0,0,5.34-1.55,32.72,32.72,0,0,0,5-2.35,19.16,19.16,0,0,0,2.21-1.52l1-.88,1-1c1.39-1.33,2.81-2.59,4.18-3.81a33.44,33.44,0,0,0,3.81-3.81,28.27,28.27,0,0,0,3-4.53l1.26.49a19,19,0,0,1-2.29,5.47,21.58,21.58,0,0,1-3.85,4.56c-1.44,1.33-3,2.44-4.45,3.59l-1.09.88-1.22.93a24.07,24.07,0,0,1-2.59,1.51A36.22,36.22,0,0,1,394,388.61a30.56,30.56,0,0,1-5.78.18,13.44,13.44,0,0,1-5.57-1.46Z" transform="translate(-152.56 -43.07)"/><polygon class="cls-5" points="270.2 331.88 267.16 325.8 261.08 328.85 262.37 324.98 268.44 321.93 271.49 328 270.2 331.88"/><text class="cls-56" transform="translate(158.78 343.83)">Flower</text><path class="cls-5" d="M297.91,224.07a90,90,0,0,1,28.64-10.31,104,104,0,0,1,30.5-.53,154.52,154.52,0,0,1,29.75,7,259,259,0,0,1,28.3,11.55c4.61,2.18,9.17,4.45,13.69,6.8s8.92,4.92,13.39,7.34c8.91,4.87,17.95,9.51,27.23,13.58s18.81,7.64,28.66,9.66a52.3,52.3,0,0,0,14.85,1.08c4.87-.45,9.69-2.15,13-5.64l1.76-1.88.19,2.59c.15,2,1.71,4,3.47,5.56a37.27,37.27,0,0,0,6,4.2,114.52,114.52,0,0,0,13.58,6.42c9.34,3.77,18.94,7,28.56,10.09s19.31,6.08,29,9.11,19.33,6.1,29,9.28,19.2,6.57,28.7,10.17,18.92,7.43,28.08,11.84a164.26,164.26,0,0,1,26.36,15.34,69.85,69.85,0,0,1,11.28,10.31A32.93,32.93,0,0,1,739.14,371l-.27.07a33.29,33.29,0,0,0-7.61-12.87,68.81,68.81,0,0,0-11.43-9.8,163.72,163.72,0,0,0-26.44-14.6c-18.42-8.3-37.57-14.91-56.83-21.11-9.62-3.13-19.29-6.15-29-9.16s-19.34-6.08-29-9.25-19.24-6.51-28.66-10.41a116.84,116.84,0,0,1-13.82-6.69,39.52,39.52,0,0,1-6.38-4.54,16.33,16.33,0,0,1-2.69-3.07,8.47,8.47,0,0,1-1.48-4.08l2,.71a19.35,19.35,0,0,1-6.7,4.45,27,27,0,0,1-7.72,1.78,54.34,54.34,0,0,1-15.47-1.22c-10.09-2.14-19.67-5.85-29-10s-18.37-8.89-27.27-13.84c-4.46-2.45-8.85-5.06-13.31-7.42s-9-4.67-13.59-6.87a257.75,257.75,0,0,0-28.06-11.76,153.54,153.54,0,0,0-29.49-7.23,103.26,103.26,0,0,0-30.3.24,89.62,89.62,0,0,0-28.59,10Z" transform="translate(-152.56 -43.07)"/></g><g id="titolo"><rect id="sottolineato" class="cls-5" x="417.44" y="32.93" width="226" height="12"/><text class="cls-57" transform="translate(424.33 40.32)"><tspan xml:space="preserve">MORUS  ALBA</tspan></text><g id="text01-2" data-name="text01"><text class="cls-54" transform="translate(458.33 83.89)">Male Catkin</text></g></g></g><g id="ZOOM"><g id="Sfondo-2" data-name="Sfondo"><path class="cls-2" d="M1174.25,242.74c8,80.41-49.19,120.26-134.37,120.26C912.82,363,894,307.76,894,239.61s62.4-106.4,145.88-123.39C1127.19,98.44,1168,180,1174.25,242.74Z" transform="translate(-152.56 -43.07)"/><path class="cls-3" d="M1174.67,242.7a150.54,150.54,0,0,1,.33,26.6,110.34,110.34,0,0,1-5.23,26.18c-.75,2.11-1.55,4.2-2.37,6.29l-1.39,3.07c-.47,1-.9,2.06-1.46,3l-1.58,3c-.27.49-.52,1-.81,1.49l-.89,1.44-1.78,2.88c-.59,1-1.29,1.85-1.94,2.78A94.43,94.43,0,0,1,1138.77,339a113.36,113.36,0,0,1-23.38,13.88l-3.12,1.37c-1,.46-2.11.83-3.16,1.25l-3.18,1.22c-1.06.4-2.14.73-3.21,1.1l-3.23,1.05c-1.08.35-2.18.62-3.26.94-2.18.61-4.35,1.24-6.56,1.71a207.49,207.49,0,0,1-53.6,5c-17.83-.5-35.72-2.06-53.22-6a167.11,167.11,0,0,1-25.75-7.6,115.45,115.45,0,0,1-23.83-12.38l-1.4-.93-1.34-1-2.68-2c-.91-.66-1.73-1.43-2.58-2.17l-2.53-2.23c-.83-.76-1.59-1.59-2.38-2.39s-1.6-1.58-2.33-2.43l-2.2-2.56-1.1-1.28c-.35-.44-.68-.9-1-1.34a91.42,91.42,0,0,1-12.91-23.55,119,119,0,0,1-3.92-12.86l-.8-3.26-.67-3.29c-.48-2.19-.83-4.4-1.18-6.61a232.7,232.7,0,0,1-2.48-26.67l-.19-6.69c0-2.26,0-4.53.09-6.79l.23-3.4c.08-1.13.13-2.27.3-3.39l.43-3.39c.08-.56.14-1.13.23-1.69l.32-1.68c.43-2.24.82-4.49,1.44-6.69l.85-3.32,1.06-3.26a96.7,96.7,0,0,1,5.26-12.69,102.11,102.11,0,0,1,15.59-22.53,133,133,0,0,1,20.34-18.2c14.68-10.75,31-18.82,47.78-25.26,8.39-3.24,16.94-6,25.57-8.43s17.33-4.58,26.09-6.35a131.33,131.33,0,0,1,27.3-2.75,94.18,94.18,0,0,1,27.31,4.22l6.54,2.31c2.12.93,4.24,1.83,6.34,2.79s4.09,2.15,6.08,3.3,3.93,2.41,5.81,3.72a103.49,103.49,0,0,1,20.14,18.43,134.63,134.63,0,0,1,15.24,22.28l1.62,2.95,1.5,3,1.49,3,1.37,3.06,1.37,3.05,1.26,3.1,1.25,3.1,1.15,3.14A216.44,216.44,0,0,1,1174.67,242.7Zm-.85.08a179.56,179.56,0,0,0-13.09-51.07l-1.29-3-1.39-3-1.4-3-1.51-2.92-1.53-2.91L1152,174l-1.65-2.84-1.76-2.77a130,130,0,0,0-16-20.5,106,106,0,0,0-19.92-16.2c-1.8-1.13-3.69-2.11-5.53-3.18s-3.83-1.84-5.73-2.76l-5.88-2.38-6-1.93a93.61,93.61,0,0,0-25.07-3.36,105.61,105.61,0,0,0-12.71.78l-3.17.36-3.15.56c-2.11.4-4.18.69-6.34,1.2a359.8,359.8,0,0,0-50.38,14.21,232.36,232.36,0,0,0-23.93,10.28,171.9,171.9,0,0,0-22.29,13.2C928.32,168.63,916,181.1,907.8,196.1a93.69,93.69,0,0,0-9,23.93l-.37,1.57c-.11.53-.19,1.06-.28,1.59l-.55,3.18c-.21,1.06-.3,2.13-.42,3.2l-.36,3.21c-.19,2.15-.24,4.31-.37,6.47l-.1,6.59a210,210,0,0,0,1.4,26.25c.27,2.17.54,4.34.94,6.49l.55,3.23L900,285a116,116,0,0,0,3.55,12.6,83.61,83.61,0,0,0,12.25,23,77,77,0,0,0,19.06,17.68,105.71,105.71,0,0,0,23.49,11.39,153.22,153.22,0,0,0,25.44,6.27c4.3.79,8.66,1.25,13,1.8,2.17.24,4.36.39,6.54.59s4.36.39,6.55.47l6.56.35c2.19.12,4.38.12,6.57.19s4.38.14,6.58.12l6.58,0c8.77,0,17.47-.41,26.14-1.2a216.93,216.93,0,0,0,25.7-4c2.12-.43,4.22-1,6.31-1.51,1-.28,2.1-.51,3.14-.82l3.1-.93c1-.31,2.08-.58,3.1-.93l3.06-1c1-.36,2.06-.67,3.05-1.07l3-1.19a118.57,118.57,0,0,0,22.82-12,90.5,90.5,0,0,0,19-17.45,83.88,83.88,0,0,0,13.14-22.45,99.1,99.1,0,0,0,6.12-25.54A129.63,129.63,0,0,0,1173.82,242.79Z" transform="translate(-152.56 -43.07)"/></g><g id="F4"><path class="cls-58" d="M1063.59,279.95c-.23,13-19,32.38-39.47,32.36-20.84,0-36.58-18.29-34.59-37.53,1.2-11.64,12.7-32.55,39.47-32.36C1049.5,242.56,1063.93,261,1063.59,279.95Z" transform="translate(-152.56 -43.07)"/><path class="cls-4" d="M1038.31,243.79c-1,2.09-3.64,3.14-9.41,3.14s-8.37-1.58-8.37-4.18,2.09-3.14,6.27-4.18C1032.32,237.18,1041,238.34,1038.31,243.79Z" transform="translate(-152.56 -43.07)"/></g><g id="F1closed"><g id="P2"><path class="cls-59" d="M1052.42,322.74c32.41-.55,45-71.11,5.65-71.57C1015.8,250.66,1014.31,323.39,1052.42,322.74Z" transform="translate(-152.56 -43.07)"/></g><g id="P1"><path class="cls-60" d="M1056.61,324.83c32.41-.55,47.06-70.06,7.74-70.53C1022.07,253.8,1018.49,325.48,1056.61,324.83Z" transform="translate(-152.56 -43.07)"/></g><g id="gambo-2" data-name="gambo"><path class="cls-49" d="M1081,252.33a16.81,16.81,0,0,1,5.87,2.38,15.54,15.54,0,0,1,4.52,4.71c2.35,3.77,3.23,8.14,3.65,12.36a80.17,80.17,0,0,1-.07,12.6,118.58,118.58,0,0,1-1.66,12.45,77.26,77.26,0,0,1-3.35,12.5,33.15,33.15,0,0,1-3,6,26.24,26.24,0,0,1-4.58,5.33,23.25,23.25,0,0,1-6.05,3.9,21.74,21.74,0,0,1-6.86,1.74,29,29,0,0,1-12.83-2.14.44.44,0,0,1-.27-.57.46.46,0,0,1,.31-.28c2.08-.54,4.13-.81,6.07-1.28a34.09,34.09,0,0,0,5.43-1.62,21.07,21.07,0,0,0,8.26-5.84,48.73,48.73,0,0,0,5.93-8.77,51.63,51.63,0,0,0,4.39-10.62,116,116,0,0,0,2.68-11.57,76.18,76.18,0,0,0,1.42-11.75,25.57,25.57,0,0,0-1.76-11.23,13.4,13.4,0,0,0-3.29-4.55,15.47,15.47,0,0,0-5-3h0a.43.43,0,0,1,.24-.81Z" transform="translate(-152.56 -43.07)"/></g><path id="attaccoClosed" class="cls-49" d="M1083.79,253.85c-2.14,3.1-3.57,4.13-7.91,4.06s-8.86-2.19-8.81-5.36,3.1-3.75,7.37-3C1081.23,250.67,1085.28,251.7,1083.79,253.85Z" transform="translate(-152.56 -43.07)"/></g><g id="F1open"><g id="P2-2" data-name="P2"><path class="cls-50" d="M1103.2,202.43c-4-22.91-72.72-21.73-69,6.23C1038.22,238.72,1107.87,229.38,1103.2,202.43Z" transform="translate(-152.56 -43.07)"/></g><g id="P1-2" data-name="P1"><path class="cls-61" d="M1034.1,220.16c6.6,19.29,75.7,7.35,68.77-16.38C1095.43,178.26,1026.34,197.48,1034.1,220.16Z" transform="translate(-152.56 -43.07)"/></g><path id="attaccoOpen" class="cls-49" d="M1079.61,227.71c-2.14,3.1-3.57,4.13-7.91,4.06s-8.86-2.19-8.81-5.36,3.1-3.75,7.37-3C1077,224.53,1081.09,225.55,1079.61,227.71Z" transform="translate(-152.56 -43.07)"/><g id="gambo-3" data-name="gambo"><path class="cls-49" d="M1068.23,227.17a9.79,9.79,0,0,1,5.72,3.36,13.21,13.21,0,0,1,2.53,6.3,31.42,31.42,0,0,1,.24,6.6c-.12,2.17-.36,4.32-.65,6.43-.57,4.23-1.37,8.38-1.83,12.43-.12,1-.19,2-.28,3l-.27,3.16c-.17,2.11-.36,4.22-.57,6.32-1,8.4-1.07,17-3.38,25.3a94.59,94.59,0,0,1-4.17,12.14c-1.67,3.94-3.45,7.67-5.4,11.59a.44.44,0,0,1-.59.2.45.45,0,0,1-.24-.34,54.94,54.94,0,0,1,.27-13c.47-4.21,1.08-8.3,1.71-12.4,1.23-8.18,3.83-16.17,5.28-24.43q.61-3.08,1.16-6.18l.56-3.09c.19-1,.4-2.16.63-3.2.95-4.25,2.14-8.28,3.16-12.31a46.63,46.63,0,0,0,1.84-12,11.27,11.27,0,0,0-1.41-5.54A8.48,8.48,0,0,0,1068,228a.43.43,0,0,1,.23-.82Z" transform="translate(-152.56 -43.07)"/></g></g><g id="F3"><path class="cls-62" d="M1002.23,322.73c-32.41-.56-45-71.15-5.65-71.62C1038.86,250.61,1040.34,323.39,1002.23,322.73Z" transform="translate(-152.56 -43.07)"/><path class="cls-63" d="M998,324.83c-32.41-.56-47.06-70.27-7.74-70.74C1032.58,253.59,1036.16,325.49,998,324.83Z" transform="translate(-152.56 -43.07)"/><path class="cls-49" d="M972.88,252.93a14.29,14.29,0,0,0-8.34,7.69,19.74,19.74,0,0,0-1.47,5.54,33.79,33.79,0,0,0-.23,5.86,78.52,78.52,0,0,0,1.48,11.9,100.62,100.62,0,0,0,2.77,11.68,49.8,49.8,0,0,0,4.61,10.64c.46.81.93,1.62,1.44,2.38s1,1.51,1.5,2.27a42.71,42.71,0,0,0,3.3,4.1A24.69,24.69,0,0,0,986.5,321,67.82,67.82,0,0,0,998,324.41a.44.44,0,0,1,.33.53.45.45,0,0,1-.29.32A28.85,28.85,0,0,1,985,326.87a24.36,24.36,0,0,1-12.9-5.66,27.83,27.83,0,0,1-4.76-5.25,35.1,35.1,0,0,1-3.25-6,72.48,72.48,0,0,1-3.63-12.64,106.83,106.83,0,0,1-1.79-12.62,83.21,83.21,0,0,1-.12-12.76,37.56,37.56,0,0,1,1.08-6.42,21.71,21.71,0,0,1,2.52-6.11,15.28,15.28,0,0,1,4.53-4.8l1.39-.86,1.49-.65c.25-.1.49-.23.74-.31l.77-.21,1.53-.42a.42.42,0,0,1,.27.81Z" transform="translate(-152.56 -43.07)"/><path class="cls-49" d="M970.86,253.64c2.14,3.11,3.57,4.14,7.91,4.08s8.86-2.19,8.81-5.38-3.1-3.76-7.37-3C973.43,250.45,969.38,251.48,970.86,253.64Z" transform="translate(-152.56 -43.07)"/></g><g id="F2"><path class="cls-64" d="M1067.77,305c-.23,13-19,32.38-39.47,32.36-20.84,0-36.58-18.29-34.59-37.53,1.2-11.64,12.7-32.55,39.47-32.36C1053.69,267.66,1068.11,286.14,1067.77,305Z" transform="translate(-152.56 -43.07)"/><path class="cls-49" d="M1043,268.89c0,2.6-3.11,5.23-8.89,5.23s-12-2.63-12-5.23,2.61-4.18,10.46-4.71C1038.32,263.8,1043,266.29,1043,268.89Z" transform="translate(-152.56 -43.07)"/><path class="cls-49" d="M1037,272.22a6.71,6.71,0,0,1,1.61,2,20.51,20.51,0,0,1,1.1,2.16c.64,1.47,1.18,3,1.67,4.47,1,3,1.72,6.08,2.39,9.17s1.18,6.2,1.62,9.33.71,6.28.92,9.46.44,6.37.47,9.63a33.05,33.05,0,0,1-1.37,9.79,30.13,30.13,0,0,1-1.94,4.84,18.06,18.06,0,0,1-3.25,4.56,9.3,9.3,0,0,1-5.43,2.85,6.89,6.89,0,0,1-5.29-1.68.46.46,0,0,1,.27-.8h0a6.28,6.28,0,0,0,3.82-1.23,4.7,4.7,0,0,0,1-1.22,8.69,8.69,0,0,0,.75-1.51,34.34,34.34,0,0,0,1.72-7.7c.36-2.79.76-5.66,1.27-8.58a75.44,75.44,0,0,0,1.12-8.93c.18-3,.26-6.06.24-9.1s0-6.1-.2-9.15-.39-6.11-.78-9.13c-.2-1.51-.44-3-.78-4.49a19,19,0,0,0-.59-2.16,5.89,5.89,0,0,0-1-1.87l0,0a.42.42,0,0,1,.58-.61Z" transform="translate(-152.56 -43.07)"/></g><g id="Polline"><path class="cls-5" d="M1019.48,198.89h-.32a1.5,1.5,0,0,0,0,3h.32a1.5,1.5,0,0,0,0-3h-.32a1.5,1.5,0,0,0,0,3h.32a1.5,1.5,0,0,0,0-3Z" transform="translate(-152.56 -43.07)"/><path class="cls-5" d="M999.62,214.44a1.5,1.5,0,0,0,0-3,1.5,1.5,0,0,0,0,3Z" transform="translate(-152.56 -43.07)"/><path class="cls-5" d="M1002.75,182.68h-.52a1.5,1.5,0,0,0,0,3h.52a1.5,1.5,0,0,0,0-3Z" transform="translate(-152.56 -43.07)"/><path class="cls-5" d="M1005.37,177.84a1.5,1.5,0,0,0,0-3,1.5,1.5,0,0,0,0,3Z" transform="translate(-152.56 -43.07)"/><path class="cls-5" d="M1032.95,167.28l.51-.08a1.51,1.51,0,0,0,1-1.85,1.54,1.54,0,0,0-1.85-1l-.51.08a1.51,1.51,0,0,0-1,1.85,1.54,1.54,0,0,0,1.85,1Z" transform="translate(-152.56 -43.07)"/><path class="cls-65" d="M1020.55,155.41l1,1.57" transform="translate(-152.56 -43.07)"/><path class="cls-5" d="M1029.42,176.8a1.5,1.5,0,0,0,0-3,1.5,1.5,0,0,0,0,3Z" transform="translate(-152.56 -43.07)"/><path class="cls-65" d="M1028.37,182.09h1.57" transform="translate(-152.56 -43.07)"/><path class="cls-5" d="M1044.6,186.29l.52-.52a1.5,1.5,0,0,0-2.12-2.12l-.52.52a1.5,1.5,0,0,0,2.12,2.12Z" transform="translate(-152.56 -43.07)"/><path class="cls-5" d="M1066.62,174.22l1.55-1.08a1.09,1.09,0,0,0,.38-1.45,1.07,1.07,0,0,0-1.45-.38l-1.55,1.08a1.09,1.09,0,0,0-.38,1.45,1.07,1.07,0,0,0,1.45.38Z" transform="translate(-152.56 -43.07)"/><path class="cls-5" d="M1067.06,165.82a1.5,1.5,0,0,0,0-3,1.5,1.5,0,0,0,0,3Z" transform="translate(-152.56 -43.07)"/><path class="cls-65" d="M1059.74,152.29" transform="translate(-152.56 -43.07)"/><path class="cls-5" d="M1052.95,149.09a1.5,1.5,0,0,0,0-3,1.5,1.5,0,0,0,0,3Z" transform="translate(-152.56 -43.07)"/><path class="cls-5" d="M1046.67,158.5a1.5,1.5,0,0,0,0-3,1.5,1.5,0,0,0,0,3Z" transform="translate(-152.56 -43.07)"/><path class="cls-5" d="M1050.86,171.57a1.5,1.5,0,0,0,0-3,1.5,1.5,0,0,0,0,3Z" transform="translate(-152.56 -43.07)"/><path class="cls-5" d="M1047.72,180a1.06,1.06,0,0,0,0-2.13,1.06,1.06,0,0,0,0,2.13Z" transform="translate(-152.56 -43.07)"/><path class="cls-5" d="M978,178.14l.52.52a1.06,1.06,0,0,0,1.5-1.5l-.52-.52a1.06,1.06,0,0,0-1.5,1.5Z" transform="translate(-152.56 -43.07)"/><path class="cls-5" d="M1034.12,196.66a1.5,1.5,0,0,0,0-3,1.5,1.5,0,0,0,0,3Z" transform="translate(-152.56 -43.07)"/><path class="cls-5" d="M1031,209.21a1.5,1.5,0,0,0,0-3,1.5,1.5,0,0,0,0,3Z" transform="translate(-152.56 -43.07)"/><path class="cls-5" d="M1031,222.28a1.5,1.5,0,0,0,0-3,1.5,1.5,0,0,0,0,3Z" transform="translate(-152.56 -43.07)"/><path class="cls-5" d="M1024.19,154.31a1.5,1.5,0,0,0,0-3,1.5,1.5,0,0,0,0,3Z" transform="translate(-152.56 -43.07)"/><path class="cls-5" d="M1022.1,224.38a1.5,1.5,0,0,0,0-3,1.5,1.5,0,0,0,0,3Z" transform="translate(-152.56 -43.07)"/><path class="cls-65" d="M1012.16,223.4" transform="translate(-152.56 -43.07)"/><path class="cls-5" d="M1012.62,220.26v-.52a1.5,1.5,0,1,0-3,0v.52a1.5,1.5,0,1,0,3,0Z" transform="translate(-152.56 -43.07)"/><path class="cls-65" d="M1008,206.14l.52-.52" transform="translate(-152.56 -43.07)"/><path class="cls-5" d="M1022.69,193.6v.52a1.5,1.5,0,0,0,3,0v-.52a1.5,1.5,0,1,0-3,0Z" transform="translate(-152.56 -43.07)"/><path class="cls-5" d="M1011.57,179.48V179a1.5,1.5,0,1,0-3,0v.52a1.5,1.5,0,0,0,3,0Z" transform="translate(-152.56 -43.07)"/><path class="cls-5" d="M998.06,172.68v-.52a1.06,1.06,0,0,0-2.13,0v.52a1.06,1.06,0,0,0,2.13,0Z" transform="translate(-152.56 -43.07)"/><path class="cls-65" d="M979.75,159.61" transform="translate(-152.56 -43.07)"/><path class="cls-5" d="M1001.71,158a1.5,1.5,0,0,0,0-3,1.5,1.5,0,0,0,0,3Z" transform="translate(-152.56 -43.07)"/><path class="cls-65" d="M989.16,180" transform="translate(-152.56 -43.07)"/><path class="cls-5" d="M983.93,202.94a1.5,1.5,0,0,0,0-3,1.5,1.5,0,0,0,0,3Z" transform="translate(-152.56 -43.07)"/><path class="cls-5" d="M995.43,212.87a1.5,1.5,0,0,0,0-3,1.5,1.5,0,0,0,0,3Z" transform="translate(-152.56 -43.07)"/><path class="cls-5" d="M987.59,222.81a1.5,1.5,0,0,0,0-3,1.5,1.5,0,0,0,0,3Z" transform="translate(-152.56 -43.07)"/><path class="cls-5" d="M1012.69,172.61a1.5,1.5,0,0,0,0-3,1.5,1.5,0,0,0,0,3Z" transform="translate(-152.56 -43.07)"/><path class="cls-5" d="M986.54,236a1.06,1.06,0,0,0,0-2.13,1.06,1.06,0,0,0,0,2.13Z" transform="translate(-152.56 -43.07)"/><path class="cls-65" d="M1058.18,166.93" transform="translate(-152.56 -43.07)"/><path class="cls-5" d="M1001.64,231.76v-.52a1.5,1.5,0,0,0-3,0v.52a1.5,1.5,0,0,0,3,0Z" transform="translate(-152.56 -43.07)"/><path class="cls-5" d="M999.62,211.91a1.06,1.06,0,0,0,0-2.13,1.06,1.06,0,0,0,0,2.13Z" transform="translate(-152.56 -43.07)"/><path class="cls-5" d="M995.43,200.32a1.5,1.5,0,0,0,0-3,1.5,1.5,0,0,0,0,3Z" transform="translate(-152.56 -43.07)"/><path class="cls-5" d="M1014.26,201.89a1.5,1.5,0,0,0,0-3,1.5,1.5,0,0,0,0,3Z" transform="translate(-152.56 -43.07)"/><path class="cls-5" d="M1022.1,208.78a1.06,1.06,0,0,0,0-2.13,1.06,1.06,0,0,0,0,2.13Z" transform="translate(-152.56 -43.07)"/><path class="cls-5" d="M1007.53,159.09v.32a1.5,1.5,0,0,0,3,0v-.32a1.5,1.5,0,0,0-3,0v.32a1.5,1.5,0,0,0,3,0v-.32a1.5,1.5,0,0,0-3,0Z" transform="translate(-152.56 -43.07)"/><path class="cls-5" d="M1032,204.51a1.5,1.5,0,0,0,0-3,1.5,1.5,0,0,0,0,3Z" transform="translate(-152.56 -43.07)"/><path class="cls-5" d="M1044.88,207.45l.52-1a1.54,1.54,0,0,0-.54-2.05,1.51,1.51,0,0,0-2.05.54l-.52,1a1.54,1.54,0,0,0,.54,2.05,1.51,1.51,0,0,0,2.05-.54Z" transform="translate(-152.56 -43.07)"/><path class="cls-5" d="M1039.35,172.09a1.5,1.5,0,0,0,0-3,1.5,1.5,0,0,0,0,3Z" transform="translate(-152.56 -43.07)"/><path class="cls-5" d="M1003.8,197.71a1.5,1.5,0,0,0,0-3,1.5,1.5,0,0,0,0,3Z" transform="translate(-152.56 -43.07)"/><path class="cls-5" d="M1047.72,160.67a1.06,1.06,0,0,0,0-2.13,1.06,1.06,0,0,0,0,2.13Z" transform="translate(-152.56 -43.07)"/><path class="cls-5" d="M1059.74,179.41a1.5,1.5,0,0,0,0-3,1.5,1.5,0,0,0,0,3Z" transform="translate(-152.56 -43.07)"/><path class="cls-5" d="M1065,184.2a1.06,1.06,0,0,0,0-2.13,1.06,1.06,0,0,0,0,2.13Z" transform="translate(-152.56 -43.07)"/><path class="cls-65" d="M1077.52,179h2.09" transform="translate(-152.56 -43.07)"/><path class="cls-5" d="M1080.66,188.3a1.5,1.5,0,0,0,0-3,1.5,1.5,0,0,0,0,3Z" transform="translate(-152.56 -43.07)"/><path class="cls-65" d="M1069.16,196.21" transform="translate(-152.56 -43.07)"/><path class="cls-5" d="M1059.74,200.85a1.5,1.5,0,0,0,0-3,1.5,1.5,0,0,0,0,3Z" transform="translate(-152.56 -43.07)"/><path class="cls-5" d="M1063.93,212.87a1.5,1.5,0,0,0,0-3,1.5,1.5,0,0,0,0,3Z" transform="translate(-152.56 -43.07)"/><path class="cls-5" d="M1051.9,210.87a1.06,1.06,0,0,0,0-2.13,1.06,1.06,0,0,0,0,2.13Z" transform="translate(-152.56 -43.07)"/><path class="cls-5" d="M1051.38,196.23h.52a1.06,1.06,0,0,0,0-2.13h-.52a1.06,1.06,0,0,0,0,2.13Z" transform="translate(-152.56 -43.07)"/><path class="cls-5" d="M1061.71,191.38l1.57-.52a1.53,1.53,0,0,0,1-1.85,1.52,1.52,0,0,0-1.85-1l-1.57.52a1.53,1.53,0,0,0-1,1.85,1.52,1.52,0,0,0,1.85,1Z" transform="translate(-152.56 -43.07)"/><path class="cls-5" d="M1074.52,197.6l2.09.53a1.5,1.5,0,0,0,.8-2.89l-2.09-.53a1.5,1.5,0,1,0-.8,2.89Z" transform="translate(-152.56 -43.07)"/><path class="cls-65" d="M1079.09,206.67" transform="translate(-152.56 -43.07)"/><path class="cls-65" d="M1039.88,234.38" transform="translate(-152.56 -43.07)"/><path class="cls-5" d="M997.52,146.47a1.5,1.5,0,0,0,0-3,1.5,1.5,0,0,0,0,3Z" transform="translate(-152.56 -43.07)"/><path class="cls-5" d="M1063.93,219.67a1.5,1.5,0,0,0,0-3,1.5,1.5,0,0,0,0,3Z" transform="translate(-152.56 -43.07)"/><path class="cls-5" d="M1049.81,221.24a1.5,1.5,0,0,0,0-3,1.5,1.5,0,0,0,0,3Z" transform="translate(-152.56 -43.07)"/><path class="cls-5" d="M1050.86,235.88a1.5,1.5,0,0,0,0-3,1.5,1.5,0,0,0,0,3Z" transform="translate(-152.56 -43.07)"/><path class="cls-5" d="M1035.17,233.79a1.5,1.5,0,0,0,0-3,1.5,1.5,0,0,0,0,3Z" transform="translate(-152.56 -43.07)"/><path class="cls-5" d="M1027.33,228.64a1.06,1.06,0,0,0,0-2.13,1.06,1.06,0,0,0,0,2.13Z" transform="translate(-152.56 -43.07)"/><path class="cls-5" d="M1014.78,237.45a1.5,1.5,0,0,0,0-3,1.5,1.5,0,0,0,0,3Z" transform="translate(-152.56 -43.07)"/><path class="cls-5" d="M1051,224.84l.52,1.57a1.53,1.53,0,0,0,1.85,1,1.52,1.52,0,0,0,1-1.85l-.52-1.57a1.53,1.53,0,0,0-1.85-1,1.52,1.52,0,0,0-1,1.85Z" transform="translate(-152.56 -43.07)"/><path class="cls-5" d="M1015.8,191.22l-.52-1.57c-.43-1.29-2.48-.74-2.05.57l.52,1.57c.43,1.29,2.48.74,2.05-.57Z" transform="translate(-152.56 -43.07)"/><path class="cls-65" d="M1004.84,245.36" transform="translate(-152.56 -43.07)"/><path class="cls-5" d="M1056.08,240.67a1.06,1.06,0,0,0,0-2.13,1.06,1.06,0,0,0,0,2.13Z" transform="translate(-152.56 -43.07)"/><path class="cls-5" d="M1023.67,181.5a1.5,1.5,0,0,0,0-3,1.5,1.5,0,0,0,0,3Z" transform="translate(-152.56 -43.07)"/><path class="cls-5" d="M1038.83,160.07a1.5,1.5,0,0,0,0-3,1.5,1.5,0,0,0,0,3Z" transform="translate(-152.56 -43.07)"/><path class="cls-5" d="M1044.58,239.54a1.5,1.5,0,0,0,0-3,1.5,1.5,0,0,0,0,3Z" transform="translate(-152.56 -43.07)"/><path class="cls-65" d="M1033.6,142.88" transform="translate(-152.56 -43.07)"/><path class="cls-5" d="M1012.16,140.81a1.06,1.06,0,0,0,0-2.13,1.06,1.06,0,0,0,0,2.13Z" transform="translate(-152.56 -43.07)"/><path class="cls-5" d="M991.25,156.49a1.06,1.06,0,0,0,0-2.13,1.06,1.06,0,0,0,0,2.13Z" transform="translate(-152.56 -43.07)"/><path class="cls-5" d="M1022.62,186.21a1.5,1.5,0,0,0,0-3,1.5,1.5,0,0,0,0,3Z" transform="translate(-152.56 -43.07)"/><path class="cls-5" d="M986.54,197.71h.52a1.5,1.5,0,0,0,0-3h-.52a1.5,1.5,0,0,0,0,3Z" transform="translate(-152.56 -43.07)"/></g><g id="zoomArrow"><path class="cls-3" d="M721.93,376a40,40,0,0,1-1.37,10.17,29.07,29.07,0,0,1-4.6,9.78A22.58,22.58,0,0,1,707.2,403a23.23,23.23,0,0,1-11.2,2,25.49,25.49,0,0,1-10.66-3.32,35.71,35.71,0,0,1-14.22-15.42A32.14,32.14,0,0,1,668.17,376a26,26,0,0,1,7-20.87,28.78,28.78,0,0,1,9.41-6.8,27,27,0,0,1,22.8.31A23.78,23.78,0,0,1,716,356a29.65,29.65,0,0,1,4.59,9.83A38.4,38.4,0,0,1,721.93,376Zm-.85,0a18.66,18.66,0,0,0-2.58-9.32A21.31,21.31,0,0,0,712,360a30.37,30.37,0,0,0-7.85-3.72A24.76,24.76,0,0,0,696,355a23.62,23.62,0,0,0-15.19,5.77,25.15,25.15,0,0,0-5.22,6.74,24.5,24.5,0,0,0-2.77,8.45,20.25,20.25,0,0,0,.94,9.21,19.41,19.41,0,0,0,5.17,7.85,19,19,0,0,0,8.2,4.33A26.35,26.35,0,0,0,696,398a34.91,34.91,0,0,0,16.11-5.84,21.77,21.77,0,0,0,6.45-6.77A18.31,18.31,0,0,0,721.07,376Z" transform="translate(-152.56 -43.07)"/><path class="cls-3" d="M722.17,382.71a200.06,200.06,0,0,0,53.69,6.09,169.22,169.22,0,0,0,51.56-9.43,178,178,0,0,0,46.28-24.84,225,225,0,0,0,38.93-37.66l.74.43A157.3,157.3,0,0,1,878,359.7a154.55,154.55,0,0,1-47.8,27.69,148.46,148.46,0,0,1-108.42-3.9Z" transform="translate(-152.56 -43.07)"/></g><g id="Slider"><text class="cls-54" transform="translate(846.87 450.39)">Dry Air</text><rect class="cls-5" x="842.44" y="358.93" width="97" height="44" rx="21.24" ry="21.24"/><circle class="cls-66" cx="866.69" cy="380.93" r="21.25"/></g><g id="text02"><text class="cls-51" transform="translate(800.44 372.66)">A male mulberry flower has <tspan x="0" y="25.51">four reproductive organs </tspan><tspan x="0" y="51.02">called stamens, responsible </tspan><tspan x="0" y="76.54">for the pollen release.</tspan></text><line class="cls-52" x1="783.94" y1="344.93" x2="783.94" y2="456.43"/></g><g id="caption02"><g id="freccia"><path class="cls-5" d="M1048.3,205.54a13.44,13.44,0,0,1,4.94,3,30.55,30.55,0,0,1,3.93,4.25,36.22,36.22,0,0,1,5.41,10.28,24.07,24.07,0,0,1,.74,2.91l.19,1.52.14,1.39c.21,1.86.49,3.73.55,5.69a21.57,21.57,0,0,1-.55,5.94,19,19,0,0,1-2.3,5.47l-1.23-.55a28.27,28.27,0,0,0,1.09-5.35,33.44,33.44,0,0,0,0-5.39c-.1-1.83-.2-3.73-.22-5.65v-1.45l-.06-1.31a19.16,19.16,0,0,0-.46-2.64,32.72,32.72,0,0,0-1.81-5.2,43,43,0,0,0-2.64-4.9,29.49,29.49,0,0,0-3.4-4.41,13.64,13.64,0,0,0-4.46-3.29Z" transform="translate(-152.56 -43.07)"/><polygon class="cls-5" points="906.48 195.38 908.56 201.86 915.03 199.77 913.17 203.4 906.7 205.49 904.62 199.02 906.48 195.38"/></g><text class="cls-56" transform="translate(841.78 158.83)">Stamen</text></g></g></svg>