<?xml version="1.0" encoding="utf-8"?>
<!-- Generator: Adobe Illustrator 15.0.0, SVG Export Plug-In . SVG Version: 6.00 Build 0)  -->
<!DOCTYPE svg PUBLIC "-//W3C//DTD SVG 1.1//EN" "http://www.w3.org/Graphics/SVG/1.1/DTD/svg11.dtd">
<svg version="1.1" id="Livello_1" xmlns="http://www.w3.org/2000/svg" xmlns:xlink="http://www.w3.org/1999/xlink" x="0px" y="0px"
	 width="413px" height="189px" viewBox="0 0 413 189" enable-background="new 0 0 413 189" xml:space="preserve">
<g>
	<g>
		<path fill="#FFFFFF" stroke="#FFFFFF" stroke-miterlimit="10" d="M153.024,125.941l-3.298-53.398h4.524
			c0.157-0.339,0.337-0.949,0.337-1.76c0-0.811-0.18-1.422-0.338-1.762h-16.491c-0.158,0.339-0.338,0.951-0.338,1.762
			c0,0.811,0.18,1.422,0.338,1.76h4.47l-1.896,44.854l-6.115-3.625l1.504-35.189c-2.668-0.803-4.544-3.889-4.544-7.799
			c0-4.564,2.554-8.004,5.94-8.004h17.775c3.384,0,5.937,3.44,5.937,8.004c0,3.877-1.844,6.945-4.477,7.779l3.227,51.581
			L153.024,125.941z"/>
		<path fill="#FFFFFF" stroke="#FFFFFF" stroke-miterlimit="10" d="M122.229,67.294c-2.089,0.001-4.071-0.535-5.746-1.604
			c-2.752-1.756-4.33-4.67-4.33-7.998c0-3.343,1.645-6.382,4.313-8.612c-0.772-0.402-1.578-0.799-2.412-1.181
			c-2.891-1.331-5.665-2.107-8.347-2.857c-4.639-1.298-9.437-2.641-14.545-6.703c-1.71-1.359-6.047-0.979-9.875,0.868
			c-3.043,1.469-4.46,3.227-4.46,3.954h-6.242c0-3.635,2.912-7.126,7.99-9.575c4.777-2.306,11.958-3.727,16.473-0.132
			c4.121,3.276,7.931,4.343,12.344,5.578c2.915,0.815,5.93,1.66,9.27,3.194c1.902,0.876,4.264,2.077,6.584,3.557
			c1.334-0.309,2.742-0.474,4.197-0.474c8.428,0,15.285,5.556,15.285,12.383c0,0.888,0,0,0,1.183l-6.165-0.146
			c-0.077-1.037-0.077-0.688-0.077-1.037c0-2.664-2.653-4.997-6.226-5.824c1.198,1.574,2.034,3.281,2.285,5.103
			c0.299,2.172-0.11,5.413-3.762,8.522l-0.324,0.274l-0.383,0.179C126.14,66.848,124.14,67.294,122.229,67.294z M122.25,52.7
			c-2.313,1.126-3.854,2.963-3.854,4.993c0,1.187,0.5,2.131,1.445,2.735c1.313,0.837,3.239,0.842,5.212,0.028
			c1.481-1.381,1.357-2.28,1.308-2.633C126.162,56.372,124.663,54.562,122.25,52.7z"/>
	</g>
	
		<polyline fill="none" stroke="#FFFFFF" stroke-width="9" stroke-linecap="round" stroke-linejoin="round" stroke-miterlimit="10" points="
		39,156.5 115.5,156.5 115.5,118.229 176.5,156.229 176.5,117.229 239.5,156.229 239.5,117.229 298.918,156.364 299.5,156.5 
		374,156.5 	"/>
</g>
</svg>
