<?xml version="1.0" encoding="utf-8"?>
<!-- Generator: Adobe Illustrator 15.0.0, SVG Export Plug-In . SVG Version: 6.00 Build 0)  -->
<!DOCTYPE svg PUBLIC "-//W3C//DTD SVG 1.1//EN" "http://www.w3.org/Graphics/SVG/1.1/DTD/svg11.dtd">
<svg version="1.1" id="Livello_1" xmlns="http://www.w3.org/2000/svg" xmlns:xlink="http://www.w3.org/1999/xlink" x="0px" y="0px"
	 width="600px" height="600px" viewBox="0 0 600 600" enable-background="new 0 0 600 600" xml:space="preserve">
<rect x="-1485.5" y="32.5" stroke="#BF8C26" stroke-miterlimit="10" width="1233" height="720"/>
<g>
	<path fill="#FFFFFF" stroke="#333333" stroke-width="4" stroke-linejoin="round" stroke-miterlimit="10" d="M400.586,477.973"/>
	<g>
		<path fill="#FFFFFF" d="M249.524,128.714l-3.298-53.4h4.524c0.157-0.339,0.337-0.949,0.337-1.76s-0.18-1.422-0.338-1.762h-16.491
			c-0.158,0.339-0.338,0.951-0.338,1.762s0.18,1.422,0.338,1.76h4.47l-1.896,44.855l-6.115-3.625l1.504-35.191
			c-2.668-0.803-4.544-3.889-4.544-7.799c0-4.564,2.554-8.004,5.94-8.004h17.775c3.384,0,5.937,3.44,5.937,8.004
			c0,3.877-1.844,6.945-4.477,7.779l3.227,51.581L249.524,128.714z"/>
		<path fill="#FFFFFF" d="M218.729,70.065c-2.089,0.001-4.071-0.535-5.746-1.604c-2.752-1.756-4.33-4.67-4.33-7.998
			c0-3.343,1.645-6.382,4.313-8.612c-0.772-0.402-1.578-0.799-2.412-1.181c-2.891-1.331-5.665-2.107-8.347-2.857
			c-4.639-1.298-9.437-2.641-14.545-6.703c-1.71-1.359-6.047-0.979-9.875,0.868c-3.043,1.469-4.46,3.227-4.46,3.954h-6.242
			c0-3.635,2.912-7.126,7.99-9.575c4.777-2.306,11.958-3.727,16.473-0.132c4.121,3.276,7.931,4.343,12.344,5.578
			c2.915,0.815,5.93,1.66,9.27,3.194c1.902,0.876,4.264,2.077,6.584,3.557c1.334-0.309,2.742-0.474,4.197-0.474
			c8.428,0,15.285,5.556,15.285,12.383c0,0.888,0,0,0,1.183l-6.165-0.146c-0.077-1.037-0.077-0.688-0.077-1.037
			c0-2.664-2.653-4.997-6.226-5.824c1.198,1.574,2.034,3.281,2.285,5.103c0.299,2.172-0.11,5.413-3.762,8.522l-0.324,0.274
			l-0.383,0.179C222.64,69.619,220.64,70.065,218.729,70.065z M218.75,55.471c-2.313,1.126-3.854,2.963-3.854,4.993
			c0,1.187,0.5,2.131,1.445,2.735c1.313,0.837,3.239,0.842,5.212,0.028c1.481-1.381,1.357-2.28,1.308-2.633
			C222.662,59.143,221.163,57.333,218.75,55.471z"/>
	</g>
	<g>
		<path fill="#FFFFFF" d="M229.912,392.47c4.715,0,8.401,1.016,11.059,3.054s3.986,5.093,3.986,9.167c0,2.005-0.636,3.8-1.908,5.381
			s-2.952,2.756-5.041,3.52c2.708,0.581,4.849,1.914,6.421,4.003c1.57,2.089,2.357,4.517,2.357,7.289
			c0,4.135-1.346,7.292-4.034,9.475c-2.688,2.184-6.327,3.272-10.917,3.272h-21.713v-3.908l5.056-0.868v-35.576l-5.056-0.869v-3.938
			h5.056H229.912z M221.289,411.669h10.205c2.191-0.062,3.965-0.714,5.32-1.955c1.354-1.239,2.031-2.955,2.031-5.149
			c0-2.438-0.765-4.264-2.296-5.474c-1.53-1.21-3.743-1.813-6.637-1.813h-8.623V411.669z M221.289,416.445v16.408h10.547
			c2.791,0,4.957-0.687,6.498-2.063c1.541-1.374,2.31-3.322,2.31-5.845c0-2.646-0.646-4.727-1.939-6.236
			c-1.292-1.509-3.272-2.264-5.939-2.264H221.289z"/>
		<path fill="#FFFFFF" d="M251.811,396.408v-3.938h16.223v3.938l-5.057,0.869v35.576l5.057,0.868v3.908h-16.223v-3.908l5.055-0.868
			v-35.576L251.811,396.408z"/>
		<path fill="#FFFFFF" d="M272.375,433.722l5.056-0.868v-35.576l-5.056-0.869v-3.938h16.221v3.938l-5.055,0.869v15.167h4.684
			l12.623-15.602l-3.38-0.435v-3.938h14.329v3.938l-4.249,0.776l-13.803,17.121l15.075,18.643l4.249,0.773v3.908h-14.826v-3.908
			l3.442-0.433l-12.872-16.037h-5.272v15.602l5.055,0.868v3.908h-16.221V433.722z"/>
		<path fill="#FFFFFF" d="M317.414,437.63v-3.908l5.057-0.868v-35.576l-5.057-0.869v-3.938h34.678v10.855h-5.24l-0.499-6.048
			h-17.774v14.608h17.278v4.808h-17.278v16.16h18.146l0.495-6.049h5.212v10.825H317.414z"/>
		<path fill="#FFFFFF" d="M390.617,405.806h-4.624l-1.147-6.452c-0.931-0.784-2.171-1.436-3.723-1.954
			c-1.549-0.517-3.35-0.774-5.396-0.774c-3.246,0-5.739,0.689-7.475,2.062c-1.737,1.376-2.604,3.17-2.604,5.381
			c0,1.966,0.882,3.605,2.651,4.918c1.768,1.312,4.627,2.467,8.576,3.458c4.756,1.178,8.369,2.914,10.84,5.211
			c2.471,2.295,3.706,5.139,3.706,8.53c0,3.64-1.482,6.565-4.45,8.778c-2.967,2.213-6.849,3.318-11.647,3.318
			c-3.475,0-6.56-0.569-9.258-1.705c-2.698-1.138-4.897-2.625-6.591-4.467v-8.409h4.59l1.179,6.485
			c1.18,0.974,2.584,1.768,4.218,2.387c1.634,0.622,3.587,0.931,5.862,0.931c3.081,0,5.515-0.65,7.306-1.954
			c1.787-1.3,2.684-3.068,2.684-5.305c0-2.066-0.775-3.799-2.328-5.192c-1.548-1.398-4.29-2.569-8.218-3.522
			c-4.779-1.136-8.511-2.81-11.198-5.024c-2.688-2.211-4.034-4.995-4.034-8.344c0-3.536,1.5-6.479,4.499-8.823
			c3-2.349,6.897-3.521,11.693-3.521c3.166,0,6.043,0.542,8.639,1.628c2.594,1.085,4.678,2.403,6.252,3.954V405.806z"/>
	</g>
	<g>
		<path fill="#FFFFFF" d="M159.583,183.426h29.535c4.117,0,8.01,0.384,11.679,1.146c3.668,0.762,6.868,2.079,9.603,3.948
			c2.732,1.87,4.902,4.387,6.513,7.553c1.609,3.166,2.415,7.153,2.415,11.958c0,4.733-0.75,8.699-2.246,11.904
			c-1.499,3.202-3.556,5.761-6.177,7.667c-2.621,1.908-5.727,3.262-9.321,4.062c-3.594,0.803-7.487,1.204-11.679,1.204h-12.801
			v31.586h-17.52V183.426z M177.102,217.76h11.678c1.572,0,3.088-0.15,4.548-0.457c1.46-0.303,2.77-0.819,3.931-1.544
			c1.159-0.726,2.095-1.717,2.807-2.975c0.71-1.26,1.067-2.843,1.067-4.751c0-2.061-0.468-3.719-1.404-4.978
			c-0.937-1.258-2.134-2.231-3.593-2.918c-1.46-0.687-3.089-1.124-4.886-1.317c-1.796-0.189-3.52-0.284-5.166-0.284h-8.983V217.76z"
			/>
		<path fill="#FFFFFF" d="M247.401,183.426h14.486l34.588,81.028h-19.765l-6.852-17.167h-30.881l-6.625,17.167h-19.317
			L247.401,183.426z M254.138,207.002l-9.657,25.179h19.428L254.138,207.002z"/>
		<path fill="#FFFFFF" d="M303.224,183.426h17.52v64.548h32.456v16.48h-49.976V183.426z"/>
		<path fill="#FFFFFF" d="M355.554,223.941c0-6.484,1.066-12.36,3.2-17.626c2.134-5.263,5.109-9.746,8.929-13.446
			c3.816-3.7,8.349-6.541,13.587-8.526c5.24-1.983,10.969-2.975,17.183-2.975c6.215,0,11.94,0.991,17.184,2.975
			c5.238,1.986,9.77,4.826,13.585,8.526c3.821,3.7,6.796,8.183,8.93,13.446c2.134,5.266,3.202,11.142,3.202,17.626
			c0,6.484-1.068,12.359-3.202,17.624s-5.108,9.748-8.93,13.448c-3.815,3.701-8.347,6.543-13.585,8.524
			c-5.243,1.984-10.969,2.978-17.184,2.978c-6.214,0-11.942-0.994-17.183-2.978c-5.238-1.981-9.771-4.824-13.587-8.524
			c-3.819-3.7-6.795-8.183-8.929-13.448S355.554,230.425,355.554,223.941z M373.747,223.941c0,3.817,0.578,7.305,1.739,10.471
			c1.162,3.166,2.826,5.914,4.999,8.24c2.17,2.329,4.771,4.139,7.803,5.436c3.034,1.298,6.421,1.947,10.164,1.947
			c3.742,0,7.133-0.648,10.164-1.947c3.032-1.296,5.633-3.107,7.804-5.436c2.17-2.327,3.836-5.074,4.999-8.24
			c1.157-3.166,1.739-6.654,1.739-10.471c0-3.737-0.582-7.209-1.739-10.414c-1.163-3.204-2.829-5.97-4.999-8.299
			c-2.171-2.325-4.771-4.137-7.804-5.436c-3.031-1.297-6.422-1.944-10.164-1.944c-3.743,0-7.13,0.647-10.164,1.944
			c-3.031,1.299-5.633,3.111-7.803,5.436c-2.173,2.329-3.837,5.095-4.999,8.299C374.325,216.731,373.747,220.204,373.747,223.941z"
			/>
		<path fill="#FFFFFF" d="M185.749,280.479h14.487l34.589,81.027h-19.765l-6.851-17.167h-30.882l-6.625,17.167h-19.316
			L185.749,280.479z M192.486,304.054l-9.658,25.179h19.428L192.486,304.054z"/>
		<path fill="#FFFFFF" d="M244.155,280.479h17.52v64.548h32.454v16.479h-49.973V280.479z"/>
		<path fill="#FFFFFF" d="M311.03,296.273h-22.687v-15.795h62.889v15.795h-22.686v65.232H311.03V296.273z"/>
		<path fill="#FFFFFF" d="M355.441,320.993c0-6.484,1.067-12.361,3.201-17.626c2.134-5.263,5.111-9.745,8.927-13.446
			c3.821-3.7,8.348-6.541,13.59-8.526c5.239-1.983,10.966-2.975,17.182-2.975c6.214,0,11.942,0.992,17.181,2.975
			c5.24,1.985,9.771,4.826,13.59,8.526c3.817,3.701,6.794,8.183,8.929,13.446c2.134,5.265,3.199,11.142,3.199,17.626
			s-1.065,12.359-3.199,17.623c-2.135,5.266-5.111,9.748-8.929,13.448c-3.819,3.7-8.35,6.544-13.59,8.524
			c-5.238,1.983-10.967,2.978-17.181,2.978c-6.216,0-11.942-0.994-17.182-2.978c-5.242-1.98-9.769-4.824-13.59-8.524
			c-3.815-3.7-6.793-8.183-8.927-13.448C356.509,333.353,355.441,327.478,355.441,320.993z M373.635,320.993
			c0,3.816,0.579,7.305,1.741,10.471c1.159,3.166,2.824,5.913,4.997,8.24c2.171,2.328,4.773,4.139,7.805,5.436
			c3.032,1.298,6.418,1.946,10.163,1.946c3.743,0,7.13-0.648,10.162-1.946c3.033-1.297,5.633-3.107,7.807-5.436
			c2.171-2.327,3.835-5.074,4.997-8.24c1.16-3.166,1.741-6.654,1.741-10.471c0-3.737-0.581-7.21-1.741-10.414
			c-1.162-3.205-2.826-5.971-4.997-8.3c-2.174-2.324-4.773-4.136-7.807-5.435c-3.032-1.296-6.419-1.945-10.162-1.945
			c-3.745,0-7.131,0.648-10.163,1.945c-3.031,1.298-5.634,3.111-7.805,5.435c-2.173,2.329-3.838,5.095-4.997,8.3
			C374.214,313.783,373.635,317.256,373.635,320.993z"/>
	</g>
	<rect x="177" y="153" fill="#FFFFFF" width="40" height="7"/>
	<path fill="#FFFFFF" d="M459.761,151.286l-66.027-0.259l-57.163-38.564c-1.283-0.835-2.978-0.898-4.325-0.173
		c-1.348,0.728-2.245,2.134-2.245,3.66v31.161l-53.263-34.648c-1.283-0.835-3.063-0.898-4.411-0.173
		c-1.346,0.728-2.326,2.134-2.326,3.66v31.161l-53.151-34.648c-1.283-0.835-2.618-0.898-3.966-0.173
		c-1.346,0.728-1.883,2.134-1.883,3.66V152h-24h-45.958c-7.435,0-14.042,6.884-14.042,16.96v295.5
		c0,10.076,6.606,17.54,14.042,17.54H212v-8.189l-71.288,0.019c-0.981-0.321-2.712-3.58-2.712-9.369v-295.5
		c0-5.79,2.206-8.96,3.042-8.96H187h25h7v-8v-28.372l53.278,34.648c1.284,0.834,3.054,0.898,4.402,0.173
		c1.347-0.728,2.319-2.134,2.319-3.66v-31.161l53.164,34.648c0.693,0.449,1.406,0.674,2.201,0.674c0.684,0,1.1-0.167,1.719-0.501
		c1.35-0.728,1.916-2.134,1.916-3.66v-31.161l52.77,35.981l68.221-0.018c0.922,0.321,3.01,3.58,3.01,9.37v295.5
		c0,5.789-0.112,9.54-0.9,9.54H387v8h74.1c7.021,0,10.9-7.464,10.9-17.54v-295.5C472,158.884,466.783,151.286,459.761,151.286z"/>
</g>
<g>
	<path fill="#FFFFFF" d="M244.583,502.64c15.131,0,27.442,12.312,27.442,27.443c0,15.133-12.311,27.445-27.442,27.445
		c-15.134,0-27.445-12.312-27.445-27.445C217.138,514.952,229.449,502.64,244.583,502.64 M244.583,494.316
		c-19.754,0-35.769,16.015-35.769,35.767c0,19.757,16.015,35.769,35.769,35.769c19.756,0,35.765-16.012,35.765-35.769
		C280.348,510.331,264.339,494.316,244.583,494.316L244.583,494.316z"/>
	<path fill="#FFFFFF" d="M356.812,502.64c15.133,0,27.442,12.312,27.442,27.443c0,15.133-12.31,27.445-27.442,27.445
		s-27.444-12.312-27.444-27.445C329.367,514.952,341.679,502.64,356.812,502.64 M356.812,494.316
		c-19.754,0-35.769,16.015-35.769,35.767c0,19.757,16.015,35.769,35.769,35.769c19.755,0,35.767-16.012,35.767-35.769
		C392.578,510.331,376.566,494.316,356.812,494.316L356.812,494.316z"/>
	<path fill="#BF8C26" stroke="#BF8C26" stroke-miterlimit="10" d="M312.614,465.5c-1.707,0-3.101-3.097-3.12-4.809
		c-0.021-1.722,1.361-3.998,3.084-4.018l23.763-0.716c1.735,0.035,3.137,1.143,3.158,2.867c0.021,1.724-1.359,4.754-3.083,4.774
		l-23.765,1.9C312.64,465.5,312.628,465.5,312.614,465.5z"/>
	<path fill="#BF8C26" stroke="#BF8C26" stroke-width="2" stroke-miterlimit="10" d="M357.183,531.028l-31.577-53.093l5.05-16.845
		c0.494-1.653-0.443-3.392-2.095-3.886c-1.65-0.492-3.392,0.443-3.888,2.093l-4.732,15.798l-52.911,0.008
		c0.597-2.954,1.264-6.238,2.015-9.938c0.185-0.907-0.043-1.851-0.623-2.574c-0.58-0.724-1.451-1.15-2.376-1.168
		c-0.096-0.002-9.643-0.184-16.75-0.152c-5.907,0.022-10.479,7.059-10.618,13.333c-0.125,5.682,3.32,11.923,13.369,12.406
		c1.79,0.075,3.185-1.245,3.268-2.967c0.084-1.721-1.246-3.185-2.967-3.267c-5.012-0.243-7.511-2.272-7.429-6.032
		c0.085-3.844,2.803-7.227,4.4-7.232c4.28-0.015,9.438,0.043,12.861,0.093c-5.847,28.806-6.162,30.848-6.951,35.965l-0.171,1.115
		c-1.725,11.069-11.15,26.344-11.245,26.496c-0.909,1.465-0.46,3.389,1.004,4.3c0.513,0.316,1.083,0.469,1.644,0.469
		c1.044,0,2.063-0.522,2.654-1.473c0.415-0.669,10.189-16.501,12.111-28.833l0.173-1.122c0.469-3.041,0.775-5.021,2.352-13.044
		l35.582,37.369c-1.692,3.6-0.602,8.011,2.773,10.354c1.399,0.972,3.037,1.483,4.734,1.483c1.922,0,3.751-0.676,5.212-1.854
		l42.451-1.499c1.122-0.002,2.159-2.216,2.711-3.191C357.767,533.163,357.757,531.992,357.183,531.028z M265.801,481.348
		l52.304-0.011l-11.758,42.762c-0.842,0.051-1.664,0.214-2.437,0.506l-38.637-40.579L265.801,481.348z M314.629,529.497
		c-0.485-1.318-1.288-2.486-2.357-3.403l10.936-39.762l0.06-0.216l25.753,43.34L314.629,529.497z"/>
</g>
</svg>
