<?xml version="1.0" encoding="utf-8"?>
<!-- Generator: Adobe Illustrator 21.1.0, SVG Export Plug-In . SVG Version: 6.00 Build 0)  -->
<svg version="1.1" id="Livello_1" xmlns="http://www.w3.org/2000/svg" xmlns:xlink="http://www.w3.org/1999/xlink" x="0px" y="0px"
	 viewBox="0 0 1921 992.4" style="enable-background:new 0 0 1921 992.4;" xml:space="preserve">
<style type="text/css">
	.st0{opacity:0.8;fill:#2D336D;enable-background:new    ;}
	.st1{opacity:0.6;fill:#95A6AD;enable-background:new    ;}
	.st2{opacity:0.8;fill:#071443;enable-background:new    ;}
	.st3{opacity:0.6;fill:#8DD3C8;enable-background:new    ;}
	.st4{opacity:0.8;fill:#3B9CAB;enable-background:new    ;}
	.st5{opacity:0.6;fill:#4F84B5;enable-background:new    ;}
	.st6{opacity:0.8;}
	.st7{fill:#59A0AB;}
	.st8{fill:#071443;}
	.st9{fill:#3B9CAB;}
	.st10{fill:#6C9A94;}
	.st11{fill:#474868;}
	.st12{opacity:0.9;}
	.st13{fill:#95A6AD;}
	.st14{fill:#CCCCCC;}
	.st15{opacity:0.6;}
	.st16{fill:#061246;}
	.st17{fill:none;}
	.st18{fill:#76D5C8;}
	.st19{fill:none;stroke:#FF613F;stroke-width:10;stroke-miterlimit:10;}
	.st20{enable-background:new    ;}
</style>
<g>
	<path class="st0" d="M1721.5-88.5c-153.1,0-277.1,122.9-277.1,274.6c0,113.6,69.6,211,168.9,252.9c-0.8,7-2.3,14-4.5,21
		c-4.7,14.4-12.5,26.9-22.3,37.3c29.3-3.1,56.1-18.9,72.8-43.5c20,4.6,40.8,6.9,62.2,6.9c153.1,0,277.1-122.9,277.1-274.6
		S1874.5-88.5,1721.5-88.5z"/>
	<path class="st1" d="M1648.3,267c0-125.1-102.3-226.4-228.5-226.4S1191.3,141.9,1191.3,267c0,118.1,91.1,215,207.5,225.5
		c0.8,12-0.1,24.2-2.7,36.6c-4.2,19.7-12.7,37.6-24.2,52.8c47.5-10.2,87.2-45.7,100.9-94.5C1573.4,463.5,1648.3,373.9,1648.3,267z"
		/>
	<ellipse class="st2" cx="1589.7" cy="91.1" rx="53.8" ry="53.3"/>
	<ellipse class="st2" cx="1768.2" cy="32.2" rx="53.8" ry="53.3"/>
	<ellipse class="st2" cx="1390.5" cy="398" rx="53.8" ry="53.3"/>
	<path class="st3" d="M646.4,446.6C646.4,339.1,558.5,252,450,252s-196.4,87.1-196.4,194.6c0,99.1,74.8,180.8,171.5,193
		c2.3,2.2,4.6,4.5,7.1,6.5c39.9,34.2,94.4,41.1,140,22.1c-16.7-5.4-32.7-14.1-46.8-26.3c-4.2-3.6-8.1-7.4-11.7-11.3
		C590.9,604.5,646.4,532,646.4,446.6z"/>
	<ellipse class="st2" cx="638.9" cy="442.9" rx="53.8" ry="53.3"/>
	<path class="st4" d="M782.4,274.8c0-60.9-49.8-110.2-111.2-110.2c-16.7,0-32.5,3.6-46.7,10.2c-6.5-2.2-13.5-3.6-20.9-3.6
		c-34.8,0-63.1,28-63.1,62.5c0,9.1,2,17.7,5.5,25.5c-21.3,20.1-34.7,48.5-34.7,79.9c0,60.9,49.8,110.2,111.2,110.2
		c51.2,0,94.3-34.3,107.3-80.9C761.4,349,782.4,314.3,782.4,274.8z"/>
	<path class="st3" d="M1768.2,971.4c-0.9-23.4-37.8-95.4-43.4-116c-19.3-70.1-3.8-82.3,13.2-112.3c17-29.9,39.7-52.4,26.4-122.5
		s-85-107.1-153-108.5c-22.2-0.5-74.1,10.8-108.1,50c-34,39.3-19.8,90.7-20.8,108.5c-0.9,17.8-32.1,54.6-27.9,65
		c3.3,8,14.7,3.3,22.5,10.8c-2.5,1.6-4.5,4.2-4.5,7c0,6.8,6.6,9.1,10.9,9.2c0.1,0,0.3,0,0.4,0l0,0c-1.7,0.1-5.3,0.7-6.5,2.9
		c-1.9,3.7-2.8,9.4,5.7,11.2c0.5,0.1,0.9,0.1,1.4,0c0,0.2,0,0.3,0,0.5c-1.5,50.6,17.9,44.9,26.4,44.9s31.2-6.5,48.2-1.9
		c17,4.7,22.2,35.2,22.2,35.2c11.3,28.1-66.1,116-66.1,116v87.9h253.1C1768.2,1059.3,1769.1,994.8,1768.2,971.4z"/>
	<path class="st5" d="M1559.8,999.2c-0.8-19.3-31.1-78.5-35.7-95.4c-15.9-57.6-3.1-67.7,10.9-92.3s32.6-43,21.7-100.8
		c-10.9-57.7-69.9-88-125.8-89.2c-18.2-0.4-60.9,8.9-88.9,41.2s-16.3,74.7-17.1,89.2c-0.8,14.6-26.4,44.9-22.9,53.4
		c2.6,6.5,12.2,2.7,18.5,8.9c-2.2,1.3-3.8,3.5-3.8,5.7c0,5.6,5.5,7.4,9,7.6c0.1,0,0.2,0,0.3,0l0,0c-1.3,0.1-4.3,0.6-5.3,2.4
		c-1.5,3.1-2.4,7.7,4.6,9.3c0.4,0.1,0.8,0.1,1.1,0c0,0.1,0,0.3,0,0.4c-1.2,41.5,14.7,37,21.7,37s25.6-5.4,39.6-1.5
		c14,3.8,18.2,28.8,18.2,28.8c9.3,23.1-54.4,95.4-54.4,95.4v72.3h208C1559.8,1071.5,1560.7,1018.5,1559.8,999.2z"/>
	<g id="Atom" class="st6">
		<path class="st7" d="M1610.7,223c-5.4-13.9-36-25-70.2-25.6c14-15.6,28.2-24.4,36.4-23.2c8.2,1.2,7.6,11.4,6.8,17.7
			c-0.2,1.5,0.8,2.8,2.4,3c1.5,0.2,2.8-0.8,3-2.3c1.8-13.6-2.3-22.2-11.3-23.5c-11.5-1.9-28.9,9.7-44.3,28.1
			c-5.9,0.1-11.9,0.7-17.8,1.5c-2.1-11.9-1.2-21.4,2.3-25.6c4.9-6.1,13.9-0.7,18.8,3c1.2,0.8,2.9,0.5,3.8-0.7
			c0.8-1.1,0.6-2.6-0.5-3.6c-11-8.2-20.5-9-26.3-2c-4.7,5.9-5.7,16.7-3.4,29.9c-12.7,2.8-22.2,7.3-26.3,13.5c-2.5,3.5-3,8-1.3,11.9
			c2.4,4.9,6.1,8.9,10.9,11.5c1.2,0.7,2.9,0.4,3.8-0.8c0.8-1.2,0.4-2.9-0.8-3.7c-3.8-2.1-6.9-5.1-9-9c-1-2.2-0.7-5,0.8-6.9
			c2.9-4.2,10.9-8.5,22.9-11c1.4,5.8,3.2,11.4,5.4,16.9c-11.6,21-15.9,39.9-10.9,50c1.8,3.9,5.5,6.6,9.8,7.2c0.8,0.1,1.6,0.1,2.4,0
			c6-0.4,11.8-2.4,16.8-5.8c1.2-0.7,1.7-2.4,0.8-3.7c-0.8-1.2-2.5-1.7-3.8-0.8l0,0c-4.4,3.3-9.9,5.1-15.6,5
			c-2.5-0.3-4.7-1.9-5.7-4.2c-3.2-6.5-1.4-21.4,8.7-41.2c2.5,5.8,5.5,11.5,8.7,16.9c13,22.2,28.4,36.5,40.3,37.5h1.1
			c4,0.1,7.6-1.8,10-4.9c8.3-10.3,5.1-36.3-7.6-63.3c-0.7-1.3-2.3-2-3.6-1.3s-2,2.2-1.3,3.6c11.5,24.4,15.1,49.2,8.3,57.6
			c-1.5,2-4.1,3-6.5,2.7c-8.2-0.6-22.6-11.5-36.1-34.6c-3.9-6.6-7.3-13.5-10.1-20.6l0.5-0.7c3.8-6.6,8.1-13,12.8-19h0.9
			c35.7,0,64.3,11.6,68.6,22.4c2.4,6-3.4,10.4-8.6,13c-1.3,0.7-1.9,2.3-1.1,3.6c0.7,1.3,2.4,1.9,3.7,1.1
			C1609.7,237.7,1613.7,230.5,1610.7,223z M1520.3,215.9c-1.3-3.8-2.5-7.8-3.4-11.8c4.1-0.7,8.1-1,12.3-1.2
			C1526.1,207,1523.1,211.3,1520.3,215.9z"/>
		<ellipse class="st7" cx="1546.8" cy="224.1" rx="10.9" ry="10.8"/>
	</g>
	<g id="Atom_2_" class="st6">
		<path class="st8" d="M689.1,307.2c-5.4-13.9-36-25-70.2-25.6c14-15.6,28.2-24.4,36.4-23.2c8.2,1.2,7.6,11.4,6.8,17.7
			c-0.2,1.5,0.8,2.8,2.4,3c1.5,0.2,2.8-0.8,3-2.3c1.8-13.6-2.3-22.2-11.3-23.5c-11.5-1.9-28.9,9.7-44.3,28.1
			c-5.9,0.1-11.9,0.7-17.8,1.5c-2.1-11.9-1.2-21.4,2.3-25.6c4.9-6.1,13.9-0.7,18.8,3c1.2,0.8,2.9,0.5,3.8-0.7
			c0.8-1.1,0.6-2.6-0.5-3.6c-11-8.2-20.5-9-26.3-2c-4.7,5.9-5.7,16.7-3.4,29.9c-12.7,2.8-22.2,7.3-26.3,13.5c-2.5,3.5-3,8-1.3,11.9
			c2.4,4.9,6.1,8.9,10.9,11.5c1.2,0.7,2.9,0.4,3.8-0.8c0.8-1.2,0.4-2.9-0.8-3.7c-3.8-2.1-6.9-5.1-9-9c-1-2.2-0.7-5,0.8-6.9
			c2.9-4.2,10.9-8.5,22.9-11c1.4,5.8,3.2,11.4,5.4,16.9c-11.6,21-15.9,39.9-10.9,50c1.8,3.9,5.5,6.6,9.8,7.2c0.8,0.1,1.6,0.1,2.4,0
			c6-0.4,11.8-2.4,16.8-5.8c1.2-0.7,1.7-2.4,0.8-3.7c-0.8-1.2-2.5-1.7-3.8-0.8l0,0c-4.4,3.3-9.9,5.1-15.6,5
			c-2.5-0.3-4.7-1.9-5.7-4.2c-3.2-6.5-1.4-21.4,8.7-41.2c2.5,5.8,5.5,11.5,8.7,16.9c13,22.2,28.4,36.5,40.3,37.5h1.1
			c4,0.1,7.6-1.8,10-4.9c8.3-10.3,5.1-36.3-7.6-63.3c-0.7-1.3-2.3-2-3.6-1.3s-2,2.2-1.3,3.6c11.5,24.4,15.1,49.2,8.3,57.6
			c-1.5,2-4.1,3-6.5,2.7c-8.2-0.6-22.6-11.5-36.1-34.6c-3.9-6.6-7.3-13.5-10.1-20.6l0.5-0.7c3.8-6.6,8.1-13,12.8-19h0.9
			c35.7,0,64.3,11.6,68.6,22.4c2.4,6-3.4,10.4-8.6,13c-1.3,0.7-1.9,2.3-1.1,3.6c0.8,1.3,2.4,1.9,3.7,1.1
			C688.1,321.9,692.1,314.7,689.1,307.2z M598.7,300.1c-1.3-3.8-2.5-7.8-3.4-11.8c4.1-0.7,8.1-1,12.3-1.2
			C604.5,291.2,601.5,295.5,598.7,300.1z"/>
		<ellipse class="st8" cx="625.2" cy="308.2" rx="10.9" ry="10.8"/>
	</g>
	<g>
		<path class="st9" d="M983.6,359.1l-38.2,14.5l-2.8-2.8c-6.9-6.6-14.4-12.2-22.7-16.5l-3.5-1.8l2.8-40.8l-23.9-5.7l-16,37.3l-4,0.1
			c-9.3,0.1-18.8,1.3-27.9,4.2l-4.3,1.2l-27-30.9l-21.2,12.5l15.3,37.7l-2.8,2.8c-6.6,6.5-12.3,14.3-16.6,22.5l-1.8,3.5l-41.2-2.2
			l-6,23.7l37.7,15.8l0.1,3.9c0.1,9.5,1.3,18.9,4.2,27.8l1.2,3.7l-30.9,26.8l12.7,21l37.8-15.2l2.8,2.8c6.9,6.6,14.4,12.2,22.7,16.7
			l3.8,1.8l-3,40.1l23.9,6l16.5-36.8l4-0.1c9.6-0.1,19.1-1.6,28-4.2l3.8-1.2l26.4,30.5l21.2-12.5l-14.4-37.6l2.8-2.8
			c6.7-6.8,12.3-14.3,16.9-22.7l1.8-3.7l40.5,3l6-23.7l-37.4-16.4l-0.1-3.9c-0.1-9.5-1.6-18.9-4.2-27.8l-1.2-3.7l31.1-26.2
			L983.6,359.1z M959.9,412.5c2.7,8.4,4.1,16.9,3.9,25.8l-0.1,8.3l36.1,15.6l-3,12.3l-39.2-2.9l-4,7.7c-4,7.7-9.3,14.9-15.6,21
			l-6,6.1l14.3,36.5l-10.9,6.6l-25.5-29.6l-8.1,2.4c-8.5,2.7-17.4,3.9-26.1,3.8l-8.4-0.1l-16.1,35.6l-12.4-3l2.9-39l-7.7-3.9
			c-7.7-3.9-14.7-9.2-21.2-15.4l-6-6.3l-36.5,14.4l-6.7-10.8l29.9-25.8l-2.5-8c-2.5-8.3-4.1-16.9-4-25.5l0.1-8.6l-36.4-15.4l3-12.3
			l39.8,2.6l4-7.4c4-7.7,9.3-14.6,15.6-21l6-6.1l-14.8-36.5l10.9-6.6l26.3,29.7l8.1-2.4c8.4-2.4,17.1-4,25.8-3.9l8.8-0.2l15.6-36.3
			l12.4,3l-2.6,39.4l7.7,3.9c7.7,3.9,14.7,9.2,21.2,15.2l6.1,6l37.1-14.1l6.7,10.8l-30,25.6L959.9,412.5z"/>
		<path class="st10" d="M833.6,433.6c-1,9.1,1.1,18,5.9,26c11.9,19.5,37.7,25.9,57.3,14c11.1-6.6,18.3-18.1,19.8-31.1
			c1-9.1-1.1-18-5.9-26c-5.7-9.5-14.8-16.2-25.8-18.7c-11-2.6-22.2-1-31.5,4.7C842.4,409.4,835,420.6,833.6,433.6z M883.5,404.7
			c9.1,2.2,16.6,7.7,21.3,15.7c4.1,6.5,5.8,14,4.9,21.5c-1.2,10.8-7.3,20.1-16.7,25.8c-16.3,9.6-38,4.5-47.8-11.6
			c-4.1-6.5-5.8-14-4.9-21.5c1.2-10.8,7.3-20.1,16.7-25.8C865,403.8,874.5,402.5,883.5,404.7z"/>
		<path class="st10" d="M841.9,383.6c-17.2,10.4-28.4,27.6-30.7,47.5c-1.6,14,1.4,27.8,8.8,39.8c18.4,29.9,57.9,39.9,88.4,21.6
			c17.2-10.4,28.4-27.6,30.7-47.5l0,0c1.6-14-1.4-27.8-8.8-39.8c-8.8-14.7-22.9-24.9-39.7-28.9C873.9,372.3,856.7,374.9,841.9,383.6
			z M888.7,383.2c15.1,3.6,27.6,12.8,35.5,25.6c6.7,10.8,9.3,23.1,7.9,35.5c-2,17.7-11.9,33.3-27.3,42.6
			c-27.2,16.3-62.3,7.5-78.8-19.2c-6.4-10.8-9.3-23.1-7.9-35.5c2-17.7,11.9-33.3,27.3-42.6C858.5,381.9,874,379.3,888.7,383.2z"/>
		<path class="st11" d="M1096.5,192.2l-3.5-1.8l2.8-40.8l-23.9-5.7l-16,37.3l-4,0.1c-9.3,0.1-18.8,1.6-27.9,4.2l-3.8,1.2l-27-30.9
			L972,168.3l15.3,37.7l-2.8,2.8c-6.6,6.5-12.3,14.3-16.6,22.5l-1.8,3.5l-41.2-2.8l-5.9,23.7l37.7,15.8l0.1,4.2
			c0.1,9.5,1.3,18.9,4.2,27.8l1.2,3.7L931.3,334l12.7,21l37.8-15.2l2.8,2.8c6.9,6.6,14.4,12.2,22.7,16.7l3.8,1.8l-3,40.1l23.9,6
			l16.5-36.8l4-0.1c9.6-0.1,19.1-1.6,28-4.2l3.8-1.2l26.4,30.5l21.2-12.5l-15-37.4l2.8-2.8c6.7-6.8,12.3-14.3,16.9-22.7l1.8-3.7
			l40.5,3l6-23.7l-37.4-16.4l-0.1-3.9c-0.1-9.5-1.6-18.9-4.2-27.8l-1.2-3.7l31.1-26.2l-12.7-21l-38.2,14.5l-2.8-2.8
			C1112.7,202.1,1104.9,196.7,1096.5,192.2z M1157.4,205.5l6.7,10.8l-29.9,25.5l2.5,8c2.7,8.4,4.1,16.9,3.9,25.8l-0.1,8.3l36.1,15.6
			l-3,12.3l-39.2-2.9l-4,7.7c-4,7.7-9.3,14.9-15.6,21l-6,6.1l14.3,36.5l-10.9,6.6l-25.5-29.6l-8.1,2.4c-8.5,2.7-17.4,3.9-26.1,3.8
			l-8.4-0.1l-16.1,35.6l-12.4-3l2.9-39l-7.7-3.9c-7.7-3.9-14.7-9.2-21.2-15.4l-6-6.3l-36.5,14.4l-6.7-10.8l29.9-25.8l-2.5-8
			c-2.5-8.3-4.1-16.9-4-25.5l0.1-8.6l-36.4-15.4l3-12.3l39.8,2.6l4-7.4c4-7.7,9.3-14.6,15.6-21l6-6.1l-14.8-36.5l10.9-6.6l26.3,29.7
			l8.1-2.4c8.4-2.4,17.1-4,25.8-3.9l8.8-0.2l15.6-36.3l12.4,3l-2.6,39.4l7.7,3.9c7.7,3.9,14.7,9.2,21.2,15.2l6.1,6L1157.4,205.5z"/>
		<path class="st10" d="M1010.5,271.4c-1,9.1,1.1,18,5.9,26c11.9,19.5,37.7,25.9,57.3,14c11.1-6.6,18.3-18.1,19.8-31.1
			c1-9.1-1.1-18-5.9-26c-11.9-19.5-37.7-25.9-57.3-14C1019.2,247.2,1012,258.4,1010.5,271.4z M1081.6,258.2c4.1,6.5,5.8,14,4.9,21.5
			c-1.2,10.8-7.3,20.1-16.7,25.8c-16.3,9.9-37.7,4.6-47.8-11.6c-4.1-6.5-5.8-14-4.9-21.5c1.2-10.8,7.3-20.1,16.7-25.8
			C1050.5,236.6,1071.9,241.7,1081.6,258.2z"/>
		<path class="st10" d="M988,268.9c-1.6,14,1.4,27.8,8.8,39.8c18.4,29.9,57.9,39.9,88.4,21.6c17.2-10.4,28.4-27.6,30.7-47.5l0,0
			c1.6-14-1.4-27.8-8.8-39.8c-8.8-14.7-22.9-24.9-39.7-28.9c-16.8-4-33.9-1.5-48.7,7.3C1001.5,231.8,990.2,249,988,268.9z
			 M1065.8,220.7c14.8,3.6,27.3,12.7,35.2,25.6c6.7,10.8,9.3,23.1,7.9,35.5c-2,17.7-11.9,33.3-27.3,42.6
			c-27.2,16.3-62.3,7.5-78.8-19.2c-6.4-10.8-9.3-23.1-7.9-35.5c2-17.7,11.9-33.3,27.3-42.6C1035.5,219.7,1050.7,217.1,1065.8,220.7z
			"/>
	</g>
	<g class="st12">
		<g>
			<path class="st13" d="M1268.4,162.1c-1.6,0.8-2.2,2.7-1.3,4.3c0.8,1.6,2.7,2.2,4.3,1.3c7.4-3.9,15.5,1.1,24,6.9
				c0.1,10.3-0.2,19.7-7.6,23.6c-1.6,0.8-2.2,2.7-1.3,4.3s2.7,2.2,4.3,1.3c9.3-5,10.8-15,11-24.9c8.4,5.4,17.7,9.8,27,4.9
				c9.3-5,10.8-15,11-24.9c8.4,5.4,17.7,9.8,27,4.9s10.8-15,11-24.9c8.4,5.4,17.7,9.8,27,4.9c1.6-0.8,2.2-2.7,1.3-4.3
				s-2.7-2.2-4.3-1.3c-7.4,3.9-15.5-1.1-24-6.9c-0.1-10.3,0.2-19.7,7.6-23.6c1.6-0.8,2.2-2.7,1.3-4.3s-2.7-2.2-4.3-1.3
				c-9.3,5-10.8,15-11,24.9c-8.4-5.4-17.7-9.8-27-4.9c-9.3,5-10.8,15-11,24.9c-8.4-5.4-17.7-9.8-27-4.9c-4.2,2.2-7.2,5.7-8.9,10.4
				c-0.3,0.8-0.2,1.8,0.2,2.6c0.4,0.7,0.9,1.2,1.7,1.5c1.7,0.6,3.5-0.3,4.2-1.9c1.2-3.3,3-5.4,5.9-6.9c7.4-3.9,15.5,1.1,24,6.9
				c0.1,10.3-0.2,19.7-7.6,23.6c-7.4,3.8-15.5-1.1-24-6.9c0-2.5,0-5.1,0.1-7.4c0.1-1.8-1.2-3.3-3-3.4s-3.3,1.2-3.4,3
				c-0.1,1.1-0.1,2.3-0.1,3.5C1286.9,161.6,1277.8,157.2,1268.4,162.1z M1347.3,127.7c7.4-3.9,15.5,1.1,24,6.9
				c0.1,10.3-0.2,19.7-7.6,23.6s-15.5-1.1-24-6.9C1339.7,141.1,1340,131.6,1347.3,127.7z"/>
			<path class="st13" d="M1392.4,132.5c0.9,1.7,3.1,2.2,4.7,1c1.3-0.9,1.6-2.7,0.8-4.1l-7.4-13.8c-0.8-1.4-2.5-2.2-4-1.6
				c-1.9,0.7-2.6,2.8-1.8,4.5L1392.4,132.5z"/>
			<path class="st13" d="M1278.9,174.5c-0.9-1.7-3.1-2.2-4.7-1c-1.3,0.9-1.6,2.7-0.8,4.1l7.4,13.8c0.8,1.4,2.5,2.2,4,1.6
				c1.9-0.7,2.6-2.8,1.8-4.5L1278.9,174.5z"/>
			<path class="st13" d="M1353.1,135.4l7.5,13.8c0.8,1.4,2.5,2.2,4,1.6c1.9-0.7,2.6-2.8,1.8-4.5l-7.5-13.8c-0.8-1.4-2.5-2.2-4-1.6
				C1353,131.5,1352.2,133.7,1353.1,135.4z"/>
			<path class="st13" d="M1351.5,154.1c0.9,1.7,3.1,2.2,4.7,1c1.3-0.9,1.6-2.7,0.8-4.1l-7.4-13.8c-0.8-1.4-2.5-2.2-4-1.6
				c-1.9,0.7-2.6,2.8-1.8,4.5L1351.5,154.1z"/>
			<path class="st13" d="M1316.3,154.7l7.5,13.8c0.8,1.4,2.5,2.2,4,1.6c1.9-0.7,2.6-2.8,1.8-4.5l-7.5-13.8c-0.8-1.4-2.5-2.2-4-1.6
				C1316.2,150.9,1315.4,153,1316.3,154.7z"/>
			<path class="st13" d="M1307.2,159.5l7.5,13.8c0.8,1.4,2.5,2.2,4,1.6c1.9-0.7,2.6-2.8,1.8-4.5l-7.5-13.8c-0.8-1.4-2.5-2.2-4-1.6
				C1307,155.8,1306.3,157.8,1307.2,159.5z"/>
		</g>
	</g>
	<g>
		<g id="People_1_">
			<g id="Icon-23_1_">
				<path id="chemistry-tubes_1_" class="st14" d="M1798.1,360.4c0-1.3-1.1-2.4-2.5-2.4l0,0c-1.3,0-2.5,1.1-2.5,2.4s1.1,2.4,2.5,2.4
					S1798.1,361.7,1798.1,360.4L1798.1,360.4z M1741.9,362.8c-1.3,0-2.5,1.1-2.5,2.4s1.1,2.4,2.5,2.4c1.3,0,2.5-1.1,2.5-2.4
					S1743.2,362.8,1741.9,362.8L1741.9,362.8z M1754,350.6c0-1.3-1.1-2.4-2.5-2.4l0,0c-1.3,0-2.5,1.1-2.5,2.4s1.1,2.4,2.5,2.4
					C1753,353.1,1754,351.9,1754,350.6L1754,350.6z M1798,310.5c0,2.7,2.2,4.9,4.9,4.9c2.7,0,4.9-2.2,4.9-4.9s-2.2-4.9-4.9-4.9
					C1800.3,305.6,1798,307.8,1798,310.5L1798,310.5z M1700.1,315.4c0,2.7,2.2,4.9,4.9,4.9s4.9-2.2,4.9-4.9c0-2.7-2.2-4.9-4.9-4.9
					S1700.1,312.6,1700.1,315.4L1700.1,315.4z M1695.2,274.1c0,1.3,1.1,2.4,2.5,2.4s2.5-1.1,2.5-2.4s-1.1-2.4-2.5-2.4
					C1696.3,271.7,1695.2,272.8,1695.2,274.1L1695.2,274.1z M1690.4,274.1c0-4,3.3-7.3,7.4-7.3s7.4,3.3,7.4,7.3s-3.3,7.3-7.4,7.3
					C1693.6,281.4,1690.4,278.1,1690.4,274.1L1690.4,274.1z M1749.1,266.8c0,2.7,2.2,4.9,4.9,4.9c2.7,0,4.9-2.2,4.9-4.9
					s-2.2-4.9-4.9-4.9C1751.3,261.9,1749.1,264.2,1749.1,266.8L1749.1,266.8z M1744.2,266.8c0-5.3,4.4-9.7,9.8-9.7s9.8,4.4,9.8,9.7
					s-4.4,9.7-9.8,9.7S1744.2,272.1,1744.2,266.8L1744.2,266.8z M1707.5,378.4c-1.3,0-2.5,1.1-2.5,2.4c0,2.7-2.2,4.9-4.9,4.9
					c-1.3,0-2.5,1.1-2.5,2.4s1.1,2.4,2.5,2.4c5.4,0,9.8-4.4,9.8-9.7C1709.9,379.4,1708.8,378.4,1707.5,378.4L1707.5,378.4z
					 M1798,390.5c5.4,0,9.8-4.4,9.8-9.7c0-1.3-1.1-2.4-2.5-2.4s-2.5,1.1-2.5,2.4c0,2.7-2.2,4.9-4.9,4.9c-1.3,0-2.5,1.1-2.5,2.4
					S1796.7,390.5,1798,390.5L1798,390.5z M1746.7,388c0,1.3,1.1,2.4,2.5,2.4c5.4,0,9.8-4.4,9.8-9.7c0-1.3-1.1-2.4-2.5-2.4
					c-1.3,0-2.5,1.1-2.5,2.4c0,2.7-2.2,4.9-4.9,4.9C1747.7,385.7,1746.7,386.7,1746.7,388L1746.7,388z M1822.6,292.4
					c0,1.3-1.1,2.4-2.5,2.4h-36.7v48.6h22c1.3,0,2.5,1.1,2.5,2.4s-1.1,2.4-2.5,2.4h-22v33.5c0,6.9,4.6,13.2,11.4,14.7
					c9.5,2.1,17.9-5.1,17.9-14.2v-79c0-1.3,1.1-2.4,2.5-2.4c1.3,0,2.5,1.1,2.5,2.4v79.4c0,9.7-6.9,18.4-16.6,19.8
					c-12.1,1.8-22.6-7.5-22.6-19.2v-88.4h-44.1v29.1h22c1.3,0,2.5,1.1,2.5,2.4s-1.1,2.4-2.5,2.4h-22v52.9c0,6.9,4.6,13.2,11.4,14.7
					c9.5,2.1,17.9-5.1,17.9-14.2v-79c0-1.3,1.1-2.4,2.5-2.4c1.3,0,2.5,1.1,2.5,2.4v79.4c0,9.7-6.9,18.4-16.6,19.8
					c-12.1,1.8-22.6-7.5-22.6-19.2v-88.4h-44.1v38.8h22c1.3,0,2.5,1.1,2.5,2.4s-1.1,2.4-2.5,2.4h-22v43.2c0,6.9,4.6,13.2,11.4,14.7
					c9.5,2.1,17.9-5.1,17.9-14.2v-79c0-1.3,1.1-2.4,2.5-2.4c1.3,0,2.5,1.1,2.5,2.4v79.4c0,9.7-6.9,18.4-16.6,19.8
					c-12.1,1.8-22.6-7.5-22.6-19.2v-88.4h-2.5c-1.3,0-2.5-1.1-2.5-2.4s1.1-2.4,2.5-2.4h2.5v-12.2c0-1.3,1.1-2.4,2.5-2.4
					s2.5,1.1,2.5,2.4v12.2h29.4v-12.2c0-1.3,1.1-2.4,2.5-2.4c1.3,0,2.5,1.1,2.5,2.4v12.2h9.8v-12.2c0-1.3,1.1-2.4,2.5-2.4
					s2.5,1.1,2.5,2.4v12.2h29.4v-12.2c0-1.3,1.1-2.4,2.5-2.4s2.5,1.1,2.5,2.4v12.2h9.8v-12.2c0-1.3,1.1-2.4,2.5-2.4s2.5,1.1,2.5,2.4
					v12.2h29.4v-12.2c0-1.3,1.1-2.4,2.5-2.4s2.5,1.1,2.5,2.4v12.2h2.5C1821.5,290,1822.6,291,1822.6,292.4L1822.6,292.4z"/>
			</g>
		</g>
	</g>
	<g class="st15">
		<path class="st16" d="M1177.9,250.5l40.2-39.9l0,0l71.5,70.8c11.1,11,11.1,28.8,0,39.9l0,0c-11.1,11-29.1,11-40.2,0L1177.9,250.5z
			"/>
		<path class="st16" d="M1162.3,239.5l44.7-44.2c3.7-3.6,9.7-3.6,13.4,0l0,0c3.7,3.6,3.7,9.6,0,13.3l-44.7,44.2
			c-3.7,3.6-9.7,3.6-13.4,0l0,0C1158.6,249.1,1158.6,243.1,1162.3,239.5z"/>
		<line class="st17" x1="1189.1" y1="261.6" x2="1204.7" y2="246.1"/>
		<line class="st17" x1="1198" y1="270.5" x2="1204.7" y2="263.8"/>
		<line class="st17" x1="1206.9" y1="279.3" x2="1213.6" y2="272.7"/>
		<line class="st17" x1="1215.9" y1="288.2" x2="1222.6" y2="281.6"/>
		<line class="st17" x1="1233.7" y1="305.9" x2="1240.5" y2="299.3"/>
		<line class="st17" x1="1242.6" y1="314.7" x2="1249.4" y2="308.1"/>
		<line class="st17" x1="1224.8" y1="297" x2="1240.5" y2="281.6"/>
	</g>
	<g>
		<path class="st11" d="M779.9,218.1c-0.1-0.7-0.5-1.4-1.1-1.9l-27.9-19.5c-1-0.7-2.5-0.6-3.3,0.3l-2.7,2.7l-4.2-4.2l18.2-18.1l0,0
			c2.1-2.1,3.3-4.9,3.3-7.9s-1.1-5.7-3.3-7.9c-4.3-4.3-11.4-4.3-15.8,0l0,0l-18.2,18.1l-4.2-4.2l2.7-2.7c0.8-0.8,1-2.2,0.3-3.3
			l-19.6-27.6c-0.5-0.7-1.1-1-1.9-1.1s-1.5,0.2-2.1,0.7l-17.3,17.1c-0.6,0.6-0.8,1.3-0.8,2.1c0.1,0.7,0.5,1.4,1.1,1.9l27.8,19.5
			c0.5,0.3,0.9,0.5,1.5,0.5c0.7,0,1.3-0.3,1.8-0.7l2.7-2.7l4.2,4.2l-7.3,7.2l0,0l0,0l-9,9.1l0,0c-4.3,4.3-4.3,11.3,0,15.6
			c2.2,2.2,5,3.3,7.9,3.3c2.8,0,5.8-1.1,7.9-3.3l0,0l16.3-16.2l4.2,4.2l-2.7,2.7c-0.8,0.8-1,2.2-0.3,3.3l19.6,27.6
			c0.5,0.7,1.1,1,1.9,1.1c0.1,0,0.2,0,0.2,0c0.7,0,1.3-0.3,1.8-0.7l17.3-17.1C779.7,219.6,780,218.8,779.9,218.1z M688.7,160.3
			l12.9-12.8l5.1,7.1l-10.8,10.8L688.7,160.3z M712.1,176.8l-12-8.4l9.5-9.4l8.5,11.9L712.1,176.8z M746.8,165.5
			C746.8,165.5,746.8,165.4,746.8,165.5c2.4-2.3,6.1-2.3,8.5,0c1.1,1.1,1.8,2.6,1.8,4.2s-0.7,3.1-1.8,4.2l-9.1,9l-8.5-8.4
			L746.8,165.5z M717,211.7L717,211.7c-2.4,2.3-6.1,2.3-8.5,0s-2.4-6.1,0-8.4l0,0l7.2-7.1l8.5,8.4L717,211.7z M727.9,200.9l-8.5-8.4
			L734,178l8.5,8.4L727.9,200.9z M743.9,208.1l6-6l12,8.4l-9.5,9.4L743.9,208.1z M760.4,231.4l-5.1-7.1l10.9-10.8l7.2,5.1
			L760.4,231.4z"/>
	</g>
	<g>
		<g>
			<g>
				<g>
					<g>
						<path class="st18" d="M467.7,440.8c0.5-1,0.7-2.2,0.7-3.4c0-5.1-4.2-9.2-9.3-9.2c-5.1,0-9.3,4.1-9.3,9.2
							c0,5.1,4.2,9.2,9.3,9.2c1.6,0,3-0.4,4.3-1.1c9.6,9.4,15.1,22.3,15.1,35.8c0,27.8-22.8,50.3-50.8,50.3s-50.8-22.5-50.8-50.3
							c0-10.5,3.3-20.8,9.4-29.2c0.9,0.4,2,0.6,3.1,0.6c5.1,0,9.3-4.1,9.3-9.2c0-5.1-4.2-9.2-9.3-9.2s-9.3,4.1-9.3,9.2
							c0,1.7,0.5,3.3,1.2,4.6c-7.1,9.6-11,21.3-11,33.3c0,31.2,25.7,56.7,57.2,56.7s57.2-25.4,57.2-56.7
							C484.9,465.9,478.7,451.4,467.7,440.8z M456.1,437.3c0-1.6,1.3-2.9,2.9-2.9s2.9,1.3,2.9,2.9s-1.3,2.9-2.9,2.9
							S456.1,438.9,456.1,437.3z M389.5,440.5c1.6,0,2.9,1.3,2.9,2.9s-1.3,2.9-2.9,2.9s-2.9-1.3-2.9-2.9
							C386.6,441.8,387.9,440.5,389.5,440.5z"/>
						<path class="st18" d="M397.9,465.7c0,2.6,1.1,5.1,2.9,6.7c-0.9,2.9-1.4,5.8-1.4,8.9c0,15.5,12.7,28.2,28.4,28.2
							c15.7,0,28.4-12.6,28.4-28.2c0-4.3-1-8.5-2.8-12.3c1.1-1.5,1.7-3.4,1.7-5.3c0-5.1-4.2-9.2-9.3-9.2c-5.1,0-9.3,4.1-9.3,9.2
							s4.2,9.2,9.3,9.2c0.8,0,1.5-0.1,2.2-0.3c1.2,2.7,1.8,5.7,1.8,8.7c0,12.1-9.9,21.8-22,21.8c-12.2,0-22-9.8-22-21.8
							c0-2.2,0.4-4.4,1-6.5c0.2,0,0.3,0,0.5,0c5.1,0,9.3-4.1,9.3-9.2s-4.2-9.2-9.3-9.2C402,456.4,397.9,460.5,397.9,465.7z
							 M442.8,463.6c0-1.6,1.3-2.9,2.9-2.9s2.9,1.3,2.9,2.9s-1.3,2.9-2.9,2.9C444.2,466.5,442.8,465.2,442.8,463.6z M410.1,465.7
							c0,1.6-1.3,2.9-2.9,2.9s-2.9-1.3-2.9-2.9c0-1.6,1.3-2.9,2.9-2.9C408.7,462.8,410.1,464.1,410.1,465.7z"/>
						<path class="st18" d="M398.8,491.8c0-5.1-4.2-9.2-9.3-9.2c-5.1,0-9.3,4.1-9.3,9.2s4.2,9.2,9.3,9.2c0.2,0,0.5,0,0.7,0
							c7.4,13.8,21.7,22.5,37.6,22.5c23.4,0,42.5-18.9,42.5-42.1c0-11.2-4.4-21.8-12.5-29.7c-7.4-7.3-16.9-11.5-27.2-12.3
							c-1-4-4.6-6.9-9-6.9c-5.1,0-9.3,4.1-9.3,9.2c0,5.1,4.2,9.2,9.3,9.2c3.7,0,6.8-2.2,8.3-5.1c8.8,0.6,17,4.2,23.3,10.4
							c6.8,6.7,10.6,15.7,10.6,25.3c0,19.7-16.1,35.7-36.1,35.7c-13.3,0-25.4-7.2-31.7-18.7C397.8,496.7,398.8,494.3,398.8,491.8z
							 M421.7,444.5c-1.6,0-2.9-1.3-2.9-2.9s1.3-2.9,2.9-2.9s2.9,1.3,2.9,2.9C424.5,443.1,423.3,444.5,421.7,444.5z M386.6,491.8
							c0-1.6,1.3-2.9,2.9-2.9s2.9,1.3,2.9,2.9s-1.3,2.9-2.9,2.9C387.9,494.7,386.6,493.4,386.6,491.8z"/>
					</g>
				</g>
			</g>
		</g>
	</g>
</g>
<line class="st19" x1="485.5" y1="892.9" x2="1212.5" y2="892.9"/>
<g class="st20">
	<path class="st8" d="M107.9,737.5c7.3,0,10.6,1.4,13.7,2l-1.5,9.3c-1.8-1-4.7-2.9-11.6-2.9c-8.2,0-14.5,6.3-14.5,16.9
		c0,10.5,5.7,18.2,15.3,18.2c4.6,0,10-1.9,11.7-3.2v8.7c-2.9,1.2-6.6,2.7-12.8,2.7c-15.6,0-25.2-10.4-25.2-25.7
		C83.1,746.7,94.1,737.5,107.9,737.5z"/>
	<path class="st8" d="M144.9,750.2c13.3,0,18.2,9.5,18.1,20.3c-0.2,12.2-8,18.7-18.8,18.7c-13.3,0-18.2-9.5-18.1-20.3
		C126.3,756.7,134.1,750.2,144.9,750.2z M152.2,770c0-6.4-2.1-12.3-7.6-12.4c-5.5,0-7.8,4.2-7.8,11.6c0,6.6,2.2,12.6,7.6,12.7
		C149.9,781.9,152.2,777.6,152.2,770z"/>
	<path class="st8" d="M171.9,750.7h9.4l0.2,4.1c2.6-1.9,7.7-4.6,12.3-4.7s7.9,1.2,9.8,4.6c2.3-1.8,7.4-4.5,12.8-4.6
		c7.8-0.1,12.3,3.6,12.3,14.7v23.8h-10.4v-21.5c0-6.2-1-8.3-5.5-8.2c-2.6,0-5.5,1.3-7.4,2.8c0.1,1.1,0.2,2.2,0.2,3.5v23.5h-10.4
		v-21.5c0-6.2-1.1-8.3-5.4-8.2c-1.9,0-5.2,0.9-7.5,2.9v26.9h-10.4L171.9,750.7L171.9,750.7z"/>
	<path class="st8" d="M239.9,750.7h9.4l0.2,4.1c2.6-1.9,7.7-4.6,12.3-4.7s7.9,1.2,9.8,4.6c2.3-1.8,7.4-4.5,12.8-4.6
		c7.8-0.1,12.3,3.6,12.3,14.7v23.8h-10.4v-21.5c0-6.2-1-8.3-5.5-8.2c-2.6,0-5.5,1.3-7.4,2.8c0.1,1.1,0.2,2.2,0.2,3.5v23.5h-10.4
		v-21.5c0-6.2-1.1-8.3-5.4-8.2c-1.9,0-5.2,0.9-7.5,2.9v26.9h-10.4V750.7z"/>
	<path class="st8" d="M307.5,750.7h10.4v22c0,7.3,1.8,8.4,5.8,8.4c2.4,0,5.2-1.3,6.3-2.2v-28.3h10.4V789h-6.9
		c-1.6,0-2.5-0.3-2.5-1.9v-1.7c-2.8,2-7.4,3.6-11.1,3.6c-10.8,0-12.5-6.5-12.5-16.3v-22H307.5z"/>
	<path class="st8" d="M351.9,750.7h9.4l0.2,4.1c2.6-1.9,7.7-4.5,12.3-4.7c8-0.3,11.8,3.7,11.8,14.7v23.7h-10.4V767
		c0-6.2-1.2-8.4-5.6-8.2c-1.9,0-5.1,0.9-7.4,2.9v26.9h-10.4v-37.9H351.9z"/>
	<path class="st8" d="M395.9,739.5c0-3.4,3.2-6.2,6.6-6.2c3.7,0,6,2.4,6,5.6c0,3.4-3.1,6.2-6.6,6.2
		C398.5,745.2,395.9,742.8,395.9,739.5z M396.8,750.7h10.4v37.9h-10.4V750.7z"/>
	<path class="st8" d="M435,750.2c4.7,0,8.6,1,9.8,1.9l-1.3,8c-1.8-1-4-1.5-7.5-1.5c-4.3,0-9.5,2.6-9.7,10.2c-0.2,8.2,3.9,12,9.3,12
		c3.5,0,6.7-0.7,8.2-1.6l1.5,6.1c-2.3,2.3-6.8,3.8-11.6,3.8c-11.8,0-17.7-8.2-17.7-19C416.1,759,422.1,750.2,435,750.2z"/>
	<path class="st8" d="M457.7,767.3c4.2-1.9,10.4-2.2,15.2-2.2v-2.4c0-4.1-1.1-4.8-7.5-4.8c-2,0-7.2,1.2-10.4,2.7l-2.3-6.6
		c2.4-1.5,9.2-4,15.2-4c10.5,0,15.4,2.9,15.4,13.8v25.3h-6c-2.5,0-3.9-0.2-3.9-3.5v-0.2c-2,1.9-5.4,3.7-9.9,3.7
		c-7.4,0-12.4-5.2-12.4-12.3C451.1,772.2,453.6,769.2,457.7,767.3z M467,782.1c2.3,0,5.2-1.2,5.9-2.1v-9c-2.5,0-6.2,0.6-7.8,1.4
		c-1.6,0.6-3.3,1.6-3.3,4.4C461.8,780.4,464,782.1,467,782.1z"/>
	<path class="st8" d="M495.3,757.9h-4.5v-5.6c3.3-1,5.2-1.4,6.1-3.6c0.6-1.5,1.6-4.2,2.5-6.6h6.3v8.6H516v7.2h-10.3v15.2
		c0,7.7,1.1,8.2,4.3,8.2c1.8,0,4.7-0.7,5.9-1.6l1.3,5.8c-1.8,1.6-6.2,3.6-11.4,3.6c-7.5,0-10.5-3.3-10.5-11.8L495.3,757.9
		L495.3,757.9z"/>
	<path class="st8" d="M523.5,739.5c0-3.4,3.2-6.2,6.6-6.2c3.7,0,6,2.4,6,5.6c0,3.4-3.1,6.2-6.6,6.2
		C526.2,745.2,523.5,742.8,523.5,739.5z M524.4,750.7h10.4v37.9h-10.4V750.7z"/>
	<path class="st8" d="M562.5,750.2c13.3,0,18.2,9.5,18.1,20.3c-0.2,12.2-8,18.7-18.8,18.7c-13.3,0-18.2-9.5-18.1-20.3
		C543.9,756.7,551.8,750.2,562.5,750.2z M569.9,770c0-6.4-2.1-12.3-7.6-12.4c-5.5,0-7.8,4.2-7.8,11.6c0,6.6,2.2,12.6,7.6,12.7
		C567.5,781.9,569.9,777.6,569.9,770z"/>
	<path class="st8" d="M589.6,750.7h9.4l0.2,4.1c2.6-1.9,7.7-4.5,12.3-4.7c8-0.3,11.8,3.7,11.8,14.7v23.7h-10.4V767
		c0-6.2-1.2-8.4-5.6-8.2c-1.9,0-5.1,0.9-7.4,2.9v26.9h-10.4L589.6,750.7L589.6,750.7z"/>
	<path class="st8" d="M664.1,762.4c-2.4-3.3-4.7-6.9-4.7-12.6c0-7.9,5.8-12.6,14.7-12.6c8.5,0,13.7,5.5,13.7,12.1
		c0,8.3-4.2,12.2-10.7,15.5c2.3,3,6.2,7.8,9.5,11.2c1.5-1.7,2.4-4.1,2.4-6.6c0-3.1-0.6-5-0.8-6h8.6c0.2,1,0.7,2.9,0.7,6
		c0,5.4-1.8,9.3-4.5,12.1c1.8,1.1,3.7,1.5,6.6,1.6v5.5c-1.1,0.3-2.7,0.5-4.7,0.5c-4,0-6.8-0.9-9.3-2.4c-3.1,1.3-6.7,2.4-10.3,2.4
		c-14.3,0-21.5-4.9-21.5-13.8C653.8,769.4,658.2,765.1,664.1,762.4z M673.7,781.4c2.2,0,3.8-0.2,5.2-0.5c-3.4-3.8-7.6-8.8-10.5-12.5
		c-3.1,1.6-4.8,3.7-4.8,6.4C663.6,778.8,666.3,781.4,673.7,781.4z M679.3,749.4c0-2.2-1.4-5.2-5.1-5.2c-3.3,0-5.5,2.1-5.5,5.4
		c0,3.7,1.3,5.3,4.2,9.4C676.8,756.9,679.3,754.2,679.3,749.4z"/>
	<path class="st8" d="M746.7,750.2c2.6,0,4.7,0.5,6.2,1.1l-0.1-3.3v-14.6h10.4v55.7h-7c-1.5,0-2.5-0.2-2.5-1.9v-2.6
		c-1.7,1.8-4.9,4.5-11.1,4.5c-8,0-15.1-5.9-15.1-18.2C727.4,758.3,735.2,750.2,746.7,750.2z M752.8,779.1v-20.4
		c-1.4-1-3.6-1.1-5.8-1.1c-4.9,0-8.6,4.1-8.7,12.5c-0.1,8.4,2.9,11,7.4,11C748.6,781,751.3,780.1,752.8,779.1z"/>
	<path class="st8" d="M773.7,739.5c0-3.4,3.2-6.2,6.6-6.2c3.7,0,6,2.4,6,5.6c0,3.4-3.1,6.2-6.6,6.2
		C776.3,745.2,773.7,742.8,773.7,739.5z M774.5,750.7h10.4v37.9h-10.4V750.7z"/>
	<path class="st8" d="M795.5,778.5c1.1,0.9,6,3,10.9,3c4.1,0,5.9-0.8,5.9-3.2c0-2.2-2.7-3.8-8.2-5.6c-6.9-2.3-9.6-6.2-9.5-11.7
		c0-7.2,6.5-10.9,15.3-10.9c5.4,0,9.3,1.4,10.7,2.2l-1.1,8c-1.5-1.3-5.3-2.6-8.5-2.6c-4.5,0-6.4,0.9-6.4,3c0,2.4,1.9,3.5,7.4,5.3
		c7.7,2.6,10.6,5.8,10.6,11.4c0,7.8-5.7,11.6-14.8,11.6c-5.5,0-11.2-1.6-13.2-2.9L795.5,778.5z"/>
	<path class="st8" d="M830.3,778.5c1.1,0.9,6,3,10.9,3c4.1,0,5.9-0.8,5.9-3.2c0-2.2-2.7-3.8-8.2-5.6c-6.9-2.3-9.6-6.2-9.5-11.7
		c0-7.2,6.5-10.9,15.3-10.9c5.4,0,9.3,1.4,10.7,2.2l-1.1,8c-1.5-1.3-5.3-2.6-8.5-2.6c-4.5,0-6.4,0.9-6.4,3c0,2.4,1.9,3.5,7.4,5.3
		c7.7,2.6,10.6,5.8,10.6,11.4c0,7.8-5.7,11.6-14.8,11.6c-5.5,0-11.2-1.6-13.2-2.9L830.3,778.5z"/>
	<path class="st8" d="M881.5,750.2c7.8-0.1,14.9,3.8,15,14.8c0,2.9-0.1,5.4-0.4,7.1h-22.4c0.4,6.4,4.3,9.3,10.1,9.3
		c2.7,0,7.7-0.9,9.7-2l1.7,5.9c-2.5,2-8.2,3.8-14,3.8c-11.6,0-17.9-7.3-17.9-19.6C863.4,758.5,869.9,750.3,881.5,750.2z
		 M886.9,766.4c0.3-5.5-1.1-8.8-5.7-8.8c-3.8,0-6.5,2.1-7.2,8.8H886.9z"/>
	<path class="st8" d="M905.5,750.7h9.4l0.2,4.1c2.6-1.9,7.7-4.6,12.3-4.7s7.9,1.2,9.8,4.6c2.3-1.8,7.4-4.5,12.8-4.6
		c7.8-0.1,12.3,3.6,12.3,14.7v23.8h-10.4v-21.5c0-6.2-1-8.3-5.5-8.2c-2.6,0-5.5,1.3-7.4,2.8c0.1,1.1,0.2,2.2,0.2,3.5v23.5h-10.4
		v-21.5c0-6.2-1.1-8.3-5.4-8.2c-1.9,0-5.2,0.9-7.5,2.9v26.9h-10.4V750.7z"/>
	<path class="st8" d="M972.7,739.5c0-3.4,3.2-6.2,6.6-6.2c3.7,0,6,2.4,6,5.6c0,3.4-3.1,6.2-6.6,6.2
		C975.3,745.2,972.7,742.8,972.7,739.5z M973.5,750.7h10.4v37.9h-10.4V750.7z"/>
	<path class="st8" d="M995.4,750.7h9.4l0.2,4.1c2.6-1.9,7.7-4.5,12.3-4.7c8-0.3,11.8,3.7,11.8,14.7v23.7h-10.4V767
		c0-6.2-1.2-8.4-5.6-8.2c-1.9,0-5.1,0.9-7.4,2.9v26.9h-10.4L995.4,750.7L995.4,750.7z"/>
	<path class="st8" d="M1044.5,767.3c4.2-1.9,10.4-2.2,15.2-2.2v-2.4c0-4.1-1.1-4.8-7.5-4.8c-2,0-7.2,1.2-10.4,2.7l-2.3-6.6
		c2.4-1.5,9.2-4,15.2-4c10.5,0,15.4,2.9,15.4,13.8v25.3h-6c-2.5,0-3.9-0.2-3.9-3.5v-0.2c-2,1.9-5.4,3.7-9.9,3.7
		c-7.4,0-12.4-5.2-12.4-12.3C1037.9,772.2,1040.5,769.2,1044.5,767.3z M1053.8,782.1c2.3,0,5.2-1.2,5.9-2.1v-9
		c-2.5,0-6.2,0.6-7.8,1.4c-1.6,0.6-3.3,1.6-3.3,4.4C1048.6,780.4,1050.9,782.1,1053.8,782.1z"/>
	<path class="st8" d="M1082.2,757.9h-4.5v-5.6c3.3-1,5.2-1.4,6.1-3.6c0.6-1.5,1.6-4.2,2.5-6.6h6.3v8.6h10.3v7.2h-10.4v15.2
		c0,7.7,1.1,8.2,4.3,8.2c1.8,0,4.7-0.7,5.9-1.6l1.3,5.8c-1.8,1.6-6.2,3.6-11.4,3.6c-7.5,0-10.5-3.3-10.5-11.8L1082.2,757.9
		L1082.2,757.9z"/>
	<path class="st8" d="M1110.4,739.5c0-3.4,3.2-6.2,6.6-6.2c3.7,0,6,2.4,6,5.6c0,3.4-3.1,6.2-6.6,6.2
		C1113,745.2,1110.4,742.8,1110.4,739.5z M1111.2,750.7h10.4v37.9h-10.4V750.7z"/>
	<path class="st8" d="M1149.4,750.2c13.3,0,18.2,9.5,18.1,20.3c-0.2,12.2-8,18.7-18.8,18.7c-13.3,0-18.2-9.5-18.1-20.3
		C1130.8,756.7,1138.6,750.2,1149.4,750.2z M1156.7,770c0-6.4-2.1-12.3-7.6-12.4c-5.5,0-7.8,4.2-7.8,11.6c0,6.6,2.2,12.6,7.6,12.7
		C1154.4,781.9,1156.7,777.6,1156.7,770z"/>
	<path class="st8" d="M1176.4,750.7h9.4l0.2,4.1c2.6-1.9,7.7-4.5,12.3-4.7c8-0.3,11.8,3.7,11.8,14.7v23.7h-10.4V767
		c0-6.2-1.2-8.4-5.6-8.2c-1.9,0-5.1,0.9-7.4,2.9v26.9h-10.4L1176.4,750.7L1176.4,750.7z"/>
</g>
<g class="st20">
	<path class="st8" d="M367,837.9h-5.1v-6l5.1-1.1v-3.6c0-11.1,7.6-14.4,14.1-14.4c2.9,0,5.9,0.5,6.7,0.7v7.4c-1-0.5-2.6-0.8-5.2-0.8
		c-3.2,0-5.3,2.3-5.3,6.9v3.9h8.8v7.2h-8.8v30.7h-10.4L367,837.9L367,837.9z"/>
	<path class="st8" d="M409.6,830.2c13.3,0,18.2,9.5,18.1,20.3c-0.2,12.2-8,18.7-18.8,18.7c-13.3,0-18.2-9.5-18.1-20.3
		C391,836.7,398.8,830.2,409.6,830.2z M416.9,850c0-6.4-2.1-12.3-7.6-12.4c-5.5,0-7.8,4.2-7.8,11.6c0,6.6,2.2,12.6,7.6,12.7
		C414.6,861.9,416.9,857.6,416.9,850z"/>
	<path class="st8" d="M436.1,830.7h9.2l0.5,5.2c1.6-2.8,5.9-5.8,10.7-5.8c1.3,0,2.3,0.1,3,0.5v10c-0.7-0.4-1.8-0.9-4.5-0.9
		c-4.2,0-6.8,1.9-8.4,3.4v25.5h-10.4v-37.9H436.1z"/>
	<path class="st8" d="M488.6,858.5c1.1,0.9,6,3,10.9,3c4.1,0,5.9-0.8,5.9-3.2c0-2.2-2.7-3.8-8.2-5.6c-6.9-2.3-9.6-6.2-9.5-11.7
		c0-7.2,6.5-10.9,15.3-10.9c5.4,0,9.3,1.4,10.7,2.2l-1.1,8c-1.5-1.3-5.3-2.6-8.5-2.6c-4.5,0-6.4,0.9-6.4,3c0,2.4,1.9,3.5,7.4,5.3
		c7.7,2.6,10.6,5.8,10.6,11.4c0,7.8-5.7,11.6-14.8,11.6c-5.5,0-11.2-1.6-13.2-2.9L488.6,858.5z"/>
	<path class="st8" d="M540.6,830.2c4.7,0,8.6,1,9.8,1.9l-1.3,8c-1.8-1-4-1.5-7.5-1.5c-4.3,0-9.5,2.6-9.7,10.2
		c-0.2,8.2,3.9,12,9.3,12c3.5,0,6.7-0.7,8.2-1.6l1.5,6.1c-2.3,2.3-6.8,3.8-11.6,3.8c-11.8,0-17.7-8.2-17.7-19
		C521.7,839,527.8,830.2,540.6,830.2z"/>
	<path class="st8" d="M558.3,819.5c0-3.4,3.2-6.2,6.6-6.2c3.7,0,6,2.4,6,5.6c0,3.4-3.1,6.2-6.6,6.2
		C560.9,825.2,558.3,822.8,558.3,819.5z M559.1,830.7h10.4v37.9h-10.4V830.7z"/>
	<path class="st8" d="M596.5,830.2c7.8-0.1,14.9,3.8,15,14.8c0,2.9-0.1,5.4-0.4,7.1h-22.4c0.4,6.4,4.3,9.3,10.1,9.3
		c2.7,0,7.7-0.9,9.7-2l1.7,5.9c-2.5,2-8.2,3.8-14,3.8c-11.6,0-17.9-7.3-17.9-19.6C578.4,838.5,584.9,830.3,596.5,830.2z
		 M601.9,846.4c0.3-5.5-1.1-8.8-5.7-8.8c-3.8,0-6.5,2.1-7.2,8.8H601.9z"/>
	<path class="st8" d="M620.6,830.7h9.4l0.2,4.1c2.6-1.9,7.7-4.5,12.3-4.7c8-0.3,11.8,3.7,11.8,14.7v23.7h-10.4V847
		c0-6.2-1.2-8.4-5.6-8.2c-1.9,0-5.1,0.9-7.4,2.9v26.9h-10.4L620.6,830.7L620.6,830.7z"/>
	<path class="st8" d="M681.7,830.2c4.7,0,8.6,1,9.8,1.9l-1.3,8c-1.8-1-4-1.5-7.5-1.5c-4.3,0-9.5,2.6-9.7,10.2
		c-0.2,8.2,3.9,12,9.3,12c3.5,0,6.7-0.7,8.2-1.6l1.5,6.1c-2.3,2.3-6.8,3.8-11.6,3.8c-11.8,0-17.7-8.2-17.7-19
		C662.8,839,668.9,830.2,681.7,830.2z"/>
	<path class="st8" d="M715.7,830.2c7.8-0.1,14.9,3.8,15,14.8c0,2.9-0.1,5.4-0.4,7.1h-22.4c0.4,6.4,4.3,9.3,10.1,9.3
		c2.7,0,7.7-0.9,9.7-2l1.7,5.9c-2.5,2-8.2,3.8-14,3.8c-11.6,0-17.9-7.3-17.9-19.6C697.6,838.5,704.1,830.3,715.7,830.2z
		 M721.1,846.4c0.3-5.5-1.1-8.8-5.7-8.8c-3.8,0-6.5,2.1-7.2,8.8H721.1z"/>
	<path class="st8" d="M769.4,842.4c-2.4-3.3-4.7-6.9-4.7-12.6c0-7.9,5.8-12.6,14.7-12.6c8.5,0,13.7,5.5,13.7,12.1
		c0,8.3-4.2,12.2-10.7,15.5c2.3,3,6.2,7.8,9.5,11.2c1.5-1.7,2.4-4.1,2.4-6.6c0-3.1-0.6-5-0.8-6h8.6c0.2,1,0.7,2.9,0.7,6
		c0,5.4-1.8,9.3-4.5,12.1c1.8,1.1,3.7,1.5,6.6,1.6v5.5c-1.1,0.3-2.7,0.5-4.7,0.5c-4,0-6.8-0.9-9.3-2.4c-3.1,1.3-6.7,2.4-10.3,2.4
		c-14.3,0-21.5-4.9-21.5-13.8C759.1,849.4,763.5,845.1,769.4,842.4z M779,861.4c2.2,0,3.8-0.2,5.2-0.5c-3.4-3.8-7.6-8.8-10.5-12.5
		c-3.1,1.6-4.8,3.7-4.8,6.4C768.9,858.8,771.6,861.4,779,861.4z M784.6,829.4c0-2.2-1.4-5.2-5.1-5.2c-3.3,0-5.5,2.1-5.5,5.4
		c0,3.7,1.3,5.3,4.2,9.4C782.1,836.9,784.6,834.2,784.6,829.4z"/>
	<path class="st8" d="M836.6,837.9h-4.5v-5.6c3.3-1,5.2-1.4,6.1-3.6c0.6-1.5,1.6-4.2,2.5-6.6h6.3v8.6h10.3v7.2H847v15.2
		c0,7.7,1.1,8.2,4.3,8.2c1.8,0,4.7-0.7,5.9-1.6l1.3,5.8c-1.8,1.6-6.2,3.6-11.4,3.6c-7.5,0-10.5-3.3-10.5-11.8L836.6,837.9
		L836.6,837.9z"/>
	<path class="st8" d="M881.2,830.2c7.8-0.1,14.9,3.8,15,14.8c0,2.9-0.1,5.4-0.4,7.1h-22.4c0.4,6.4,4.3,9.3,10.1,9.3
		c2.7,0,7.7-0.9,9.7-2l1.7,5.9c-2.5,2-8.2,3.8-14,3.8c-11.6,0-17.9-7.3-17.9-19.6C863.1,838.5,869.6,830.3,881.2,830.2z
		 M886.6,846.4c0.3-5.5-1.1-8.8-5.7-8.8c-3.8,0-6.5,2.1-7.2,8.8H886.6z"/>
	<path class="st8" d="M921.5,830.2c4.7,0,8.6,1,9.8,1.9l-1.3,8c-1.8-1-4-1.5-7.5-1.5c-4.3,0-9.5,2.6-9.7,10.2
		c-0.2,8.2,3.9,12,9.3,12c3.5,0,6.7-0.7,8.2-1.6l1.5,6.1c-2.3,2.3-6.8,3.8-11.6,3.8c-11.8,0-17.7-8.2-17.7-19
		C902.6,839,908.6,830.2,921.5,830.2z"/>
	<path class="st8" d="M939.8,813.4h10.4v14.5l-0.6,6.7c2.6-2.2,7.4-4.4,11.6-4.6c8.4-0.3,12.6,3.9,12.6,14.9v23.6h-10.4V847
		c0-6.2-1.4-8.3-5.7-8.2c-1.9,0-5.2,0.8-7.5,2.9v26.9h-10.4L939.8,813.4L939.8,813.4z"/>
	<path class="st8" d="M984.9,830.7h9.4l0.2,4.1c2.6-1.9,7.7-4.5,12.3-4.7c8-0.3,11.8,3.7,11.8,14.7v23.7h-10.4V847
		c0-6.2-1.2-8.4-5.6-8.2c-1.9,0-5.1,0.9-7.4,2.9v26.9h-10.4v-37.9H984.9z"/>
	<path class="st8" d="M1046,830.2c13.3,0,18.2,9.5,18.1,20.3c-0.2,12.2-8,18.7-18.8,18.7c-13.3,0-18.2-9.5-18.1-20.3
		C1027.4,836.7,1035.2,830.2,1046,830.2z M1053.3,850c0-6.4-2.1-12.3-7.6-12.4c-5.5,0-7.8,4.2-7.8,11.6c0,6.6,2.2,12.6,7.6,12.7
		C1051,861.9,1053.3,857.6,1053.3,850z"/>
	<path class="st8" d="M1073.2,813.4h10.4v55.2h-10.4V813.4z"/>
	<path class="st8" d="M1111.5,830.2c13.3,0,18.2,9.5,18.1,20.3c-0.2,12.2-8,18.7-18.8,18.7c-13.3,0-18.2-9.5-18.1-20.3
		C1092.9,836.7,1100.7,830.2,1111.5,830.2z M1118.8,850c0-6.4-2.1-12.3-7.6-12.4c-5.5,0-7.8,4.2-7.8,11.6c0,6.6,2.2,12.6,7.6,12.7
		C1116.5,861.9,1118.8,857.6,1118.8,850z"/>
	<path class="st8" d="M1141.6,866.8c-2.3-1.2-3.1-3.6-3.1-5.8c0-2.6,1.4-5.7,6-7.6c-4.8-2.1-7.8-5.9-7.8-10.5
		c0-8.8,6.5-12.5,16.4-12.7c4.9-0.1,9.1,0.8,12,2.8c1.2-1,3.3-2.2,6.1-2.2h4.2v7.5h-6.3c0.4,1.3,0.7,2.7,0.7,4.3
		c0,8.2-6.2,12.5-16.8,12.5c-1.2,0-2.3-0.1-3.3-0.2c-0.9,0.8-1.4,1.9-1.4,3.1c0,2.2,1.3,2.7,4.5,2.7h6.3c12.4,0,14.6,6,14.6,11.5
		c0,9-9.7,13.9-20,13.7c-11.4-0.1-18-3.9-18-11.1C1135.8,871,1138.3,868.3,1141.6,866.8z M1154.2,879.6c5.6,0,9.3-1.6,9.3-5.6
		c0-3.5-1-5.4-8.6-5.4h-5.4c-0.7,0-1.4,0-2.1-0.1c-0.8,0.7-1.4,1.8-1.4,3.9C1146.1,876.1,1148.1,879.6,1154.2,879.6z M1160.1,842.9
		c0-4.1-2.2-6.2-6.4-6.2c-3.9,0-6.9,1.3-6.9,6.1c0,3.7,2.2,5.9,6.4,5.9C1157.1,848.7,1160.1,847.6,1160.1,842.9z"/>
	<path class="st8" d="M1183.8,877.1c3.3,0,7.9,0,10.1-8.5h-4.4l-12.8-37.9h11.2l5.7,20.2l2.8,11l2.6-11l4.6-20.2h11.1l-11.8,38.8
		c-2.8,9.2-7.7,13.6-12.7,15.1c-1.2,0.4-4,0.7-5,0.7s-4.6-0.4-5-0.6v-8.3C1180.8,876.6,1183.1,877.1,1183.8,877.1z"/>
</g>
</svg>
