<?xml version="1.0" encoding="utf-8"?>
<!-- Generator: Adobe Illustrator 21.1.0, SVG Export Plug-In . SVG Version: 6.00 Build 0)  -->
<svg version="1.1" id="Livello_1" xmlns="http://www.w3.org/2000/svg" xmlns:xlink="http://www.w3.org/1999/xlink" x="0px" y="0px"
	 viewBox="0 0 1920 1080" style="enable-background:new 0 0 1920 1080;" xml:space="preserve">
<style type="text/css">
	.st0{opacity:0.8;fill:#2D336D;enable-background:new    ;}
	.st1{opacity:0.6;fill:#95A6AD;enable-background:new    ;}
	.st2{opacity:0.8;fill:#071443;enable-background:new    ;}
	.st3{opacity:0.6;fill:#8DD3C8;enable-background:new    ;}
	.st4{display:none;opacity:0.8;fill:#071443;enable-background:new    ;}
	.st5{opacity:0.8;fill:#3B9CAB;enable-background:new    ;}
	.st6{fill:#071443;}
	.st7{font-family:'MerriweatherSans-Bold';}
	.st8{font-size:68px;}
	.st9{enable-background:new    ;}
	.st10{opacity:0.6;fill:#4F84B5;enable-background:new    ;}
	.st11{fill:none;stroke:#FF613F;stroke-width:10;stroke-miterlimit:10;}
	.st12{opacity:0.8;}
	.st13{fill:#59A0AB;}
	.st14{fill:#3B9CAB;}
	.st15{fill:#6C9A94;}
	.st16{fill:#474868;}
	.st17{opacity:0.9;}
	.st18{fill:#95A6AD;}
	.st19{fill:#CCCCCC;}
	.st20{opacity:0.6;}
	.st21{fill:#061246;}
	.st22{fill:none;}
	.st23{fill:#76D5C8;}
</style>
<g>
	<path class="st0" d="M1765.5-80C1603.4-80,1472,51.4,1472,213.5c0,121.4,73.7,225.6,178.9,270.3c-0.8,7.5-2.4,15-4.8,22.4
		c-5,15.4-13.2,28.8-23.6,39.9c31-3.3,59.4-20.2,77.1-46.5c21.2,4.9,43.2,7.4,65.9,7.4c162.1,0,293.5-131.4,293.5-293.5
		S1927.6-80,1765.5-80z"/>
	<path class="st1" d="M1688,300c0-133.7-108.3-242-242-242s-242,108.3-242,242c0,126.2,96.5,229.8,219.8,241
		c0.8,12.8-0.1,25.9-2.9,39.1c-4.5,21.1-13.4,40.2-25.6,56.4c50.3-10.9,92.4-48.9,106.9-101C1608.7,510.1,1688,414.3,1688,300z"/>
	<circle class="st2" cx="1626" cy="112" r="57"/>
	<circle class="st2" cx="1815" cy="49" r="57"/>
	<circle class="st2" cx="1415" cy="440" r="57"/>
	<path class="st3" d="M627,492c0-114.9-93.1-208-208-208s-208,93.1-208,208c0,105.9,79.2,193.3,181.6,206.3c2.4,2.4,4.9,4.8,7.5,7
		c42.3,36.6,100,43.9,148.3,23.6c-17.7-5.8-34.6-15.1-49.6-28.1c-4.4-3.8-8.6-7.9-12.4-12.1C568.2,660.8,627,583.3,627,492z"/>
	<circle class="st4" cx="619" cy="488" r="57"/>
	<path class="st5" d="M771,308.4c0-65.1-52.7-117.8-117.8-117.8c-17.7,0-34.4,3.9-49.5,10.9c-6.9-2.4-14.3-3.8-22.1-3.8
		c-36.9,0-66.8,29.9-66.8,66.8c0,9.7,2.1,18.9,5.8,27.3c-22.6,21.5-36.7,51.8-36.7,85.4c0,65.1,52.7,117.8,117.8,117.8
		c54.2,0,99.9-36.7,113.6-86.5C748.8,387.7,771,350.6,771,308.4z"/>
	<text transform="matrix(1 0 0 1 358.5871 987.1836)" class="st6 st7 st8">for science &amp; technology</text>
	<g class="st9">
		<path class="st6" d="M107.4,856.1c7.3,0,10.6,1.4,13.7,2l-1.5,9.3c-1.8-1-4.7-2.9-11.6-2.9c-8.2,0-14.5,6.3-14.5,16.9
			c0,10.5,5.7,18.2,15.3,18.2c4.6,0,10-1.9,11.7-3.2v8.7c-2.9,1.2-6.6,2.7-12.8,2.7c-15.6,0-25.2-10.4-25.2-25.7
			C82.6,865.3,93.6,856.1,107.4,856.1z"/>
		<path class="st6" d="M144.4,868.8c13.3,0,18.2,9.5,18.1,20.3c-0.2,12.2-8,18.7-18.8,18.7c-13.3,0-18.2-9.5-18.1-20.3
			C125.8,875.3,133.6,868.8,144.4,868.8z M151.7,888.6c0-6.4-2.1-12.3-7.6-12.4c-5.5,0-7.8,4.2-7.8,11.6c0,6.6,2.2,12.6,7.6,12.7
			C149.4,900.5,151.7,896.2,151.7,888.6z"/>
		<path class="st6" d="M171.4,869.3h9.4l0.2,4.1c2.6-1.9,7.7-4.6,12.3-4.7s7.9,1.2,9.8,4.6c2.3-1.8,7.4-4.5,12.8-4.6
			c7.8-0.1,12.3,3.6,12.3,14.7v23.8h-10.4v-21.5c0-6.2-1-8.3-5.5-8.2c-2.6,0-5.5,1.3-7.4,2.8c0.1,1.1,0.2,2.2,0.2,3.5v23.5h-10.4
			v-21.5c0-6.2-1.1-8.3-5.4-8.2c-1.9,0-5.2,0.9-7.5,2.9v26.9h-10.4L171.4,869.3L171.4,869.3z"/>
		<path class="st6" d="M239.4,869.3h9.4l0.2,4.1c2.6-1.9,7.7-4.6,12.3-4.7s7.9,1.2,9.8,4.6c2.3-1.8,7.4-4.5,12.8-4.6
			c7.8-0.1,12.3,3.6,12.3,14.7v23.8h-10.4v-21.5c0-6.2-1-8.3-5.5-8.2c-2.6,0-5.5,1.3-7.4,2.8c0.1,1.1,0.2,2.2,0.2,3.5v23.5h-10.4
			v-21.5c0-6.2-1.1-8.3-5.4-8.2c-1.9,0-5.2,0.9-7.5,2.9v26.9h-10.4V869.3z"/>
		<path class="st6" d="M307,869.3h10.4v22c0,7.3,1.8,8.4,5.8,8.4c2.4,0,5.2-1.3,6.3-2.2v-28.3h10.4v38.4H333c-1.6,0-2.5-0.3-2.5-1.9
			V904c-2.8,2-7.4,3.6-11.1,3.6c-10.8,0-12.5-6.5-12.5-16.3v-22H307z"/>
		<path class="st6" d="M351.4,869.3h9.4l0.2,4.1c2.6-1.9,7.7-4.5,12.3-4.7c8-0.3,11.8,3.7,11.8,14.7v23.7h-10.4v-21.5
			c0-6.2-1.2-8.4-5.6-8.2c-1.9,0-5.1,0.9-7.4,2.9v26.9h-10.4v-37.9H351.4z"/>
		<path class="st6" d="M395.4,858.1c0-3.4,3.2-6.2,6.6-6.2c3.7,0,6,2.4,6,5.6c0,3.4-3.1,6.2-6.6,6.2
			C398,863.8,395.4,861.4,395.4,858.1z M396.3,869.3h10.4v37.9h-10.4V869.3z"/>
		<path class="st6" d="M434.5,868.8c4.7,0,8.6,1,9.8,1.9l-1.3,8c-1.8-1-4-1.5-7.5-1.5c-4.3,0-9.5,2.6-9.7,10.2
			c-0.2,8.2,3.9,12,9.3,12c3.5,0,6.7-0.7,8.2-1.6l1.5,6.1c-2.3,2.3-6.8,3.8-11.6,3.8c-11.8,0-17.7-8.2-17.7-19
			C415.6,877.6,421.6,868.8,434.5,868.8z"/>
		<path class="st6" d="M457.2,885.9c4.2-1.9,10.4-2.2,15.2-2.2v-2.4c0-4.1-1.1-4.8-7.5-4.8c-2,0-7.2,1.2-10.4,2.7l-2.3-6.6
			c2.4-1.5,9.2-4,15.2-4c10.5,0,15.4,2.9,15.4,13.8v25.3h-6c-2.5,0-3.9-0.2-3.9-3.5V904c-2,1.9-5.4,3.7-9.9,3.7
			c-7.4,0-12.4-5.2-12.4-12.3C450.6,890.8,453.1,887.8,457.2,885.9z M466.5,900.7c2.3,0,5.2-1.2,5.9-2.1v-9c-2.5,0-6.2,0.6-7.8,1.4
			c-1.6,0.6-3.3,1.6-3.3,4.4C461.3,899,463.5,900.7,466.5,900.7z"/>
		<path class="st6" d="M494.8,876.5h-4.5v-5.6c3.3-1,5.2-1.4,6.1-3.6c0.6-1.5,1.6-4.2,2.5-6.6h6.3v8.6h10.3v7.2h-10.3v15.2
			c0,7.7,1.1,8.2,4.3,8.2c1.8,0,4.7-0.7,5.9-1.6l1.3,5.8c-1.8,1.6-6.2,3.6-11.4,3.6c-7.5,0-10.5-3.3-10.5-11.8L494.8,876.5
			L494.8,876.5z"/>
		<path class="st6" d="M523,858.1c0-3.4,3.2-6.2,6.6-6.2c3.7,0,6,2.4,6,5.6c0,3.4-3.1,6.2-6.6,6.2C525.7,863.8,523,861.4,523,858.1z
			 M523.9,869.3h10.4v37.9h-10.4V869.3z"/>
		<path class="st6" d="M562,868.8c13.3,0,18.2,9.5,18.1,20.3c-0.2,12.2-8,18.7-18.8,18.7c-13.3,0-18.2-9.5-18.1-20.3
			C543.4,875.3,551.3,868.8,562,868.8z M569.4,888.6c0-6.4-2.1-12.3-7.6-12.4c-5.5,0-7.8,4.2-7.8,11.6c0,6.6,2.2,12.6,7.6,12.7
			C567,900.5,569.4,896.2,569.4,888.6z"/>
		<path class="st6" d="M589.1,869.3h9.4l0.2,4.1c2.6-1.9,7.7-4.5,12.3-4.7c8-0.3,11.8,3.7,11.8,14.7v23.7h-10.4v-21.5
			c0-6.2-1.2-8.4-5.6-8.2c-1.9,0-5.1,0.9-7.4,2.9v26.9H589v-37.9H589.1z"/>
		<path class="st6" d="M663.6,881c-2.4-3.3-4.7-6.9-4.7-12.6c0-7.9,5.8-12.6,14.7-12.6c8.5,0,13.7,5.5,13.7,12.1
			c0,8.3-4.2,12.2-10.7,15.5c2.3,3,6.2,7.8,9.5,11.2c1.5-1.7,2.4-4.1,2.4-6.6c0-3.1-0.6-5-0.8-6h8.6c0.2,1,0.7,2.9,0.7,6
			c0,5.4-1.8,9.3-4.5,12.1c1.8,1.1,3.7,1.5,6.6,1.6v5.5c-1.1,0.3-2.7,0.5-4.7,0.5c-4,0-6.8-0.9-9.3-2.4c-3.1,1.3-6.7,2.4-10.3,2.4
			c-14.3,0-21.5-4.9-21.5-13.8C653.3,888,657.7,883.7,663.6,881z M673.2,900c2.2,0,3.8-0.2,5.2-0.5c-3.4-3.8-7.6-8.8-10.5-12.5
			c-3.1,1.6-4.8,3.7-4.8,6.4C663.1,897.4,665.8,900,673.2,900z M678.8,868c0-2.2-1.4-5.2-5.1-5.2c-3.3,0-5.5,2.1-5.5,5.4
			c0,3.7,1.3,5.3,4.2,9.4C676.3,875.5,678.8,872.8,678.8,868z"/>
		<path class="st6" d="M746.2,868.8c2.6,0,4.7,0.5,6.2,1.1l-0.1-3.3V852h10.4v55.7h-7c-1.5,0-2.5-0.2-2.5-1.9v-2.6
			c-1.7,1.8-4.9,4.5-11.1,4.5c-8,0-15.1-5.9-15.1-18.2C726.9,876.9,734.7,868.8,746.2,868.8z M752.3,897.7v-20.4
			c-1.4-1-3.6-1.1-5.8-1.1c-4.9,0-8.6,4.1-8.7,12.5c-0.1,8.4,2.9,11,7.4,11C748.1,899.6,750.8,898.7,752.3,897.7z"/>
		<path class="st6" d="M773.2,858.1c0-3.4,3.2-6.2,6.6-6.2c3.7,0,6,2.4,6,5.6c0,3.4-3.1,6.2-6.6,6.2
			C775.8,863.8,773.2,861.4,773.2,858.1z M774,869.3h10.4v37.9H774V869.3z"/>
		<path class="st6" d="M795,897.1c1.1,0.9,6,3,10.9,3c4.1,0,5.9-0.8,5.9-3.2c0-2.2-2.7-3.8-8.2-5.6c-6.9-2.3-9.6-6.2-9.5-11.7
			c0-7.2,6.5-10.9,15.3-10.9c5.4,0,9.3,1.4,10.7,2.2l-1.1,8c-1.5-1.3-5.3-2.6-8.5-2.6c-4.5,0-6.4,0.9-6.4,3c0,2.4,1.9,3.5,7.4,5.3
			c7.7,2.6,10.6,5.8,10.6,11.4c0,7.8-5.7,11.6-14.8,11.6c-5.5,0-11.2-1.6-13.2-2.9L795,897.1z"/>
		<path class="st6" d="M829.8,897.1c1.1,0.9,6,3,10.9,3c4.1,0,5.9-0.8,5.9-3.2c0-2.2-2.7-3.8-8.2-5.6c-6.9-2.3-9.6-6.2-9.5-11.7
			c0-7.2,6.5-10.9,15.3-10.9c5.4,0,9.3,1.4,10.7,2.2l-1.1,8c-1.5-1.3-5.3-2.6-8.5-2.6c-4.5,0-6.4,0.9-6.4,3c0,2.4,1.9,3.5,7.4,5.3
			c7.7,2.6,10.6,5.8,10.6,11.4c0,7.8-5.7,11.6-14.8,11.6c-5.5,0-11.2-1.6-13.2-2.9L829.8,897.1z"/>
		<path class="st6" d="M881,868.8c7.8-0.1,14.9,3.8,15,14.8c0,2.9-0.1,5.4-0.4,7.1h-22.4c0.4,6.4,4.3,9.3,10.1,9.3
			c2.7,0,7.7-0.9,9.7-2l1.7,5.9c-2.5,2-8.2,3.8-14,3.8c-11.6,0-17.9-7.3-17.9-19.6C862.9,877.1,869.4,868.9,881,868.8z M886.4,885
			c0.3-5.5-1.1-8.8-5.7-8.8c-3.8,0-6.5,2.1-7.2,8.8H886.4z"/>
		<path class="st6" d="M905,869.3h9.4l0.2,4.1c2.6-1.9,7.7-4.6,12.3-4.7s7.9,1.2,9.8,4.6c2.3-1.8,7.4-4.5,12.8-4.6
			c7.8-0.1,12.3,3.6,12.3,14.7v23.8h-10.4v-21.5c0-6.2-1-8.3-5.5-8.2c-2.6,0-5.5,1.3-7.4,2.8c0.1,1.1,0.2,2.2,0.2,3.5v23.5h-10.4
			v-21.5c0-6.2-1.1-8.3-5.4-8.2c-1.9,0-5.2,0.9-7.5,2.9v26.9H905V869.3z"/>
		<path class="st6" d="M972.2,858.1c0-3.4,3.2-6.2,6.6-6.2c3.7,0,6,2.4,6,5.6c0,3.4-3.1,6.2-6.6,6.2
			C974.8,863.8,972.2,861.4,972.2,858.1z M973,869.3h10.4v37.9H973V869.3z"/>
		<path class="st6" d="M994.9,869.3h9.4l0.2,4.1c2.6-1.9,7.7-4.5,12.3-4.7c8-0.3,11.8,3.7,11.8,14.7v23.7h-10.4v-21.5
			c0-6.2-1.2-8.4-5.6-8.2c-1.9,0-5.1,0.9-7.4,2.9v26.9h-10.4L994.9,869.3L994.9,869.3z"/>
		<path class="st6" d="M1044,885.9c4.2-1.9,10.4-2.2,15.2-2.2v-2.4c0-4.1-1.1-4.8-7.5-4.8c-2,0-7.2,1.2-10.4,2.7l-2.3-6.6
			c2.4-1.5,9.2-4,15.2-4c10.5,0,15.4,2.9,15.4,13.8v25.3h-6c-2.5,0-3.9-0.2-3.9-3.5V904c-2,1.9-5.4,3.7-9.9,3.7
			c-7.4,0-12.4-5.2-12.4-12.3C1037.4,890.8,1040,887.8,1044,885.9z M1053.3,900.7c2.3,0,5.2-1.2,5.9-2.1v-9c-2.5,0-6.2,0.6-7.8,1.4
			c-1.6,0.6-3.3,1.6-3.3,4.4C1048.1,899,1050.4,900.7,1053.3,900.7z"/>
		<path class="st6" d="M1081.7,876.5h-4.5v-5.6c3.3-1,5.2-1.4,6.1-3.6c0.6-1.5,1.6-4.2,2.5-6.6h6.3v8.6h10.3v7.2H1092v15.2
			c0,7.7,1.1,8.2,4.3,8.2c1.8,0,4.7-0.7,5.9-1.6l1.3,5.8c-1.8,1.6-6.2,3.6-11.4,3.6c-7.5,0-10.5-3.3-10.5-11.8L1081.7,876.5
			L1081.7,876.5z"/>
		<path class="st6" d="M1109.9,858.1c0-3.4,3.2-6.2,6.6-6.2c3.7,0,6,2.4,6,5.6c0,3.4-3.1,6.2-6.6,6.2
			C1112.5,863.8,1109.9,861.4,1109.9,858.1z M1110.7,869.3h10.4v37.9h-10.4V869.3z"/>
		<path class="st6" d="M1148.9,868.8c13.3,0,18.2,9.5,18.1,20.3c-0.2,12.2-8,18.7-18.8,18.7c-13.3,0-18.2-9.5-18.1-20.3
			C1130.3,875.3,1138.1,868.8,1148.9,868.8z M1156.2,888.6c0-6.4-2.1-12.3-7.6-12.4c-5.5,0-7.8,4.2-7.8,11.6
			c0,6.6,2.2,12.6,7.6,12.7C1153.9,900.5,1156.2,896.2,1156.2,888.6z"/>
		<path class="st6" d="M1175.9,869.3h9.4l0.2,4.1c2.6-1.9,7.7-4.5,12.3-4.7c8-0.3,11.8,3.7,11.8,14.7v23.7h-10.4v-21.5
			c0-6.2-1.2-8.4-5.6-8.2c-1.9,0-5.1,0.9-7.4,2.9v26.9h-10.4L1175.9,869.3L1175.9,869.3z"/>
	</g>
	<g class="st9">
		<path class="st6" d="M366.5,956.5h-5.1v-6l5.1-1.1v-3.6c0-11.1,7.6-14.4,14.1-14.4c2.9,0,5.9,0.5,6.7,0.7v7.4
			c-1-0.5-2.6-0.8-5.2-0.8c-3.2,0-5.3,2.3-5.3,6.9v3.9h8.8v7.2h-8.8v30.7h-10.4L366.5,956.5L366.5,956.5z"/>
		<path class="st6" d="M409.1,948.8c13.3,0,18.2,9.5,18.1,20.3c-0.2,12.2-8,18.7-18.8,18.7c-13.3,0-18.2-9.5-18.1-20.3
			C390.5,955.3,398.3,948.8,409.1,948.8z M416.4,968.6c0-6.4-2.1-12.3-7.6-12.4c-5.5,0-7.8,4.2-7.8,11.6c0,6.6,2.2,12.6,7.6,12.7
			C414.1,980.5,416.4,976.2,416.4,968.6z"/>
		<path class="st6" d="M435.6,949.3h9.2l0.5,5.2c1.6-2.8,5.9-5.8,10.7-5.8c1.3,0,2.3,0.1,3,0.5v10c-0.7-0.4-1.8-0.9-4.5-0.9
			c-4.2,0-6.8,1.9-8.4,3.4v25.5h-10.4v-37.9H435.6z"/>
		<path class="st6" d="M488.1,977.1c1.1,0.9,6,3,10.9,3c4.1,0,5.9-0.8,5.9-3.2c0-2.2-2.7-3.8-8.2-5.6c-6.9-2.3-9.6-6.2-9.5-11.7
			c0-7.2,6.5-10.9,15.3-10.9c5.4,0,9.3,1.4,10.7,2.2l-1.1,8c-1.5-1.3-5.3-2.6-8.5-2.6c-4.5,0-6.4,0.9-6.4,3c0,2.4,1.9,3.5,7.4,5.3
			c7.7,2.6,10.6,5.8,10.6,11.4c0,7.8-5.7,11.6-14.8,11.6c-5.5,0-11.2-1.6-13.2-2.9L488.1,977.1z"/>
		<path class="st6" d="M540.1,948.8c4.7,0,8.6,1,9.8,1.9l-1.3,8c-1.8-1-4-1.5-7.5-1.5c-4.3,0-9.5,2.6-9.7,10.2
			c-0.2,8.2,3.9,12,9.3,12c3.5,0,6.7-0.7,8.2-1.6l1.5,6.1c-2.3,2.3-6.8,3.8-11.6,3.8c-11.8,0-17.7-8.2-17.7-19
			C521.2,957.6,527.3,948.8,540.1,948.8z"/>
		<path class="st6" d="M557.8,938.1c0-3.4,3.2-6.2,6.6-6.2c3.7,0,6,2.4,6,5.6c0,3.4-3.1,6.2-6.6,6.2
			C560.4,943.8,557.8,941.4,557.8,938.1z M558.6,949.3H569v37.9h-10.4V949.3z"/>
		<path class="st6" d="M596,948.8c7.8-0.1,14.9,3.8,15,14.8c0,2.9-0.1,5.4-0.4,7.1h-22.4c0.4,6.4,4.3,9.3,10.1,9.3
			c2.7,0,7.7-0.9,9.7-2l1.7,5.9c-2.5,2-8.2,3.8-14,3.8c-11.6,0-17.9-7.3-17.9-19.6C577.9,957.1,584.4,948.9,596,948.8z M601.4,965
			c0.3-5.5-1.1-8.8-5.7-8.8c-3.8,0-6.5,2.1-7.2,8.8H601.4z"/>
		<path class="st6" d="M620.1,949.3h9.4l0.2,4.1c2.6-1.9,7.7-4.5,12.3-4.7c8-0.3,11.8,3.7,11.8,14.7v23.7h-10.4v-21.5
			c0-6.2-1.2-8.4-5.6-8.2c-1.9,0-5.1,0.9-7.4,2.9v26.9H620v-37.9H620.1z"/>
		<path class="st6" d="M681.2,948.8c4.7,0,8.6,1,9.8,1.9l-1.3,8c-1.8-1-4-1.5-7.5-1.5c-4.3,0-9.5,2.6-9.7,10.2
			c-0.2,8.2,3.9,12,9.3,12c3.5,0,6.7-0.7,8.2-1.6l1.5,6.1c-2.3,2.3-6.8,3.8-11.6,3.8c-11.8,0-17.7-8.2-17.7-19
			C662.3,957.6,668.4,948.8,681.2,948.8z"/>
		<path class="st6" d="M715.2,948.8c7.8-0.1,14.9,3.8,15,14.8c0,2.9-0.1,5.4-0.4,7.1h-22.4c0.4,6.4,4.3,9.3,10.1,9.3
			c2.7,0,7.7-0.9,9.7-2l1.7,5.9c-2.5,2-8.2,3.8-14,3.8c-11.6,0-17.9-7.3-17.9-19.6C697.1,957.1,703.6,948.9,715.2,948.8z M720.6,965
			c0.3-5.5-1.1-8.8-5.7-8.8c-3.8,0-6.5,2.1-7.2,8.8H720.6z"/>
		<path class="st6" d="M768.9,961c-2.4-3.3-4.7-6.9-4.7-12.6c0-7.9,5.8-12.6,14.7-12.6c8.5,0,13.7,5.5,13.7,12.1
			c0,8.3-4.2,12.2-10.7,15.5c2.3,3,6.2,7.8,9.5,11.2c1.5-1.7,2.4-4.1,2.4-6.6c0-3.1-0.6-5-0.8-6h8.6c0.2,1,0.7,2.9,0.7,6
			c0,5.4-1.8,9.3-4.5,12.1c1.8,1.1,3.7,1.5,6.6,1.6v5.5c-1.1,0.3-2.7,0.5-4.7,0.5c-4,0-6.8-0.9-9.3-2.4c-3.1,1.3-6.7,2.4-10.3,2.4
			c-14.3,0-21.5-4.9-21.5-13.8C758.6,968,763,963.7,768.9,961z M778.5,980c2.2,0,3.8-0.2,5.2-0.5c-3.4-3.8-7.6-8.8-10.5-12.5
			c-3.1,1.6-4.8,3.7-4.8,6.4C768.4,977.4,771.1,980,778.5,980z M784.1,948c0-2.2-1.4-5.2-5.1-5.2c-3.3,0-5.5,2.1-5.5,5.4
			c0,3.7,1.3,5.3,4.2,9.4C781.6,955.5,784.1,952.8,784.1,948z"/>
		<path class="st6" d="M836.1,956.5h-4.5v-5.6c3.3-1,5.2-1.4,6.1-3.6c0.6-1.5,1.6-4.2,2.5-6.6h6.3v8.6h10.3v7.2h-10.3v15.2
			c0,7.7,1.1,8.2,4.3,8.2c1.8,0,4.7-0.7,5.9-1.6l1.3,5.8c-1.8,1.6-6.2,3.6-11.4,3.6c-7.5,0-10.5-3.3-10.5-11.8L836.1,956.5
			L836.1,956.5z"/>
		<path class="st6" d="M880.7,948.8c7.8-0.1,14.9,3.8,15,14.8c0,2.9-0.1,5.4-0.4,7.1h-22.4c0.4,6.4,4.3,9.3,10.1,9.3
			c2.7,0,7.7-0.9,9.7-2l1.7,5.9c-2.5,2-8.2,3.8-14,3.8c-11.6,0-17.9-7.3-17.9-19.6C862.6,957.1,869.1,948.9,880.7,948.8z M886.1,965
			c0.3-5.5-1.1-8.8-5.7-8.8c-3.8,0-6.5,2.1-7.2,8.8H886.1z"/>
		<path class="st6" d="M921,948.8c4.7,0,8.6,1,9.8,1.9l-1.3,8c-1.8-1-4-1.5-7.5-1.5c-4.3,0-9.5,2.6-9.7,10.2c-0.2,8.2,3.9,12,9.3,12
			c3.5,0,6.7-0.7,8.2-1.6l1.5,6.1c-2.3,2.3-6.8,3.8-11.6,3.8c-11.8,0-17.7-8.2-17.7-19C902.1,957.6,908.1,948.8,921,948.8z"/>
		<path class="st6" d="M939.3,932h10.4v14.5l-0.6,6.7c2.6-2.2,7.4-4.4,11.6-4.6c8.4-0.3,12.6,3.9,12.6,14.9v23.6h-10.4v-21.5
			c0-6.2-1.4-8.3-5.7-8.2c-1.9,0-5.2,0.8-7.5,2.9v26.9h-10.4L939.3,932L939.3,932z"/>
		<path class="st6" d="M984.4,949.3h9.4l0.2,4.1c2.6-1.9,7.7-4.5,12.3-4.7c8-0.3,11.8,3.7,11.8,14.7v23.7h-10.4v-21.5
			c0-6.2-1.2-8.4-5.6-8.2c-1.9,0-5.1,0.9-7.4,2.9v26.9h-10.4v-37.9H984.4z"/>
		<path class="st6" d="M1045.5,948.8c13.3,0,18.2,9.5,18.1,20.3c-0.2,12.2-8,18.7-18.8,18.7c-13.3,0-18.2-9.5-18.1-20.3
			C1026.9,955.3,1034.7,948.8,1045.5,948.8z M1052.8,968.6c0-6.4-2.1-12.3-7.6-12.4c-5.5,0-7.8,4.2-7.8,11.6
			c0,6.6,2.2,12.6,7.6,12.7C1050.5,980.5,1052.8,976.2,1052.8,968.6z"/>
		<path class="st6" d="M1072.7,932h10.4v55.2h-10.4V932z"/>
		<path class="st6" d="M1111,948.8c13.3,0,18.2,9.5,18.1,20.3c-0.2,12.2-8,18.7-18.8,18.7c-13.3,0-18.2-9.5-18.1-20.3
			C1092.4,955.3,1100.2,948.8,1111,948.8z M1118.3,968.6c0-6.4-2.1-12.3-7.6-12.4c-5.5,0-7.8,4.2-7.8,11.6c0,6.6,2.2,12.6,7.6,12.7
			C1116,980.5,1118.3,976.2,1118.3,968.6z"/>
		<path class="st6" d="M1141.1,985.4c-2.3-1.2-3.1-3.6-3.1-5.8c0-2.6,1.4-5.7,6-7.6c-4.8-2.1-7.8-5.9-7.8-10.5
			c0-8.8,6.5-12.5,16.4-12.7c4.9-0.1,9.1,0.8,12,2.8c1.2-1,3.3-2.2,6.1-2.2h4.2v7.5h-6.3c0.4,1.3,0.7,2.7,0.7,4.3
			c0,8.2-6.2,12.5-16.8,12.5c-1.2,0-2.3-0.1-3.3-0.2c-0.9,0.8-1.4,1.9-1.4,3.1c0,2.2,1.3,2.7,4.5,2.7h6.3c12.4,0,14.6,6,14.6,11.5
			c0,9-9.7,13.9-20,13.7c-11.4-0.1-18-3.9-18-11.1C1135.3,989.6,1137.8,986.9,1141.1,985.4z M1153.7,998.2c5.6,0,9.3-1.6,9.3-5.6
			c0-3.5-1-5.4-8.6-5.4h-5.4c-0.7,0-1.4,0-2.1-0.1c-0.8,0.7-1.4,1.8-1.4,3.9C1145.6,994.7,1147.6,998.2,1153.7,998.2z M1159.6,961.5
			c0-4.1-2.2-6.2-6.4-6.2c-3.9,0-6.9,1.3-6.9,6.1c0,3.7,2.2,5.9,6.4,5.9C1156.6,967.3,1159.6,966.2,1159.6,961.5z"/>
		<path class="st6" d="M1183.3,995.7c3.3,0,7.9,0,10.1-8.5h-4.4l-12.8-37.9h11.2l5.7,20.2l2.8,11l2.6-11l4.6-20.2h11.1l-11.8,38.8
			c-2.8,9.2-7.7,13.6-12.7,15.1c-1.2,0.4-4,0.7-5,0.7s-4.6-0.4-5-0.6V995C1180.3,995.2,1182.6,995.7,1183.3,995.7z"/>
	</g>
	<path class="st3" d="M1815,1053c-1-25-40-102-46-124c-20.4-74.9-4-88,14-120s42-56,28-131s-90-114.5-162-116
		c-23.5-0.5-78.5,11.5-114.5,53.5s-21,97-22,116s-34,58.4-29.5,69.5c3.5,8.5,15.6,3.5,23.8,11.5c-2.7,1.7-4.8,4.5-4.8,7.5
		c0,7.3,7,9.7,11.5,9.8c0.1,0,0.3,0,0.4,0l0,0c-1.8,0.1-5.6,0.7-6.9,3.1c-2,4-3,10,6,12c0.5,0.1,1,0.1,1.5,0c0,0.2,0,0.3,0,0.5
		c-1.6,54.1,19,48,28,48s33-7,51-2S1617,929,1617,929c12,30-70,124-70,124v94h268C1815,1147,1816,1078,1815,1053z"/>
	<path class="st10" d="M1594.3,1082.7c-0.8-20.6-32.9-83.9-37.8-102c-16.8-61.6-3.3-72.4,11.5-98.7s34.5-46,23-107.7
		s-74-94.1-133.2-95.4c-19.3-0.4-64.5,9.5-94.1,44s-17.3,79.8-18.1,95.4c-0.8,15.6-28,48-24.3,57.1c2.8,7,12.9,2.9,19.6,9.5
		c-2.3,1.4-4,3.7-4,6.1c0,6,5.8,7.9,9.5,8.1c0.1,0,0.2,0,0.3,0l0,0c-1.4,0.1-4.6,0.6-5.6,2.6c-1.6,3.3-2.5,8.2,4.9,9.9
		c0.4,0.1,0.8,0.1,1.2,0c0,0.1,0,0.3,0,0.4c-1.3,44.4,15.6,39.5,23,39.5s27.1-5.8,41.9-1.6c14.8,4.1,19.3,30.8,19.3,30.8
		c9.9,24.7-57.6,102-57.6,102v77.3h220.3C1594.3,1160,1595.2,1103.3,1594.3,1082.7z"/>
	<line class="st11" x1="485" y1="1011.5" x2="1212" y2="1011.5"/>
	<g id="Atom" class="st12">
		<path class="st13" d="M1648.2,253c-5.7-14.9-38.1-26.7-74.3-27.4c14.8-16.7,29.9-26.1,38.6-24.8s8,12.2,7.2,18.9
			c-0.2,1.6,0.9,3,2.5,3.2s3-0.9,3.2-2.5c1.9-14.5-2.4-23.7-12-25.1c-12.2-2-30.6,10.4-46.9,30c-6.3,0.1-12.6,0.7-18.8,1.6
			c-2.2-12.7-1.3-22.9,2.4-27.4c5.2-6.5,14.7-0.8,19.9,3.2c1.3,0.9,3.1,0.5,4-0.8c0.8-1.2,0.6-2.8-0.5-3.8
			c-11.6-8.8-21.7-9.6-27.9-2.1c-5,6.3-6,17.8-3.6,32c-13.5,3-23.5,7.8-27.9,14.4c-2.7,3.7-3.2,8.5-1.4,12.7
			c2.5,5.2,6.5,9.5,11.5,12.3c1.3,0.8,3.1,0.4,4-0.9c0.8-1.3,0.4-3.1-0.9-4c-4-2.2-7.3-5.5-9.5-9.6c-1.1-2.4-0.7-5.3,0.9-7.4
			c3.1-4.5,11.5-9.1,24.3-11.8c1.5,6.2,3.4,12.2,5.7,18.1c-12.3,22.4-16.8,42.7-11.5,53.4c1.9,4.2,5.8,7.1,10.4,7.7
			c0.8,0.1,1.7,0.1,2.5,0c6.4-0.4,12.5-2.6,17.8-6.2c1.3-0.8,1.8-2.6,0.9-4c-0.8-1.3-2.6-1.8-4-0.9l0,0c-4.7,3.5-10.5,5.4-16.5,5.3
			c-2.7-0.3-5-2-6-4.5c-3.4-7-1.5-22.9,9.2-44c2.7,6.2,5.8,12.3,9.2,18.1c13.8,23.7,30.1,39,42.7,40.1h1.2c4.2,0.1,8.1-1.9,10.6-5.2
			c8.8-11,5.4-38.8-8.1-67.7c-0.7-1.4-2.4-2.1-3.8-1.4c-1.4,0.7-2.1,2.4-1.4,3.8c12.2,26.1,16,52.6,8.8,61.6
			c-1.6,2.1-4.3,3.2-6.9,2.9c-8.7-0.6-23.9-12.3-38.2-37c-4.1-7.1-7.7-14.4-10.7-22l0.5-0.8c4-7.1,8.6-13.9,13.6-20.3h1
			c37.8,0,68.1,12.4,72.7,23.9c2.5,6.4-3.6,11.1-9.1,13.9c-1.4,0.7-2,2.5-1.2,3.9c0.7,1.4,2.5,2,3.9,1.2
			C1647.1,268.7,1651.4,261,1648.2,253z M1552.5,245.4c-1.4-4.1-2.6-8.3-3.6-12.6c4.3-0.7,8.6-1.1,13-1.3
			C1558.6,235.9,1555.4,240.5,1552.5,245.4z"/>
		<circle class="st13" cx="1580.5" cy="254.1" r="11.5"/>
	</g>
	<g id="Atom_2_" class="st12">
		<path class="st6" d="M672.2,343c-5.7-14.9-38.1-26.7-74.3-27.4c14.8-16.7,29.9-26.1,38.6-24.8c8.7,1.3,8,12.2,7.2,18.9
			c-0.2,1.6,0.9,3,2.5,3.2s3-0.9,3.2-2.5c1.9-14.5-2.4-23.7-12-25.1c-12.2-2-30.6,10.4-46.9,30c-6.3,0.1-12.6,0.7-18.8,1.6
			c-2.2-12.7-1.3-22.9,2.4-27.4c5.2-6.5,14.7-0.8,19.9,3.2c1.3,0.9,3.1,0.5,4-0.8c0.8-1.2,0.6-2.8-0.5-3.8
			c-11.6-8.8-21.7-9.6-27.9-2.1c-5,6.3-6,17.8-3.6,32c-13.5,3-23.5,7.8-27.9,14.4c-2.7,3.7-3.2,8.5-1.4,12.7
			c2.5,5.2,6.5,9.5,11.5,12.3c1.3,0.8,3.1,0.4,4-0.9c0.8-1.3,0.4-3.1-0.9-4c-4-2.2-7.3-5.5-9.5-9.6c-1.1-2.4-0.7-5.3,0.9-7.4
			c3.1-4.5,11.5-9.1,24.3-11.8c1.5,6.2,3.4,12.2,5.7,18.1c-12.3,22.4-16.8,42.7-11.5,53.4c1.9,4.2,5.8,7.1,10.4,7.7
			c0.8,0.1,1.7,0.1,2.5,0c6.4-0.4,12.5-2.6,17.8-6.2c1.3-0.8,1.8-2.6,0.9-4c-0.8-1.3-2.6-1.8-4-0.9l0,0c-4.7,3.5-10.5,5.4-16.5,5.3
			c-2.7-0.3-5-2-6-4.5c-3.4-7-1.5-22.9,9.2-44c2.7,6.2,5.8,12.3,9.2,18.1c13.8,23.7,30.1,39,42.7,40.1h1.2c4.2,0.1,8.1-1.9,10.6-5.2
			c8.8-11,5.4-38.8-8.1-67.7c-0.7-1.4-2.4-2.1-3.8-1.4s-2.1,2.4-1.4,3.8c12.2,26.1,16,52.6,8.8,61.6c-1.6,2.1-4.3,3.2-6.9,2.9
			c-8.7-0.6-23.9-12.3-38.2-37c-4.1-7.1-7.7-14.4-10.7-22l0.5-0.8c4-7.1,8.6-13.9,13.6-20.3h1c37.8,0,68.1,12.4,72.7,23.9
			c2.5,6.4-3.6,11.1-9.1,13.9c-1.4,0.7-2,2.5-1.2,3.9s2.5,2,3.9,1.2C671.1,358.7,675.4,351,672.2,343z M576.5,335.4
			c-1.4-4.1-2.6-8.3-3.6-12.6c4.3-0.7,8.6-1.1,13-1.3C582.6,325.9,579.4,330.5,576.5,335.4z"/>
		<circle class="st6" cx="604.5" cy="344.1" r="11.5"/>
	</g>
	<g>
		<path class="st14" d="M984.1,398.5L943.6,414l-3-3c-7.3-7.1-15.3-13-24-17.6l-3.7-1.9l3-43.6l-25.3-6.1l-16.9,39.9l-4.2,0.1
			c-9.9,0.1-19.9,1.4-29.5,4.5l-4.6,1.3l-28.6-33L784.4,368l16.2,40.3l-3,3c-7,7-13,15.3-17.6,24l-1.9,3.7l-43.6-2.4l-6.4,25.3
			l39.9,16.9l0.1,4.2c0.1,10.2,1.4,20.2,4.5,29.7l1.3,4l-32.7,28.6l13.4,22.4l40-16.2l3,3c7.3,7.1,15.3,13,24,17.9l4,1.9l-3.2,42.9
			l25.3,6.4l17.5-39.3l4.2-0.1c10.2-0.1,20.2-1.7,29.7-4.5l4-1.3l28,32.6l22.4-13.4l-15.3-40.2l3-3c7.1-7.3,13-15.3,17.9-24.3l1.9-4
			l42.9,3.2l6.4-25.3l-39.6-17.5l-0.1-4.2c-0.1-10.2-1.7-20.2-4.5-29.7l-1.3-4l32.9-28L984.1,398.5z M959,455.5
			c2.9,9,4.3,18.1,4.1,27.6L963,492l38.2,16.7l-3.2,13.1l-41.5-3.1l-4.2,8.2c-4.2,8.2-9.8,15.9-16.5,22.4l-6.4,6.5l15.1,39
			l-11.5,7.1l-27-31.6l-8.6,2.6c-9,2.9-18.4,4.2-27.6,4.1l-8.9-0.1l-17,38.1l-13.1-3.2l3.1-41.7l-8.2-4.2
			c-8.2-4.2-15.6-9.8-22.4-16.5l-6.4-6.7l-38.7,15.4l-7.1-11.5l31.7-27.6l-2.6-8.6c-2.6-8.9-4.3-18.1-4.2-27.3l0.1-9.2l-38.5-16.5
			l3.2-13.1l42.1,2.8l4.2-7.9c4.2-8.2,9.8-15.6,16.5-22.4l6.4-6.5l-15.7-39l11.5-7.1l27.9,31.7l8.6-2.6c8.9-2.6,18.1-4.3,27.3-4.2
			l9.3-0.2l16.5-38.8l13.1,3.2l-2.8,42.1l8.2,4.2c8.2,4.2,15.6,9.8,22.4,16.2l6.5,6.4l39.3-15.1l7.1,11.5L957.4,446L959,455.5z"/>
		<path class="st15" d="M825.2,478.1c-1.1,9.7,1.2,19.2,6.2,27.8c12.6,20.8,39.9,27.7,60.7,15c11.8-7.1,19.4-19.4,21-33.2
			c1.1-9.7-1.2-19.2-6.2-27.8c-6-10.2-15.7-17.3-27.3-20c-11.6-2.8-23.5-1.1-33.4,5C834.6,452.2,826.7,464.2,825.2,478.1z
			 M878.1,447.2c9.6,2.3,17.6,8.2,22.6,16.8c4.3,7,6.1,15,5.2,23c-1.3,11.5-7.7,21.5-17.7,27.6c-17.3,10.3-40.2,4.8-50.6-12.4
			c-4.3-7-6.1-15-5.2-23c1.3-11.5,7.7-21.5,17.7-27.6C858.5,446.2,868.5,444.9,878.1,447.2z"/>
		<path class="st15" d="M834,424.7c-18.2,11.1-30.1,29.5-32.5,50.8c-1.7,15,1.5,29.7,9.3,42.5c19.5,32,61.3,42.6,93.6,23.1
			c18.2-11.1,30.1-29.5,32.5-50.8l0,0c1.7-15-1.5-29.7-9.3-42.5c-9.3-15.7-24.2-26.6-42-30.9C867.9,412.6,849.7,415.4,834,424.7z
			 M883.6,424.2c16,3.9,29.2,13.7,37.6,27.4c7.1,11.5,9.8,24.7,8.4,37.9c-2.1,18.9-12.6,35.6-28.9,45.5c-28.8,17.4-66,8-83.4-20.5
			c-6.8-11.5-9.8-24.7-8.4-37.9c2.1-18.9,12.6-35.6,28.9-45.5C851.6,422.8,868,420.1,883.6,424.2z"/>
		<path class="st16" d="M1103.7,220.1l-3.7-1.9l3-43.6l-25.3-6.1l-16.9,39.9l-4.2,0.1c-9.9,0.1-19.9,1.7-29.5,4.5l-4,1.3l-28.6-33
			l-22.4,13.4l16.2,40.3l-3,3c-7,7-13,15.3-17.6,24l-1.9,3.7l-43.6-3L916,288l39.9,16.9l0.1,4.5c0.1,10.2,1.4,20.2,4.5,29.7l1.3,4
			l-32.7,28.6l13.4,22.4l40-16.2l3,3c7.3,7.1,15.3,13,24,17.9l4,1.9l-3.2,42.9l25.3,6.4l17.5-39.3l4.2-0.1
			c10.2-0.1,20.2-1.7,29.7-4.5l4-1.3l28,32.6l22.4-13.4l-15.9-40l3-3c7.1-7.3,13-15.3,17.9-24.3l1.9-4l42.9,3.2l6.4-25.3l-39.6-17.5
			l-0.1-4.2c-0.1-10.2-1.7-20.2-4.5-29.7l-1.3-4l32.9-28l-13.4-22.4l-40.5,15.5l-3-3C1120.8,230.6,1112.5,224.9,1103.7,220.1z
			 M1168.1,234.3l7.1,11.5l-31.7,27.3l2.6,8.6c2.9,9,4.3,18.1,4.1,27.6l-0.1,8.9l38.2,16.7l-3.2,13.1l-41.5-3.1l-4.2,8.2
			c-4.2,8.2-9.8,15.9-16.5,22.4l-6.4,6.5l15.1,39l-11.5,7.1l-27-31.6l-8.6,2.6c-9,2.9-18.4,4.2-27.6,4.1l-8.9-0.1l-17,38.1
			l-13.1-3.2l3.1-41.7l-8.2-4.2c-8.2-4.2-15.6-9.8-22.4-16.5l-6.4-6.7l-38.7,15.4l-7.1-11.5l31.7-27.6l-2.6-8.6
			c-2.6-8.9-4.3-18.1-4.2-27.3l0.1-9.2l-38.5-16.5l3.2-13.1l42.1,2.8l4.2-7.9c4.2-8.2,9.8-15.6,16.5-22.4l6.4-6.5l-15.7-39l11.5-7.1
			l27.9,31.7l8.6-2.6c8.9-2.6,18.1-4.3,27.3-4.2l9.3-0.2l16.5-38.8l13.1,3.2l-2.8,42.1l8.2,4.2c8.2,4.2,15.6,9.8,22.4,16.2l6.5,6.4
			L1168.1,234.3z"/>
		<path class="st15" d="M1012.6,304.7c-1.1,9.7,1.2,19.2,6.2,27.8c12.6,20.8,39.9,27.7,60.7,15c11.8-7.1,19.4-19.4,21-33.2
			c1.1-9.7-1.2-19.2-6.2-27.8c-12.6-20.8-39.9-27.7-60.7-15C1021.8,278.8,1014.2,290.8,1012.6,304.7z M1087.9,290.6
			c4.3,7,6.1,15,5.2,23c-1.3,11.5-7.7,21.5-17.7,27.6c-17.3,10.6-39.9,4.9-50.6-12.4c-4.3-7-6.1-15-5.2-23
			c1.3-11.5,7.7-21.5,17.7-27.6C1054.9,267.5,1077.6,273,1087.9,290.6z"/>
		<path class="st15" d="M988.7,302c-1.7,15,1.5,29.7,9.3,42.5c19.5,32,61.3,42.6,93.6,23.1c18.2-11.1,30.1-29.5,32.5-50.8l0,0
			c1.7-15-1.5-29.7-9.3-42.5c-9.3-15.7-24.2-26.6-42-30.9s-35.9-1.6-51.6,7.8C1003,262.4,991.1,280.8,988.7,302z M1071.1,250.5
			c15.7,3.8,28.9,13.6,37.3,27.4c7.1,11.5,9.8,24.7,8.4,37.9c-2.1,18.9-12.6,35.6-28.9,45.5c-28.8,17.4-66,8-83.4-20.5
			c-6.8-11.5-9.8-24.7-8.4-37.9c2.1-18.9,12.6-35.6,28.9-45.5C1039,249.4,1055.1,246.7,1071.1,250.5z"/>
	</g>
	<g class="st17">
		<g>
			<path class="st18" d="M1285.7,187.9c-1.7,0.9-2.3,2.9-1.4,4.6c0.9,1.7,2.9,2.3,4.6,1.4c7.8-4.2,16.4,1.2,25.4,7.4
				c0.1,11-0.2,21.1-8,25.2c-1.7,0.9-2.3,2.9-1.4,4.6c0.9,1.7,2.9,2.3,4.6,1.4c9.9-5.3,11.4-16,11.6-26.6
				c8.9,5.8,18.7,10.5,28.6,5.2s11.4-16,11.6-26.6c8.9,5.8,18.7,10.5,28.6,5.2s11.4-16,11.6-26.6c8.9,5.8,18.7,10.5,28.6,5.2
				c1.7-0.9,2.3-2.9,1.4-4.6c-0.9-1.7-2.9-2.3-4.6-1.4c-7.8,4.2-16.4-1.2-25.4-7.4c-0.1-11,0.2-21.1,8-25.2c1.7-0.9,2.3-2.9,1.4-4.6
				s-2.9-2.3-4.6-1.4c-9.9,5.3-11.4,16-11.6,26.6c-8.9-5.8-18.7-10.5-28.6-5.2s-11.4,16-11.6,26.6c-8.9-5.8-18.7-10.5-28.6-5.2
				c-4.4,2.3-7.6,6.1-9.4,11.1c-0.3,0.9-0.2,1.9,0.2,2.8c0.4,0.7,1,1.3,1.8,1.6c1.8,0.6,3.7-0.3,4.4-2c1.3-3.5,3.2-5.8,6.2-7.4
				c7.8-4.2,16.4,1.2,25.4,7.4c0.1,11-0.2,21.1-8,25.2s-16.4-1.2-25.4-7.4c0-2.7,0-5.4,0.1-7.9c0.1-1.9-1.3-3.5-3.2-3.6
				c-1.9-0.1-3.5,1.3-3.6,3.2c-0.1,1.2-0.1,2.5-0.1,3.7C1305.3,187.3,1295.6,182.6,1285.7,187.9z M1369.3,151.1
				c7.8-4.2,16.4,1.2,25.4,7.4c0.1,11-0.2,21.1-8,25.2c-7.8,4.2-16.4-1.2-25.4-7.4C1361.2,165.4,1361.5,155.3,1369.3,151.1z"/>
			<path class="st18" d="M1417,156.2c1,1.8,3.3,2.4,5,1.1c1.4-1,1.7-2.9,0.9-4.4l-7.8-14.7c-0.8-1.5-2.6-2.3-4.2-1.7
				c-2,0.7-2.8,3-1.9,4.8L1417,156.2z"/>
			<path class="st18" d="M1296.8,201.1c-1-1.8-3.3-2.4-5-1.1c-1.4,1-1.7,2.9-0.9,4.4l7.8,14.7c0.8,1.5,2.6,2.3,4.2,1.7
				c2-0.7,2.8-3,1.9-4.8L1296.8,201.1z"/>
			<path class="st18" d="M1375.4,159.3l7.9,14.8c0.8,1.5,2.6,2.3,4.2,1.7c2-0.7,2.8-3,1.9-4.8l-7.9-14.8c-0.8-1.5-2.6-2.3-4.2-1.7
				C1375.3,155.2,1374.4,157.5,1375.4,159.3z"/>
			<path class="st18" d="M1373.7,179.3c1,1.8,3.3,2.4,5,1.1c1.4-1,1.7-2.9,0.9-4.4l-7.8-14.7c-0.8-1.5-2.6-2.3-4.2-1.7
				c-2,0.7-2.8,3-1.9,4.8L1373.7,179.3z"/>
			<path class="st18" d="M1336.4,180l7.9,14.8c0.8,1.5,2.6,2.3,4.2,1.7c2-0.7,2.8-3,1.9-4.8l-7.9-14.8c-0.8-1.5-2.6-2.3-4.2-1.7
				C1336.3,175.9,1335.5,178.2,1336.4,180z"/>
			<path class="st18" d="M1326.8,185.1l7.9,14.8c0.8,1.5,2.6,2.3,4.2,1.7c2-0.7,2.8-3,1.9-4.8l-7.9-14.8c-0.8-1.5-2.6-2.3-4.2-1.7
				C1326.6,181.1,1325.8,183.3,1326.8,185.1z"/>
		</g>
	</g>
	<g>
		<g id="People_1_">
			<g id="Icon-23_1_">
				<path id="chemistry-tubes_1_" class="st19" d="M1846.7,399.8c0-1.4-1.2-2.6-2.6-2.6l0,0c-1.4,0-2.6,1.2-2.6,2.6s1.2,2.6,2.6,2.6
					S1846.7,401.2,1846.7,399.8L1846.7,399.8z M1787.1,402.4c-1.4,0-2.6,1.2-2.6,2.6s1.2,2.6,2.6,2.6s2.6-1.2,2.6-2.6
					S1788.5,402.4,1787.1,402.4L1787.1,402.4z M1800,389.4c0-1.4-1.2-2.6-2.6-2.6l0,0c-1.4,0-2.6,1.2-2.6,2.6s1.2,2.6,2.6,2.6
					C1798.9,392,1800,390.8,1800,389.4L1800,389.4z M1846.6,346.5c0,2.9,2.3,5.2,5.2,5.2c2.9,0,5.2-2.3,5.2-5.2s-2.3-5.2-5.2-5.2
					C1849,341.3,1846.6,343.6,1846.6,346.5L1846.6,346.5z M1742.9,351.7c0,2.9,2.3,5.2,5.2,5.2s5.2-2.3,5.2-5.2
					c0-2.9-2.3-5.2-5.2-5.2S1742.9,348.8,1742.9,351.7L1742.9,351.7z M1737.7,307.6c0,1.4,1.2,2.6,2.6,2.6s2.6-1.2,2.6-2.6
					s-1.2-2.6-2.6-2.6C1738.9,305,1737.7,306.2,1737.7,307.6L1737.7,307.6z M1732.6,307.6c0-4.3,3.5-7.8,7.8-7.8s7.8,3.5,7.8,7.8
					s-3.5,7.8-7.8,7.8C1736,315.4,1732.6,311.9,1732.6,307.6L1732.6,307.6z M1794.8,299.8c0,2.9,2.3,5.2,5.2,5.2
					c2.9,0,5.2-2.3,5.2-5.2s-2.3-5.2-5.2-5.2C1797.1,294.6,1794.8,297,1794.8,299.8L1794.8,299.8z M1789.6,299.8
					c0-5.7,4.7-10.4,10.4-10.4c5.7,0,10.4,4.7,10.4,10.4s-4.7,10.4-10.4,10.4C1794.2,310.2,1789.6,305.5,1789.6,299.8L1789.6,299.8z
					 M1750.7,419.1c-1.4,0-2.6,1.2-2.6,2.6c0,2.9-2.3,5.2-5.2,5.2c-1.4,0-2.6,1.2-2.6,2.6s1.2,2.6,2.6,2.6c5.7,0,10.4-4.7,10.4-10.4
					C1753.3,420.2,1752.1,419.1,1750.7,419.1L1750.7,419.1z M1846.6,432c5.7,0,10.4-4.7,10.4-10.4c0-1.4-1.2-2.6-2.6-2.6
					s-2.6,1.2-2.6,2.6c0,2.9-2.3,5.2-5.2,5.2c-1.4,0-2.6,1.2-2.6,2.6S1845.2,432,1846.6,432L1846.6,432z M1792.2,429.4
					c0,1.4,1.2,2.6,2.6,2.6c5.7,0,10.4-4.7,10.4-10.4c0-1.4-1.2-2.6-2.6-2.6s-2.6,1.2-2.6,2.6c0,2.9-2.3,5.2-5.2,5.2
					C1793.3,426.9,1792.2,428,1792.2,429.4L1792.2,429.4z M1872.6,327.2c0,1.4-1.2,2.6-2.6,2.6h-38.9v51.9h23.3
					c1.4,0,2.6,1.2,2.6,2.6s-1.2,2.6-2.6,2.6h-23.3v35.8c0,7.4,4.9,14.1,12.1,15.7c10.1,2.2,19-5.5,19-15.2v-84.4
					c0-1.4,1.2-2.6,2.6-2.6s2.6,1.2,2.6,2.6v84.9c0,10.4-7.3,19.7-17.6,21.2c-12.8,1.9-23.9-8-23.9-20.5v-94.5h-46.7V361h23.3
					c1.4,0,2.6,1.2,2.6,2.6s-1.2,2.6-2.6,2.6h-23.3v56.6c0,7.4,4.9,14.1,12.1,15.7c10.1,2.2,19-5.5,19-15.2v-84.4
					c0-1.4,1.2-2.6,2.6-2.6s2.6,1.2,2.6,2.6v84.9c0,10.4-7.3,19.7-17.6,21.2c-12.8,1.9-23.9-8-23.9-20.5V330h-46.7v41.5h23.3
					c1.4,0,2.6,1.2,2.6,2.6s-1.2,2.6-2.6,2.6h-23.3v46.2c0,7.4,4.9,14.1,12.1,15.7c10.1,2.2,19-5.5,19-15.2V339
					c0-1.4,1.2-2.6,2.6-2.6s2.6,1.2,2.6,2.6v84.9c0,10.4-7.3,19.7-17.6,21.2c-12.8,1.9-23.9-8-23.9-20.5v-94.5h-2.6
					c-1.4,0-2.6-1.2-2.6-2.6s1.2-2.6,2.6-2.6h2.6v-13c0-1.4,1.2-2.6,2.6-2.6s2.6,1.2,2.6,2.6v13h31.1v-13c0-1.4,1.2-2.6,2.6-2.6
					s2.6,1.2,2.6,2.6v13h10.4v-13c0-1.4,1.2-2.6,2.6-2.6s2.6,1.2,2.6,2.6v13h31.1v-13c0-1.4,1.2-2.6,2.6-2.6s2.6,1.2,2.6,2.6v13
					h10.4v-13c0-1.4,1.2-2.6,2.6-2.6s2.6,1.2,2.6,2.6v13h31.1v-13c0-1.4,1.2-2.6,2.6-2.6s2.6,1.2,2.6,2.6v13h2.6
					C1871.4,324.6,1872.6,325.7,1872.6,327.2L1872.6,327.2z"/>
			</g>
		</g>
	</g>
	<g class="st20">
		<path class="st21" d="M1189.9,282.4l42.6-42.6l0,0l75.7,75.7c11.8,11.8,11.8,30.8,0,42.6l0,0c-11.8,11.8-30.8,11.8-42.6,0
			L1189.9,282.4z"/>
		<path class="st21" d="M1173.3,270.6l47.3-47.3c3.9-3.9,10.3-3.9,14.2,0l0,0c3.9,3.9,3.9,10.3,0,14.2l-47.3,47.3
			c-3.9,3.9-10.3,3.9-14.2,0l0,0C1169.4,280.9,1169.4,274.5,1173.3,270.6z"/>
		<line class="st22" x1="1201.7" y1="294.2" x2="1218.2" y2="277.7"/>
		<line class="st22" x1="1211.1" y1="303.7" x2="1218.2" y2="296.6"/>
		<line class="st22" x1="1220.6" y1="313.2" x2="1227.7" y2="306.1"/>
		<line class="st22" x1="1230.1" y1="322.7" x2="1237.2" y2="315.6"/>
		<line class="st22" x1="1249" y1="341.6" x2="1256.1" y2="334.5"/>
		<line class="st22" x1="1258.4" y1="351" x2="1265.6" y2="343.9"/>
		<line class="st22" x1="1239.5" y1="332.1" x2="1256.1" y2="315.6"/>
	</g>
	<g>
		<path class="st16" d="M768.4,247.7c-0.1-0.8-0.5-1.5-1.2-2l-29.5-20.8c-1.1-0.8-2.6-0.6-3.5,0.3l-2.9,2.9l-4.5-4.5l19.3-19.3l0,0
			c2.2-2.2,3.5-5.2,3.5-8.4s-1.2-6.1-3.5-8.4c-4.6-4.6-12.1-4.6-16.7,0l0,0l-19.3,19.3l-4.5-4.5l2.9-2.9c0.9-0.9,1.1-2.4,0.3-3.5
			L688,166.4c-0.5-0.7-1.2-1.1-2-1.2c-0.8-0.1-1.6,0.2-2.2,0.8l-18.3,18.3c-0.6,0.6-0.9,1.4-0.8,2.2c0.1,0.8,0.5,1.5,1.2,2
			l29.4,20.8c0.5,0.3,1,0.5,1.6,0.5c0.7,0,1.4-0.3,1.9-0.8l2.9-2.9l4.5,4.5l-7.7,7.7l0,0l0,0L689,228l0,0c-4.6,4.6-4.6,12.1,0,16.7
			c2.3,2.3,5.3,3.5,8.4,3.5c3,0,6.1-1.2,8.4-3.5l0,0l17.3-17.3l4.5,4.5l-2.9,2.9c-0.9,0.9-1.1,2.4-0.3,3.5l20.8,29.5
			c0.5,0.7,1.2,1.1,2,1.2c0.1,0,0.2,0,0.2,0c0.7,0,1.4-0.3,1.9-0.8l18.3-18.3C768.2,249.3,768.5,248.5,768.4,247.7z M671.8,186
			l13.7-13.7l5.4,7.6l-11.5,11.5L671.8,186z M696.6,203.6l-12.7-9l10.1-10.1l9,12.7L696.6,203.6z M733.3,191.5
			C733.3,191.5,733.3,191.4,733.3,191.5c2.5-2.5,6.5-2.5,9,0c1.2,1.2,1.9,2.8,1.9,4.5s-0.7,3.3-1.9,4.5l-9.6,9.6l-9-9L733.3,191.5z
			 M701.8,240.9L701.8,240.9c-2.5,2.5-6.5,2.5-9,0s-2.5-6.5,0-9l0,0l7.6-7.6l9,9L701.8,240.9z M713.3,229.4l-9-9l15.5-15.5l9,9
			L713.3,229.4z M730.2,237.1l6.4-6.4l12.7,9l-10.1,10.1L730.2,237.1z M747.7,262l-5.4-7.6l11.5-11.5l7.6,5.4L747.7,262z"/>
	</g>
	<g>
		<g>
			<g>
				<g>
					<g>
						<path class="st23" d="M437.7,485.8c0.5-1.1,0.7-2.4,0.7-3.6c0-5.4-4.4-9.8-9.8-9.8s-9.8,4.4-9.8,9.8s4.4,9.8,9.8,9.8
							c1.7,0,3.2-0.4,4.6-1.2c10.2,10.1,16,23.8,16,38.3c0,29.7-24.1,53.8-53.8,53.8s-53.8-24.1-53.8-53.8c0-11.2,3.5-22.2,10-31.2
							c1,0.4,2.1,0.6,3.3,0.6c5.4,0,9.8-4.4,9.8-9.8s-4.4-9.8-9.8-9.8s-9.8,4.4-9.8,9.8c0,1.8,0.5,3.5,1.3,4.9
							c-7.5,10.3-11.6,22.8-11.6,35.6c0,33.4,27.2,60.6,60.6,60.6s60.6-27.2,60.6-60.6C456,512.6,449.4,497.1,437.7,485.8z
							 M425.5,482.1c0-1.7,1.4-3.1,3.1-3.1s3.1,1.4,3.1,3.1s-1.4,3.1-3.1,3.1S425.5,483.8,425.5,482.1z M354.9,485.5
							c1.7,0,3.1,1.4,3.1,3.1s-1.4,3.1-3.1,3.1s-3.1-1.4-3.1-3.1C351.9,486.9,353.2,485.5,354.9,485.5z"/>
						<path class="st23" d="M363.8,512.4c0,2.8,1.2,5.4,3.1,7.2c-1,3.1-1.5,6.2-1.5,9.5c0,16.6,13.5,30.1,30.1,30.1
							s30.1-13.5,30.1-30.1c0-4.6-1.1-9.1-3-13.1c1.2-1.6,1.8-3.6,1.8-5.7c0-5.4-4.4-9.8-9.8-9.8s-9.8,4.4-9.8,9.8
							c0,5.4,4.4,9.8,9.8,9.8c0.8,0,1.6-0.1,2.3-0.3c1.3,2.9,1.9,6.1,1.9,9.3c0,12.9-10.5,23.3-23.3,23.3
							c-12.9,0-23.3-10.5-23.3-23.3c0-2.4,0.4-4.7,1.1-6.9c0.2,0,0.3,0,0.5,0c5.4,0,9.8-4.4,9.8-9.8c0-5.4-4.4-9.8-9.8-9.8
							C368.2,502.5,363.8,506.9,363.8,512.4z M411.4,510.2c0-1.7,1.4-3.1,3.1-3.1s3.1,1.4,3.1,3.1s-1.4,3.1-3.1,3.1
							S411.4,511.9,411.4,510.2z M376.7,512.4c0,1.7-1.4,3.1-3.1,3.1s-3.1-1.4-3.1-3.1c0-1.7,1.4-3.1,3.1-3.1
							C375.3,509.3,376.7,510.7,376.7,512.4z"/>
						<path class="st23" d="M364.8,540.3c0-5.4-4.4-9.8-9.8-9.8s-9.8,4.4-9.8,9.8s4.4,9.8,9.8,9.8c0.2,0,0.5,0,0.7,0
							c7.8,14.7,23,24,39.8,24c24.8,0,45-20.2,45-45c0-12-4.7-23.3-13.2-31.8c-7.8-7.8-17.9-12.3-28.8-13.1
							c-1.1-4.3-4.9-7.4-9.5-7.4c-5.4,0-9.8,4.4-9.8,9.8s4.4,9.8,9.8,9.8c3.9,0,7.2-2.3,8.8-5.5c9.3,0.6,18,4.5,24.7,11.1
							c7.2,7.2,11.2,16.8,11.2,27c0,21.1-17.1,38.2-38.2,38.2c-14.1,0-26.9-7.7-33.6-20C363.7,545.5,364.8,543,364.8,540.3z
							 M389,489.7c-1.7,0-3.1-1.4-3.1-3.1s1.4-3.1,3.1-3.1s3.1,1.4,3.1,3.1C392,488.3,390.7,489.7,389,489.7z M351.9,540.3
							c0-1.7,1.4-3.1,3.1-3.1s3.1,1.4,3.1,3.1s-1.4,3.1-3.1,3.1C353.2,543.4,351.9,542,351.9,540.3z"/>
					</g>
				</g>
			</g>
		</g>
	</g>
</g>
</svg>
