<?xml version="1.0" encoding="utf-8"?>
<!-- Generator: Adobe Illustrator 21.1.0, SVG Export Plug-In . SVG Version: 6.00 Build 0)  -->
<svg version="1.1" id="Livello_1" xmlns="http://www.w3.org/2000/svg" xmlns:xlink="http://www.w3.org/1999/xlink" x="0px" y="0px"
	 viewBox="0 0 1920 1080" style="enable-background:new 0 0 1920 1080;" xml:space="preserve">
<style type="text/css">
	.st0{opacity:0.8;fill:#2D336D;}
	.st1{opacity:0.6;fill:#95A6AD;}
	.st2{opacity:0.8;fill:#071443;}
	.st3{opacity:0.6;fill:#8DD3C8;}
	.st4{opacity:0.8;fill:#3B9CAB;}
	.st5{fill:none;}
	.st6{fill:#071443;}
	.st7{font-family:'MerriweatherSans-Bold';}
	.st8{font-size:68px;}
	.st9{opacity:0.6;fill:#4F84B5;}
	.st10{fill:none;stroke:#FF613F;stroke-width:10;stroke-miterlimit:10;}
	.st11{opacity:0.8;}
	.st12{fill:#59A0AB;}
	.st13{fill:#3B9CAB;}
	.st14{fill:#6C9A94;}
	.st15{fill:#474868;}
	.st16{opacity:0.9;}
	.st17{fill:#95A6AD;}
	.st18{fill:#CCCCCC;}
	.st19{opacity:0.6;}
	.st20{fill:#061246;}
	.st21{fill:#76D5C8;}
</style>
<g>
	<path class="st0" d="M1765.5-80C1603.4-80,1472,51.4,1472,213.5c0,121.4,73.7,225.6,178.9,270.3c-0.8,7.5-2.4,15-4.8,22.4
		c-5,15.4-13.2,28.8-23.6,39.9c31-3.3,59.4-20.2,77.1-46.5c21.2,4.9,43.2,7.4,65.9,7.4c162.1,0,293.5-131.4,293.5-293.5
		S1927.6-80,1765.5-80z"/>
	<path class="st1" d="M1688,300c0-133.7-108.3-242-242-242s-242,108.3-242,242c0,126.2,96.5,229.8,219.8,241
		c0.8,12.8-0.1,25.9-2.9,39.1c-4.5,21.1-13.4,40.2-25.6,56.4c50.3-10.9,92.4-48.9,106.9-101C1608.7,510.1,1688,414.3,1688,300z"/>
	<circle class="st2" cx="1626" cy="112" r="57"/>
	<circle class="st2" cx="1815" cy="49" r="57"/>
	<circle class="st2" cx="1415" cy="440" r="57"/>
	<path class="st3" d="M627,492c0-114.9-93.1-208-208-208s-208,93.1-208,208c0,105.9,79.2,193.3,181.6,206.3c2.4,2.4,4.9,4.8,7.5,7
		c42.3,36.6,100,43.9,148.3,23.6c-17.7-5.8-34.6-15.1-49.6-28.1c-4.4-3.8-8.6-7.9-12.4-12.1C568.2,660.8,627,583.3,627,492z"/>
	<circle class="st2" cx="619" cy="488" r="57"/>
	<path class="st4" d="M771,308.4c0-65.1-52.7-117.8-117.8-117.8c-17.7,0-34.4,3.9-49.5,10.9c-6.9-2.4-14.3-3.8-22.1-3.8
		c-36.9,0-66.8,29.9-66.8,66.8c0,9.7,2.1,18.9,5.8,27.3c-22.6,21.5-36.7,51.8-36.7,85.4c0,65.1,52.7,117.8,117.8,117.8
		c54.2,0,99.9-36.7,113.6-86.5C748.8,387.7,771,350.6,771,308.4z"/>
	<rect x="65" y="852" class="st5" width="1150" height="261.7"/>
	<text transform="matrix(1 0 0 1 79.2871 907.1836)"><tspan x="0" y="0" class="st6 st7 st8">Communication &amp; dissemination </tspan><tspan x="279.3" y="80" class="st6 st7 st8">for science &amp; technology</tspan></text>
	<path class="st3" d="M1815,1053c-1-25-40-102-46-124c-20.4-74.9-4-88,14-120s42-56,28-131s-90-114.5-162-116
		c-23.5-0.5-78.5,11.5-114.5,53.5s-21,97-22,116s-34,58.4-29.5,69.5c3.5,8.5,15.6,3.5,23.8,11.5c-2.7,1.7-4.8,4.5-4.8,7.5
		c0,7.3,7,9.7,11.5,9.8c0.1,0,0.3,0,0.4,0c0,0,0,0,0,0c-1.8,0.1-5.6,0.7-6.9,3.1c-2,4-3,10,6,12c0.5,0.1,1,0.1,1.5,0
		c0,0.2,0,0.3,0,0.5c-1.6,54.1,19,48,28,48s33-7,51-2S1617,929,1617,929c12,30-70,124-70,124v94h268C1815,1147,1816,1078,1815,1053z
		"/>
	<path class="st9" d="M1594.3,1082.7c-0.8-20.6-32.9-83.9-37.8-102c-16.8-61.6-3.3-72.4,11.5-98.7c14.8-26.3,34.5-46,23-107.7
		s-74-94.1-133.2-95.4c-19.3-0.4-64.5,9.5-94.1,44s-17.3,79.8-18.1,95.4c-0.8,15.6-28,48-24.3,57.1c2.8,7,12.9,2.9,19.6,9.5
		c-2.3,1.4-4,3.7-4,6.1c0,6,5.8,7.9,9.5,8.1c0.1,0,0.2,0,0.3,0c0,0,0,0,0,0c-1.4,0.1-4.6,0.6-5.6,2.6c-1.6,3.3-2.5,8.2,4.9,9.9
		c0.4,0.1,0.8,0.1,1.2,0c0,0.1,0,0.3,0,0.4c-1.3,44.4,15.6,39.5,23,39.5c7.4,0,27.1-5.8,41.9-1.6c14.8,4.1,19.3,30.8,19.3,30.8
		c9.9,24.7-57.6,102-57.6,102v77.3h220.3C1594.3,1160,1595.2,1103.3,1594.3,1082.7z"/>
	<line class="st10" x1="485" y1="1011.5" x2="1212" y2="1011.5"/>
	<g id="Atom" class="st11">
		<path class="st12" d="M1648.2,253c-5.7-14.9-38.1-26.7-74.3-27.4c14.8-16.7,29.9-26.1,38.6-24.8s8,12.2,7.2,18.9
			c-0.2,1.6,0.9,3,2.5,3.2c1.6,0.2,3-0.9,3.2-2.5c1.9-14.5-2.4-23.7-12-25.1c-12.2-2-30.6,10.4-46.9,30c-6.3,0.1-12.6,0.7-18.8,1.6
			c-2.2-12.7-1.3-22.9,2.4-27.4c5.2-6.5,14.7-0.8,19.9,3.2c1.3,0.9,3.1,0.5,4-0.8c0.8-1.2,0.6-2.8-0.5-3.8
			c-11.6-8.8-21.7-9.6-27.9-2.1c-5,6.3-6,17.8-3.6,32c-13.5,3-23.5,7.8-27.9,14.4c-2.7,3.7-3.2,8.5-1.4,12.7
			c2.5,5.2,6.5,9.5,11.5,12.3c1.3,0.8,3.1,0.4,4-0.9c0.8-1.3,0.4-3.1-0.9-4c-4-2.2-7.3-5.5-9.5-9.6c-1.1-2.4-0.7-5.3,0.9-7.4
			c3.1-4.5,11.5-9.1,24.3-11.8c1.5,6.2,3.4,12.2,5.7,18.1c-12.3,22.4-16.8,42.7-11.5,53.4c1.9,4.2,5.8,7.1,10.4,7.7
			c0.8,0.1,1.7,0.1,2.5,0c6.4-0.4,12.5-2.6,17.8-6.2c1.3-0.8,1.8-2.6,0.9-4c-0.8-1.3-2.6-1.8-4-0.9l0,0c-4.7,3.5-10.5,5.4-16.5,5.3
			c-2.7-0.3-5-2-6-4.5c-3.4-7-1.5-22.9,9.2-44c2.7,6.2,5.8,12.3,9.2,18.1c13.8,23.7,30.1,39,42.7,40.1h1.2c4.2,0.1,8.1-1.9,10.6-5.2
			c8.8-11,5.4-38.8-8.1-67.7c-0.7-1.4-2.4-2.1-3.8-1.4c-1.4,0.7-2.1,2.4-1.4,3.8c12.2,26.1,16,52.6,8.8,61.6
			c-1.6,2.1-4.3,3.2-6.9,2.9c-8.7-0.6-23.9-12.3-38.2-37c-4.1-7.1-7.7-14.4-10.7-22l0.5-0.8c4-7.1,8.6-13.9,13.6-20.3h1
			c37.8,0,68.1,12.4,72.7,23.9c2.5,6.4-3.6,11.1-9.1,13.9c-1.4,0.7-2,2.5-1.2,3.9c0.7,1.4,2.5,2,3.9,1.2
			C1647.1,268.7,1651.4,261,1648.2,253z M1552.5,245.4c-1.4-4.1-2.6-8.3-3.6-12.6c4.3-0.7,8.6-1.1,13-1.3
			C1558.6,235.9,1555.4,240.5,1552.5,245.4z"/>
		<circle class="st12" cx="1580.5" cy="254.1" r="11.5"/>
	</g>
	<g id="Atom_2_" class="st11">
		<path class="st6" d="M672.2,343c-5.7-14.9-38.1-26.7-74.3-27.4c14.8-16.7,29.9-26.1,38.6-24.8c8.7,1.3,8,12.2,7.2,18.9
			c-0.2,1.6,0.9,3,2.5,3.2c1.6,0.2,3-0.9,3.2-2.5c1.9-14.5-2.4-23.7-12-25.1c-12.2-2-30.6,10.4-46.9,30c-6.3,0.1-12.6,0.7-18.8,1.6
			c-2.2-12.7-1.3-22.9,2.4-27.4c5.2-6.5,14.7-0.8,19.9,3.2c1.3,0.9,3.1,0.5,4-0.8c0.8-1.2,0.6-2.8-0.5-3.8
			c-11.6-8.8-21.7-9.6-27.9-2.1c-5,6.3-6,17.8-3.6,32c-13.5,3-23.5,7.8-27.9,14.4c-2.7,3.7-3.2,8.5-1.4,12.7
			c2.5,5.2,6.5,9.5,11.5,12.3c1.3,0.8,3.1,0.4,4-0.9c0.8-1.3,0.4-3.1-0.9-4c-4-2.2-7.3-5.5-9.5-9.6c-1.1-2.4-0.7-5.3,0.9-7.4
			c3.1-4.5,11.5-9.1,24.3-11.8c1.5,6.2,3.4,12.2,5.7,18.1c-12.3,22.4-16.8,42.7-11.5,53.4c1.9,4.2,5.8,7.1,10.4,7.7
			c0.8,0.1,1.7,0.1,2.5,0c6.4-0.4,12.5-2.6,17.8-6.2c1.3-0.8,1.8-2.6,0.9-4c-0.8-1.3-2.6-1.8-4-0.9l0,0c-4.7,3.5-10.5,5.4-16.5,5.3
			c-2.7-0.3-5-2-6-4.5c-3.4-7-1.5-22.9,9.2-44c2.7,6.2,5.8,12.3,9.2,18.1c13.8,23.7,30.1,39,42.7,40.1h1.2c4.2,0.1,8.1-1.9,10.6-5.2
			c8.8-11,5.4-38.8-8.1-67.7c-0.7-1.4-2.4-2.1-3.8-1.4s-2.1,2.4-1.4,3.8c12.2,26.1,16,52.6,8.8,61.6c-1.6,2.1-4.3,3.2-6.9,2.9
			c-8.7-0.6-23.9-12.3-38.2-37c-4.1-7.1-7.7-14.4-10.7-22l0.5-0.8c4-7.1,8.6-13.9,13.6-20.3h1c37.8,0,68.1,12.4,72.7,23.9
			c2.5,6.4-3.6,11.1-9.1,13.9c-1.4,0.7-2,2.5-1.2,3.9s2.5,2,3.9,1.2C671.1,358.7,675.4,351,672.2,343z M576.5,335.4
			c-1.4-4.1-2.6-8.3-3.6-12.6c4.3-0.7,8.6-1.1,13-1.3C582.6,325.9,579.4,330.5,576.5,335.4z"/>
		<circle class="st6" cx="604.5" cy="344.1" r="11.5"/>
	</g>
	<g>
		<path class="st13" d="M984.1,398.5l-40.5,15.5l-3-3c-7.3-7.1-15.3-13-24-17.6l-3.7-1.9l3-43.6l-25.3-6.1l-16.9,39.9l-4.2,0.1
			c-9.9,0.1-19.9,1.4-29.5,4.5l-4.6,1.3l-28.6-33l-22.4,13.4l16.2,40.3l-3,3c-7,7-13,15.3-17.6,24l-1.9,3.7l-43.6-2.4l-6.4,25.3
			l39.9,16.9l0.1,4.2c0.1,10.2,1.4,20.2,4.5,29.7l1.3,4l-32.7,28.6l13.4,22.4l40-16.2l3,3c7.3,7.1,15.3,13,24,17.9l4,1.9l-3.2,42.9
			l25.3,6.4l17.5-39.3l4.2-0.1c10.2-0.1,20.2-1.7,29.7-4.5l4-1.3l28,32.6l22.4-13.4l-15.3-40.2l3-3c7.1-7.3,13-15.3,17.9-24.3l1.9-4
			l42.9,3.2l6.4-25.3l-39.6-17.5l-0.1-4.2c-0.1-10.2-1.7-20.2-4.5-29.7l-1.3-4l32.9-28L984.1,398.5z M959,455.5
			c2.9,9,4.3,18.1,4.1,27.6L963,492l38.2,16.7l-3.2,13.1l-41.5-3.1l-4.2,8.2c-4.2,8.2-9.8,15.9-16.5,22.4l-6.4,6.5l15.1,39
			l-11.5,7.1l-27-31.6l-8.6,2.6c-9,2.9-18.4,4.2-27.6,4.1l-8.9-0.1l-17,38.1l-13.1-3.2l3.1-41.7l-8.2-4.2
			c-8.2-4.2-15.6-9.8-22.4-16.5l-6.4-6.7l-38.7,15.4l-7.1-11.5l31.7-27.6l-2.6-8.6c-2.6-8.9-4.3-18.1-4.2-27.3l0.1-9.2l-38.5-16.5
			l3.2-13.1l42.1,2.8l4.2-7.9c4.2-8.2,9.8-15.6,16.5-22.4l6.4-6.5l-15.7-39l11.5-7.1l27.9,31.7l8.6-2.6c8.9-2.6,18.1-4.3,27.3-4.2
			l9.3-0.2l16.5-38.8l13.1,3.2l-2.8,42.1l8.2,4.2c8.2,4.2,15.6,9.8,22.4,16.2l6.5,6.4l39.3-15.1l7.1,11.5L957.4,446L959,455.5z"/>
		<path class="st14" d="M825.2,478.1c-1.1,9.7,1.2,19.2,6.2,27.8c12.6,20.8,39.9,27.7,60.7,15c11.8-7.1,19.4-19.4,21-33.2
			c1.1-9.7-1.2-19.2-6.2-27.8c-6-10.2-15.7-17.3-27.3-20c-11.6-2.8-23.5-1.1-33.4,5C834.6,452.2,826.7,464.2,825.2,478.1z
			 M878.1,447.2c9.6,2.3,17.6,8.2,22.6,16.8c4.3,7,6.1,15,5.2,23c-1.3,11.5-7.7,21.5-17.7,27.6c-17.3,10.3-40.2,4.8-50.6-12.4
			c-4.3-7-6.1-15-5.2-23c1.3-11.5,7.7-21.5,17.7-27.6C858.5,446.2,868.5,444.9,878.1,447.2z"/>
		<path class="st14" d="M834,424.7c-18.2,11.1-30.1,29.5-32.5,50.8c-1.7,15,1.5,29.7,9.3,42.5c19.5,32,61.3,42.6,93.6,23.1
			c18.2-11.1,30.1-29.5,32.5-50.8l0,0c1.7-15-1.5-29.7-9.3-42.5c-9.3-15.7-24.2-26.6-42-30.9C867.9,412.6,849.7,415.4,834,424.7z
			 M883.6,424.2c16,3.9,29.2,13.7,37.6,27.4c7.1,11.5,9.8,24.7,8.4,37.9c-2.1,18.9-12.6,35.6-28.9,45.5c-28.8,17.4-66,8-83.4-20.5
			c-6.8-11.5-9.8-24.7-8.4-37.9c2.1-18.9,12.6-35.6,28.9-45.5C851.6,422.8,868,420.1,883.6,424.2z"/>
		<path class="st15" d="M1103.7,220.1l-3.7-1.9l3-43.6l-25.3-6.1l-16.9,39.9l-4.2,0.1c-9.9,0.1-19.9,1.7-29.5,4.5l-4,1.3l-28.6-33
			l-22.4,13.4l16.2,40.3l-3,3c-7,7-13,15.3-17.6,24l-1.9,3.7l-43.6-3L916,288l39.9,16.9l0.1,4.5c0.1,10.2,1.4,20.2,4.5,29.7l1.3,4
			l-32.7,28.6l13.4,22.4l40-16.2l3,3c7.3,7.1,15.3,13,24,17.9l4,1.9l-3.2,42.9l25.3,6.4l17.5-39.3l4.2-0.1
			c10.2-0.1,20.2-1.7,29.7-4.5l4-1.3l28,32.6l22.4-13.4l-15.9-40l3-3c7.1-7.3,13-15.3,17.9-24.3l1.9-4l42.9,3.2l6.4-25.3l-39.6-17.5
			l-0.1-4.2c-0.1-10.2-1.7-20.2-4.5-29.7l-1.3-4l32.9-28l-13.4-22.4l-40.5,15.5l-3-3C1120.8,230.6,1112.5,224.9,1103.7,220.1z
			 M1168.1,234.3l7.1,11.5l-31.7,27.3l2.6,8.6c2.9,9,4.3,18.1,4.1,27.6l-0.1,8.9l38.2,16.7l-3.2,13.1l-41.5-3.1l-4.2,8.2
			c-4.2,8.2-9.8,15.9-16.5,22.4l-6.4,6.5l15.1,39l-11.5,7.1l-27-31.6l-8.6,2.6c-9,2.9-18.4,4.2-27.6,4.1l-8.9-0.1l-17,38.1
			l-13.1-3.2l3.1-41.7l-8.2-4.2c-8.2-4.2-15.6-9.8-22.4-16.5l-6.4-6.7l-38.7,15.4l-7.1-11.5l31.7-27.6l-2.6-8.6
			c-2.6-8.9-4.3-18.1-4.2-27.3l0.1-9.2l-38.5-16.5l3.2-13.1l42.1,2.8l4.2-7.9c4.2-8.2,9.8-15.6,16.5-22.4l6.4-6.5l-15.7-39l11.5-7.1
			l27.9,31.7l8.6-2.6c8.9-2.6,18.1-4.3,27.3-4.2l9.3-0.2l16.5-38.8l13.1,3.2l-2.8,42.1l8.2,4.2c8.2,4.2,15.6,9.8,22.4,16.2l6.5,6.4
			L1168.1,234.3z"/>
		<path class="st14" d="M1012.6,304.7c-1.1,9.7,1.2,19.2,6.2,27.8c12.6,20.8,39.9,27.7,60.7,15c11.8-7.1,19.4-19.4,21-33.2
			c1.1-9.7-1.2-19.2-6.2-27.8c-12.6-20.8-39.9-27.7-60.7-15C1021.8,278.8,1014.2,290.8,1012.6,304.7z M1087.9,290.6
			c4.3,7,6.1,15,5.2,23c-1.3,11.5-7.7,21.5-17.7,27.6c-17.3,10.6-39.9,4.9-50.6-12.4c-4.3-7-6.1-15-5.2-23
			c1.3-11.5,7.7-21.5,17.7-27.6C1054.9,267.5,1077.6,273,1087.9,290.6z"/>
		<path class="st14" d="M988.7,302c-1.7,15,1.5,29.7,9.3,42.5c19.5,32,61.3,42.6,93.6,23.1c18.2-11.1,30.1-29.5,32.5-50.8l0,0
			c1.7-15-1.5-29.7-9.3-42.5c-9.3-15.7-24.2-26.6-42-30.9s-35.9-1.6-51.6,7.8C1003,262.4,991.1,280.8,988.7,302z M1071.1,250.5
			c15.7,3.8,28.9,13.6,37.3,27.4c7.1,11.5,9.8,24.7,8.4,37.9c-2.1,18.9-12.6,35.6-28.9,45.5c-28.8,17.4-66,8-83.4-20.5
			c-6.8-11.5-9.8-24.7-8.4-37.9c2.1-18.9,12.6-35.6,28.9-45.5C1039,249.4,1055.1,246.7,1071.1,250.5z"/>
	</g>
	<g class="st16">
		<g>
			<path class="st17" d="M1285.7,187.9c-1.7,0.9-2.3,2.9-1.4,4.6c0.9,1.7,2.9,2.3,4.6,1.4c7.8-4.2,16.4,1.2,25.4,7.4
				c0.1,11-0.2,21.1-8,25.2c-1.7,0.9-2.3,2.9-1.4,4.6c0.9,1.7,2.9,2.3,4.6,1.4c9.9-5.3,11.4-16,11.6-26.6
				c8.9,5.8,18.7,10.5,28.6,5.2c9.9-5.3,11.4-16,11.6-26.6c8.9,5.8,18.7,10.5,28.6,5.2c9.9-5.3,11.4-16,11.6-26.6
				c8.9,5.8,18.7,10.5,28.6,5.2c1.7-0.9,2.3-2.9,1.4-4.6c-0.9-1.7-2.9-2.3-4.6-1.4c-7.8,4.2-16.4-1.2-25.4-7.4
				c-0.1-11,0.2-21.1,8-25.2c1.7-0.9,2.3-2.9,1.4-4.6c-0.9-1.7-2.9-2.3-4.6-1.4c-9.9,5.3-11.4,16-11.6,26.6
				c-8.9-5.8-18.7-10.5-28.6-5.2c-9.9,5.3-11.4,16-11.6,26.6c-8.9-5.8-18.7-10.5-28.6-5.2c-4.4,2.3-7.6,6.1-9.4,11.1
				c-0.3,0.9-0.2,1.9,0.2,2.8c0.4,0.7,1,1.3,1.8,1.6c1.8,0.6,3.7-0.3,4.4-2c1.3-3.5,3.2-5.8,6.2-7.4c7.8-4.2,16.4,1.2,25.4,7.4
				c0.1,11-0.2,21.1-8,25.2s-16.4-1.2-25.4-7.4c0-2.7,0-5.4,0.1-7.9c0.1-1.9-1.3-3.5-3.2-3.6c-1.9-0.1-3.5,1.3-3.6,3.2
				c-0.1,1.2-0.1,2.5-0.1,3.7C1305.3,187.3,1295.6,182.6,1285.7,187.9z M1369.3,151.1c7.8-4.2,16.4,1.2,25.4,7.4
				c0.1,11-0.2,21.1-8,25.2c-7.8,4.2-16.4-1.2-25.4-7.4C1361.2,165.4,1361.5,155.3,1369.3,151.1z"/>
			<path class="st17" d="M1417,156.2c1,1.8,3.3,2.4,5,1.1c1.4-1,1.7-2.9,0.9-4.4l-7.8-14.7c-0.8-1.5-2.6-2.3-4.2-1.7
				c-2,0.7-2.8,3-1.9,4.8L1417,156.2z"/>
			<path class="st17" d="M1296.8,201.1c-1-1.8-3.3-2.4-5-1.1c-1.4,1-1.7,2.9-0.9,4.4l7.8,14.7c0.8,1.5,2.6,2.3,4.2,1.7
				c2-0.7,2.8-3,1.9-4.8L1296.8,201.1z"/>
			<path class="st17" d="M1375.4,159.3l7.9,14.8c0.8,1.5,2.6,2.3,4.2,1.7c2-0.7,2.8-3,1.9-4.8l-7.9-14.8c-0.8-1.5-2.6-2.3-4.2-1.7
				C1375.3,155.2,1374.4,157.5,1375.4,159.3z"/>
			<path class="st17" d="M1373.7,179.3c1,1.8,3.3,2.4,5,1.1c1.4-1,1.7-2.9,0.9-4.4l-7.8-14.7c-0.8-1.5-2.6-2.3-4.2-1.7
				c-2,0.7-2.8,3-1.9,4.8L1373.7,179.3z"/>
			<path class="st17" d="M1336.4,180l7.9,14.8c0.8,1.5,2.6,2.3,4.2,1.7c2-0.7,2.8-3,1.9-4.8l-7.9-14.8c-0.8-1.5-2.6-2.3-4.2-1.7
				C1336.3,175.9,1335.5,178.2,1336.4,180z"/>
			<path class="st17" d="M1326.8,185.1l7.9,14.8c0.8,1.5,2.6,2.3,4.2,1.7c2-0.7,2.8-3,1.9-4.8l-7.9-14.8c-0.8-1.5-2.6-2.3-4.2-1.7
				C1326.6,181.1,1325.8,183.3,1326.8,185.1z"/>
		</g>
	</g>
	<g>
		<g id="People_1_">
			<g id="Icon-23_1_">
				<path id="chemistry-tubes_1_" class="st18" d="M1846.7,399.8c0-1.4-1.2-2.6-2.6-2.6h0c-1.4,0-2.6,1.2-2.6,2.6
					c0,1.4,1.2,2.6,2.6,2.6C1845.5,402.4,1846.7,401.2,1846.7,399.8L1846.7,399.8z M1787.1,402.4c-1.4,0-2.6,1.2-2.6,2.6
					s1.2,2.6,2.6,2.6c1.4,0,2.6-1.2,2.6-2.6S1788.5,402.4,1787.1,402.4L1787.1,402.4z M1800,389.4c0-1.4-1.2-2.6-2.6-2.6h0
					c-1.4,0-2.6,1.2-2.6,2.6s1.2,2.6,2.6,2.6C1798.9,392,1800,390.8,1800,389.4L1800,389.4z M1846.6,346.5c0,2.9,2.3,5.2,5.2,5.2
					c2.9,0,5.2-2.3,5.2-5.2s-2.3-5.2-5.2-5.2C1849,341.3,1846.6,343.6,1846.6,346.5L1846.6,346.5z M1742.9,351.7
					c0,2.9,2.3,5.2,5.2,5.2s5.2-2.3,5.2-5.2c0-2.9-2.3-5.2-5.2-5.2S1742.9,348.8,1742.9,351.7L1742.9,351.7z M1737.7,307.6
					c0,1.4,1.2,2.6,2.6,2.6c1.4,0,2.6-1.2,2.6-2.6c0-1.4-1.2-2.6-2.6-2.6C1738.9,305,1737.7,306.2,1737.7,307.6L1737.7,307.6z
					 M1732.6,307.6c0-4.3,3.5-7.8,7.8-7.8c4.3,0,7.8,3.5,7.8,7.8c0,4.3-3.5,7.8-7.8,7.8C1736,315.4,1732.6,311.9,1732.6,307.6
					L1732.6,307.6z M1794.8,299.8c0,2.9,2.3,5.2,5.2,5.2c2.9,0,5.2-2.3,5.2-5.2s-2.3-5.2-5.2-5.2
					C1797.1,294.6,1794.8,297,1794.8,299.8L1794.8,299.8z M1789.6,299.8c0-5.7,4.7-10.4,10.4-10.4c5.7,0,10.4,4.7,10.4,10.4
					s-4.7,10.4-10.4,10.4C1794.2,310.2,1789.6,305.5,1789.6,299.8L1789.6,299.8z M1750.7,419.1c-1.4,0-2.6,1.2-2.6,2.6
					c0,2.9-2.3,5.2-5.2,5.2c-1.4,0-2.6,1.2-2.6,2.6s1.2,2.6,2.6,2.6c5.7,0,10.4-4.7,10.4-10.4
					C1753.3,420.2,1752.1,419.1,1750.7,419.1L1750.7,419.1z M1846.6,432c5.7,0,10.4-4.7,10.4-10.4c0-1.4-1.2-2.6-2.6-2.6
					c-1.4,0-2.6,1.2-2.6,2.6c0,2.9-2.3,5.2-5.2,5.2c-1.4,0-2.6,1.2-2.6,2.6S1845.2,432,1846.6,432L1846.6,432z M1792.2,429.4
					c0,1.4,1.2,2.6,2.6,2.6c5.7,0,10.4-4.7,10.4-10.4c0-1.4-1.2-2.6-2.6-2.6c-1.4,0-2.6,1.2-2.6,2.6c0,2.9-2.3,5.2-5.2,5.2
					C1793.3,426.9,1792.2,428,1792.2,429.4L1792.2,429.4z M1872.6,327.2c0,1.4-1.2,2.6-2.6,2.6h-38.9v51.9h23.3
					c1.4,0,2.6,1.2,2.6,2.6c0,1.4-1.2,2.6-2.6,2.6h-23.3v35.8c0,7.4,4.9,14.1,12.1,15.7c10.1,2.2,19-5.5,19-15.2v-84.4
					c0-1.4,1.2-2.6,2.6-2.6c1.4,0,2.6,1.2,2.6,2.6v84.9c0,10.4-7.3,19.7-17.6,21.2c-12.8,1.9-23.9-8-23.9-20.5v-94.5h-46.7v31.1
					h23.3c1.4,0,2.6,1.2,2.6,2.6c0,1.4-1.2,2.6-2.6,2.6h-23.3v56.6c0,7.4,4.9,14.1,12.1,15.7c10.1,2.2,19-5.5,19-15.2v-84.4
					c0-1.4,1.2-2.6,2.6-2.6c1.4,0,2.6,1.2,2.6,2.6v84.9c0,10.4-7.3,19.7-17.6,21.2c-12.8,1.9-23.9-8-23.9-20.5v-94.5h-46.7v41.5
					h23.3c1.4,0,2.6,1.2,2.6,2.6s-1.2,2.6-2.6,2.6h-23.3v46.2c0,7.4,4.9,14.1,12.1,15.7c10.1,2.2,19-5.5,19-15.2v-84.4
					c0-1.4,1.2-2.6,2.6-2.6c1.4,0,2.6,1.2,2.6,2.6v84.9c0,10.4-7.3,19.7-17.6,21.2c-12.8,1.9-23.9-8-23.9-20.5v-94.5h-2.6
					c-1.4,0-2.6-1.2-2.6-2.6c0-1.4,1.2-2.6,2.6-2.6h2.6v-13c0-1.4,1.2-2.6,2.6-2.6c1.4,0,2.6,1.2,2.6,2.6v13h31.1v-13
					c0-1.4,1.2-2.6,2.6-2.6c1.4,0,2.6,1.2,2.6,2.6v13h10.4v-13c0-1.4,1.2-2.6,2.6-2.6c1.4,0,2.6,1.2,2.6,2.6v13h31.1v-13
					c0-1.4,1.2-2.6,2.6-2.6c1.4,0,2.6,1.2,2.6,2.6v13h10.4v-13c0-1.4,1.2-2.6,2.6-2.6c1.4,0,2.6,1.2,2.6,2.6v13h31.1v-13
					c0-1.4,1.2-2.6,2.6-2.6c1.4,0,2.6,1.2,2.6,2.6v13h2.6C1871.4,324.6,1872.6,325.7,1872.6,327.2L1872.6,327.2z"/>
			</g>
		</g>
	</g>
	<g class="st19">
		<path class="st20" d="M1189.9,282.4l42.6-42.6l0,0l75.7,75.7c11.8,11.8,11.8,30.8,0,42.6l0,0c-11.8,11.8-30.8,11.8-42.6,0
			C1265.6,358.1,1189.9,282.4,1189.9,282.4z"/>
		<path class="st20" d="M1173.3,270.6l47.3-47.3c3.9-3.9,10.3-3.9,14.2,0l0,0c3.9,3.9,3.9,10.3,0,14.2l-47.3,47.3
			c-3.9,3.9-10.3,3.9-14.2,0l0,0C1169.4,280.9,1169.4,274.5,1173.3,270.6z"/>
		<line class="st20" x1="1201.7" y1="294.2" x2="1218.2" y2="277.7"/>
		<line class="st20" x1="1211.1" y1="303.7" x2="1218.2" y2="296.6"/>
		<line class="st20" x1="1220.6" y1="313.2" x2="1227.7" y2="306.1"/>
		<line class="st20" x1="1230.1" y1="322.7" x2="1237.2" y2="315.6"/>
		<line class="st20" x1="1249" y1="341.6" x2="1256.1" y2="334.5"/>
		<line class="st20" x1="1258.4" y1="351" x2="1265.6" y2="343.9"/>
		<line class="st20" x1="1239.5" y1="332.1" x2="1256.1" y2="315.6"/>
	</g>
	<g>
		<path class="st15" d="M768.4,247.7c-0.1-0.8-0.5-1.5-1.2-2l-29.5-20.8c-1.1-0.8-2.6-0.6-3.5,0.3l-2.9,2.9l-4.5-4.5l19.3-19.3
			c0,0,0,0,0,0c2.2-2.2,3.5-5.2,3.5-8.4c0-3.2-1.2-6.1-3.5-8.4c-4.6-4.6-12.1-4.6-16.7,0c0,0,0,0,0,0l-19.3,19.3l-4.5-4.5l2.9-2.9
			c0.9-0.9,1.1-2.4,0.3-3.5l-20.8-29.5c-0.5-0.7-1.2-1.1-2-1.2c-0.8-0.1-1.6,0.2-2.2,0.8l-18.3,18.3c-0.6,0.6-0.9,1.4-0.8,2.2
			c0.1,0.8,0.5,1.5,1.2,2l29.4,20.8c0.5,0.3,1,0.5,1.6,0.5c0.7,0,1.4-0.3,1.9-0.8l2.9-2.9l4.5,4.5l-7.7,7.7c0,0,0,0,0,0c0,0,0,0,0,0
			L689,228c0,0,0,0,0,0c-4.6,4.6-4.6,12.1,0,16.7c2.3,2.3,5.3,3.5,8.4,3.5c3,0,6.1-1.2,8.4-3.5c0,0,0,0,0,0l17.3-17.3l4.5,4.5
			l-2.9,2.9c-0.9,0.9-1.1,2.4-0.3,3.5l20.8,29.5c0.5,0.7,1.2,1.1,2,1.2c0.1,0,0.2,0,0.2,0c0.7,0,1.4-0.3,1.9-0.8l18.3-18.3
			C768.2,249.3,768.5,248.5,768.4,247.7z M671.8,186l13.7-13.7l5.4,7.6l-11.5,11.5L671.8,186z M696.6,203.6l-12.7-9l10.1-10.1
			l9,12.7L696.6,203.6z M733.3,191.5C733.3,191.5,733.3,191.4,733.3,191.5c2.5-2.5,6.5-2.5,9,0c1.2,1.2,1.9,2.8,1.9,4.5
			c0,1.7-0.7,3.3-1.9,4.5l-9.6,9.6l-9-9L733.3,191.5z M701.8,240.9C701.8,240.9,701.8,240.9,701.8,240.9c-2.5,2.5-6.5,2.5-9,0
			c-2.5-2.5-2.5-6.5,0-9c0,0,0,0,0,0l7.6-7.6l9,9L701.8,240.9z M713.3,229.4l-9-9l15.5-15.5l9,9L713.3,229.4z M730.2,237.1l6.4-6.4
			l12.7,9l-10.1,10.1L730.2,237.1z M747.7,262l-5.4-7.6l11.5-11.5l7.6,5.4L747.7,262z"/>
	</g>
	<g>
		<g>
			<g>
				<g>
					<g>
						<path class="st21" d="M437.7,485.8c0.5-1.1,0.7-2.4,0.7-3.6c0-5.4-4.4-9.8-9.8-9.8s-9.8,4.4-9.8,9.8c0,5.4,4.4,9.8,9.8,9.8
							c1.7,0,3.2-0.4,4.6-1.2c10.2,10.1,16,23.8,16,38.3c0,29.7-24.1,53.8-53.8,53.8s-53.8-24.1-53.8-53.8c0-11.2,3.5-22.2,10-31.2
							c1,0.4,2.1,0.6,3.3,0.6c5.4,0,9.8-4.4,9.8-9.8s-4.4-9.8-9.8-9.8c-5.4,0-9.8,4.4-9.8,9.8c0,1.8,0.5,3.5,1.3,4.9
							c-7.5,10.3-11.6,22.8-11.6,35.6c0,33.4,27.2,60.6,60.6,60.6c33.4,0,60.6-27.2,60.6-60.6C456,512.6,449.4,497.1,437.7,485.8z
							 M425.5,482.1c0-1.7,1.4-3.1,3.1-3.1c1.7,0,3.1,1.4,3.1,3.1c0,1.7-1.4,3.1-3.1,3.1C426.9,485.2,425.5,483.8,425.5,482.1z
							 M354.9,485.5c1.7,0,3.1,1.4,3.1,3.1c0,1.7-1.4,3.1-3.1,3.1c-1.7,0-3.1-1.4-3.1-3.1C351.9,486.9,353.2,485.5,354.9,485.5z"/>
						<path class="st21" d="M363.8,512.4c0,2.8,1.2,5.4,3.1,7.2c-1,3.1-1.5,6.2-1.5,9.5c0,16.6,13.5,30.1,30.1,30.1
							c16.6,0,30.1-13.5,30.1-30.1c0-4.6-1.1-9.1-3-13.1c1.2-1.6,1.8-3.6,1.8-5.7c0-5.4-4.4-9.8-9.8-9.8c-5.4,0-9.8,4.4-9.8,9.8
							c0,5.4,4.4,9.8,9.8,9.8c0.8,0,1.6-0.1,2.3-0.3c1.3,2.9,1.9,6.1,1.9,9.3c0,12.9-10.5,23.3-23.3,23.3
							c-12.9,0-23.3-10.5-23.3-23.3c0-2.4,0.4-4.7,1.1-6.9c0.2,0,0.3,0,0.5,0c5.4,0,9.8-4.4,9.8-9.8c0-5.4-4.4-9.8-9.8-9.8
							C368.2,502.5,363.8,506.9,363.8,512.4z M411.4,510.2c0-1.7,1.4-3.1,3.1-3.1c1.7,0,3.1,1.4,3.1,3.1c0,1.7-1.4,3.1-3.1,3.1
							C412.8,513.3,411.4,511.9,411.4,510.2z M376.7,512.4c0,1.7-1.4,3.1-3.1,3.1c-1.7,0-3.1-1.4-3.1-3.1c0-1.7,1.4-3.1,3.1-3.1
							C375.3,509.3,376.7,510.7,376.7,512.4z"/>
						<path class="st21" d="M364.8,540.3c0-5.4-4.4-9.8-9.8-9.8c-5.4,0-9.8,4.4-9.8,9.8s4.4,9.8,9.8,9.8c0.2,0,0.5,0,0.7,0
							c7.8,14.7,23,24,39.8,24c24.8,0,45-20.2,45-45c0-12-4.7-23.3-13.2-31.8c-7.8-7.8-17.9-12.3-28.8-13.1
							c-1.1-4.3-4.9-7.4-9.5-7.4c-5.4,0-9.8,4.4-9.8,9.8c0,5.4,4.4,9.8,9.8,9.8c3.9,0,7.2-2.3,8.8-5.5c9.3,0.6,18,4.5,24.7,11.1
							c7.2,7.2,11.2,16.8,11.2,27c0,21.1-17.1,38.2-38.2,38.2c-14.1,0-26.9-7.7-33.6-20C363.7,545.5,364.8,543,364.8,540.3z
							 M389,489.7c-1.7,0-3.1-1.4-3.1-3.1c0-1.7,1.4-3.1,3.1-3.1c1.7,0,3.1,1.4,3.1,3.1C392,488.3,390.7,489.7,389,489.7z
							 M351.9,540.3c0-1.7,1.4-3.1,3.1-3.1c1.7,0,3.1,1.4,3.1,3.1s-1.4,3.1-3.1,3.1C353.2,543.4,351.9,542,351.9,540.3z"/>
					</g>
				</g>
			</g>
		</g>
	</g>
</g>
</svg>
