<?xml version="1.0" encoding="utf-8"?>
<!-- Generator: Adobe Illustrator 21.1.0, SVG Export Plug-In . SVG Version: 6.00 Build 0)  -->
<svg version="1.1" id="Livello_1" xmlns="http://www.w3.org/2000/svg" xmlns:xlink="http://www.w3.org/1999/xlink" x="0px" y="0px"
	 viewBox="0 0 340 273" style="enable-background:new 0 0 340 273;" xml:space="preserve">
<style type="text/css">
	.st0{fill:#70888C;}
	.st1{fill:#071443;}
	.st2{fill:#FF613F;}
	.st3{fill:#061246;}
</style>
<g>
	<path class="st0" d="M76.8,126.9H62.8c-3.1,0-5.7-2.6-5.7-5.7V47.4c0-3.1,2.6-5.7,5.7-5.7h13.9c3.1,0,5.7,2.6,5.7,5.7v73.7
		C82.5,124.3,79.9,126.9,76.8,126.9z"/>
	<path class="st0" d="M169.5,76.4c-0.6-19.8-16.9-35.6-36.8-35.6S96.5,56.6,95.9,76.4c0,0.2,0,0.3,0,0.5v0.7v44.7
		c0,2.5,2.1,4.6,4.6,4.6h16.2c2.5,0,4.6-2.1,4.6-4.6v-9.7V77.8c0-6.2,5.1-11.2,11.5-11.2c6.3,0,11.5,5,11.5,11.2v34.8v9.7
		c0,2.5,2.1,4.6,4.6,4.6H165c2.5,0,4.6-2.1,4.6-4.6V77.6v-0.7C169.5,76.7,169.5,76.6,169.5,76.4z"/>
	<path class="st1" d="M286.2,145.5h-62.6c-2.9,0-5.3,2.4-5.3,5.3v14.8c0,2.9,2.4,5.3,5.3,5.3h18.6v56c0,3.1,2.6,5.7,5.7,5.7h13.9
		c3.1,0,5.7-2.6,5.7-5.7v-56h18.6c2.9,0,5.3-2.4,5.3-5.3v-14.8C291.5,147.9,289.1,145.5,286.2,145.5z"/>
	<g>
		<path class="st2" d="M290.2,126.8h-18.2c-0.9,0-1.7,0-2.4-0.1c-0.7-0.1-1.4-0.3-2-0.5c-0.6-0.2-1.2-0.6-1.7-1
			c-0.6-0.4-1.1-1-1.8-1.7l-3.7-3.9c-3.8,2.6-7.9,4.6-12.3,6.1c-4.4,1.4-9.2,2.1-14.2,2.1c-3.4,0-6.8-0.6-10.1-1.8
			c-3.3-1.2-6.2-2.9-8.8-5.1c-2.6-2.2-4.6-4.9-6.2-8c-1.6-3.1-2.4-6.6-2.4-10.5c0-2.6,0.4-5.1,1.2-7.4c0.8-2.3,2-4.5,3.4-6.5
			c1.5-2,3.2-3.8,5.2-5.5c2-1.6,4.3-3.1,6.7-4.3c-1.9-2.9-3.3-5.7-4.1-8.5c-0.8-2.8-1.2-5.5-1.2-8.1c0-3.1,0.6-6,1.7-8.7
			c1.1-2.7,2.8-5.2,4.9-7.2c2.2-2.1,4.8-3.7,7.9-5c3.1-1.2,6.8-1.8,10.8-1.8c3.8,0,7.2,0.6,10.1,1.7c2.9,1.1,5.4,2.6,7.4,4.4
			c2,1.8,3.6,4,4.7,6.4c1.1,2.4,1.9,4.9,2.1,7.4l-11.9,2.4c-2.1,0.5-3.6-0.4-4.6-2.5c-0.9-2.1-2-3.6-3.2-4.7
			c-1.2-1.1-2.8-1.6-4.8-1.6c-1.4,0-2.6,0.3-3.6,0.8c-1,0.5-1.9,1.2-2.6,2c-0.7,0.8-1.2,1.8-1.6,2.9c-0.4,1.1-0.5,2.3-0.5,3.4
			c0,1,0.1,2,0.3,2.9c0.2,0.9,0.5,1.9,0.9,2.8c0.4,1,1,2,1.7,3c0.7,1,1.7,2.2,2.8,3.4l21.4,22.5c1.1-2.3,1.9-4.8,2.6-7.4
			c0.7-2.6,1.1-5.2,1.3-8c0.1-1.1,0.5-2,1.1-2.6c0.6-0.6,1.5-0.9,2.6-0.9H281c0,5.7-0.8,11.1-2.3,16.1c-1.5,5-3.7,9.6-6.5,13.8
			L290.2,126.8z M231.1,88.5c-2.2,1.8-3.7,3.8-4.6,5.8c-0.9,2.1-1.4,4.3-1.4,6.6c0,1.9,0.3,3.6,0.9,5.2c0.6,1.5,1.4,2.9,2.5,4
			c1.1,1.1,2.3,2,3.8,2.6c1.5,0.6,3.1,0.9,5,0.9c2.6,0,5.1-0.3,7.4-1c2.3-0.7,4.4-1.7,6.4-2.9L231.1,88.5z"/>
	</g>
	<path class="st3" d="M134.6,197.9c0.6,19.8,16.9,35.6,36.8,35.6s36.2-15.8,36.8-35.6c0-0.2,0-0.3,0-0.5v-0.7V152
		c0-2.5-2.1-4.6-4.6-4.6h-16.2c-2.5,0-4.6,2.1-4.6,4.6v9.7v34.8c0,6.2-5.1,11.2-11.5,11.2c-6.3,0-11.5-5-11.5-11.2v-34.8V152
		c0-2.5-2.1-4.6-4.6-4.6h-16.2c-2.5,0-4.6,2.1-4.6,4.6v44.7v0.7C134.6,197.6,134.6,197.7,134.6,197.9z"/>
	<g>
		<path class="st3" d="M122.1,183.1c-0.5-15.5-10.6-28.6-24.6-33.5c-3.8-1.3-7.9-2.1-12.2-2.1c-4.3,0-8.4,0.7-12.2,2.1
			c-14,4.9-24.1,18-24.6,33.5c0,0.2,0,0.3,0,0.5v0.7v12.4v0.7c0,0.2,0,0.3,0,0.5c0.5,15.5,10.6,28.6,24.6,33.5
			c3.8,1.3,7.9,2.1,12.2,2.1c4.3,0,8.4-0.7,12.2-2.1c14-4.9,24.1-18,24.6-33.5c0-0.2,0-0.3,0-0.5v-0.7v-12.4v-0.7
			C122.2,183.4,122.2,183.2,122.1,183.1z M85.3,207.7c-6.3,0-11.5-5-11.5-11.2v-12c0-6.2,5.1-11.2,11.5-11.2c6.3,0,11.5,5,11.5,11.2
			v12C96.8,202.7,91.7,207.7,85.3,207.7z"/>
	</g>
</g>
</svg>
